G04*
G04 #@! TF.GenerationSoftware,Altium Limited,Altium Designer,22.3.1 (43)*
G04*
G04 Layer_Color=16711935*
%FSLAX25Y25*%
%MOIN*%
G70*
G04*
G04 #@! TF.SameCoordinates,7771213D-0031-41E0-B7F0-5BACD8635ED2*
G04*
G04*
G04 #@! TF.FilePolarity,Negative*
G04*
G01*
G75*
%ADD12C,0.01000*%
%ADD20C,0.00394*%
%ADD21C,0.00100*%
%ADD22C,0.00197*%
%ADD23C,0.00300*%
%ADD40R,0.06312X0.05524*%
%ADD41O,0.06312X0.05524*%
%ADD42R,0.04800X0.03800*%
%ADD43O,0.04800X0.03800*%
%ADD45C,0.05800*%
%ADD46R,0.03800X0.04800*%
%ADD47O,0.03800X0.04800*%
%ADD48O,0.04540X0.09855*%
%ADD49R,0.04540X0.09855*%
%ADD50R,0.13792X0.09855*%
%ADD54R,0.06706X0.06706*%
%ADD55C,0.06706*%
%ADD56R,0.06706X0.06706*%
%ADD57C,0.07493*%
%ADD58R,0.07493X0.07493*%
%ADD59C,0.20800*%
%ADD60R,0.07099X0.07099*%
%ADD61C,0.07099*%
%ADD62O,0.10642X0.14580*%
%ADD63C,0.09855*%
%ADD64C,0.08280*%
%ADD65R,0.07099X0.07099*%
%ADD90O,0.05918X0.06800*%
%ADD91R,0.05918X0.06800*%
%ADD92O,0.06469X0.02965*%
%ADD93R,0.06469X0.02965*%
%ADD94R,0.05800X0.05800*%
%ADD95O,0.06300X0.04800*%
%ADD96O,0.07690X0.09461*%
%ADD97R,0.07690X0.09461*%
%ADD98O,0.06800X0.10800*%
%ADD99R,0.06800X0.10800*%
D12*
X314500Y374500D02*
G03*
X300500Y389500I-14500J500D01*
G01*
X300000Y0D02*
G03*
X314500Y15000I-250J14750D01*
G01*
X0Y14500D02*
G03*
X14500Y0I14500J0D01*
G01*
X15000Y389500D02*
G03*
X0Y375500I-500J-14500D01*
G01*
X314500Y15000D02*
Y374500D01*
X14500Y0D02*
X300000D01*
X15000Y389500D02*
X300500D01*
X0Y14500D02*
Y375500D01*
D20*
X194968Y63500D02*
G03*
X194968Y63500I-984J0D01*
G01*
X81500Y66572D02*
G03*
X81500Y66572I-984J0D01*
G01*
X171205Y60610D02*
X196795D01*
X171205Y74390D02*
X196795D01*
Y60610D02*
Y74390D01*
X171205Y60610D02*
Y74390D01*
X77705Y63683D02*
X103295D01*
X77705Y77462D02*
X103295D01*
X77705Y63683D02*
Y77462D01*
X103295Y63683D02*
Y77462D01*
X22559Y248594D02*
Y260406D01*
X17441Y248594D02*
Y260406D01*
Y248594D02*
X22559D01*
X17441Y260406D02*
X22559D01*
X170500Y48602D02*
X197500D01*
X170500Y86398D02*
X197500D01*
Y48602D02*
Y86398D01*
X170500Y48602D02*
Y86398D01*
X77000Y51675D02*
X104000D01*
X77000Y89470D02*
X104000D01*
X77000Y51675D02*
Y89470D01*
X104000Y51675D02*
Y89470D01*
X27500Y248201D02*
Y260799D01*
X12500Y248201D02*
Y260799D01*
Y248201D02*
X27500D01*
X12500Y260799D02*
X27500D01*
D21*
X133167Y51500D02*
G03*
X133167Y51500I-500J0D01*
G01*
X99500D02*
G03*
X99500Y51500I-500J0D01*
G01*
X290000Y117500D02*
G03*
X290000Y117500I-500J0D01*
G01*
X206950Y83500D02*
G03*
X206950Y83500I-500J0D01*
G01*
X164050D02*
G03*
X164050Y83500I-500J0D01*
G01*
X116333Y51500D02*
G03*
X116333Y51500I-500J0D01*
G01*
X150000D02*
G03*
X150000Y51500I-500J0D01*
G01*
X295000Y305000D02*
G03*
X295000Y305000I-500J0D01*
G01*
X69000Y86000D02*
G03*
X69000Y86000I-500J0D01*
G01*
X112000D02*
G03*
X112000Y86000I-500J0D01*
G01*
X12000Y117000D02*
G03*
X12000Y117000I-500J0D01*
G01*
X132667Y50713D02*
Y52287D01*
X131879Y51500D02*
X133454D01*
X99000Y50713D02*
Y52287D01*
X98213Y51500D02*
X99787D01*
X288713Y117500D02*
X290287D01*
X289500Y116713D02*
Y118287D01*
X206450Y82713D02*
Y84287D01*
X205663Y83500D02*
X207237D01*
X163550Y82713D02*
Y84287D01*
X162763Y83500D02*
X164337D01*
X115046Y51500D02*
X116621D01*
X115833Y50713D02*
Y52287D01*
X148713Y51500D02*
X150287D01*
X149500Y50713D02*
Y52287D01*
X293713Y305000D02*
X295287D01*
X294500Y304213D02*
Y305787D01*
X68500Y85213D02*
Y86787D01*
X67713Y86000D02*
X69287D01*
X111500Y85213D02*
Y86787D01*
X110713Y86000D02*
X112287D01*
X10713Y117000D02*
X12287D01*
X11500Y116213D02*
Y117787D01*
D22*
X185378Y67500D02*
G03*
X185378Y67500I-1378J0D01*
G01*
X91878Y70572D02*
G03*
X91878Y70572I-1378J0D01*
G01*
X21378Y254500D02*
G03*
X21378Y254500I-1378J0D01*
G01*
X272878Y82500D02*
G03*
X272878Y82500I-1378J0D01*
G01*
X260878D02*
G03*
X260878Y82500I-1378J0D01*
G01*
X248878D02*
G03*
X248878Y82500I-1378J0D01*
G01*
X231378Y26000D02*
G03*
X231378Y26000I-1378J0D01*
G01*
X162172Y60500D02*
G03*
X162172Y60500I-1378J0D01*
G01*
X210584Y59500D02*
G03*
X210584Y59500I-1378J0D01*
G01*
X176378Y60000D02*
G03*
X176378Y60000I-1378J0D01*
G01*
X226378D02*
G03*
X226378Y60000I-1378J0D01*
G01*
X80378Y43000D02*
G03*
X80378Y43000I-1378J0D01*
G01*
X69378Y62966D02*
G03*
X69378Y62966I-1378J0D01*
G01*
X111878D02*
G03*
X111878Y62966I-1378J0D01*
G01*
X288901Y25500D02*
G03*
X288901Y25500I-1378J0D01*
G01*
X30878Y34157D02*
G03*
X30878Y34157I-1378J0D01*
G01*
X236378Y60000D02*
G03*
X236378Y60000I-1378J0D01*
G01*
X200378D02*
G03*
X200378Y60000I-1378J0D01*
G01*
X127878D02*
G03*
X127878Y60000I-1378J0D01*
G01*
X151878D02*
G03*
X151878Y60000I-1378J0D01*
G01*
X184000Y65532D02*
Y69469D01*
X182032Y67500D02*
X185969D01*
X90500Y68604D02*
Y72541D01*
X88532Y70572D02*
X92469D01*
X20000Y252532D02*
Y256469D01*
X18031Y254500D02*
X21968D01*
X269531Y82500D02*
X273468D01*
X271500Y80532D02*
Y84469D01*
X257532Y82500D02*
X261469D01*
X259500Y80532D02*
Y84469D01*
X247500Y80532D02*
Y84469D01*
X245532Y82500D02*
X249469D01*
X228032Y26000D02*
X231969D01*
X230000Y24032D02*
Y27969D01*
X160794Y58532D02*
Y62469D01*
X158825Y60500D02*
X162762D01*
X209206Y57532D02*
Y61469D01*
X207238Y59500D02*
X211175D01*
X175000Y58032D02*
Y61969D01*
X173032Y60000D02*
X176969D01*
X225000Y58032D02*
Y61969D01*
X223032Y60000D02*
X226969D01*
X79000Y41032D02*
Y44969D01*
X77032Y43000D02*
X80969D01*
X68000Y60998D02*
Y64935D01*
X66032Y62966D02*
X69969D01*
X110500Y60998D02*
Y64935D01*
X108532Y62966D02*
X112469D01*
X285555Y25500D02*
X289492D01*
X287523Y23532D02*
Y27469D01*
X29500Y32189D02*
Y36126D01*
X27532Y34157D02*
X31469D01*
X235000Y58032D02*
Y61969D01*
X233032Y60000D02*
X236969D01*
X199000Y58032D02*
Y61969D01*
X197032Y60000D02*
X200969D01*
X126500Y58032D02*
Y61969D01*
X124532Y60000D02*
X128469D01*
X150500Y58032D02*
Y61969D01*
X148532Y60000D02*
X152469D01*
D23*
X15500Y49500D02*
Y51500D01*
X14500Y50500D02*
X16500D01*
D40*
X209206Y66193D02*
D03*
X160794Y67193D02*
D03*
D41*
X209206Y52807D02*
D03*
X160794Y53807D02*
D03*
D42*
X159900Y83500D02*
D03*
X202800D02*
D03*
D43*
X167200D02*
D03*
X210100D02*
D03*
D45*
X292500Y130000D02*
D03*
X292490Y119500D02*
D03*
X299062Y190323D02*
D03*
X215000Y77500D02*
D03*
X231500Y347000D02*
D03*
X159564Y368162D02*
D03*
X103500Y347000D02*
D03*
X8000Y305000D02*
D03*
X49999Y218717D02*
D03*
X110047Y107392D02*
D03*
X299062Y329000D02*
D03*
X237500Y204785D02*
D03*
X134160D02*
D03*
X237500Y290000D02*
D03*
X49999Y305000D02*
D03*
X88000Y111000D02*
D03*
X237500Y260556D02*
D03*
X134160Y218717D02*
D03*
X106500Y47500D02*
D03*
X278500Y57000D02*
D03*
X147500Y249000D02*
D03*
X173500Y257000D02*
D03*
X155500Y256500D02*
D03*
X182500D02*
D03*
X182000Y232500D02*
D03*
X173651Y232105D02*
D03*
X162500Y232510D02*
D03*
X99500Y66000D02*
D03*
D46*
X149500Y55150D02*
D03*
X132667D02*
D03*
X115833D02*
D03*
X99000D02*
D03*
D47*
X132667Y47850D02*
D03*
X115833D02*
D03*
X99000D02*
D03*
X149500D02*
D03*
D48*
X193055Y54000D02*
D03*
D49*
X184000D02*
D03*
X174945D02*
D03*
D50*
X184000Y81000D02*
D03*
D54*
X301000Y144000D02*
D03*
X69000Y187500D02*
D03*
Y245500D02*
D03*
D55*
X301000Y154000D02*
D03*
Y164000D02*
D03*
Y174000D02*
D03*
X9161Y164500D02*
D03*
X69000Y127500D02*
D03*
Y137500D02*
D03*
Y147500D02*
D03*
Y157500D02*
D03*
Y167500D02*
D03*
Y177500D02*
D03*
Y197500D02*
D03*
X271000Y161000D02*
D03*
Y151000D02*
D03*
X281000Y161000D02*
D03*
Y151000D02*
D03*
X271000Y171000D02*
D03*
X281000D02*
D03*
X271000Y181000D02*
D03*
X281000D02*
D03*
X271000Y191000D02*
D03*
X281000D02*
D03*
X271000Y201000D02*
D03*
X281000D02*
D03*
X271000Y211000D02*
D03*
X281000D02*
D03*
X271000Y221000D02*
D03*
X281000D02*
D03*
X271000Y231000D02*
D03*
X281000D02*
D03*
X271000Y241000D02*
D03*
X281000D02*
D03*
X271000Y251000D02*
D03*
X281000D02*
D03*
X271000Y261000D02*
D03*
X281000D02*
D03*
X271000Y271000D02*
D03*
X281000D02*
D03*
X271000Y281000D02*
D03*
X281000D02*
D03*
X271000Y291000D02*
D03*
X281000D02*
D03*
X261000Y151000D02*
D03*
Y161000D02*
D03*
X251000Y151000D02*
D03*
Y161000D02*
D03*
X241000Y151000D02*
D03*
Y161000D02*
D03*
X231000Y151000D02*
D03*
Y161000D02*
D03*
X221000Y151000D02*
D03*
Y161000D02*
D03*
X211000Y151000D02*
D03*
Y161000D02*
D03*
X201000Y151000D02*
D03*
Y161000D02*
D03*
X191000Y151000D02*
D03*
Y161000D02*
D03*
X181000Y151000D02*
D03*
Y161000D02*
D03*
X171000Y151000D02*
D03*
Y161000D02*
D03*
X251000Y301000D02*
D03*
Y311000D02*
D03*
X261000Y301000D02*
D03*
Y311000D02*
D03*
X271000D02*
D03*
X281000D02*
D03*
X161000Y151000D02*
D03*
Y161000D02*
D03*
X151000Y151000D02*
D03*
Y161000D02*
D03*
X141000Y151000D02*
D03*
Y161000D02*
D03*
X131000Y151000D02*
D03*
Y161000D02*
D03*
X121000Y151000D02*
D03*
Y161000D02*
D03*
X111000Y151000D02*
D03*
Y161000D02*
D03*
X101000Y151000D02*
D03*
Y161000D02*
D03*
X91000Y151000D02*
D03*
Y161000D02*
D03*
Y171000D02*
D03*
X101000D02*
D03*
X91000Y181000D02*
D03*
X101000D02*
D03*
X91000Y191000D02*
D03*
X101000D02*
D03*
X91000Y201000D02*
D03*
X101000D02*
D03*
Y261000D02*
D03*
X91000D02*
D03*
X101000Y271000D02*
D03*
X91000D02*
D03*
X101000Y281000D02*
D03*
X91000D02*
D03*
X101000Y291000D02*
D03*
X91000D02*
D03*
Y301000D02*
D03*
Y311000D02*
D03*
X101000Y301000D02*
D03*
Y311000D02*
D03*
X111000Y301000D02*
D03*
Y311000D02*
D03*
X121000Y301000D02*
D03*
Y311000D02*
D03*
X131000Y301000D02*
D03*
Y311000D02*
D03*
X141000Y301000D02*
D03*
Y311000D02*
D03*
X151000Y301000D02*
D03*
Y311000D02*
D03*
X161000Y301000D02*
D03*
Y311000D02*
D03*
X171000Y301000D02*
D03*
Y311000D02*
D03*
X181000Y301000D02*
D03*
Y311000D02*
D03*
X191000Y301000D02*
D03*
Y311000D02*
D03*
X201000Y301000D02*
D03*
Y311000D02*
D03*
X211000Y301000D02*
D03*
Y311000D02*
D03*
X221000Y301000D02*
D03*
Y311000D02*
D03*
X231000Y301000D02*
D03*
Y311000D02*
D03*
X241000Y301000D02*
D03*
Y311000D02*
D03*
X275000Y127500D02*
D03*
X265000D02*
D03*
X255000D02*
D03*
X69000Y255500D02*
D03*
Y265500D02*
D03*
Y275500D02*
D03*
Y285500D02*
D03*
Y295500D02*
D03*
Y305500D02*
D03*
Y315500D02*
D03*
X301000Y206000D02*
D03*
Y216000D02*
D03*
Y226000D02*
D03*
Y236000D02*
D03*
Y246000D02*
D03*
Y256000D02*
D03*
Y266000D02*
D03*
Y276000D02*
D03*
D56*
X39083Y164500D02*
D03*
X271000Y301000D02*
D03*
X281000D02*
D03*
D57*
X22500Y368000D02*
D03*
X72500D02*
D03*
X62500D02*
D03*
X42500D02*
D03*
X32500D02*
D03*
X96833D02*
D03*
X146833D02*
D03*
X136833D02*
D03*
X116833D02*
D03*
X106833D02*
D03*
X171167D02*
D03*
X221167D02*
D03*
X211167D02*
D03*
X191167D02*
D03*
X181167D02*
D03*
X245500D02*
D03*
X295500D02*
D03*
X285500D02*
D03*
X265500D02*
D03*
X255500D02*
D03*
X235000Y41000D02*
D03*
X225000D02*
D03*
D58*
X52500Y368000D02*
D03*
X126833D02*
D03*
X201167D02*
D03*
X275500D02*
D03*
X235000Y11000D02*
D03*
X225000D02*
D03*
D59*
X256470Y334646D02*
D03*
X59620D02*
D03*
X256470Y39370D02*
D03*
X59620D02*
D03*
D60*
X292500Y105500D02*
D03*
Y95500D02*
D03*
Y85500D02*
D03*
Y75500D02*
D03*
Y65500D02*
D03*
Y55500D02*
D03*
D61*
X302500Y105500D02*
D03*
Y95500D02*
D03*
Y85500D02*
D03*
Y75500D02*
D03*
Y65500D02*
D03*
Y55500D02*
D03*
X120000Y123000D02*
D03*
X130000D02*
D03*
Y133000D02*
D03*
X140000Y123000D02*
D03*
Y133000D02*
D03*
X150000D02*
D03*
Y123000D02*
D03*
X205500D02*
D03*
X215500D02*
D03*
Y133000D02*
D03*
X225500Y123000D02*
D03*
Y133000D02*
D03*
X235500D02*
D03*
Y123000D02*
D03*
D62*
X10000Y78500D02*
D03*
X28504D02*
D03*
X47008D02*
D03*
D63*
X29500Y44000D02*
D03*
Y24000D02*
D03*
D64*
X277500Y25500D02*
D03*
X297500D02*
D03*
D65*
X120000Y133000D02*
D03*
X205500D02*
D03*
D90*
X99500Y18845D02*
D03*
X161500D02*
D03*
X208500D02*
D03*
X143500D02*
D03*
Y72845D02*
D03*
X99500D02*
D03*
D91*
X161500Y30645D02*
D03*
X208500D02*
D03*
X99500D02*
D03*
X143500D02*
D03*
Y84645D02*
D03*
X99500D02*
D03*
D92*
X174847Y22961D02*
D03*
Y17921D02*
D03*
X196500D02*
D03*
X111000Y76853D02*
D03*
Y71813D02*
D03*
X132654D02*
D03*
X111000Y22853D02*
D03*
Y17813D02*
D03*
X132654D02*
D03*
D93*
X174847Y28000D02*
D03*
Y33039D02*
D03*
X196500Y22961D02*
D03*
Y28000D02*
D03*
Y33039D02*
D03*
X111000Y81892D02*
D03*
Y86932D02*
D03*
X132654Y76853D02*
D03*
Y81892D02*
D03*
Y86932D02*
D03*
X111000Y27892D02*
D03*
Y32932D02*
D03*
X132654Y22853D02*
D03*
Y27892D02*
D03*
Y32932D02*
D03*
D94*
X300730Y129980D02*
D03*
X300720Y119480D02*
D03*
D95*
X15500Y55000D02*
D03*
Y46000D02*
D03*
D96*
X79000Y33945D02*
D03*
D97*
Y52055D02*
D03*
D98*
X64900Y19700D02*
D03*
X78400D02*
D03*
X65700Y68100D02*
D03*
D99*
X79200D02*
D03*
M02*
