%TF.GenerationSoftware,Altium Limited,Altium Designer,22.3.1 (43)*%
G04 Layer_Color=2752767*
%FSLAX26Y26*%
%MOIN*%
%TF.SameCoordinates,A6686B76-6886-4B69-866F-DC8958589E3E*%
%TF.FilePolarity,Positive*%
%TF.FileFunction,Drawing*%
%TF.Part,Single*%
G01*
G75*
%TA.AperFunction,NonConductor*%
%ADD54C,0.005000*%
%ADD114C,0.006667*%
D54*
X2990000Y1420000D02*
Y1460000D01*
X3030000D01*
Y1420000D01*
X2990000D01*
Y1520000D02*
Y1560000D01*
X3030000D01*
Y1520000D01*
X2990000D01*
Y1620000D02*
Y1660000D01*
X3030000D01*
Y1620000D01*
X2990000D01*
Y1720000D02*
Y1760000D01*
X3030000D01*
Y1720000D01*
X2990000D01*
X670000Y1255000D02*
Y1295000D01*
X710000D01*
Y1255000D01*
X670000D01*
Y1355000D02*
Y1395000D01*
X710000D01*
Y1355000D01*
X670000D01*
Y1455000D02*
Y1495000D01*
X710000D01*
Y1455000D01*
X670000D01*
Y1555000D02*
Y1595000D01*
X710000D01*
Y1555000D01*
X670000D01*
Y1655000D02*
Y1695000D01*
X710000D01*
Y1655000D01*
X670000D01*
Y1755000D02*
Y1795000D01*
X710000D01*
Y1755000D01*
X670000D01*
Y1855000D02*
Y1895000D01*
X710000D01*
Y1855000D01*
X670000D01*
Y1955000D02*
Y1995000D01*
X710000D01*
Y1955000D01*
X670000D01*
X2690000Y1590000D02*
Y1630000D01*
X2730000D01*
Y1590000D01*
X2690000D01*
Y1490000D02*
Y1530000D01*
X2730000D01*
Y1490000D01*
X2690000D01*
X2790000Y1590000D02*
Y1630000D01*
X2830000D01*
Y1590000D01*
X2790000D01*
Y1490000D02*
Y1530000D01*
X2830000D01*
Y1490000D01*
X2790000D01*
X2690000Y1690000D02*
Y1730000D01*
X2730000D01*
Y1690000D01*
X2690000D01*
X2790000D02*
Y1730000D01*
X2830000D01*
Y1690000D01*
X2790000D01*
X2690000Y1790000D02*
Y1830000D01*
X2730000D01*
Y1790000D01*
X2690000D01*
X2790000D02*
Y1830000D01*
X2830000D01*
Y1790000D01*
X2790000D01*
X2690000Y1890000D02*
Y1930000D01*
X2730000D01*
Y1890000D01*
X2690000D01*
X2790000D02*
Y1930000D01*
X2830000D01*
Y1890000D01*
X2790000D01*
X2690000Y1990000D02*
Y2030000D01*
X2730000D01*
Y1990000D01*
X2690000D01*
X2790000D02*
Y2030000D01*
X2830000D01*
Y1990000D01*
X2790000D01*
X2690000Y2090000D02*
Y2130000D01*
X2730000D01*
Y2090000D01*
X2690000D01*
X2790000D02*
Y2130000D01*
X2830000D01*
Y2090000D01*
X2790000D01*
X2690000Y2190000D02*
Y2230000D01*
X2730000D01*
Y2190000D01*
X2690000D01*
X2790000D02*
Y2230000D01*
X2830000D01*
Y2190000D01*
X2790000D01*
X2690000Y2290000D02*
Y2330000D01*
X2730000D01*
Y2290000D01*
X2690000D01*
X2790000D02*
Y2330000D01*
X2830000D01*
Y2290000D01*
X2790000D01*
X2690000Y2390000D02*
Y2430000D01*
X2730000D01*
Y2390000D01*
X2690000D01*
X2790000D02*
Y2430000D01*
X2830000D01*
Y2390000D01*
X2790000D01*
X2690000Y2490000D02*
Y2530000D01*
X2730000D01*
Y2490000D01*
X2690000D01*
X2790000D02*
Y2530000D01*
X2830000D01*
Y2490000D01*
X2790000D01*
X2690000Y2590000D02*
Y2630000D01*
X2730000D01*
Y2590000D01*
X2690000D01*
X2790000D02*
Y2630000D01*
X2830000D01*
Y2590000D01*
X2790000D01*
X2690000Y2690000D02*
Y2730000D01*
X2730000D01*
Y2690000D01*
X2690000D01*
X2790000D02*
Y2730000D01*
X2830000D01*
Y2690000D01*
X2790000D01*
X2690000Y2790000D02*
Y2830000D01*
X2730000D01*
Y2790000D01*
X2690000D01*
X2790000D02*
Y2830000D01*
X2830000D01*
Y2790000D01*
X2790000D01*
X2690000Y2890000D02*
Y2930000D01*
X2730000D01*
Y2890000D01*
X2690000D01*
X2790000D02*
Y2930000D01*
X2830000D01*
Y2890000D01*
X2790000D01*
X2590000Y1490000D02*
Y1530000D01*
X2630000D01*
Y1490000D01*
X2590000D01*
Y1590000D02*
Y1630000D01*
X2630000D01*
Y1590000D01*
X2590000D01*
X2490000Y1490000D02*
Y1530000D01*
X2530000D01*
Y1490000D01*
X2490000D01*
Y1590000D02*
Y1630000D01*
X2530000D01*
Y1590000D01*
X2490000D01*
X2390000Y1490000D02*
Y1530000D01*
X2430000D01*
Y1490000D01*
X2390000D01*
Y1590000D02*
Y1630000D01*
X2430000D01*
Y1590000D01*
X2390000D01*
X2290000Y1490000D02*
Y1530000D01*
X2330000D01*
Y1490000D01*
X2290000D01*
Y1590000D02*
Y1630000D01*
X2330000D01*
Y1590000D01*
X2290000D01*
X2190000Y1490000D02*
Y1530000D01*
X2230000D01*
Y1490000D01*
X2190000D01*
Y1590000D02*
Y1630000D01*
X2230000D01*
Y1590000D01*
X2190000D01*
X2090000Y1490000D02*
Y1530000D01*
X2130000D01*
Y1490000D01*
X2090000D01*
Y1590000D02*
Y1630000D01*
X2130000D01*
Y1590000D01*
X2090000D01*
X1990000Y1490000D02*
Y1530000D01*
X2030000D01*
Y1490000D01*
X1990000D01*
Y1590000D02*
Y1630000D01*
X2030000D01*
Y1590000D01*
X1990000D01*
X1890000Y1490000D02*
Y1530000D01*
X1930000D01*
Y1490000D01*
X1890000D01*
Y1590000D02*
Y1630000D01*
X1930000D01*
Y1590000D01*
X1890000D01*
X1790000Y1490000D02*
Y1530000D01*
X1830000D01*
Y1490000D01*
X1790000D01*
Y1590000D02*
Y1630000D01*
X1830000D01*
Y1590000D01*
X1790000D01*
X1690000Y1490000D02*
Y1530000D01*
X1730000D01*
Y1490000D01*
X1690000D01*
Y1590000D02*
Y1630000D01*
X1730000D01*
Y1590000D01*
X1690000D01*
X2490000Y2990000D02*
Y3030000D01*
X2530000D01*
Y2990000D01*
X2490000D01*
Y3090000D02*
Y3130000D01*
X2530000D01*
Y3090000D01*
X2490000D01*
X2590000Y2990000D02*
Y3030000D01*
X2630000D01*
Y2990000D01*
X2590000D01*
Y3090000D02*
Y3130000D01*
X2630000D01*
Y3090000D01*
X2590000D01*
X2690000Y2990000D02*
Y3030000D01*
X2730000D01*
Y2990000D01*
X2690000D01*
X2790000D02*
Y3030000D01*
X2830000D01*
Y2990000D01*
X2790000D01*
X2690000Y3090000D02*
Y3130000D01*
X2730000D01*
Y3090000D01*
X2690000D01*
X2790000D02*
Y3130000D01*
X2830000D01*
Y3090000D01*
X2790000D01*
X1590000Y1490000D02*
Y1530000D01*
X1630000D01*
Y1490000D01*
X1590000D01*
Y1590000D02*
Y1630000D01*
X1630000D01*
Y1590000D01*
X1590000D01*
X1490000Y1490000D02*
Y1530000D01*
X1530000D01*
Y1490000D01*
X1490000D01*
Y1590000D02*
Y1630000D01*
X1530000D01*
Y1590000D01*
X1490000D01*
X1390000Y1490000D02*
Y1530000D01*
X1430000D01*
Y1490000D01*
X1390000D01*
Y1590000D02*
Y1630000D01*
X1430000D01*
Y1590000D01*
X1390000D01*
X1290000Y1490000D02*
Y1530000D01*
X1330000D01*
Y1490000D01*
X1290000D01*
Y1590000D02*
Y1630000D01*
X1330000D01*
Y1590000D01*
X1290000D01*
X1190000Y1490000D02*
Y1530000D01*
X1230000D01*
Y1490000D01*
X1190000D01*
Y1590000D02*
Y1630000D01*
X1230000D01*
Y1590000D01*
X1190000D01*
X1090000Y1490000D02*
Y1530000D01*
X1130000D01*
Y1490000D01*
X1090000D01*
Y1590000D02*
Y1630000D01*
X1130000D01*
Y1590000D01*
X1090000D01*
X990000Y1490000D02*
Y1530000D01*
X1030000D01*
Y1490000D01*
X990000D01*
Y1590000D02*
Y1630000D01*
X1030000D01*
Y1590000D01*
X990000D01*
X890000Y1490000D02*
Y1530000D01*
X930000D01*
Y1490000D01*
X890000D01*
Y1590000D02*
Y1630000D01*
X930000D01*
Y1590000D01*
X890000D01*
Y1690000D02*
Y1730000D01*
X930000D01*
Y1690000D01*
X890000D01*
X990000D02*
Y1730000D01*
X1030000D01*
Y1690000D01*
X990000D01*
X890000Y1790000D02*
Y1830000D01*
X930000D01*
Y1790000D01*
X890000D01*
X990000D02*
Y1830000D01*
X1030000D01*
Y1790000D01*
X990000D01*
X890000Y1890000D02*
Y1930000D01*
X930000D01*
Y1890000D01*
X890000D01*
X990000D02*
Y1930000D01*
X1030000D01*
Y1890000D01*
X990000D01*
X890000Y1990000D02*
Y2030000D01*
X930000D01*
Y1990000D01*
X890000D01*
X990000D02*
Y2030000D01*
X1030000D01*
Y1990000D01*
X990000D01*
Y2590000D02*
Y2630000D01*
X1030000D01*
Y2590000D01*
X990000D01*
X890000D02*
Y2630000D01*
X930000D01*
Y2590000D01*
X890000D01*
X990000Y2690000D02*
Y2730000D01*
X1030000D01*
Y2690000D01*
X990000D01*
X890000D02*
Y2730000D01*
X930000D01*
Y2690000D01*
X890000D01*
X990000Y2790000D02*
Y2830000D01*
X1030000D01*
Y2790000D01*
X990000D01*
X890000D02*
Y2830000D01*
X930000D01*
Y2790000D01*
X890000D01*
X990000Y2890000D02*
Y2930000D01*
X1030000D01*
Y2890000D01*
X990000D01*
X890000D02*
Y2930000D01*
X930000D01*
Y2890000D01*
X890000D01*
Y2990000D02*
Y3030000D01*
X930000D01*
Y2990000D01*
X890000D01*
Y3090000D02*
Y3130000D01*
X930000D01*
Y3090000D01*
X890000D01*
X990000Y2990000D02*
Y3030000D01*
X1030000D01*
Y2990000D01*
X990000D01*
Y3090000D02*
Y3130000D01*
X1030000D01*
Y3090000D01*
X990000D01*
X1090000Y2990000D02*
Y3030000D01*
X1130000D01*
Y2990000D01*
X1090000D01*
Y3090000D02*
Y3130000D01*
X1130000D01*
Y3090000D01*
X1090000D01*
X1190000Y2990000D02*
Y3030000D01*
X1230000D01*
Y2990000D01*
X1190000D01*
Y3090000D02*
Y3130000D01*
X1230000D01*
Y3090000D01*
X1190000D01*
X1290000Y2990000D02*
Y3030000D01*
X1330000D01*
Y2990000D01*
X1290000D01*
Y3090000D02*
Y3130000D01*
X1330000D01*
Y3090000D01*
X1290000D01*
X1390000Y2990000D02*
Y3030000D01*
X1430000D01*
Y2990000D01*
X1390000D01*
Y3090000D02*
Y3130000D01*
X1430000D01*
Y3090000D01*
X1390000D01*
X1490000Y2990000D02*
Y3030000D01*
X1530000D01*
Y2990000D01*
X1490000D01*
Y3090000D02*
Y3130000D01*
X1530000D01*
Y3090000D01*
X1490000D01*
X1590000Y2990000D02*
Y3030000D01*
X1630000D01*
Y2990000D01*
X1590000D01*
Y3090000D02*
Y3130000D01*
X1630000D01*
Y3090000D01*
X1590000D01*
X1690000Y2990000D02*
Y3030000D01*
X1730000D01*
Y2990000D01*
X1690000D01*
Y3090000D02*
Y3130000D01*
X1730000D01*
Y3090000D01*
X1690000D01*
X1790000Y2990000D02*
Y3030000D01*
X1830000D01*
Y2990000D01*
X1790000D01*
Y3090000D02*
Y3130000D01*
X1830000D01*
Y3090000D01*
X1790000D01*
X1890000Y2990000D02*
Y3030000D01*
X1930000D01*
Y2990000D01*
X1890000D01*
Y3090000D02*
Y3130000D01*
X1930000D01*
Y3090000D01*
X1890000D01*
X1990000Y2990000D02*
Y3030000D01*
X2030000D01*
Y2990000D01*
X1990000D01*
Y3090000D02*
Y3130000D01*
X2030000D01*
Y3090000D01*
X1990000D01*
X2090000Y2990000D02*
Y3030000D01*
X2130000D01*
Y2990000D01*
X2090000D01*
Y3090000D02*
Y3130000D01*
X2130000D01*
Y3090000D01*
X2090000D01*
X2190000Y2990000D02*
Y3030000D01*
X2230000D01*
Y2990000D01*
X2190000D01*
Y3090000D02*
Y3130000D01*
X2230000D01*
Y3090000D01*
X2190000D01*
X2290000Y2990000D02*
Y3030000D01*
X2330000D01*
Y2990000D01*
X2290000D01*
Y3090000D02*
Y3130000D01*
X2330000D01*
Y3090000D01*
X2290000D01*
X2390000Y2990000D02*
Y3030000D01*
X2430000D01*
Y2990000D01*
X2390000D01*
Y3090000D02*
Y3130000D01*
X2430000D01*
Y3090000D01*
X2390000D01*
X205000Y3660000D02*
Y3700000D01*
X245000D01*
Y3660000D01*
X205000D01*
X705000D02*
Y3700000D01*
X745000D01*
Y3660000D01*
X705000D01*
X605000D02*
Y3700000D01*
X645000D01*
Y3660000D01*
X605000D01*
X505000D02*
Y3700000D01*
X545000D01*
Y3660000D01*
X505000D01*
X405000D02*
Y3700000D01*
X445000D01*
Y3660000D01*
X405000D01*
X305000D02*
Y3700000D01*
X345000D01*
Y3660000D01*
X305000D01*
X948334D02*
Y3700000D01*
X988334D01*
Y3660000D01*
X948334D01*
X1448334D02*
Y3700000D01*
X1488334D01*
Y3660000D01*
X1448334D01*
X1348334D02*
Y3700000D01*
X1388334D01*
Y3660000D01*
X1348334D01*
X1248334D02*
Y3700000D01*
X1288334D01*
Y3660000D01*
X1248334D01*
X1148334D02*
Y3700000D01*
X1188334D01*
Y3660000D01*
X1148334D01*
X1048334D02*
Y3700000D01*
X1088334D01*
Y3660000D01*
X1048334D01*
X1691666D02*
Y3700000D01*
X1731666D01*
Y3660000D01*
X1691666D01*
X2191666D02*
Y3700000D01*
X2231666D01*
Y3660000D01*
X2191666D01*
X2091666D02*
Y3700000D01*
X2131666D01*
Y3660000D01*
X2091666D01*
X1991666D02*
Y3700000D01*
X2031666D01*
Y3660000D01*
X1991666D01*
X1891666D02*
Y3700000D01*
X1931666D01*
Y3660000D01*
X1891666D01*
X1791666D02*
Y3700000D01*
X1831666D01*
Y3660000D01*
X1791666D01*
X2435000D02*
Y3700000D01*
X2475000D01*
Y3660000D01*
X2435000D01*
X2935000D02*
Y3700000D01*
X2975000D01*
Y3660000D01*
X2935000D01*
X2835000D02*
Y3700000D01*
X2875000D01*
Y3660000D01*
X2835000D01*
X2735000D02*
Y3700000D01*
X2775000D01*
Y3660000D01*
X2735000D01*
X2635000D02*
Y3700000D01*
X2675000D01*
Y3660000D01*
X2635000D01*
X2535000D02*
Y3700000D01*
X2575000D01*
Y3660000D01*
X2535000D01*
X2730000Y1255000D02*
Y1295000D01*
X2770000D01*
Y1255000D01*
X2730000D01*
X2630000D02*
Y1295000D01*
X2670000D01*
Y1255000D01*
X2630000D01*
X2530000D02*
Y1295000D01*
X2570000D01*
Y1255000D01*
X2530000D01*
X670000Y2435000D02*
Y2475000D01*
X710000D01*
Y2435000D01*
X670000D01*
Y2535000D02*
Y2575000D01*
X710000D01*
Y2535000D01*
X670000D01*
Y2635000D02*
Y2675000D01*
X710000D01*
Y2635000D01*
X670000D01*
Y2735000D02*
Y2775000D01*
X710000D01*
Y2735000D01*
X670000D01*
Y2835000D02*
Y2875000D01*
X710000D01*
Y2835000D01*
X670000D01*
Y2935000D02*
Y2975000D01*
X710000D01*
Y2935000D01*
X670000D01*
Y3035000D02*
Y3075000D01*
X710000D01*
Y3035000D01*
X670000D01*
Y3135000D02*
Y3175000D01*
X710000D01*
Y3135000D01*
X670000D01*
X2990000Y2040000D02*
Y2080000D01*
X3030000D01*
Y2040000D01*
X2990000D01*
Y2140000D02*
Y2180000D01*
X3030000D01*
Y2140000D01*
X2990000D01*
Y2240000D02*
Y2280000D01*
X3030000D01*
Y2240000D01*
X2990000D01*
Y2340000D02*
Y2380000D01*
X3030000D01*
Y2340000D01*
X2990000D01*
Y2440000D02*
Y2480000D01*
X3030000D01*
Y2440000D01*
X2990000D01*
Y2540000D02*
Y2580000D01*
X3030000D01*
Y2540000D01*
X2990000D01*
Y2640000D02*
Y2680000D01*
X3030000D01*
Y2640000D01*
X2990000D01*
Y2740000D02*
Y2780000D01*
X3030000D01*
Y2740000D01*
X2990000D01*
X2564704Y3326456D02*
X2544704Y3366456D01*
X2584704D01*
X2564704Y3326456D01*
X596200D02*
X576200Y3366456D01*
X616200D01*
X596200Y3326456D01*
X2905000Y1035000D02*
Y1075000D01*
X2945000D01*
Y1035000D01*
X2905000D01*
X3005000D02*
Y1075000D01*
X3045000D01*
Y1035000D01*
X3005000D01*
X2905000Y935000D02*
Y975000D01*
X2945000D01*
Y935000D01*
X2905000D01*
X3005000D02*
Y975000D01*
X3045000D01*
Y935000D01*
X3005000D01*
X2905000Y835000D02*
Y875000D01*
X2945000D01*
Y835000D01*
X2905000D01*
X3005000D02*
Y875000D01*
X3045000D01*
Y835000D01*
X3005000D01*
X2905000Y735000D02*
Y775000D01*
X2945000D01*
Y735000D01*
X2905000D01*
X3005000D02*
Y775000D01*
X3045000D01*
Y735000D01*
X3005000D01*
X2905000Y635000D02*
Y675000D01*
X2945000D01*
Y635000D01*
X2905000D01*
X3005000D02*
Y675000D01*
X3045000D01*
Y635000D01*
X3005000D01*
X2905000Y535000D02*
Y575000D01*
X2945000D01*
Y535000D01*
X2905000D01*
X3005000D02*
Y575000D01*
X3045000D01*
Y535000D01*
X3005000D01*
X2330000Y390000D02*
Y430000D01*
X2370000D01*
Y390000D01*
X2330000D01*
X2230000D02*
Y430000D01*
X2270000D01*
Y390000D01*
X2230000D01*
X2330000Y90000D02*
Y130000D01*
X2370000D01*
Y90000D01*
X2330000D01*
X2230000D02*
Y130000D01*
X2270000D01*
Y90000D01*
X2230000D01*
X100000Y765000D02*
X110000Y775000D01*
X120000D01*
X110000Y785000D01*
X120000Y795000D01*
X110000D01*
X100000Y805000D01*
X90000Y795000D01*
X80000D01*
X90000Y785000D01*
X80000Y775000D01*
X90000D01*
X100000Y765000D01*
X285040D02*
X295040Y775000D01*
X305040D01*
X295040Y785000D01*
X305040Y795000D01*
X295040D01*
X285040Y805000D01*
X275040Y795000D01*
X265040D01*
X275040Y785000D01*
X265040Y775000D01*
X275040D01*
X285040Y765000D01*
X470080D02*
X480080Y775000D01*
X490080D01*
X480080Y785000D01*
X490080Y795000D01*
X480080D01*
X470080Y805000D01*
X460080Y795000D01*
X450080D01*
X460080Y785000D01*
X450080Y775000D01*
X460080D01*
X470080Y765000D01*
X2564704Y373700D02*
X2544704Y413700D01*
X2584704D01*
X2564704Y373700D01*
X596200D02*
X576200Y413700D01*
X616200D01*
X596200Y373700D01*
X275000Y420000D02*
X285000Y440000D01*
X275000Y460000D01*
X295000Y450000D01*
X315000Y460000D01*
X305000Y440000D01*
X315000Y420000D01*
X295000Y430000D01*
X275000Y420000D01*
Y220000D02*
X285000Y240000D01*
X275000Y260000D01*
X295000Y250000D01*
X315000Y260000D01*
X305000Y240000D01*
X315000Y220000D01*
X295000Y230000D01*
X275000Y220000D01*
X2765000Y245000D02*
Y235000D01*
X2785000D01*
Y245000D01*
X2795000D01*
Y265000D01*
X2785000D01*
Y275000D01*
X2765000D01*
Y265000D01*
X2755000D01*
Y245000D01*
X2765000D01*
X2965000D02*
Y235000D01*
X2985000D01*
Y245000D01*
X2995000D01*
Y265000D01*
X2985000D01*
Y275000D01*
X2965000D01*
Y265000D01*
X2955000D01*
Y245000D01*
X2965000D01*
X1180000Y1210000D02*
Y1250000D01*
X1220000D01*
Y1210000D01*
X1180000D01*
Y1310000D02*
Y1350000D01*
X1220000D01*
Y1310000D01*
X1180000D01*
X1280000Y1210000D02*
Y1250000D01*
X1320000D01*
Y1210000D01*
X1280000D01*
Y1310000D02*
Y1350000D01*
X1320000D01*
Y1310000D01*
X1280000D01*
X1380000Y1210000D02*
Y1250000D01*
X1420000D01*
Y1210000D01*
X1380000D01*
Y1310000D02*
Y1350000D01*
X1420000D01*
Y1310000D01*
X1380000D01*
X1480000D02*
Y1350000D01*
X1520000D01*
Y1310000D01*
X1480000D01*
Y1210000D02*
Y1250000D01*
X1520000D01*
Y1210000D01*
X1480000D01*
X2035000D02*
Y1250000D01*
X2075000D01*
Y1210000D01*
X2035000D01*
Y1310000D02*
Y1350000D01*
X2075000D01*
Y1310000D01*
X2035000D01*
X2135000Y1210000D02*
Y1250000D01*
X2175000D01*
Y1210000D01*
X2135000D01*
Y1310000D02*
Y1350000D01*
X2175000D01*
Y1310000D01*
X2135000D01*
X2235000Y1210000D02*
Y1250000D01*
X2275000D01*
Y1210000D01*
X2235000D01*
Y1310000D02*
Y1350000D01*
X2275000D01*
Y1310000D01*
X2235000D01*
X2335000D02*
Y1350000D01*
X2375000D01*
Y1310000D01*
X2335000D01*
Y1210000D02*
Y1250000D01*
X2375000D01*
Y1210000D01*
X2335000D01*
X2970617Y1883235D02*
X2980617D01*
X2990617Y1893235D01*
X3000617Y1883235D01*
X3010617D01*
Y1893235D01*
X3000617Y1903235D01*
X3010617Y1913235D01*
Y1923235D01*
X3000617D01*
X2990617Y1913235D01*
X2980617Y1923235D01*
X2970617D01*
Y1913235D01*
X2980617Y1903235D01*
X2970617Y1893235D01*
Y1883235D01*
X2130000Y755000D02*
X2140000D01*
X2150000Y765000D01*
X2160000Y755000D01*
X2170000D01*
Y765000D01*
X2160000Y775000D01*
X2170000Y785000D01*
Y795000D01*
X2160000D01*
X2150000Y785000D01*
X2140000Y795000D01*
X2130000D01*
Y785000D01*
X2140000Y775000D01*
X2130000Y765000D01*
Y755000D01*
X2295000Y3450000D02*
X2305000D01*
X2315000Y3460000D01*
X2325000Y3450000D01*
X2335000D01*
Y3460000D01*
X2325000Y3470000D01*
X2335000Y3480000D01*
Y3490000D01*
X2325000D01*
X2315000Y3480000D01*
X2305000Y3490000D01*
X2295000D01*
Y3480000D01*
X2305000Y3470000D01*
X2295000Y3460000D01*
Y3450000D01*
X1575641Y3661618D02*
X1585641D01*
X1595641Y3671618D01*
X1605641Y3661618D01*
X1615641D01*
Y3671618D01*
X1605641Y3681618D01*
X1615641Y3691618D01*
Y3701618D01*
X1605641D01*
X1595641Y3691618D01*
X1585641Y3701618D01*
X1575641D01*
Y3691618D01*
X1585641Y3681618D01*
X1575641Y3671618D01*
Y3661618D01*
X1015000Y3450000D02*
X1025000D01*
X1035000Y3460000D01*
X1045000Y3450000D01*
X1055000D01*
Y3460000D01*
X1045000Y3470000D01*
X1055000Y3480000D01*
Y3490000D01*
X1045000D01*
X1035000Y3480000D01*
X1025000Y3490000D01*
X1015000D01*
Y3480000D01*
X1025000Y3470000D01*
X1015000Y3460000D01*
Y3450000D01*
X60000Y3030000D02*
X70000D01*
X80000Y3040000D01*
X90000Y3030000D01*
X100000D01*
Y3040000D01*
X90000Y3050000D01*
X100000Y3060000D01*
Y3070000D01*
X90000D01*
X80000Y3060000D01*
X70000Y3070000D01*
X60000D01*
Y3060000D01*
X70000Y3050000D01*
X60000Y3040000D01*
Y3030000D01*
X479993Y2167170D02*
X489993D01*
X499993Y2177170D01*
X509993Y2167170D01*
X519992D01*
Y2177170D01*
X509993Y2187170D01*
X519992Y2197170D01*
Y2207170D01*
X509993D01*
X499993Y2197170D01*
X489993Y2207170D01*
X479993D01*
Y2197170D01*
X489993Y2187170D01*
X479993Y2177170D01*
Y2167170D01*
X1080466Y1053919D02*
X1090466D01*
X1100466Y1063919D01*
X1110466Y1053919D01*
X1120466D01*
Y1063919D01*
X1110466Y1073919D01*
X1120466Y1083919D01*
Y1093919D01*
X1110466D01*
X1100466Y1083919D01*
X1090466Y1093919D01*
X1080466D01*
Y1083919D01*
X1090466Y1073919D01*
X1080466Y1063919D01*
Y1053919D01*
X2970617Y3270000D02*
X2980617D01*
X2990617Y3280000D01*
X3000617Y3270000D01*
X3010617D01*
Y3280000D01*
X3000617Y3290000D01*
X3010617Y3300000D01*
Y3310000D01*
X3000617D01*
X2990617Y3300000D01*
X2980617Y3310000D01*
X2970617D01*
Y3300000D01*
X2980617Y3290000D01*
X2970617Y3280000D01*
Y3270000D01*
X2355000Y2027854D02*
X2365000D01*
X2375000Y2037854D01*
X2385000Y2027854D01*
X2395000D01*
Y2037854D01*
X2385000Y2047854D01*
X2395000Y2057854D01*
Y2067854D01*
X2385000D01*
X2375000Y2057854D01*
X2365000Y2067854D01*
X2355000D01*
Y2057854D01*
X2365000Y2047854D01*
X2355000Y2037854D01*
Y2027854D01*
X1321596D02*
X1331596D01*
X1341596Y2037854D01*
X1351596Y2027854D01*
X1361596D01*
Y2037854D01*
X1351596Y2047854D01*
X1361596Y2057854D01*
Y2067854D01*
X1351596D01*
X1341596Y2057854D01*
X1331596Y2067854D01*
X1321596D01*
Y2057854D01*
X1331596Y2047854D01*
X1321596Y2037854D01*
Y2027854D01*
X2355000Y2880000D02*
X2365000D01*
X2375000Y2890000D01*
X2385000Y2880000D01*
X2395000D01*
Y2890000D01*
X2385000Y2900000D01*
X2395000Y2910000D01*
Y2920000D01*
X2385000D01*
X2375000Y2910000D01*
X2365000Y2920000D01*
X2355000D01*
Y2910000D01*
X2365000Y2900000D01*
X2355000Y2890000D01*
Y2880000D01*
X479993Y3030000D02*
X489993D01*
X499993Y3040000D01*
X509993Y3030000D01*
X519992D01*
Y3040000D01*
X509993Y3050000D01*
X519992Y3060000D01*
Y3070000D01*
X509993D01*
X499993Y3060000D01*
X489993Y3070000D01*
X479993D01*
Y3060000D01*
X489993Y3050000D01*
X479993Y3040000D01*
Y3030000D01*
X860000Y1090000D02*
X870000D01*
X880000Y1100000D01*
X890000Y1090000D01*
X900000D01*
Y1100000D01*
X890000Y1110000D01*
X900000Y1120000D01*
Y1130000D01*
X890000D01*
X880000Y1120000D01*
X870000Y1130000D01*
X860000D01*
Y1120000D01*
X870000Y1110000D01*
X860000Y1100000D01*
Y1090000D01*
X2355000Y2585558D02*
X2365000D01*
X2375000Y2595558D01*
X2385000Y2585558D01*
X2395000D01*
Y2595558D01*
X2385000Y2605558D01*
X2395000Y2615558D01*
Y2625558D01*
X2385000D01*
X2375000Y2615558D01*
X2365000Y2625558D01*
X2355000D01*
Y2615558D01*
X2365000Y2605558D01*
X2355000Y2595558D01*
Y2585558D01*
X1321596Y2167170D02*
X1331596D01*
X1341596Y2177170D01*
X1351596Y2167170D01*
X1361596D01*
Y2177170D01*
X1351596Y2187170D01*
X1361596Y2197170D01*
Y2207170D01*
X1351596D01*
X1341596Y2197170D01*
X1331596Y2207170D01*
X1321596D01*
Y2197170D01*
X1331596Y2187170D01*
X1321596Y2177170D01*
Y2167170D01*
X1045000Y455000D02*
X1055000D01*
X1065000Y465000D01*
X1075000Y455000D01*
X1085000D01*
Y465000D01*
X1075000Y475000D01*
X1085000Y485000D01*
Y495000D01*
X1075000D01*
X1065000Y485000D01*
X1055000Y495000D01*
X1045000D01*
Y485000D01*
X1055000Y475000D01*
X1045000Y465000D01*
Y455000D01*
X2765000Y550000D02*
X2775000D01*
X2785000Y560000D01*
X2795000Y550000D01*
X2805000D01*
Y560000D01*
X2795000Y570000D01*
X2805000Y580000D01*
Y590000D01*
X2795000D01*
X2785000Y580000D01*
X2775000Y590000D01*
X2765000D01*
Y580000D01*
X2775000Y570000D01*
X2765000Y560000D01*
Y550000D01*
X1455000Y2470000D02*
X1465000D01*
X1475000Y2480000D01*
X1485000Y2470000D01*
X1495000D01*
Y2480000D01*
X1485000Y2490000D01*
X1495000Y2500000D01*
Y2510000D01*
X1485000D01*
X1475000Y2500000D01*
X1465000Y2510000D01*
X1455000D01*
Y2500000D01*
X1465000Y2490000D01*
X1455000Y2480000D01*
Y2470000D01*
X1715000Y2550000D02*
X1725000D01*
X1735000Y2560000D01*
X1745000Y2550000D01*
X1755000D01*
Y2560000D01*
X1745000Y2570000D01*
X1755000Y2580000D01*
Y2590000D01*
X1745000D01*
X1735000Y2580000D01*
X1725000Y2590000D01*
X1715000D01*
Y2580000D01*
X1725000Y2570000D01*
X1715000Y2560000D01*
Y2550000D01*
X1535000Y2545000D02*
X1545000D01*
X1555000Y2555000D01*
X1565000Y2545000D01*
X1575000D01*
Y2555000D01*
X1565000Y2565000D01*
X1575000Y2575000D01*
Y2585000D01*
X1565000D01*
X1555000Y2575000D01*
X1545000Y2585000D01*
X1535000D01*
Y2575000D01*
X1545000Y2565000D01*
X1535000Y2555000D01*
Y2545000D01*
X1805000D02*
X1815000D01*
X1825000Y2555000D01*
X1835000Y2545000D01*
X1845000D01*
Y2555000D01*
X1835000Y2565000D01*
X1845000Y2575000D01*
Y2585000D01*
X1835000D01*
X1825000Y2575000D01*
X1815000Y2585000D01*
X1805000D01*
Y2575000D01*
X1815000Y2565000D01*
X1805000Y2555000D01*
Y2545000D01*
X1800000Y2305000D02*
X1810000D01*
X1820000Y2315000D01*
X1830000Y2305000D01*
X1840000D01*
Y2315000D01*
X1830000Y2325000D01*
X1840000Y2335000D01*
Y2345000D01*
X1830000D01*
X1820000Y2335000D01*
X1810000Y2345000D01*
X1800000D01*
Y2335000D01*
X1810000Y2325000D01*
X1800000Y2315000D01*
Y2305000D01*
X1716506Y2301046D02*
X1726506D01*
X1736506Y2311046D01*
X1746506Y2301046D01*
X1756506D01*
Y2311046D01*
X1746506Y2321046D01*
X1756506Y2331046D01*
Y2341046D01*
X1746506D01*
X1736506Y2331046D01*
X1726506Y2341046D01*
X1716506D01*
Y2331046D01*
X1726506Y2321046D01*
X1716506Y2311046D01*
Y2301046D01*
X1605000Y2305104D02*
X1615000D01*
X1625000Y2315104D01*
X1635000Y2305104D01*
X1645000D01*
Y2315104D01*
X1635000Y2325104D01*
X1645000Y2335104D01*
Y2345104D01*
X1635000D01*
X1625000Y2335104D01*
X1615000Y2345104D01*
X1605000D01*
Y2335104D01*
X1615000Y2325104D01*
X1605000Y2315104D01*
Y2305104D01*
X975000Y640000D02*
X985000D01*
X995000Y650000D01*
X1005000Y640000D01*
X1015000D01*
Y650000D01*
X1005000Y660000D01*
X1015000Y670000D01*
Y680000D01*
X1005000D01*
X995000Y670000D01*
X985000Y680000D01*
X975000D01*
Y670000D01*
X985000Y660000D01*
X975000Y650000D01*
Y640000D01*
D114*
X111615Y1644999D02*
G03*
X111615Y1644999I-20000J0D01*
G01*
X410827D02*
G03*
X410827Y1644999I-20000J0D01*
G01*
%TF.MD5,88c9cca75cae4e0667959967100951bd*%
M02*
