%TF.GenerationSoftware,Altium Limited,Altium Designer,22.3.1 (43)*%
G04 Layer_Color=0*
%FSLAX26Y26*%
%MOIN*%
%TF.SameCoordinates,A6686B76-6886-4B69-866F-DC8958589E3E*%
%TF.FilePolarity,Positive*%
%TF.FileFunction,Plated,1,2,PTH,Drill*%
%TF.Part,Single*%
G01*
G75*
%TA.AperFunction,ComponentDrill*%
%ADD105C,0.035433*%
%ADD106C,0.031496*%
%ADD107C,0.035433*%
%ADD108C,0.125000*%
%ADD109O,0.039370X0.086614*%
%ADD110C,0.047244*%
%ADD111C,0.039370*%
%TA.AperFunction,ViaDrill,NotFilled*%
%ADD112C,0.028000*%
D105*
X3010000Y1440000D02*
D03*
Y1540000D02*
D03*
Y1640000D02*
D03*
Y1740000D02*
D03*
X690000Y1275000D02*
D03*
Y1375000D02*
D03*
Y1475000D02*
D03*
Y1575000D02*
D03*
Y1675000D02*
D03*
Y1775000D02*
D03*
Y1875000D02*
D03*
Y1975000D02*
D03*
X2710000Y1610000D02*
D03*
Y1510000D02*
D03*
X2810000Y1610000D02*
D03*
Y1510000D02*
D03*
X2710000Y1710000D02*
D03*
X2810000D02*
D03*
X2710000Y1810000D02*
D03*
X2810000D02*
D03*
X2710000Y1910000D02*
D03*
X2810000D02*
D03*
X2710000Y2010000D02*
D03*
X2810000D02*
D03*
X2710000Y2110000D02*
D03*
X2810000D02*
D03*
X2710000Y2210000D02*
D03*
X2810000D02*
D03*
X2710000Y2310000D02*
D03*
X2810000D02*
D03*
X2710000Y2410000D02*
D03*
X2810000D02*
D03*
X2710000Y2510000D02*
D03*
X2810000D02*
D03*
X2710000Y2610000D02*
D03*
X2810000D02*
D03*
X2710000Y2710000D02*
D03*
X2810000D02*
D03*
X2710000Y2810000D02*
D03*
X2810000D02*
D03*
X2710000Y2910000D02*
D03*
X2810000D02*
D03*
Y3110000D02*
D03*
X225000Y3680000D02*
D03*
X725000D02*
D03*
X625000D02*
D03*
X525000D02*
D03*
X425000D02*
D03*
X325000D02*
D03*
X968334D02*
D03*
X1468334D02*
D03*
X1368334D02*
D03*
X1268334D02*
D03*
X1168334D02*
D03*
X1068334D02*
D03*
X1711666D02*
D03*
X2211666D02*
D03*
X2111666D02*
D03*
X2011666D02*
D03*
X1911666D02*
D03*
X1811666D02*
D03*
X2455000D02*
D03*
X2955000D02*
D03*
X2855000D02*
D03*
X2755000D02*
D03*
X2655000D02*
D03*
X2555000D02*
D03*
X690000Y2455000D02*
D03*
Y2555000D02*
D03*
Y2655000D02*
D03*
Y2755000D02*
D03*
Y2855000D02*
D03*
Y2955000D02*
D03*
Y3055000D02*
D03*
Y3155000D02*
D03*
X3010000Y2060000D02*
D03*
Y2160000D02*
D03*
Y2260000D02*
D03*
Y2360000D02*
D03*
Y2460000D02*
D03*
Y2560000D02*
D03*
Y2660000D02*
D03*
Y2760000D02*
D03*
X2925000Y1055000D02*
D03*
X3025000D02*
D03*
X2925000Y955000D02*
D03*
X3025000D02*
D03*
X2925000Y855000D02*
D03*
X3025000D02*
D03*
X2925000Y755000D02*
D03*
X3025000D02*
D03*
X2925000Y655000D02*
D03*
X3025000D02*
D03*
X2925000Y555000D02*
D03*
X3025000D02*
D03*
X2350000Y410000D02*
D03*
X2250000D02*
D03*
X2350000Y110000D02*
D03*
X2250000D02*
D03*
D106*
X91615Y1644999D02*
D03*
X390827D02*
D03*
D107*
X2610000Y1510000D02*
D03*
Y1610000D02*
D03*
X2510000Y1510000D02*
D03*
Y1610000D02*
D03*
X2410000Y1510000D02*
D03*
Y1610000D02*
D03*
X2310000Y1510000D02*
D03*
Y1610000D02*
D03*
X2210000Y1510000D02*
D03*
Y1610000D02*
D03*
X2110000Y1510000D02*
D03*
Y1610000D02*
D03*
X2010000Y1510000D02*
D03*
Y1610000D02*
D03*
X1910000Y1510000D02*
D03*
Y1610000D02*
D03*
X1810000Y1510000D02*
D03*
Y1610000D02*
D03*
X1710000Y1510000D02*
D03*
Y1610000D02*
D03*
X2510000Y3010000D02*
D03*
Y3110000D02*
D03*
X2610000Y3010000D02*
D03*
Y3110000D02*
D03*
X2710000Y3010000D02*
D03*
X2810000D02*
D03*
X2710000Y3110000D02*
D03*
X1610000Y1510000D02*
D03*
Y1610000D02*
D03*
X1510000Y1510000D02*
D03*
Y1610000D02*
D03*
X1410000Y1510000D02*
D03*
Y1610000D02*
D03*
X1310000Y1510000D02*
D03*
Y1610000D02*
D03*
X1210000Y1510000D02*
D03*
Y1610000D02*
D03*
X1110000Y1510000D02*
D03*
Y1610000D02*
D03*
X1010000Y1510000D02*
D03*
Y1610000D02*
D03*
X910000Y1510000D02*
D03*
Y1610000D02*
D03*
Y1710000D02*
D03*
X1010000D02*
D03*
X910000Y1810000D02*
D03*
X1010000D02*
D03*
X910000Y1910000D02*
D03*
X1010000D02*
D03*
X910000Y2010000D02*
D03*
X1010000D02*
D03*
Y2610000D02*
D03*
X910000D02*
D03*
X1010000Y2710000D02*
D03*
X910000D02*
D03*
X1010000Y2810000D02*
D03*
X910000D02*
D03*
X1010000Y2910000D02*
D03*
X910000D02*
D03*
Y3010000D02*
D03*
Y3110000D02*
D03*
X1010000Y3010000D02*
D03*
Y3110000D02*
D03*
X1110000Y3010000D02*
D03*
Y3110000D02*
D03*
X1210000Y3010000D02*
D03*
Y3110000D02*
D03*
X1310000Y3010000D02*
D03*
Y3110000D02*
D03*
X1410000Y3010000D02*
D03*
Y3110000D02*
D03*
X1510000Y3010000D02*
D03*
Y3110000D02*
D03*
X1610000Y3010000D02*
D03*
Y3110000D02*
D03*
X1710000Y3010000D02*
D03*
Y3110000D02*
D03*
X1810000Y3010000D02*
D03*
Y3110000D02*
D03*
X1910000Y3010000D02*
D03*
Y3110000D02*
D03*
X2010000Y3010000D02*
D03*
Y3110000D02*
D03*
X2110000Y3010000D02*
D03*
Y3110000D02*
D03*
X2210000Y3010000D02*
D03*
Y3110000D02*
D03*
X2310000Y3010000D02*
D03*
Y3110000D02*
D03*
X2410000Y3010000D02*
D03*
Y3110000D02*
D03*
X2750000Y1275000D02*
D03*
X2650000D02*
D03*
X2550000D02*
D03*
X1200000Y1230000D02*
D03*
Y1330000D02*
D03*
X1300000Y1230000D02*
D03*
Y1330000D02*
D03*
X1400000Y1230000D02*
D03*
Y1330000D02*
D03*
X1500000D02*
D03*
Y1230000D02*
D03*
X2055000D02*
D03*
Y1330000D02*
D03*
X2155000Y1230000D02*
D03*
Y1330000D02*
D03*
X2255000Y1230000D02*
D03*
Y1330000D02*
D03*
X2355000D02*
D03*
Y1230000D02*
D03*
D108*
X2564704Y3346456D02*
D03*
X596200D02*
D03*
X2564704Y393700D02*
D03*
X596200D02*
D03*
D109*
X100000Y785000D02*
D03*
X285040D02*
D03*
X470080D02*
D03*
D110*
X295000Y440000D02*
D03*
Y240000D02*
D03*
D111*
X2775000Y255000D02*
D03*
X2975000D02*
D03*
D112*
X2990617Y1903235D02*
D03*
X2150000Y775000D02*
D03*
X2315000Y3470000D02*
D03*
X1595641Y3681618D02*
D03*
X1035000Y3470000D02*
D03*
X80000Y3050000D02*
D03*
X499993Y2187170D02*
D03*
X1100466Y1073919D02*
D03*
X2990617Y3290000D02*
D03*
X2375000Y2047854D02*
D03*
X1341596D02*
D03*
X2375000Y2900000D02*
D03*
X499993Y3050000D02*
D03*
X880000Y1110000D02*
D03*
X2375000Y2605558D02*
D03*
X1341596Y2187170D02*
D03*
X1065000Y475000D02*
D03*
X2785000Y570000D02*
D03*
X1475000Y2490000D02*
D03*
X1735000Y2570000D02*
D03*
X1555000Y2565000D02*
D03*
X1825000D02*
D03*
X1820000Y2325000D02*
D03*
X1736506Y2321046D02*
D03*
X1625000Y2325104D02*
D03*
X995000Y660000D02*
D03*
%TF.MD5,3311dc7772cf6ddb94d9a1cbd8c87b17*%
M02*
