%TF.GenerationSoftware,Altium Limited,Altium Designer,22.3.1 (43)*%
G04 Layer_Color=32896*
%FSLAX26Y26*%
%MOIN*%
%TF.SameCoordinates,A6686B76-6886-4B69-866F-DC8958589E3E*%
%TF.FilePolarity,Positive*%
%TF.FileFunction,Legend,Bot*%
%TF.Part,Single*%
G01*
G75*
%TA.AperFunction,NonConductor*%
%ADD28C,0.010000*%
%ADD52C,0.007874*%
%ADD53C,0.019685*%
%ADD54C,0.005000*%
%ADD55C,0.006000*%
%ADD56C,0.008000*%
%ADD57C,0.009842*%
%ADD58C,0.012000*%
G36*
X1159368Y429385D02*
X1160867Y429107D01*
X1162143Y428663D01*
X1163253Y428219D01*
X1163753Y427942D01*
X1164141Y427720D01*
X1164530Y427498D01*
X1164807Y427276D01*
X1165029Y427109D01*
X1165196Y426998D01*
X1165306Y426943D01*
X1165362Y426887D01*
X1166417Y425833D01*
X1167249Y424667D01*
X1167915Y423446D01*
X1168470Y422225D01*
X1168803Y421171D01*
X1168969Y420727D01*
X1169081Y420338D01*
X1169136Y420005D01*
X1169191Y419783D01*
X1169247Y419617D01*
Y419561D01*
X1164530Y418729D01*
X1164307Y419950D01*
X1163975Y421004D01*
X1163586Y421892D01*
X1163197Y422614D01*
X1162809Y423169D01*
X1162476Y423557D01*
X1162254Y423835D01*
X1162198Y423890D01*
X1161477Y424445D01*
X1160700Y424889D01*
X1159978Y425167D01*
X1159257Y425389D01*
X1158591Y425500D01*
X1158091Y425611D01*
X1157648D01*
X1156649Y425555D01*
X1155761Y425333D01*
X1154984Y425056D01*
X1154318Y424778D01*
X1153818Y424445D01*
X1153429Y424168D01*
X1153152Y423946D01*
X1153097Y423890D01*
X1152486Y423224D01*
X1152042Y422503D01*
X1151764Y421781D01*
X1151543Y421115D01*
X1151431Y420505D01*
X1151321Y420061D01*
Y419728D01*
Y419672D01*
Y419617D01*
Y419006D01*
X1151431Y418451D01*
X1151709Y417508D01*
X1152098Y416675D01*
X1152542Y415954D01*
X1152986Y415454D01*
X1153374Y415066D01*
X1153651Y414844D01*
X1153707Y414788D01*
X1153763D01*
X1154706Y414289D01*
X1155594Y413900D01*
X1156537Y413623D01*
X1157370Y413456D01*
X1158091Y413345D01*
X1158702Y413234D01*
X1159424D01*
X1159646Y413290D01*
X1159923D01*
X1160478Y409127D01*
X1159756Y409294D01*
X1159091Y409405D01*
X1158535Y409516D01*
X1158036Y409571D01*
X1157648Y409627D01*
X1157148D01*
X1155983Y409516D01*
X1154928Y409294D01*
X1153985Y408961D01*
X1153207Y408572D01*
X1152597Y408184D01*
X1152153Y407851D01*
X1151876Y407629D01*
X1151764Y407518D01*
X1151043Y406685D01*
X1150488Y405797D01*
X1150100Y404909D01*
X1149878Y404021D01*
X1149711Y403300D01*
X1149656Y402689D01*
X1149600Y402467D01*
Y402301D01*
Y402190D01*
Y402134D01*
X1149711Y400913D01*
X1149988Y399803D01*
X1150322Y398860D01*
X1150765Y398027D01*
X1151209Y397361D01*
X1151543Y396862D01*
X1151820Y396529D01*
X1151931Y396418D01*
X1152819Y395641D01*
X1153763Y395086D01*
X1154706Y394697D01*
X1155594Y394420D01*
X1156371Y394253D01*
X1156982Y394198D01*
X1157204Y394142D01*
X1157536D01*
X1158535Y394198D01*
X1159479Y394420D01*
X1160312Y394697D01*
X1160977Y395030D01*
X1161533Y395308D01*
X1161976Y395585D01*
X1162198Y395807D01*
X1162310Y395863D01*
X1162976Y396640D01*
X1163531Y397528D01*
X1164030Y398471D01*
X1164418Y399470D01*
X1164696Y400303D01*
X1164807Y400691D01*
X1164862Y401024D01*
X1164918Y401302D01*
X1164974Y401524D01*
X1165029Y401635D01*
Y401690D01*
X1169746Y401080D01*
X1169636Y400192D01*
X1169469Y399359D01*
X1168969Y397805D01*
X1168359Y396473D01*
X1168026Y395918D01*
X1167693Y395363D01*
X1167360Y394864D01*
X1167027Y394475D01*
X1166749Y394087D01*
X1166472Y393809D01*
X1166305Y393587D01*
X1166139Y393421D01*
X1166028Y393310D01*
X1165973Y393254D01*
X1165306Y392755D01*
X1164640Y392255D01*
X1163975Y391867D01*
X1163253Y391534D01*
X1161866Y390979D01*
X1160534Y390646D01*
X1159923Y390535D01*
X1159368Y390424D01*
X1158869Y390368D01*
X1158425Y390313D01*
X1158091Y390257D01*
X1157592D01*
X1156537Y390313D01*
X1155594Y390424D01*
X1154650Y390590D01*
X1153763Y390812D01*
X1152930Y391090D01*
X1152208Y391367D01*
X1151487Y391700D01*
X1150877Y392033D01*
X1150266Y392311D01*
X1149766Y392644D01*
X1149322Y392921D01*
X1148989Y393199D01*
X1148712Y393421D01*
X1148490Y393587D01*
X1148379Y393698D01*
X1148323Y393754D01*
X1147658Y394420D01*
X1147102Y395141D01*
X1146603Y395863D01*
X1146159Y396584D01*
X1145826Y397250D01*
X1145493Y397972D01*
X1145049Y399304D01*
X1144938Y399914D01*
X1144827Y400469D01*
X1144716Y400969D01*
X1144660Y401413D01*
X1144605Y401746D01*
Y402023D01*
Y402190D01*
Y402245D01*
X1144660Y403577D01*
X1144882Y404798D01*
X1145216Y405853D01*
X1145549Y406741D01*
X1145881Y407462D01*
X1146215Y408017D01*
X1146437Y408350D01*
X1146492Y408461D01*
X1147269Y409294D01*
X1148101Y410015D01*
X1148989Y410570D01*
X1149878Y411014D01*
X1150655Y411347D01*
X1151265Y411569D01*
X1151487Y411625D01*
X1151653Y411680D01*
X1151764Y411736D01*
X1151820D01*
X1150877Y412235D01*
X1150100Y412735D01*
X1149434Y413290D01*
X1148879Y413789D01*
X1148435Y414233D01*
X1148101Y414622D01*
X1147935Y414844D01*
X1147880Y414955D01*
X1147436Y415732D01*
X1147102Y416509D01*
X1146825Y417286D01*
X1146659Y418007D01*
X1146547Y418618D01*
X1146492Y419062D01*
Y419395D01*
Y419506D01*
X1146547Y420449D01*
X1146714Y421393D01*
X1146936Y422225D01*
X1147214Y422947D01*
X1147491Y423557D01*
X1147713Y424057D01*
X1147880Y424334D01*
X1147935Y424445D01*
X1148490Y425278D01*
X1149156Y425999D01*
X1149822Y426610D01*
X1150488Y427165D01*
X1151043Y427553D01*
X1151543Y427886D01*
X1151876Y428053D01*
X1151931Y428108D01*
X1151986D01*
X1152986Y428552D01*
X1153985Y428885D01*
X1154984Y429163D01*
X1155871Y429329D01*
X1156593Y429440D01*
X1157204Y429496D01*
X1158591D01*
X1159368Y429385D01*
D02*
G37*
G36*
X1139111Y409072D02*
X1134670Y408461D01*
X1134282Y409072D01*
X1133783Y409571D01*
X1133339Y410071D01*
X1132895Y410459D01*
X1132450Y410737D01*
X1132118Y411014D01*
X1131896Y411125D01*
X1131840Y411181D01*
X1131119Y411514D01*
X1130397Y411791D01*
X1129731Y411958D01*
X1129065Y412124D01*
X1128510Y412180D01*
X1128066Y412235D01*
X1127012D01*
X1126345Y412124D01*
X1125180Y411847D01*
X1124181Y411458D01*
X1123293Y411070D01*
X1122627Y410626D01*
X1122128Y410237D01*
X1121850Y409960D01*
X1121739Y409904D01*
Y409849D01*
X1120962Y408905D01*
X1120407Y407906D01*
X1120018Y406852D01*
X1119741Y405797D01*
X1119574Y404909D01*
X1119519Y404521D01*
Y404188D01*
X1119464Y403910D01*
Y403688D01*
Y403577D01*
Y403522D01*
Y402745D01*
X1119574Y402023D01*
X1119852Y400636D01*
X1120241Y399470D01*
X1120629Y398527D01*
X1121073Y397750D01*
X1121461Y397139D01*
X1121628Y396973D01*
X1121739Y396806D01*
X1121794Y396751D01*
X1121850Y396695D01*
X1122294Y396251D01*
X1122738Y395863D01*
X1123737Y395197D01*
X1124680Y394753D01*
X1125624Y394475D01*
X1126401Y394253D01*
X1127067Y394198D01*
X1127289Y394142D01*
X1127622D01*
X1128677Y394198D01*
X1129620Y394420D01*
X1130453Y394697D01*
X1131119Y395030D01*
X1131729Y395363D01*
X1132173Y395641D01*
X1132395Y395863D01*
X1132506Y395918D01*
X1133172Y396695D01*
X1133727Y397528D01*
X1134171Y398471D01*
X1134504Y399304D01*
X1134726Y400136D01*
X1134892Y400747D01*
X1134948Y401024D01*
X1135004Y401191D01*
Y401302D01*
Y401357D01*
X1139943Y400969D01*
X1139832Y400081D01*
X1139666Y399248D01*
X1139166Y397694D01*
X1138555Y396362D01*
X1138223Y395752D01*
X1137889Y395252D01*
X1137612Y394753D01*
X1137279Y394309D01*
X1137002Y393976D01*
X1136724Y393698D01*
X1136502Y393476D01*
X1136391Y393254D01*
X1136280Y393199D01*
X1136225Y393143D01*
X1135559Y392644D01*
X1134892Y392200D01*
X1134171Y391811D01*
X1133449Y391478D01*
X1132062Y390979D01*
X1130675Y390646D01*
X1130064Y390479D01*
X1129454Y390424D01*
X1128954Y390368D01*
X1128510Y390313D01*
X1128121Y390257D01*
X1127622D01*
X1126457Y390313D01*
X1125347Y390479D01*
X1124292Y390701D01*
X1123349Y390979D01*
X1122460Y391367D01*
X1121628Y391756D01*
X1120851Y392144D01*
X1120185Y392588D01*
X1119574Y393032D01*
X1119020Y393421D01*
X1118575Y393865D01*
X1118187Y394198D01*
X1117909Y394475D01*
X1117688Y394697D01*
X1117576Y394864D01*
X1117521Y394919D01*
X1116966Y395641D01*
X1116522Y396418D01*
X1116078Y397139D01*
X1115745Y397916D01*
X1115190Y399415D01*
X1114857Y400858D01*
X1114746Y401468D01*
X1114635Y402079D01*
X1114580Y402578D01*
X1114524Y403022D01*
X1114468Y403411D01*
Y403688D01*
Y403855D01*
Y403910D01*
X1114524Y404909D01*
X1114635Y405853D01*
X1114802Y406796D01*
X1115024Y407629D01*
X1115301Y408406D01*
X1115579Y409183D01*
X1115911Y409849D01*
X1116189Y410459D01*
X1116522Y411014D01*
X1116855Y411514D01*
X1117132Y411902D01*
X1117410Y412291D01*
X1117632Y412568D01*
X1117799Y412735D01*
X1117909Y412846D01*
X1117965Y412901D01*
X1118631Y413512D01*
X1119297Y414067D01*
X1120018Y414511D01*
X1120740Y414899D01*
X1121461Y415288D01*
X1122183Y415565D01*
X1123515Y415954D01*
X1124126Y416120D01*
X1124680Y416231D01*
X1125180Y416287D01*
X1125624Y416342D01*
X1125957Y416398D01*
X1127178D01*
X1127844Y416287D01*
X1129176Y416009D01*
X1130397Y415621D01*
X1131507Y415177D01*
X1132395Y414733D01*
X1132784Y414511D01*
X1133117Y414344D01*
X1133394Y414178D01*
X1133561Y414067D01*
X1133671Y414011D01*
X1133727Y413956D01*
X1131674Y424334D01*
X1116300D01*
Y428830D01*
X1135392D01*
X1139111Y409072D01*
D02*
G37*
G36*
X1305000Y424778D02*
X1292346D01*
Y390923D01*
X1287240D01*
Y424778D01*
X1274586D01*
Y429329D01*
X1305000D01*
Y424778D01*
D02*
G37*
G36*
X1269313Y390923D02*
X1264207D01*
Y406519D01*
X1254384D01*
X1252941Y406574D01*
X1251553Y406685D01*
X1250332Y406852D01*
X1249223Y407074D01*
X1248168Y407296D01*
X1247280Y407573D01*
X1246447Y407906D01*
X1245726Y408239D01*
X1245116Y408517D01*
X1244561Y408850D01*
X1244117Y409127D01*
X1243784Y409405D01*
X1243506Y409571D01*
X1243340Y409738D01*
X1243228Y409849D01*
X1243173Y409904D01*
X1242618Y410570D01*
X1242119Y411236D01*
X1241730Y411902D01*
X1241341Y412624D01*
X1241008Y413345D01*
X1240786Y414011D01*
X1240398Y415288D01*
X1240287Y415898D01*
X1240176Y416453D01*
X1240120Y416953D01*
X1240065Y417341D01*
X1240009Y417730D01*
Y417952D01*
Y418118D01*
Y418174D01*
X1240065Y419228D01*
X1240176Y420227D01*
X1240398Y421115D01*
X1240564Y421892D01*
X1240786Y422558D01*
X1241008Y423058D01*
X1241120Y423335D01*
X1241175Y423446D01*
X1241619Y424279D01*
X1242174Y425000D01*
X1242674Y425666D01*
X1243173Y426166D01*
X1243617Y426554D01*
X1243950Y426887D01*
X1244172Y427054D01*
X1244283Y427109D01*
X1245005Y427553D01*
X1245837Y427942D01*
X1246614Y428275D01*
X1247335Y428552D01*
X1248002Y428719D01*
X1248501Y428830D01*
X1248889Y428941D01*
X1249001D01*
X1249833Y429052D01*
X1250776Y429163D01*
X1251775Y429218D01*
X1252719Y429274D01*
X1253552Y429329D01*
X1269313D01*
Y390923D01*
D02*
G37*
G36*
X1199328Y424279D02*
X1180514D01*
X1181845Y422669D01*
X1183122Y420949D01*
X1184232Y419284D01*
X1185286Y417674D01*
X1185730Y416953D01*
X1186119Y416287D01*
X1186507Y415676D01*
X1186785Y415177D01*
X1187007Y414733D01*
X1187174Y414455D01*
X1187284Y414233D01*
X1187340Y414178D01*
X1188450Y411958D01*
X1189449Y409738D01*
X1190282Y407629D01*
X1190614Y406685D01*
X1190947Y405742D01*
X1191281Y404909D01*
X1191503Y404132D01*
X1191725Y403466D01*
X1191891Y402911D01*
X1192057Y402412D01*
X1192168Y402079D01*
X1192224Y401857D01*
Y401801D01*
X1192779Y399526D01*
X1193001Y398416D01*
X1193168Y397417D01*
X1193334Y396473D01*
X1193501Y395530D01*
X1193611Y394753D01*
X1193723Y393976D01*
X1193778Y393310D01*
X1193833Y392699D01*
X1193889Y392144D01*
Y391700D01*
X1193945Y391367D01*
Y391145D01*
Y390979D01*
Y390923D01*
X1189116D01*
X1188949Y393032D01*
X1188672Y394975D01*
X1188395Y396751D01*
X1188228Y397583D01*
X1188062Y398360D01*
X1187950Y399026D01*
X1187784Y399637D01*
X1187673Y400192D01*
X1187562Y400636D01*
X1187451Y400969D01*
X1187396Y401246D01*
X1187340Y401413D01*
Y401468D01*
X1186507Y404021D01*
X1185620Y406408D01*
X1185176Y407573D01*
X1184732Y408683D01*
X1184232Y409682D01*
X1183788Y410681D01*
X1183399Y411569D01*
X1183011Y412346D01*
X1182678Y413012D01*
X1182400Y413623D01*
X1182123Y414122D01*
X1181957Y414455D01*
X1181845Y414677D01*
X1181790Y414733D01*
X1181124Y415898D01*
X1180458Y417064D01*
X1179792Y418118D01*
X1179126Y419117D01*
X1178515Y420005D01*
X1177905Y420893D01*
X1177294Y421670D01*
X1176795Y422336D01*
X1176295Y423002D01*
X1175851Y423557D01*
X1175408Y424001D01*
X1175074Y424390D01*
X1174852Y424723D01*
X1174630Y424945D01*
X1174520Y425056D01*
X1174464Y425111D01*
Y428830D01*
X1199328D01*
Y424279D01*
D02*
G37*
G36*
X1221750Y429940D02*
X1223026Y429773D01*
X1224247Y429551D01*
X1225302Y429329D01*
X1226134Y429107D01*
X1226523Y428996D01*
X1226801Y428885D01*
X1227023Y428774D01*
X1227189Y428719D01*
X1227300Y428663D01*
X1227355D01*
X1228466Y428108D01*
X1229465Y427498D01*
X1230297Y426832D01*
X1230963Y426221D01*
X1231463Y425666D01*
X1231851Y425222D01*
X1232129Y424889D01*
X1232184Y424834D01*
Y424778D01*
X1232739Y423835D01*
X1233128Y422891D01*
X1233405Y421948D01*
X1233572Y421115D01*
X1233682Y420394D01*
X1233793Y419839D01*
Y419617D01*
Y419450D01*
Y419395D01*
Y419339D01*
X1233738Y418396D01*
X1233572Y417508D01*
X1233350Y416675D01*
X1233128Y415954D01*
X1232906Y415399D01*
X1232684Y414955D01*
X1232517Y414677D01*
X1232461Y414566D01*
X1231907Y413789D01*
X1231241Y413068D01*
X1230574Y412457D01*
X1229909Y411958D01*
X1229353Y411514D01*
X1228854Y411236D01*
X1228521Y411014D01*
X1228466Y410959D01*
X1228410D01*
X1227966Y410737D01*
X1227466Y410515D01*
X1226357Y410126D01*
X1225080Y409738D01*
X1223859Y409349D01*
X1222749Y409016D01*
X1222249Y408905D01*
X1221805Y408794D01*
X1221473Y408683D01*
X1221195Y408628D01*
X1221028Y408572D01*
X1220973D01*
X1220030Y408350D01*
X1219141Y408128D01*
X1218364Y407906D01*
X1217698Y407740D01*
X1217033Y407573D01*
X1216477Y407407D01*
X1215978Y407296D01*
X1215590Y407129D01*
X1215201Y407018D01*
X1214924Y406963D01*
X1214479Y406796D01*
X1214202Y406741D01*
X1214147Y406685D01*
X1213314Y406352D01*
X1212592Y405964D01*
X1211982Y405575D01*
X1211538Y405242D01*
X1211149Y404909D01*
X1210928Y404687D01*
X1210761Y404521D01*
X1210706Y404465D01*
X1210317Y403966D01*
X1210040Y403411D01*
X1209873Y402856D01*
X1209707Y402412D01*
X1209651Y401968D01*
X1209595Y401635D01*
Y401357D01*
Y401302D01*
X1209651Y400636D01*
X1209762Y400025D01*
X1209928Y399470D01*
X1210150Y399026D01*
X1210372Y398582D01*
X1210539Y398305D01*
X1210650Y398083D01*
X1210706Y398027D01*
X1211149Y397472D01*
X1211705Y397028D01*
X1212259Y396640D01*
X1212759Y396251D01*
X1213258Y396029D01*
X1213647Y395807D01*
X1213925Y395696D01*
X1214035Y395641D01*
X1214868Y395363D01*
X1215756Y395141D01*
X1216644Y395030D01*
X1217421Y394919D01*
X1218087Y394864D01*
X1218642Y394808D01*
X1219141D01*
X1220362Y394864D01*
X1221473Y394975D01*
X1222472Y395141D01*
X1223360Y395363D01*
X1224081Y395585D01*
X1224636Y395752D01*
X1224803Y395807D01*
X1224969Y395863D01*
X1225024Y395918D01*
X1225080D01*
X1225968Y396362D01*
X1226801Y396862D01*
X1227411Y397361D01*
X1227966Y397861D01*
X1228410Y398249D01*
X1228688Y398638D01*
X1228854Y398860D01*
X1228909Y398915D01*
X1229298Y399637D01*
X1229687Y400414D01*
X1229909Y401246D01*
X1230130Y401968D01*
X1230297Y402689D01*
X1230408Y403189D01*
Y403411D01*
X1230464Y403577D01*
Y403633D01*
Y403688D01*
X1235236Y403244D01*
X1235126Y401857D01*
X1234903Y400525D01*
X1234571Y399359D01*
X1234182Y398305D01*
X1233793Y397472D01*
X1233627Y397139D01*
X1233516Y396862D01*
X1233350Y396640D01*
X1233294Y396473D01*
X1233183Y396362D01*
Y396307D01*
X1232351Y395252D01*
X1231463Y394309D01*
X1230519Y393532D01*
X1229631Y392866D01*
X1228854Y392366D01*
X1228188Y392033D01*
X1227966Y391922D01*
X1227800Y391811D01*
X1227688Y391756D01*
X1227633D01*
X1226245Y391256D01*
X1224803Y390868D01*
X1223360Y390646D01*
X1221972Y390424D01*
X1221306Y390368D01*
X1220751Y390313D01*
X1220252D01*
X1219807Y390257D01*
X1218919D01*
X1217421Y390313D01*
X1216034Y390479D01*
X1214757Y390757D01*
X1213703Y391034D01*
X1212814Y391256D01*
X1212426Y391423D01*
X1212093Y391534D01*
X1211871Y391645D01*
X1211705Y391700D01*
X1211593Y391756D01*
X1211538D01*
X1210372Y392366D01*
X1209373Y393032D01*
X1208486Y393754D01*
X1207764Y394420D01*
X1207209Y394975D01*
X1206821Y395474D01*
X1206543Y395807D01*
X1206487Y395863D01*
Y395918D01*
X1205877Y396973D01*
X1205433Y397972D01*
X1205156Y398915D01*
X1204934Y399803D01*
X1204822Y400580D01*
X1204711Y401191D01*
Y401413D01*
Y401579D01*
Y401635D01*
Y401690D01*
X1204767Y402800D01*
X1204934Y403855D01*
X1205211Y404798D01*
X1205488Y405575D01*
X1205822Y406241D01*
X1206043Y406741D01*
X1206265Y407018D01*
X1206321Y407129D01*
X1206987Y407962D01*
X1207764Y408739D01*
X1208597Y409405D01*
X1209429Y410015D01*
X1210150Y410459D01*
X1210761Y410792D01*
X1210983Y410903D01*
X1211149Y411014D01*
X1211261Y411070D01*
X1211316D01*
X1211760Y411292D01*
X1212315Y411458D01*
X1212926Y411680D01*
X1213591Y411902D01*
X1214979Y412291D01*
X1216422Y412679D01*
X1217088Y412846D01*
X1217698Y413012D01*
X1218309Y413179D01*
X1218809Y413290D01*
X1219197Y413401D01*
X1219530Y413456D01*
X1219752Y413512D01*
X1219807D01*
X1220918Y413789D01*
X1221917Y414011D01*
X1222804Y414289D01*
X1223582Y414511D01*
X1224303Y414788D01*
X1224914Y415010D01*
X1225468Y415232D01*
X1225968Y415399D01*
X1226357Y415621D01*
X1226689Y415787D01*
X1226911Y415898D01*
X1227133Y416065D01*
X1227411Y416231D01*
X1227466Y416287D01*
X1227966Y416842D01*
X1228299Y417397D01*
X1228576Y417952D01*
X1228743Y418507D01*
X1228854Y418951D01*
X1228909Y419339D01*
Y419561D01*
Y419672D01*
X1228799Y420560D01*
X1228576Y421337D01*
X1228244Y422003D01*
X1227855Y422614D01*
X1227522Y423058D01*
X1227189Y423446D01*
X1226967Y423668D01*
X1226856Y423724D01*
X1226412Y424001D01*
X1225968Y424279D01*
X1224914Y424723D01*
X1223803Y425000D01*
X1222694Y425222D01*
X1221695Y425333D01*
X1221251Y425389D01*
X1220918Y425444D01*
X1220140D01*
X1218586Y425389D01*
X1217199Y425167D01*
X1216089Y424834D01*
X1215146Y424501D01*
X1214424Y424168D01*
X1213869Y423835D01*
X1213591Y423613D01*
X1213480Y423557D01*
X1212704Y422780D01*
X1212093Y421948D01*
X1211593Y421060D01*
X1211261Y420172D01*
X1211039Y419339D01*
X1210872Y418729D01*
X1210816Y418451D01*
X1210761Y418285D01*
Y418174D01*
Y418118D01*
X1205877Y418507D01*
X1205988Y419728D01*
X1206265Y420838D01*
X1206543Y421892D01*
X1206931Y422780D01*
X1207264Y423502D01*
X1207542Y424057D01*
X1207653Y424223D01*
X1207764Y424390D01*
X1207820Y424445D01*
Y424501D01*
X1208541Y425444D01*
X1209318Y426277D01*
X1210150Y426998D01*
X1210983Y427553D01*
X1211705Y428053D01*
X1212259Y428330D01*
X1212482Y428441D01*
X1212648Y428552D01*
X1212759Y428608D01*
X1212814D01*
X1214035Y429052D01*
X1215368Y429385D01*
X1216589Y429662D01*
X1217754Y429829D01*
X1218809Y429940D01*
X1219197D01*
X1219585Y429995D01*
X1220307D01*
X1221750Y429940D01*
D02*
G37*
G36*
X1099040Y429385D02*
X1100427Y429163D01*
X1101592Y428774D01*
X1102591Y428386D01*
X1103424Y427942D01*
X1103757Y427775D01*
X1104034Y427553D01*
X1104256Y427442D01*
X1104423Y427331D01*
X1104478Y427220D01*
X1104534D01*
X1105533Y426332D01*
X1106366Y425278D01*
X1107087Y424223D01*
X1107642Y423224D01*
X1108086Y422281D01*
X1108308Y421892D01*
X1108419Y421504D01*
X1108530Y421226D01*
X1108641Y421004D01*
X1108697Y420893D01*
Y420838D01*
X1108918Y420005D01*
X1109140Y419173D01*
X1109474Y417341D01*
X1109751Y415510D01*
X1109918Y413789D01*
X1109973Y412957D01*
X1110028Y412235D01*
Y411569D01*
X1110084Y410959D01*
Y410515D01*
Y410126D01*
Y409904D01*
Y409849D01*
X1110028Y407906D01*
X1109918Y406075D01*
X1109751Y404410D01*
X1109474Y402856D01*
X1109196Y401413D01*
X1108863Y400136D01*
X1108530Y398971D01*
X1108197Y397972D01*
X1107864Y397084D01*
X1107476Y396307D01*
X1107198Y395641D01*
X1106920Y395141D01*
X1106643Y394697D01*
X1106476Y394420D01*
X1106366Y394253D01*
X1106310Y394198D01*
X1105699Y393532D01*
X1105034Y392921D01*
X1104312Y392366D01*
X1103591Y391922D01*
X1102869Y391534D01*
X1102148Y391201D01*
X1101426Y390979D01*
X1100760Y390757D01*
X1100094Y390590D01*
X1099484Y390479D01*
X1098928Y390368D01*
X1098485Y390313D01*
X1098096Y390257D01*
X1097541D01*
X1096043Y390368D01*
X1094655Y390590D01*
X1093489Y390979D01*
X1092491Y391367D01*
X1091658Y391756D01*
X1091380Y391978D01*
X1091103Y392144D01*
X1090881Y392255D01*
X1090715Y392366D01*
X1090659Y392477D01*
X1090603D01*
X1089604Y393421D01*
X1088772Y394420D01*
X1088051Y395530D01*
X1087495Y396529D01*
X1087052Y397472D01*
X1086830Y397861D01*
X1086718Y398249D01*
X1086608Y398527D01*
X1086496Y398749D01*
X1086441Y398860D01*
Y398915D01*
X1086164Y399748D01*
X1085941Y400580D01*
X1085609Y402356D01*
X1085331Y404188D01*
X1085165Y405964D01*
X1085109Y406741D01*
X1085053Y407462D01*
Y408128D01*
X1084998Y408739D01*
Y409183D01*
Y409571D01*
Y409793D01*
Y409849D01*
Y410903D01*
X1085053Y411902D01*
Y412790D01*
X1085109Y413678D01*
X1085220Y414455D01*
X1085275Y415232D01*
X1085331Y415898D01*
X1085442Y416509D01*
X1085497Y417064D01*
X1085609Y417563D01*
X1085664Y417952D01*
X1085719Y418285D01*
X1085775Y418562D01*
X1085831Y418729D01*
X1085886Y418840D01*
Y418895D01*
X1086219Y420116D01*
X1086608Y421226D01*
X1087052Y422170D01*
X1087384Y423002D01*
X1087773Y423724D01*
X1087995Y424223D01*
X1088217Y424501D01*
X1088273Y424612D01*
X1088883Y425444D01*
X1089494Y426166D01*
X1090159Y426776D01*
X1090770Y427331D01*
X1091325Y427720D01*
X1091769Y427997D01*
X1092046Y428164D01*
X1092102Y428219D01*
X1092158D01*
X1093045Y428663D01*
X1093989Y428941D01*
X1094877Y429163D01*
X1095709Y429329D01*
X1096431Y429440D01*
X1097042Y429496D01*
X1097541D01*
X1099040Y429385D01*
D02*
G37*
%LPC*%
G36*
X1264207Y424778D02*
X1253218D01*
X1252219Y424723D01*
X1251387Y424667D01*
X1250721Y424612D01*
X1250277Y424501D01*
X1249944Y424445D01*
X1249722Y424390D01*
X1249667D01*
X1248945Y424112D01*
X1248334Y423779D01*
X1247780Y423446D01*
X1247280Y423058D01*
X1246947Y422669D01*
X1246669Y422392D01*
X1246503Y422170D01*
X1246447Y422114D01*
X1246059Y421448D01*
X1245726Y420782D01*
X1245504Y420061D01*
X1245393Y419450D01*
X1245282Y418895D01*
X1245226Y418396D01*
Y418118D01*
Y418063D01*
Y418007D01*
X1245338Y416842D01*
X1245560Y415843D01*
X1245892Y414955D01*
X1246281Y414233D01*
X1246669Y413678D01*
X1247003Y413234D01*
X1247225Y413012D01*
X1247335Y412901D01*
X1247724Y412568D01*
X1248224Y412291D01*
X1249278Y411847D01*
X1250444Y411514D01*
X1251609Y411292D01*
X1252664Y411181D01*
X1253108Y411125D01*
X1253496D01*
X1253884Y411070D01*
X1264207D01*
Y424778D01*
D02*
G37*
G36*
X1097929Y425611D02*
X1097597D01*
X1096986Y425555D01*
X1096376Y425500D01*
X1095821Y425333D01*
X1095321Y425111D01*
X1094378Y424612D01*
X1093545Y424057D01*
X1092935Y423446D01*
X1092435Y422947D01*
X1092268Y422725D01*
X1092158Y422558D01*
X1092046Y422503D01*
Y422447D01*
X1091658Y421781D01*
X1091325Y421004D01*
X1090992Y420116D01*
X1090770Y419173D01*
X1090548Y418174D01*
X1090381Y417119D01*
X1090104Y415010D01*
X1089993Y413956D01*
X1089938Y413012D01*
X1089882Y412124D01*
Y411403D01*
X1089826Y410737D01*
Y410237D01*
Y409960D01*
Y409904D01*
Y409849D01*
Y408128D01*
X1089938Y406574D01*
X1090049Y405187D01*
X1090159Y403855D01*
X1090326Y402745D01*
X1090548Y401690D01*
X1090770Y400802D01*
X1090937Y399970D01*
X1091159Y399304D01*
X1091380Y398749D01*
X1091547Y398249D01*
X1091769Y397861D01*
X1091880Y397583D01*
X1091991Y397417D01*
X1092102Y397306D01*
Y397250D01*
X1092546Y396695D01*
X1092990Y396251D01*
X1093434Y395807D01*
X1093878Y395474D01*
X1094822Y394919D01*
X1095654Y394531D01*
X1096431Y394309D01*
X1096986Y394198D01*
X1097208Y394142D01*
X1097541D01*
X1098151Y394198D01*
X1098707Y394253D01*
X1099761Y394642D01*
X1100705Y395141D01*
X1101537Y395696D01*
X1102148Y396251D01*
X1102647Y396751D01*
X1102925Y397139D01*
X1103035Y397195D01*
Y397250D01*
X1103424Y397916D01*
X1103757Y398693D01*
X1104090Y399581D01*
X1104312Y400525D01*
X1104534Y401524D01*
X1104700Y402578D01*
X1104978Y404743D01*
X1105089Y405742D01*
X1105145Y406685D01*
X1105200Y407573D01*
Y408295D01*
X1105255Y408961D01*
Y409460D01*
Y409738D01*
Y409849D01*
X1105200Y411569D01*
X1105145Y413123D01*
X1105034Y414566D01*
X1104867Y415898D01*
X1104700Y417064D01*
X1104478Y418118D01*
X1104256Y419062D01*
X1104034Y419894D01*
X1103812Y420616D01*
X1103646Y421226D01*
X1103424Y421726D01*
X1103257Y422170D01*
X1103091Y422447D01*
X1102980Y422669D01*
X1102869Y422780D01*
Y422836D01*
X1102480Y423335D01*
X1102092Y423779D01*
X1101648Y424112D01*
X1101204Y424445D01*
X1100316Y424945D01*
X1099484Y425278D01*
X1098762Y425444D01*
X1098151Y425555D01*
X1097929Y425611D01*
D02*
G37*
%LPD*%
D28*
X477506Y1645000D02*
G03*
X477506Y1645000I-236253J0D01*
G01*
X850000Y565000D02*
G03*
X850000Y565000I-5000J0D01*
G01*
X746000Y263000D02*
X838000D01*
Y131000D02*
Y263000D01*
X595204D02*
X689000D01*
X594000Y131000D02*
Y263000D01*
X749000Y131000D02*
X838000D01*
X594000D02*
X690000D01*
X3047000Y1254800D02*
Y1345000D01*
X2982000Y1254800D02*
X3047000D01*
X2982000Y1345000D02*
X3047000D01*
X2885200Y1255000D02*
Y1345000D01*
X2951000D01*
X2885200Y1255000D02*
X2950000D01*
X2885200Y1149800D02*
Y1240000D01*
X2950200D01*
X2885200Y1149800D02*
X2950200D01*
X3047000D02*
Y1239800D01*
X2981200Y1149800D02*
X3047000D01*
X2982200Y1239800D02*
X3047000D01*
X280591Y1644999D02*
X339645D01*
X312087Y1609567D02*
Y1680433D01*
X602000Y615000D02*
X698000D01*
X757000D02*
X846000D01*
X602000D02*
Y747000D01*
X603204D02*
X697000D01*
X846000Y615000D02*
Y747000D01*
X754000D02*
X846000D01*
X850000Y323700D02*
Y530000D01*
X730000Y323700D02*
X746496D01*
X730000D02*
Y530000D01*
X832520Y323700D02*
X850000D01*
X730000Y530000D02*
X750000D01*
X736850Y495000D02*
X750000D01*
X830000Y530000D02*
X850000D01*
X830000Y495000D02*
X843150D01*
X790000Y442000D02*
X802000Y417000D01*
X778000Y420000D02*
X790000Y442000D01*
X778000Y420000D02*
X792000D01*
X790004Y430902D02*
X792000Y420000D01*
X190000Y430000D02*
Y460000D01*
X120000Y430000D02*
X190000D01*
X120000D02*
Y460000D01*
Y505000D02*
Y565000D01*
X190000Y460000D02*
Y505000D01*
Y550000D02*
Y580000D01*
X120000D02*
X190000D01*
X120000Y555000D02*
Y580000D01*
X1017494Y619997D02*
X1022493Y624995D01*
X1032489D01*
X1037488Y619997D01*
Y600003D01*
X1032489Y595005D01*
X1022493D01*
X1017494Y600003D01*
X1007497Y595005D02*
X997501D01*
X1002499D01*
Y624995D01*
X1007497Y619997D01*
X962512Y624995D02*
X972509Y619997D01*
X982506Y610000D01*
Y600003D01*
X977507Y595005D01*
X967510D01*
X962512Y600003D01*
Y605002D01*
X967510Y610000D01*
X982506D01*
X1177494Y619997D02*
X1182493Y624995D01*
X1192489D01*
X1197488Y619997D01*
Y600003D01*
X1192489Y595005D01*
X1182493D01*
X1177494Y600003D01*
X1167497Y595005D02*
X1157501D01*
X1162499D01*
Y624995D01*
X1167497Y619997D01*
X1122512Y624995D02*
X1142506D01*
Y610000D01*
X1132509Y614998D01*
X1127510D01*
X1122512Y610000D01*
Y600003D01*
X1127510Y595005D01*
X1137507D01*
X1142506Y600003D01*
X1342494Y619997D02*
X1347493Y624995D01*
X1357489D01*
X1362488Y619997D01*
Y600003D01*
X1357489Y595005D01*
X1347493D01*
X1342494Y600003D01*
X1332497Y595005D02*
X1322501D01*
X1327499D01*
Y624995D01*
X1332497Y619997D01*
X1292510Y595005D02*
Y624995D01*
X1307506Y610000D01*
X1287512D01*
X1507494Y619997D02*
X1512493Y624995D01*
X1522489D01*
X1527488Y619997D01*
Y600003D01*
X1522489Y595005D01*
X1512493D01*
X1507494Y600003D01*
X1497497Y595005D02*
X1487501D01*
X1492499D01*
Y624995D01*
X1497497Y619997D01*
X1472506D02*
X1467507Y624995D01*
X1457510D01*
X1452512Y619997D01*
Y614998D01*
X1457510Y610000D01*
X1462509D01*
X1457510D01*
X1452512Y605002D01*
Y600003D01*
X1457510Y595005D01*
X1467507D01*
X1472506Y600003D01*
X678320Y1650976D02*
Y1670969D01*
X663325D01*
X678320Y1660972D02*
X663325D01*
X673321Y1700959D02*
X668323D01*
Y1680966D01*
X683318Y1690963D01*
X698313Y1680966D01*
Y1700959D01*
X693315D01*
X678320Y1720953D02*
Y1710956D01*
X698313D02*
X663325D01*
X693315Y1720953D02*
X698313Y1725951D01*
Y1735948D01*
X693315Y1740947D01*
X688317D01*
X678320Y1730950D01*
X673321D02*
X668323D01*
X683318Y1760940D02*
Y1750943D01*
X678320Y1760940D02*
Y1750943D01*
X698313D02*
X663325D01*
X693315Y1760940D02*
X698313Y1765938D01*
Y1775935D01*
X693315Y1780934D01*
X688317D01*
X678320Y1770937D01*
X673321D02*
X668323D01*
Y1790930D02*
Y1800927D01*
Y1795929D01*
X698313D01*
X693315Y1790930D01*
X1349000Y417990D02*
X1329006D01*
X1339003D01*
Y388000D01*
X1319010D02*
Y417990D01*
X1304014D01*
X1299016Y412992D01*
Y402995D01*
X1304014Y397997D01*
X1319010D01*
X1269026Y412992D02*
X1274024Y417990D01*
X1284021D01*
X1289019Y412992D01*
Y407993D01*
X1284021Y402995D01*
X1274024D01*
X1269026Y397997D01*
Y392998D01*
X1274024Y388000D01*
X1284021D01*
X1289019Y392998D01*
X1259029Y412992D02*
X1254031Y417990D01*
X1244034D01*
X1239036Y412992D01*
Y407993D01*
X1244034Y402995D01*
X1249032D01*
X1244034D01*
X1239036Y397997D01*
Y392998D01*
X1244034Y388000D01*
X1254031D01*
X1259029Y392998D01*
X1269982Y959995D02*
X1249989D01*
X1259985D01*
Y930005D01*
X1239992D02*
Y959995D01*
X1224997D01*
X1219998Y954997D01*
Y945000D01*
X1224997Y940002D01*
X1239992D01*
X1190008Y954997D02*
X1195006Y959995D01*
X1205003D01*
X1210002Y954997D01*
Y949998D01*
X1205003Y945000D01*
X1195006D01*
X1190008Y940002D01*
Y935003D01*
X1195006Y930005D01*
X1205003D01*
X1210002Y935003D01*
X1160018Y930005D02*
X1180011D01*
X1160018Y949998D01*
Y954997D01*
X1165016Y959995D01*
X1175013D01*
X1180011Y954997D01*
X1909984Y414995D02*
X1889990D01*
X1899987D01*
Y385005D01*
X1879994D02*
Y414995D01*
X1864998D01*
X1860000Y409997D01*
Y400000D01*
X1864998Y395002D01*
X1879994D01*
X1830010Y409997D02*
X1835008Y414995D01*
X1845005D01*
X1850003Y409997D01*
Y404998D01*
X1845005Y400000D01*
X1835008D01*
X1830010Y395002D01*
Y390003D01*
X1835008Y385005D01*
X1845005D01*
X1850003Y390003D01*
X1820013Y385005D02*
X1810016D01*
X1815014D01*
Y414995D01*
X1820013Y409997D01*
X909992Y250005D02*
Y279995D01*
X894997D01*
X889998Y274997D01*
Y265000D01*
X894997Y260002D01*
X909992D01*
X899995D02*
X889998Y250005D01*
X860008Y279995D02*
X870005Y274997D01*
X880002Y265000D01*
Y255003D01*
X875003Y250005D01*
X865006D01*
X860008Y255003D01*
Y260002D01*
X865006Y265000D01*
X880002D01*
X841000Y782000D02*
Y811990D01*
X826005D01*
X821006Y806992D01*
Y796995D01*
X826005Y791997D01*
X841000D01*
X831003D02*
X821006Y782000D01*
X791016Y811990D02*
X811010D01*
Y796995D01*
X801013Y801994D01*
X796014D01*
X791016Y796995D01*
Y786998D01*
X796014Y782000D01*
X806011D01*
X811010Y786998D01*
X3124992Y1185005D02*
Y1214995D01*
X3109997D01*
X3104998Y1209997D01*
Y1200000D01*
X3109997Y1195002D01*
X3124992D01*
X3114995D02*
X3104998Y1185005D01*
X3095002Y1209997D02*
X3090003Y1214995D01*
X3080006D01*
X3075008Y1209997D01*
Y1204998D01*
X3080006Y1200000D01*
X3085005D01*
X3080006D01*
X3075008Y1195002D01*
Y1190003D01*
X3080006Y1185005D01*
X3090003D01*
X3095002Y1190003D01*
X3124992Y1295005D02*
Y1324995D01*
X3109997D01*
X3104998Y1319997D01*
Y1310000D01*
X3109997Y1305002D01*
X3124992D01*
X3114995D02*
X3104998Y1295005D01*
X3075008D02*
X3095002D01*
X3075008Y1314998D01*
Y1319997D01*
X3080006Y1324995D01*
X3090003D01*
X3095002Y1319997D01*
X199986Y649995D02*
X219979D01*
Y635000D01*
X209982D01*
X219979D01*
Y620005D01*
X189989Y649995D02*
Y625003D01*
X184990Y620005D01*
X174994D01*
X169995Y625003D01*
Y649995D01*
X140005Y644997D02*
X145003Y649995D01*
X155000D01*
X159998Y644997D01*
Y639998D01*
X155000Y635000D01*
X145003D01*
X140005Y630002D01*
Y625003D01*
X145003Y620005D01*
X155000D01*
X159998Y625003D01*
X110015Y649995D02*
X130008D01*
Y620005D01*
X110015D01*
X130008Y635000D02*
X120011D01*
X100018Y620005D02*
X90021D01*
X95019D01*
Y649995D01*
X100018Y644997D01*
X2094998Y764995D02*
X2114992D01*
Y735005D01*
X2094998D01*
X2114992Y750000D02*
X2104995D01*
X2070006Y735005D02*
Y764995D01*
X2085002Y750000D01*
X2065008D01*
X1614998Y774995D02*
X1634992D01*
Y745005D01*
X1614998D01*
X1634992Y760000D02*
X1624995D01*
X1605002Y769997D02*
X1600003Y774995D01*
X1590006D01*
X1585008Y769997D01*
Y764998D01*
X1590006Y760000D01*
X1595005D01*
X1590006D01*
X1585008Y755002D01*
Y750003D01*
X1590006Y745005D01*
X1600003D01*
X1605002Y750003D01*
X929994Y574995D02*
Y545005D01*
X914998D01*
X910000Y550003D01*
Y569997D01*
X914998Y574995D01*
X929994D01*
X900003Y545005D02*
X890006D01*
X895005D01*
Y574995D01*
X900003Y569997D01*
X1457494Y414997D02*
X1462493Y419995D01*
X1472489D01*
X1477488Y414997D01*
Y395003D01*
X1472489Y390005D01*
X1462493D01*
X1457494Y395003D01*
X1447497Y390005D02*
X1437501D01*
X1442499D01*
Y419995D01*
X1447497Y414997D01*
X1402512Y390005D02*
X1422506D01*
X1402512Y409998D01*
Y414997D01*
X1407510Y419995D01*
X1417507D01*
X1422506Y414997D01*
X1007496D02*
X1012494Y419995D01*
X1022491D01*
X1027489Y414997D01*
Y395003D01*
X1022491Y390005D01*
X1012494D01*
X1007496Y395003D01*
X997499Y390005D02*
X987502D01*
X992501D01*
Y419995D01*
X997499Y414997D01*
X972507Y390005D02*
X962510D01*
X967509D01*
Y419995D01*
X972507Y414997D01*
X1457494Y959997D02*
X1462493Y964995D01*
X1472489D01*
X1477488Y959997D01*
Y940003D01*
X1472489Y935005D01*
X1462493D01*
X1457494Y940003D01*
X1447497Y935005D02*
X1437501D01*
X1442499D01*
Y964995D01*
X1447497Y959997D01*
X1422506D02*
X1417507Y964995D01*
X1407510D01*
X1402512Y959997D01*
Y940003D01*
X1407510Y935005D01*
X1417507D01*
X1422506Y940003D01*
Y959997D01*
X999998Y944997D02*
X1004997Y949995D01*
X1014994D01*
X1019992Y944997D01*
Y925003D01*
X1014994Y920005D01*
X1004997D01*
X999998Y925003D01*
X990002D02*
X985003Y920005D01*
X975006D01*
X970008Y925003D01*
Y944997D01*
X975006Y949995D01*
X985003D01*
X990002Y944997D01*
Y939998D01*
X985003Y935000D01*
X970008D01*
X2094998Y414997D02*
X2099997Y419995D01*
X2109994D01*
X2114992Y414997D01*
Y395003D01*
X2109994Y390005D01*
X2099997D01*
X2094998Y395003D01*
X2085002Y414997D02*
X2080003Y419995D01*
X2070006D01*
X2065008Y414997D01*
Y409998D01*
X2070006Y405000D01*
X2065008Y400002D01*
Y395003D01*
X2070006Y390005D01*
X2080003D01*
X2085002Y395003D01*
Y400002D01*
X2080003Y405000D01*
X2085002Y409998D01*
Y414997D01*
X2080003Y405000D02*
X2070006D01*
X1624998Y414997D02*
X1629997Y419995D01*
X1639994D01*
X1644992Y414997D01*
Y395003D01*
X1639994Y390005D01*
X1629997D01*
X1624998Y395003D01*
X1615002Y419995D02*
X1595008D01*
Y414997D01*
X1615002Y395003D01*
Y390005D01*
X2106006Y919992D02*
X2111005Y924990D01*
X2121002D01*
X2126000Y919992D01*
Y899998D01*
X2121002Y895000D01*
X2111005D01*
X2106006Y899998D01*
X2076016Y924990D02*
X2086013Y919992D01*
X2096010Y909995D01*
Y899998D01*
X2091011Y895000D01*
X2081015D01*
X2076016Y899998D01*
Y904997D01*
X2081015Y909995D01*
X2096010D01*
X1677006Y919992D02*
X1682005Y924990D01*
X1692002D01*
X1697000Y919992D01*
Y899998D01*
X1692002Y895000D01*
X1682005D01*
X1677006Y899998D01*
X1647016Y924990D02*
X1667010D01*
Y909995D01*
X1657013Y914994D01*
X1652014D01*
X1647016Y909995D01*
Y899998D01*
X1652014Y895000D01*
X1662011D01*
X1667010Y899998D01*
X3123990Y1441005D02*
X3103997D01*
X3123990Y1421011D01*
Y1416013D01*
X3118992Y1411014D01*
X3108995D01*
X3103997Y1416013D01*
X1864992Y934997D02*
X1844998Y915003D01*
X1864992D02*
X1844998Y934997D01*
X1864992Y925000D02*
X1844998D01*
X1854995Y915003D02*
Y934997D01*
X1815008Y910005D02*
X1835002D01*
X1815008Y929998D01*
Y934997D01*
X1820006Y939995D01*
X1830003D01*
X1835002Y934997D01*
D52*
X1869331Y154016D02*
G03*
X1844135Y154016I-12598J0D01*
G01*
X1230866Y692937D02*
G03*
X1205670Y692937I-12598J0D01*
G01*
X1230866Y152937D02*
G03*
X1205670Y152937I-12598J0D01*
G01*
X1809686Y154016D02*
X1844134D01*
X1869332D02*
X1903780D01*
Y355592D01*
X1809686D02*
X1903780D01*
X1809686Y154016D02*
Y355592D01*
X1171220Y692938D02*
X1205670D01*
X1230866D02*
X1265316D01*
Y894512D01*
X1171220D02*
X1265316D01*
X1171220Y692938D02*
Y894512D01*
X2960000Y1390000D02*
X3060000D01*
Y1790000D01*
X2960000Y1390000D02*
Y1790000D01*
X3060000D01*
X1647938Y500000D02*
Y570000D01*
X1567938Y500000D02*
X1647938D01*
X1567938D02*
Y570000D01*
X1647938Y635000D02*
Y700000D01*
X1634938Y713000D02*
X1647938Y700000D01*
X1567938Y635000D02*
Y700000D01*
X1580938Y713000D02*
X1634938D01*
X1567938Y700000D02*
X1580938Y713000D01*
X2132064Y490000D02*
Y560000D01*
X2052064Y490000D02*
X2132064D01*
X2052064D02*
Y560000D01*
X2132064Y625000D02*
Y690000D01*
X2119064Y703000D02*
X2132064Y690000D01*
X2052064Y625000D02*
Y690000D01*
X2065064Y703000D02*
X2119064D01*
X2052064Y690000D02*
X2065064Y703000D01*
X1171220Y152938D02*
Y354512D01*
X1265316D01*
Y152938D02*
Y354512D01*
X1230866Y152938D02*
X1265316D01*
X1171220D02*
X1205670D01*
D53*
X1942874Y640000D02*
G03*
X1942874Y640000I-7874J0D01*
G01*
X1982874Y515000D02*
G03*
X1982874Y515000I-7874J0D01*
G01*
D54*
X152723Y485669D02*
G03*
X155000Y505000I-1143J9934D01*
G01*
X157277Y524331D02*
G03*
X155000Y505000I1143J-9934D01*
G01*
D55*
X1326666Y520000D02*
Y525000D01*
Y505000D02*
Y510000D01*
X1316666D02*
X1336666D01*
X1316666Y520000D02*
X1336666D01*
X990000D02*
Y525000D01*
Y505000D02*
Y510000D01*
X980000D02*
X1000000D01*
X980000Y520000D02*
X1000000D01*
X2069500Y825000D02*
Y845000D01*
X2059500Y825000D02*
Y845000D01*
X2054500Y835000D02*
X2059500D01*
X2069500D02*
X2074500D01*
X1640500Y825000D02*
Y845000D01*
X1630500Y825000D02*
Y845000D01*
X1625500Y835000D02*
X1630500D01*
X1640500D02*
X1645500D01*
X1148334Y520000D02*
X1168334D01*
X1148334Y510000D02*
X1168334D01*
X1158334Y505000D02*
Y510000D01*
Y520000D02*
Y525000D01*
X1485000Y520000D02*
X1505000D01*
X1485000Y510000D02*
X1505000D01*
X1495000Y505000D02*
Y510000D01*
Y520000D02*
Y525000D01*
D56*
X1300666Y447500D02*
X1352666D01*
X1300666Y582500D02*
X1352666D01*
X1300666Y533000D02*
Y582500D01*
X1352666Y533000D02*
Y582500D01*
X1300666Y447500D02*
Y497000D01*
X1352666Y447500D02*
Y497000D01*
X964000Y447500D02*
X1016000D01*
X964000Y582500D02*
X1016000D01*
X964000Y533000D02*
Y582500D01*
X1016000Y533000D02*
Y582500D01*
X964000Y447500D02*
Y497000D01*
X1016000Y447500D02*
Y497000D01*
X1997000Y809000D02*
X2046500D01*
X1997000Y861000D02*
X2046500D01*
X2082500Y809000D02*
X2132000D01*
X2082500Y861000D02*
X2132000D01*
Y809000D02*
Y861000D01*
X1997000Y809000D02*
Y861000D01*
X1568000Y809000D02*
X1617500D01*
X1568000Y861000D02*
X1617500D01*
X1653500Y809000D02*
X1703000D01*
X1653500Y861000D02*
X1703000D01*
Y809000D02*
Y861000D01*
X1568000Y809000D02*
Y861000D01*
X1184334Y447500D02*
Y497000D01*
X1132334Y447500D02*
Y497000D01*
X1184334Y533000D02*
Y582500D01*
X1132334Y533000D02*
Y582500D01*
X1184334D01*
X1132334Y447500D02*
X1184334D01*
X1521000D02*
Y497000D01*
X1469000Y447500D02*
Y497000D01*
X1521000Y533000D02*
Y582500D01*
X1469000Y533000D02*
Y582500D01*
X1521000D01*
X1469000Y447500D02*
X1521000D01*
X790000Y449448D02*
X810000Y414448D01*
X770000D02*
X810000D01*
X770000D02*
X790000Y449448D01*
X770000D02*
X810000D01*
D57*
X1967952Y606102D02*
Y743898D01*
X1712048Y606102D02*
X1967952D01*
X1712048D02*
Y743898D01*
X1967952D01*
D58*
X2130000Y142450D02*
Y217450D01*
X2040000Y142450D02*
Y217450D01*
X2130000Y277450D02*
Y337450D01*
X2040000Y277450D02*
Y337450D01*
Y142450D02*
X2130000D01*
X2055000Y352450D02*
X2115000D01*
X2040000Y337450D02*
X2055000Y352450D01*
X2115000D02*
X2130000Y337450D01*
X1660000Y142450D02*
Y217450D01*
X1570000Y142450D02*
Y217450D01*
X1660000Y277450D02*
Y337450D01*
X1570000Y277450D02*
Y337450D01*
Y142450D02*
X1660000D01*
X1585000Y352450D02*
X1645000D01*
X1570000Y337450D02*
X1585000Y352450D01*
X1645000D02*
X1660000Y337450D01*
X1040000Y682450D02*
Y757450D01*
X950000Y682450D02*
Y757450D01*
X1040000Y817450D02*
Y877450D01*
X950000Y817450D02*
Y877450D01*
Y682450D02*
X1040000D01*
X965000Y892450D02*
X1025000D01*
X950000Y877450D02*
X965000Y892450D01*
X1025000D02*
X1040000Y877450D01*
X1480000Y682450D02*
Y757450D01*
X1390000Y682450D02*
Y757450D01*
X1480000Y817450D02*
Y877450D01*
X1390000Y817450D02*
Y877450D01*
Y682450D02*
X1480000D01*
X1405000Y892450D02*
X1465000D01*
X1390000Y877450D02*
X1405000Y892450D01*
X1465000D02*
X1480000Y877450D01*
Y142450D02*
Y217450D01*
X1390000Y142450D02*
Y217450D01*
X1480000Y277450D02*
Y337450D01*
X1390000Y277450D02*
Y337450D01*
Y142450D02*
X1480000D01*
X1405000Y352450D02*
X1465000D01*
X1390000Y337450D02*
X1405000Y352450D01*
X1465000D02*
X1480000Y337450D01*
X1040000Y142450D02*
Y217450D01*
X950000Y142450D02*
Y217450D01*
X1040000Y277450D02*
Y337450D01*
X950000Y277450D02*
Y337450D01*
Y142450D02*
X1040000D01*
X965000Y352450D02*
X1025000D01*
X950000Y337450D02*
X965000Y352450D01*
X1025000D02*
X1040000Y337450D01*
%TF.MD5,a7b36d3a0e616e0b0c910185be606726*%
M02*
