%TF.GenerationSoftware,Altium Limited,Altium Designer,22.3.1 (43)*%
G04 Layer_Color=255*
%FSLAX26Y26*%
%MOIN*%
%TF.SameCoordinates,A6686B76-6886-4B69-866F-DC8958589E3E*%
%TF.FilePolarity,Positive*%
%TF.FileFunction,Pads,Top*%
%TF.Part,Single*%
G01*
G75*
%TA.AperFunction,SMDPad,CuDef*%
%ADD10O,0.050000X0.060000*%
%ADD11R,0.055118X0.047244*%
%ADD12O,0.055118X0.047244*%
%ADD13R,0.040000X0.030000*%
%ADD14O,0.040000X0.030000*%
%ADD15R,0.050000X0.050000*%
%ADD16C,0.050000*%
%ADD17R,0.030000X0.040000*%
%ADD18O,0.030000X0.040000*%
%ADD19O,0.037402X0.090551*%
%ADD20R,0.037402X0.090551*%
%ADD21R,0.129921X0.090551*%
%ADD22R,0.059055X0.078740*%
%ADD23O,0.059055X0.078740*%
%ADD24O,0.047244X0.019685*%
%TA.AperFunction,ComponentPad*%
%ADD29R,0.059055X0.059055*%
%ADD30C,0.059055*%
%ADD31R,0.059055X0.059055*%
%ADD32C,0.066929*%
%ADD33R,0.066929X0.066929*%
%ADD34C,0.200000*%
%ADD35R,0.062992X0.062992*%
%ADD36C,0.062992*%
%ADD37O,0.098425X0.137795*%
%ADD38C,0.090551*%
%ADD39C,0.074803*%
%ADD40R,0.062992X0.062992*%
D10*
X2595000Y775000D02*
D03*
Y875000D02*
D03*
X2250000Y550000D02*
D03*
Y650000D02*
D03*
X1750000Y550000D02*
D03*
Y650000D02*
D03*
X2715000Y775000D02*
D03*
Y875000D02*
D03*
X2475000D02*
D03*
Y775000D02*
D03*
X1505000Y550000D02*
D03*
Y650000D02*
D03*
X1265000Y550000D02*
D03*
Y650000D02*
D03*
X1990000Y550000D02*
D03*
Y650000D02*
D03*
X2350000Y550000D02*
D03*
Y650000D02*
D03*
D11*
X1105000Y696590D02*
D03*
X680000D02*
D03*
D12*
X1105000Y562732D02*
D03*
X680000D02*
D03*
D13*
X1151500Y860000D02*
D03*
X721500D02*
D03*
X2858500Y1175000D02*
D03*
D14*
X1078500Y860000D02*
D03*
X648500D02*
D03*
X2931500Y1175000D02*
D03*
D15*
X2595100Y565000D02*
D03*
X2715200D02*
D03*
X2475000D02*
D03*
D16*
X2594900Y647300D02*
D03*
X240200Y1122700D02*
D03*
X240000Y1205000D02*
D03*
X2240000Y892300D02*
D03*
X2240200Y810000D02*
D03*
X2715000Y647300D02*
D03*
X2474800D02*
D03*
X1499800Y892300D02*
D03*
X1500000Y810000D02*
D03*
X1270000Y892300D02*
D03*
X1270200Y810000D02*
D03*
X425000Y1205100D02*
D03*
X425200Y1122800D02*
D03*
X1760000Y892300D02*
D03*
X1760200Y810000D02*
D03*
X1984800Y892300D02*
D03*
X1985000Y810000D02*
D03*
X2350000Y892300D02*
D03*
X2350200Y810000D02*
D03*
X247300Y2805200D02*
D03*
X165000Y2805000D02*
D03*
X167700Y2674800D02*
D03*
X250000Y2675000D02*
D03*
D17*
X2945000Y3013500D02*
D03*
D18*
Y3086500D02*
D03*
X115000Y1206500D02*
D03*
Y1133500D02*
D03*
D19*
X814448Y570724D02*
D03*
D20*
X905000D02*
D03*
X995552D02*
D03*
D21*
X905000Y840724D02*
D03*
D22*
X1748334Y103480D02*
D03*
X1506666D02*
D03*
X1265000D02*
D03*
X1990000D02*
D03*
D23*
X1748334Y410566D02*
D03*
X1506666D02*
D03*
X1265000D02*
D03*
X1990000D02*
D03*
D24*
X245000Y2507598D02*
D03*
Y2582402D02*
D03*
X155000Y2545000D02*
D03*
D29*
X3010000Y1440000D02*
D03*
X690000Y1875000D02*
D03*
Y2455000D02*
D03*
D30*
X3010000Y1540000D02*
D03*
Y1640000D02*
D03*
Y1740000D02*
D03*
X91615Y1644999D02*
D03*
X690000Y1275000D02*
D03*
Y1375000D02*
D03*
Y1475000D02*
D03*
Y1575000D02*
D03*
Y1675000D02*
D03*
Y1775000D02*
D03*
Y1975000D02*
D03*
X2710000Y1610000D02*
D03*
Y1510000D02*
D03*
X2810000Y1610000D02*
D03*
Y1510000D02*
D03*
X2710000Y1710000D02*
D03*
X2810000D02*
D03*
X2710000Y1810000D02*
D03*
X2810000D02*
D03*
X2710000Y1910000D02*
D03*
X2810000D02*
D03*
X2710000Y2010000D02*
D03*
X2810000D02*
D03*
X2710000Y2110000D02*
D03*
X2810000D02*
D03*
X2710000Y2210000D02*
D03*
X2810000D02*
D03*
X2710000Y2310000D02*
D03*
X2810000D02*
D03*
X2710000Y2410000D02*
D03*
X2810000D02*
D03*
X2710000Y2510000D02*
D03*
X2810000D02*
D03*
X2710000Y2610000D02*
D03*
X2810000D02*
D03*
X2710000Y2710000D02*
D03*
X2810000D02*
D03*
X2710000Y2810000D02*
D03*
X2810000D02*
D03*
X2710000Y2910000D02*
D03*
X2810000D02*
D03*
X2610000Y1510000D02*
D03*
Y1610000D02*
D03*
X2510000Y1510000D02*
D03*
Y1610000D02*
D03*
X2410000Y1510000D02*
D03*
Y1610000D02*
D03*
X2310000Y1510000D02*
D03*
Y1610000D02*
D03*
X2210000Y1510000D02*
D03*
Y1610000D02*
D03*
X2110000Y1510000D02*
D03*
Y1610000D02*
D03*
X2010000Y1510000D02*
D03*
Y1610000D02*
D03*
X1910000Y1510000D02*
D03*
Y1610000D02*
D03*
X1810000Y1510000D02*
D03*
Y1610000D02*
D03*
X1710000Y1510000D02*
D03*
Y1610000D02*
D03*
X2510000Y3010000D02*
D03*
Y3110000D02*
D03*
X2610000Y3010000D02*
D03*
Y3110000D02*
D03*
X2710000D02*
D03*
X2810000D02*
D03*
X1610000Y1510000D02*
D03*
Y1610000D02*
D03*
X1510000Y1510000D02*
D03*
Y1610000D02*
D03*
X1410000Y1510000D02*
D03*
Y1610000D02*
D03*
X1310000Y1510000D02*
D03*
Y1610000D02*
D03*
X1210000Y1510000D02*
D03*
Y1610000D02*
D03*
X1110000Y1510000D02*
D03*
Y1610000D02*
D03*
X1010000Y1510000D02*
D03*
Y1610000D02*
D03*
X910000Y1510000D02*
D03*
Y1610000D02*
D03*
Y1710000D02*
D03*
X1010000D02*
D03*
X910000Y1810000D02*
D03*
X1010000D02*
D03*
X910000Y1910000D02*
D03*
X1010000D02*
D03*
X910000Y2010000D02*
D03*
X1010000D02*
D03*
Y2610000D02*
D03*
X910000D02*
D03*
X1010000Y2710000D02*
D03*
X910000D02*
D03*
X1010000Y2810000D02*
D03*
X910000D02*
D03*
X1010000Y2910000D02*
D03*
X910000D02*
D03*
Y3010000D02*
D03*
Y3110000D02*
D03*
X1010000Y3010000D02*
D03*
Y3110000D02*
D03*
X1110000Y3010000D02*
D03*
Y3110000D02*
D03*
X1210000Y3010000D02*
D03*
Y3110000D02*
D03*
X1310000Y3010000D02*
D03*
Y3110000D02*
D03*
X1410000Y3010000D02*
D03*
Y3110000D02*
D03*
X1510000Y3010000D02*
D03*
Y3110000D02*
D03*
X1610000Y3010000D02*
D03*
Y3110000D02*
D03*
X1710000Y3010000D02*
D03*
Y3110000D02*
D03*
X1810000Y3010000D02*
D03*
Y3110000D02*
D03*
X1910000Y3010000D02*
D03*
Y3110000D02*
D03*
X2010000Y3010000D02*
D03*
Y3110000D02*
D03*
X2110000Y3010000D02*
D03*
Y3110000D02*
D03*
X2210000Y3010000D02*
D03*
Y3110000D02*
D03*
X2310000Y3010000D02*
D03*
Y3110000D02*
D03*
X2410000Y3010000D02*
D03*
Y3110000D02*
D03*
X2750000Y1275000D02*
D03*
X2650000D02*
D03*
X2550000D02*
D03*
X690000Y2555000D02*
D03*
Y2655000D02*
D03*
Y2755000D02*
D03*
Y2855000D02*
D03*
Y2955000D02*
D03*
Y3055000D02*
D03*
Y3155000D02*
D03*
X3010000Y2060000D02*
D03*
Y2160000D02*
D03*
Y2260000D02*
D03*
Y2360000D02*
D03*
Y2460000D02*
D03*
Y2560000D02*
D03*
Y2660000D02*
D03*
Y2760000D02*
D03*
D31*
X390827Y1644999D02*
D03*
X2710000Y3010000D02*
D03*
X2810000D02*
D03*
D32*
X225000Y3680000D02*
D03*
X725000D02*
D03*
X625000D02*
D03*
X425000D02*
D03*
X325000D02*
D03*
X968334D02*
D03*
X1468334D02*
D03*
X1368334D02*
D03*
X1168334D02*
D03*
X1068334D02*
D03*
X1711666D02*
D03*
X2211666D02*
D03*
X2111666D02*
D03*
X1911666D02*
D03*
X1811666D02*
D03*
X2455000D02*
D03*
X2955000D02*
D03*
X2855000D02*
D03*
X2655000D02*
D03*
X2555000D02*
D03*
X2350000Y410000D02*
D03*
X2250000D02*
D03*
D33*
X525000Y3680000D02*
D03*
X1268334D02*
D03*
X2011666D02*
D03*
X2755000D02*
D03*
X2350000Y110000D02*
D03*
X2250000D02*
D03*
D34*
X2564704Y3346456D02*
D03*
X596200D02*
D03*
X2564704Y393700D02*
D03*
X596200D02*
D03*
D35*
X2925000Y1055000D02*
D03*
Y955000D02*
D03*
Y855000D02*
D03*
Y755000D02*
D03*
Y655000D02*
D03*
Y555000D02*
D03*
D36*
X3025000Y1055000D02*
D03*
Y955000D02*
D03*
Y855000D02*
D03*
Y755000D02*
D03*
Y655000D02*
D03*
Y555000D02*
D03*
X1200000Y1230000D02*
D03*
X1300000D02*
D03*
Y1330000D02*
D03*
X1400000Y1230000D02*
D03*
Y1330000D02*
D03*
X1500000D02*
D03*
Y1230000D02*
D03*
X2055000D02*
D03*
X2155000D02*
D03*
Y1330000D02*
D03*
X2255000Y1230000D02*
D03*
Y1330000D02*
D03*
X2355000D02*
D03*
Y1230000D02*
D03*
D37*
X100000Y785000D02*
D03*
X285040D02*
D03*
X470080D02*
D03*
D38*
X295000Y440000D02*
D03*
Y240000D02*
D03*
D39*
X2775000Y255000D02*
D03*
X2975000D02*
D03*
D40*
X1200000Y1330000D02*
D03*
X2055000D02*
D03*
%TF.MD5,8c211871a259bb503bb53209ea73d39d*%
M02*
