%TF.GenerationSoftware,Altium Limited,Altium Designer,22.3.1 (43)*%
G04 Layer_Color=8388736*
%FSLAX26Y26*%
%MOIN*%
%TF.SameCoordinates,A6686B76-6886-4B69-866F-DC8958589E3E*%
%TF.FilePolarity,Negative*%
%TF.FileFunction,Soldermask,Top*%
%TF.Part,Single*%
G01*
G75*
%TA.AperFunction,SMDPad,CuDef*%
%ADD60R,0.038000X0.048000*%
%ADD61O,0.038000X0.048000*%
%ADD65O,0.045402X0.098551*%
%ADD66R,0.045402X0.098551*%
%ADD67R,0.137921X0.098551*%
%ADD68R,0.063118X0.055244*%
%ADD69O,0.063118X0.055244*%
%ADD70R,0.048000X0.038000*%
%ADD71O,0.048000X0.038000*%
%ADD72C,0.058000*%
%TA.AperFunction,ComponentPad*%
%ADD79R,0.067055X0.067055*%
%ADD80C,0.067055*%
%ADD81R,0.067055X0.067055*%
%ADD82C,0.074929*%
%ADD83R,0.074929X0.074929*%
%ADD84C,0.208000*%
%ADD85R,0.070992X0.070992*%
%ADD86C,0.070992*%
%ADD87O,0.106425X0.145795*%
%ADD88C,0.098551*%
%ADD89C,0.082803*%
%ADD90R,0.070992X0.070992*%
%TA.AperFunction,ViaPad*%
%ADD91C,0.058000*%
%TA.AperFunction,SMDPad,CuDef*%
%ADD95O,0.058000X0.068000*%
%ADD96R,0.058000X0.058000*%
%ADD97R,0.067055X0.086740*%
%ADD98O,0.067055X0.086740*%
%ADD99O,0.055244X0.027685*%
D60*
X2945000Y3013500D02*
D03*
D61*
Y3086500D02*
D03*
X115000Y1206500D02*
D03*
Y1133500D02*
D03*
D65*
X814448Y570724D02*
D03*
D66*
X905000D02*
D03*
X995552D02*
D03*
D67*
X905000Y840724D02*
D03*
D68*
X1105000Y696590D02*
D03*
X680000D02*
D03*
D69*
X1105000Y562732D02*
D03*
X680000D02*
D03*
D70*
X1151500Y860000D02*
D03*
X721500D02*
D03*
X2858500Y1175000D02*
D03*
D71*
X1078500Y860000D02*
D03*
X648500D02*
D03*
X2931500Y1175000D02*
D03*
D72*
X2594900Y647300D02*
D03*
X240200Y1122700D02*
D03*
X240000Y1205000D02*
D03*
X2240000Y892300D02*
D03*
X2240200Y810000D02*
D03*
X2715000Y647300D02*
D03*
X2474800D02*
D03*
X1499800Y892300D02*
D03*
X1500000Y810000D02*
D03*
X1270000Y892300D02*
D03*
X1270200Y810000D02*
D03*
X425000Y1205100D02*
D03*
X425200Y1122800D02*
D03*
X1760000Y892300D02*
D03*
X1760200Y810000D02*
D03*
X1984800Y892300D02*
D03*
X1985000Y810000D02*
D03*
X2350000Y892300D02*
D03*
X2350200Y810000D02*
D03*
X247300Y2805200D02*
D03*
X165000Y2805000D02*
D03*
X167700Y2674800D02*
D03*
X250000Y2675000D02*
D03*
D79*
X3010000Y1440000D02*
D03*
X690000Y1875000D02*
D03*
Y2455000D02*
D03*
D80*
X3010000Y1540000D02*
D03*
Y1640000D02*
D03*
Y1740000D02*
D03*
X91615Y1644999D02*
D03*
X690000Y1275000D02*
D03*
Y1375000D02*
D03*
Y1475000D02*
D03*
Y1575000D02*
D03*
Y1675000D02*
D03*
Y1775000D02*
D03*
Y1975000D02*
D03*
X2710000Y1610000D02*
D03*
Y1510000D02*
D03*
X2810000Y1610000D02*
D03*
Y1510000D02*
D03*
X2710000Y1710000D02*
D03*
X2810000D02*
D03*
X2710000Y1810000D02*
D03*
X2810000D02*
D03*
X2710000Y1910000D02*
D03*
X2810000D02*
D03*
X2710000Y2010000D02*
D03*
X2810000D02*
D03*
X2710000Y2110000D02*
D03*
X2810000D02*
D03*
X2710000Y2210000D02*
D03*
X2810000D02*
D03*
X2710000Y2310000D02*
D03*
X2810000D02*
D03*
X2710000Y2410000D02*
D03*
X2810000D02*
D03*
X2710000Y2510000D02*
D03*
X2810000D02*
D03*
X2710000Y2610000D02*
D03*
X2810000D02*
D03*
X2710000Y2710000D02*
D03*
X2810000D02*
D03*
X2710000Y2810000D02*
D03*
X2810000D02*
D03*
X2710000Y2910000D02*
D03*
X2810000D02*
D03*
X2610000Y1510000D02*
D03*
Y1610000D02*
D03*
X2510000Y1510000D02*
D03*
Y1610000D02*
D03*
X2410000Y1510000D02*
D03*
Y1610000D02*
D03*
X2310000Y1510000D02*
D03*
Y1610000D02*
D03*
X2210000Y1510000D02*
D03*
Y1610000D02*
D03*
X2110000Y1510000D02*
D03*
Y1610000D02*
D03*
X2010000Y1510000D02*
D03*
Y1610000D02*
D03*
X1910000Y1510000D02*
D03*
Y1610000D02*
D03*
X1810000Y1510000D02*
D03*
Y1610000D02*
D03*
X1710000Y1510000D02*
D03*
Y1610000D02*
D03*
X2510000Y3010000D02*
D03*
Y3110000D02*
D03*
X2610000Y3010000D02*
D03*
Y3110000D02*
D03*
X2710000D02*
D03*
X2810000D02*
D03*
X1610000Y1510000D02*
D03*
Y1610000D02*
D03*
X1510000Y1510000D02*
D03*
Y1610000D02*
D03*
X1410000Y1510000D02*
D03*
Y1610000D02*
D03*
X1310000Y1510000D02*
D03*
Y1610000D02*
D03*
X1210000Y1510000D02*
D03*
Y1610000D02*
D03*
X1110000Y1510000D02*
D03*
Y1610000D02*
D03*
X1010000Y1510000D02*
D03*
Y1610000D02*
D03*
X910000Y1510000D02*
D03*
Y1610000D02*
D03*
Y1710000D02*
D03*
X1010000D02*
D03*
X910000Y1810000D02*
D03*
X1010000D02*
D03*
X910000Y1910000D02*
D03*
X1010000D02*
D03*
X910000Y2010000D02*
D03*
X1010000D02*
D03*
Y2610000D02*
D03*
X910000D02*
D03*
X1010000Y2710000D02*
D03*
X910000D02*
D03*
X1010000Y2810000D02*
D03*
X910000D02*
D03*
X1010000Y2910000D02*
D03*
X910000D02*
D03*
Y3010000D02*
D03*
Y3110000D02*
D03*
X1010000Y3010000D02*
D03*
Y3110000D02*
D03*
X1110000Y3010000D02*
D03*
Y3110000D02*
D03*
X1210000Y3010000D02*
D03*
Y3110000D02*
D03*
X1310000Y3010000D02*
D03*
Y3110000D02*
D03*
X1410000Y3010000D02*
D03*
Y3110000D02*
D03*
X1510000Y3010000D02*
D03*
Y3110000D02*
D03*
X1610000Y3010000D02*
D03*
Y3110000D02*
D03*
X1710000Y3010000D02*
D03*
Y3110000D02*
D03*
X1810000Y3010000D02*
D03*
Y3110000D02*
D03*
X1910000Y3010000D02*
D03*
Y3110000D02*
D03*
X2010000Y3010000D02*
D03*
Y3110000D02*
D03*
X2110000Y3010000D02*
D03*
Y3110000D02*
D03*
X2210000Y3010000D02*
D03*
Y3110000D02*
D03*
X2310000Y3010000D02*
D03*
Y3110000D02*
D03*
X2410000Y3010000D02*
D03*
Y3110000D02*
D03*
X2750000Y1275000D02*
D03*
X2650000D02*
D03*
X2550000D02*
D03*
X690000Y2555000D02*
D03*
Y2655000D02*
D03*
Y2755000D02*
D03*
Y2855000D02*
D03*
Y2955000D02*
D03*
Y3055000D02*
D03*
Y3155000D02*
D03*
X3010000Y2060000D02*
D03*
Y2160000D02*
D03*
Y2260000D02*
D03*
Y2360000D02*
D03*
Y2460000D02*
D03*
Y2560000D02*
D03*
Y2660000D02*
D03*
Y2760000D02*
D03*
D81*
X390827Y1644999D02*
D03*
X2710000Y3010000D02*
D03*
X2810000D02*
D03*
D82*
X225000Y3680000D02*
D03*
X725000D02*
D03*
X625000D02*
D03*
X425000D02*
D03*
X325000D02*
D03*
X968334D02*
D03*
X1468334D02*
D03*
X1368334D02*
D03*
X1168334D02*
D03*
X1068334D02*
D03*
X1711666D02*
D03*
X2211666D02*
D03*
X2111666D02*
D03*
X1911666D02*
D03*
X1811666D02*
D03*
X2455000D02*
D03*
X2955000D02*
D03*
X2855000D02*
D03*
X2655000D02*
D03*
X2555000D02*
D03*
X2350000Y410000D02*
D03*
X2250000D02*
D03*
D83*
X525000Y3680000D02*
D03*
X1268334D02*
D03*
X2011666D02*
D03*
X2755000D02*
D03*
X2350000Y110000D02*
D03*
X2250000D02*
D03*
D84*
X2564704Y3346456D02*
D03*
X596200D02*
D03*
X2564704Y393700D02*
D03*
X596200D02*
D03*
D85*
X2925000Y1055000D02*
D03*
Y955000D02*
D03*
Y855000D02*
D03*
Y755000D02*
D03*
Y655000D02*
D03*
Y555000D02*
D03*
D86*
X3025000Y1055000D02*
D03*
Y955000D02*
D03*
Y855000D02*
D03*
Y755000D02*
D03*
Y655000D02*
D03*
Y555000D02*
D03*
X1200000Y1230000D02*
D03*
X1300000D02*
D03*
Y1330000D02*
D03*
X1400000Y1230000D02*
D03*
Y1330000D02*
D03*
X1500000D02*
D03*
Y1230000D02*
D03*
X2055000D02*
D03*
X2155000D02*
D03*
Y1330000D02*
D03*
X2255000Y1230000D02*
D03*
Y1330000D02*
D03*
X2355000D02*
D03*
Y1230000D02*
D03*
D87*
X100000Y785000D02*
D03*
X285040D02*
D03*
X470080D02*
D03*
D88*
X295000Y440000D02*
D03*
Y240000D02*
D03*
D89*
X2775000Y255000D02*
D03*
X2975000D02*
D03*
D90*
X1200000Y1330000D02*
D03*
X2055000D02*
D03*
D91*
X2990617Y1903235D02*
D03*
X2150000Y775000D02*
D03*
X2315000Y3470000D02*
D03*
X1595641Y3681618D02*
D03*
X1035000Y3470000D02*
D03*
X80000Y3050000D02*
D03*
X499993Y2187170D02*
D03*
X1100466Y1073919D02*
D03*
X2990617Y3290000D02*
D03*
X2375000Y2047854D02*
D03*
X1341596D02*
D03*
X2375000Y2900000D02*
D03*
X499993Y3050000D02*
D03*
X880000Y1110000D02*
D03*
X2375000Y2605558D02*
D03*
X1341596Y2187170D02*
D03*
X1065000Y475000D02*
D03*
X2785000Y570000D02*
D03*
X1475000Y2490000D02*
D03*
X1735000Y2570000D02*
D03*
X1555000Y2565000D02*
D03*
X1825000D02*
D03*
X1820000Y2325000D02*
D03*
X1736506Y2321046D02*
D03*
X1625000Y2325104D02*
D03*
X995000Y660000D02*
D03*
D95*
X2595000Y775000D02*
D03*
Y875000D02*
D03*
X2250000Y550000D02*
D03*
Y650000D02*
D03*
X1750000Y550000D02*
D03*
Y650000D02*
D03*
X2715000Y775000D02*
D03*
Y875000D02*
D03*
X2475000D02*
D03*
Y775000D02*
D03*
X1505000Y550000D02*
D03*
Y650000D02*
D03*
X1265000Y550000D02*
D03*
Y650000D02*
D03*
X1990000Y550000D02*
D03*
Y650000D02*
D03*
X2350000Y550000D02*
D03*
Y650000D02*
D03*
D96*
X2595100Y565000D02*
D03*
X2715200D02*
D03*
X2475000D02*
D03*
D97*
X1748334Y103480D02*
D03*
X1506666D02*
D03*
X1265000D02*
D03*
X1990000D02*
D03*
D98*
X1748334Y410566D02*
D03*
X1506666D02*
D03*
X1265000D02*
D03*
X1990000D02*
D03*
D99*
X245000Y2507598D02*
D03*
Y2582402D02*
D03*
X155000Y2545000D02*
D03*
%TF.MD5,68a0242f666fe3c6a66776ac0d055d1e*%
M02*
