%TF.GenerationSoftware,Altium Limited,Altium Designer,22.3.1 (43)*%
G04 Layer_Physical_Order=2*
G04 Layer_Color=16711680*
%FSLAX26Y26*%
%MOIN*%
%TF.SameCoordinates,A6686B76-6886-4B69-866F-DC8958589E3E*%
%TF.FilePolarity,Positive*%
%TF.FileFunction,Copper,L2,Bot,Signal*%
%TF.Part,Single*%
G01*
G75*
%TA.AperFunction,SMDPad,CuDef*%
%ADD11R,0.055118X0.047244*%
%ADD12O,0.055118X0.047244*%
%ADD13R,0.040000X0.030000*%
%ADD14O,0.040000X0.030000*%
%ADD16C,0.050000*%
%ADD17R,0.030000X0.040000*%
%ADD18O,0.030000X0.040000*%
%ADD19O,0.037402X0.090551*%
%ADD20R,0.037402X0.090551*%
%ADD21R,0.129921X0.090551*%
%TA.AperFunction,Conductor*%
%ADD25C,0.015000*%
%ADD26C,0.050000*%
%ADD27C,0.030000*%
%TA.AperFunction,ComponentPad*%
%ADD29R,0.059055X0.059055*%
%ADD30C,0.059055*%
%ADD31R,0.059055X0.059055*%
%ADD32C,0.066929*%
%ADD33R,0.066929X0.066929*%
%ADD34C,0.200000*%
%ADD35R,0.062992X0.062992*%
%ADD36C,0.062992*%
%ADD37O,0.098425X0.137795*%
%ADD38C,0.090551*%
%ADD39C,0.074803*%
%ADD40R,0.062992X0.062992*%
%TA.AperFunction,ViaPad*%
%ADD41C,0.050000*%
%TA.AperFunction,SMDPad,CuDef*%
%ADD42O,0.051181X0.060000*%
%ADD43R,0.051181X0.060000*%
%ADD44O,0.056693X0.021654*%
%ADD45R,0.056693X0.021654*%
%ADD46R,0.050000X0.050000*%
%ADD47O,0.055000X0.040000*%
%ADD48O,0.068898X0.086614*%
%ADD49R,0.068898X0.086614*%
%ADD50O,0.060000X0.100000*%
%ADD51R,0.060000X0.100000*%
G36*
X3185000D02*
X0D01*
Y3910000D01*
X6644Y3916644D01*
X10000Y3920000D01*
X10000Y3920000D01*
X12560Y3925000D01*
X3185000D01*
Y0D01*
D02*
G37*
%LPC*%
G36*
X2963646Y3723465D02*
X2946354D01*
X2930379Y3716847D01*
X2918153Y3704621D01*
X2911535Y3688646D01*
Y3671354D01*
X2918153Y3655379D01*
X2930379Y3643153D01*
X2946354Y3636535D01*
X2963646D01*
X2979621Y3643153D01*
X2991847Y3655379D01*
X2998465Y3671354D01*
Y3688646D01*
X2991847Y3704621D01*
X2979621Y3716847D01*
X2963646Y3723465D01*
D02*
G37*
G36*
X2863646D02*
X2846354D01*
X2830379Y3716847D01*
X2818153Y3704621D01*
X2811535Y3688646D01*
Y3671354D01*
X2818153Y3655379D01*
X2830379Y3643153D01*
X2846354Y3636535D01*
X2863646D01*
X2879621Y3643153D01*
X2891847Y3655379D01*
X2898465Y3671354D01*
Y3688646D01*
X2891847Y3704621D01*
X2879621Y3716847D01*
X2863646Y3723465D01*
D02*
G37*
G36*
X1920312D02*
X1903020D01*
X1887045Y3716847D01*
X1874819Y3704621D01*
X1868201Y3688646D01*
Y3671354D01*
X1874819Y3655379D01*
X1887045Y3643153D01*
X1903020Y3636535D01*
X1920312D01*
X1936287Y3643153D01*
X1948513Y3655379D01*
X1955130Y3671354D01*
Y3688646D01*
X1948513Y3704621D01*
X1936287Y3716847D01*
X1920312Y3723465D01*
D02*
G37*
G36*
X1820312D02*
X1803020D01*
X1787045Y3716847D01*
X1774819Y3704621D01*
X1768201Y3688646D01*
Y3671354D01*
X1774819Y3655379D01*
X1787045Y3643153D01*
X1803020Y3636535D01*
X1820312D01*
X1836287Y3643153D01*
X1848513Y3655379D01*
X1855130Y3671354D01*
Y3688646D01*
X1848513Y3704621D01*
X1836287Y3716847D01*
X1820312Y3723465D01*
D02*
G37*
G36*
X1176980D02*
X1159688D01*
X1143713Y3716847D01*
X1131487Y3704621D01*
X1124870Y3688646D01*
Y3671354D01*
X1131487Y3655379D01*
X1143713Y3643153D01*
X1159688Y3636535D01*
X1176980D01*
X1192955Y3643153D01*
X1205181Y3655379D01*
X1211799Y3671354D01*
Y3688646D01*
X1205181Y3704621D01*
X1192955Y3716847D01*
X1176980Y3723465D01*
D02*
G37*
G36*
X1076980D02*
X1059688D01*
X1043713Y3716847D01*
X1031487Y3704621D01*
X1024870Y3688646D01*
Y3671354D01*
X1031487Y3655379D01*
X1043713Y3643153D01*
X1059688Y3636535D01*
X1076980D01*
X1092955Y3643153D01*
X1105181Y3655379D01*
X1111799Y3671354D01*
Y3688646D01*
X1105181Y3704621D01*
X1092955Y3716847D01*
X1076980Y3723465D01*
D02*
G37*
G36*
X633646D02*
X616354D01*
X600379Y3716847D01*
X588153Y3704621D01*
X581535Y3688646D01*
Y3671354D01*
X588153Y3655379D01*
X600379Y3643153D01*
X616354Y3636535D01*
X633646D01*
X649621Y3643153D01*
X661847Y3655379D01*
X668465Y3671354D01*
Y3688646D01*
X661847Y3704621D01*
X649621Y3716847D01*
X633646Y3723465D01*
D02*
G37*
G36*
X433646D02*
X416354D01*
X400379Y3716847D01*
X388153Y3704621D01*
X381536Y3688646D01*
Y3671354D01*
X388153Y3655379D01*
X400379Y3643153D01*
X416354Y3636535D01*
X433646D01*
X449621Y3643153D01*
X461847Y3655379D01*
X468464Y3671354D01*
Y3688646D01*
X461847Y3704621D01*
X449621Y3716847D01*
X433646Y3723465D01*
D02*
G37*
G36*
X333646D02*
X316354D01*
X300379Y3716847D01*
X288153Y3704621D01*
X281536Y3688646D01*
Y3671354D01*
X288153Y3655379D01*
X300379Y3643153D01*
X316354Y3636535D01*
X333646D01*
X349621Y3643153D01*
X361847Y3655379D01*
X368464Y3671354D01*
Y3688646D01*
X361847Y3704621D01*
X349621Y3716847D01*
X333646Y3723465D01*
D02*
G37*
G36*
X2663646D02*
X2646354D01*
X2630379Y3716847D01*
X2618153Y3704621D01*
X2611535Y3688646D01*
Y3671354D01*
X2618153Y3655379D01*
X2630379Y3643153D01*
X2636058Y3640800D01*
Y3502791D01*
X2639255Y3495073D01*
X2635017Y3492240D01*
X2573942Y3553315D01*
Y3640800D01*
X2579621Y3643153D01*
X2591847Y3655379D01*
X2598465Y3671354D01*
Y3688646D01*
X2591847Y3704621D01*
X2579621Y3716847D01*
X2563646Y3723465D01*
X2546354D01*
X2530379Y3716847D01*
X2518153Y3704621D01*
X2511535Y3688646D01*
Y3671354D01*
X2518153Y3655379D01*
X2530379Y3643153D01*
X2536058Y3640800D01*
Y3545469D01*
X2541606Y3532075D01*
X2635587Y3438094D01*
X2632245Y3434478D01*
X2607162Y3448960D01*
X2579186Y3456456D01*
X2550222D01*
X2522246Y3448960D01*
X2497162Y3434478D01*
X2476682Y3413998D01*
X2462200Y3388914D01*
X2454704Y3360938D01*
Y3331974D01*
X2462200Y3303998D01*
X2476682Y3278914D01*
X2497162Y3258434D01*
X2522246Y3243952D01*
X2550222Y3236456D01*
X2579186D01*
X2607162Y3243952D01*
X2632246Y3258434D01*
X2652726Y3278914D01*
X2658432Y3288798D01*
X2663262Y3287504D01*
Y3191912D01*
X2619994Y3148644D01*
X2617863Y3149528D01*
X2602137D01*
X2587610Y3143510D01*
X2576490Y3132390D01*
X2570472Y3117863D01*
Y3102137D01*
X2576490Y3087610D01*
X2587610Y3076490D01*
X2602137Y3070472D01*
X2617863D01*
X2632390Y3076490D01*
X2638875Y3082974D01*
X2643875Y3080903D01*
Y3070663D01*
X2621311Y3048099D01*
X2617863Y3049528D01*
X2602137D01*
X2587610Y3043510D01*
X2576490Y3032390D01*
X2570472Y3017863D01*
Y3002137D01*
X2576490Y2987610D01*
X2587610Y2976490D01*
X2602137Y2970472D01*
X2617863D01*
X2632390Y2976490D01*
X2643510Y2987610D01*
X2649528Y3002137D01*
Y3017863D01*
X2648099Y3021311D01*
X2665853Y3039065D01*
X2670472Y3037152D01*
Y2970472D01*
X2749528D01*
Y3049528D01*
X2680754D01*
X2677976Y3053685D01*
X2681759Y3062817D01*
Y3121478D01*
X2720598Y3160317D01*
X2726146Y3173711D01*
Y3450587D01*
X2720598Y3463981D01*
X2673942Y3510637D01*
Y3640800D01*
X2679621Y3643153D01*
X2691847Y3655379D01*
X2698465Y3671354D01*
Y3688646D01*
X2691847Y3704621D01*
X2679621Y3716847D01*
X2663646Y3723465D01*
D02*
G37*
G36*
X1476980D02*
X1459688D01*
X1443713Y3716847D01*
X1431487Y3704621D01*
X1424870Y3688646D01*
Y3671354D01*
X1431487Y3655379D01*
X1443713Y3643153D01*
X1459688Y3636535D01*
X1475357D01*
Y3627564D01*
X1480905Y3614170D01*
X1673174Y3421900D01*
X1671261Y3417281D01*
X1657841D01*
X1409446Y3665676D01*
X1411799Y3671354D01*
Y3688646D01*
X1405181Y3704621D01*
X1392955Y3716847D01*
X1376980Y3723465D01*
X1359688D01*
X1343713Y3716847D01*
X1331487Y3704621D01*
X1324870Y3688646D01*
Y3671354D01*
X1331487Y3655379D01*
X1343713Y3643153D01*
X1359688Y3636535D01*
X1376980D01*
X1382658Y3638888D01*
X1636601Y3384945D01*
X1649995Y3379397D01*
X1680322D01*
X1905572Y3154147D01*
X1903659Y3149528D01*
X1902138D01*
X1887610Y3143510D01*
X1876490Y3132390D01*
X1870473Y3117863D01*
Y3102137D01*
X1876490Y3087610D01*
X1887610Y3076490D01*
X1902138Y3070472D01*
X1917862D01*
X1932390Y3076490D01*
X1940318Y3084417D01*
X1945222Y3083442D01*
X1946606Y3080099D01*
X1983071Y3043634D01*
X1983845Y3039745D01*
X1976490Y3032390D01*
X1970473Y3017863D01*
Y3002137D01*
X1976490Y2987610D01*
X1987610Y2976490D01*
X2002138Y2970472D01*
X2017862D01*
X2032390Y2976490D01*
X2043510Y2987610D01*
X2049528Y3002137D01*
Y3017863D01*
X2043510Y3032390D01*
X2042434Y3033466D01*
X2044348Y3038086D01*
X2055126D01*
X2071901Y3021311D01*
X2070472Y3017863D01*
Y3002137D01*
X2076490Y2987610D01*
X2087610Y2976490D01*
X2102137Y2970472D01*
X2117863D01*
X2132390Y2976490D01*
X2143510Y2987610D01*
X2149528Y3002137D01*
Y3017863D01*
X2143510Y3032390D01*
X2132390Y3043510D01*
X2117863Y3049528D01*
X2102137D01*
X2098689Y3048099D01*
X2076366Y3070421D01*
X2062972Y3075970D01*
X2038941D01*
X2036870Y3080970D01*
X2043510Y3087610D01*
X2049528Y3102137D01*
Y3117863D01*
X2043510Y3132390D01*
X2032390Y3143510D01*
X2017862Y3149528D01*
X2002138D01*
X2000006Y3148644D01*
X1513241Y3635410D01*
Y3654035D01*
X1508933Y3664436D01*
X1511799Y3671354D01*
Y3688646D01*
X1505181Y3704621D01*
X1492955Y3716847D01*
X1476980Y3723465D01*
D02*
G37*
G36*
X610682Y3456456D02*
X581718D01*
X553742Y3448960D01*
X528658Y3434478D01*
X508178Y3413998D01*
X493696Y3388914D01*
X486200Y3360938D01*
Y3331974D01*
X493696Y3303998D01*
X508178Y3278914D01*
X528658Y3258434D01*
X553742Y3243952D01*
X581718Y3236456D01*
X610682D01*
X638658Y3243952D01*
X663742Y3258434D01*
X684222Y3278914D01*
X698704Y3303998D01*
X706200Y3331974D01*
Y3360938D01*
X698704Y3388914D01*
X684222Y3413998D01*
X663742Y3434478D01*
X638658Y3448960D01*
X610682Y3456456D01*
D02*
G37*
G36*
X2220312Y3723465D02*
X2203020D01*
X2187045Y3716847D01*
X2174819Y3704621D01*
X2168202Y3688646D01*
Y3671354D01*
X2174819Y3655379D01*
X2187045Y3643153D01*
X2192724Y3640800D01*
Y3328334D01*
X2198272Y3314940D01*
X2341058Y3172154D01*
Y3141375D01*
X2336439Y3139462D01*
X2332390Y3143510D01*
X2317863Y3149528D01*
X2302137D01*
X2298689Y3148099D01*
X2130608Y3316180D01*
Y3640800D01*
X2136287Y3643153D01*
X2148513Y3655379D01*
X2155131Y3671354D01*
Y3688646D01*
X2148513Y3704621D01*
X2136287Y3716847D01*
X2120312Y3723465D01*
X2103020D01*
X2087045Y3716847D01*
X2074819Y3704621D01*
X2068202Y3688646D01*
Y3671354D01*
X2074819Y3655379D01*
X2087045Y3643153D01*
X2092724Y3640800D01*
Y3308334D01*
X2098272Y3294940D01*
X2271901Y3121311D01*
X2270472Y3117863D01*
Y3102137D01*
X2276490Y3087610D01*
X2287610Y3076490D01*
X2302137Y3070472D01*
X2317863D01*
X2332390Y3076490D01*
X2336439Y3080538D01*
X2341058Y3078625D01*
Y3067846D01*
X2321311Y3048099D01*
X2317863Y3049528D01*
X2302137D01*
X2287610Y3043510D01*
X2276490Y3032390D01*
X2270472Y3017863D01*
Y3002137D01*
X2276490Y2987610D01*
X2287610Y2976490D01*
X2302137Y2970472D01*
X2317863D01*
X2332390Y2976490D01*
X2343510Y2987610D01*
X2349528Y3002137D01*
Y3017863D01*
X2348099Y3021311D01*
X2373394Y3046606D01*
X2378942Y3060000D01*
Y3078625D01*
X2383561Y3080538D01*
X2387610Y3076490D01*
X2402137Y3070472D01*
X2417863D01*
X2432390Y3076490D01*
X2443510Y3087610D01*
X2449528Y3102137D01*
Y3117863D01*
X2443510Y3132390D01*
X2432390Y3143510D01*
X2417863Y3149528D01*
X2402137D01*
X2387610Y3143510D01*
X2383561Y3139462D01*
X2378942Y3141375D01*
Y3180000D01*
X2373394Y3193394D01*
X2230608Y3336180D01*
Y3640800D01*
X2236287Y3643153D01*
X2248513Y3655379D01*
X2255131Y3671354D01*
Y3688646D01*
X2248513Y3704621D01*
X2236287Y3716847D01*
X2220312Y3723465D01*
D02*
G37*
G36*
X697862Y3194528D02*
X682138D01*
X667610Y3188510D01*
X656490Y3177390D01*
X650472Y3162863D01*
Y3147137D01*
X656490Y3132610D01*
X667610Y3121490D01*
X682138Y3115472D01*
X697862D01*
X712390Y3121490D01*
X723510Y3132610D01*
X729528Y3147137D01*
Y3162863D01*
X723510Y3177390D01*
X712390Y3188510D01*
X697862Y3194528D01*
D02*
G37*
G36*
X1317862Y3149528D02*
X1302138D01*
X1287610Y3143510D01*
X1276490Y3132390D01*
X1270473Y3117863D01*
Y3102137D01*
X1276490Y3087610D01*
X1277566Y3086534D01*
X1275652Y3081914D01*
X1264874D01*
X1248099Y3098689D01*
X1249527Y3102137D01*
Y3117863D01*
X1243510Y3132390D01*
X1232390Y3143510D01*
X1217862Y3149528D01*
X1202138D01*
X1187610Y3143510D01*
X1176490Y3132390D01*
X1170473Y3117863D01*
Y3102137D01*
X1176490Y3087610D01*
X1187610Y3076490D01*
X1202138Y3070472D01*
X1217862D01*
X1221311Y3071901D01*
X1243634Y3049578D01*
X1257028Y3044030D01*
X1281059D01*
X1283130Y3039030D01*
X1276490Y3032390D01*
X1270473Y3017863D01*
Y3003282D01*
X1266127Y3000556D01*
X1258290Y3008394D01*
X1249527Y3012023D01*
Y3017863D01*
X1243510Y3032390D01*
X1232390Y3043510D01*
X1217862Y3049528D01*
X1202138D01*
X1187610Y3043510D01*
X1186534Y3042434D01*
X1181914Y3044347D01*
Y3057028D01*
X1176366Y3070421D01*
X1148099Y3098689D01*
X1149527Y3102137D01*
Y3117863D01*
X1143510Y3132390D01*
X1132390Y3143510D01*
X1117862Y3149528D01*
X1102138D01*
X1087610Y3143510D01*
X1076490Y3132390D01*
X1070473Y3117863D01*
Y3102137D01*
X1076490Y3087610D01*
X1087610Y3076490D01*
X1102138Y3070472D01*
X1117862D01*
X1121311Y3071901D01*
X1144031Y3049182D01*
Y3038941D01*
X1139031Y3036870D01*
X1132390Y3043510D01*
X1117862Y3049528D01*
X1102138D01*
X1087610Y3043510D01*
X1086534Y3042434D01*
X1081914Y3044347D01*
Y3057028D01*
X1076366Y3070421D01*
X1048099Y3098689D01*
X1049527Y3102137D01*
Y3117863D01*
X1043510Y3132390D01*
X1032390Y3143510D01*
X1017862Y3149528D01*
X1002138D01*
X987610Y3143510D01*
X976490Y3132390D01*
X970472Y3117863D01*
Y3102137D01*
X976490Y3087610D01*
X987610Y3076490D01*
X1002138Y3070472D01*
X1017862D01*
X1021311Y3071901D01*
X1044031Y3049182D01*
Y3038941D01*
X1039031Y3036870D01*
X1032390Y3043510D01*
X1017862Y3049528D01*
X1002138D01*
X987610Y3043510D01*
X981389Y3037290D01*
X976389Y3039361D01*
Y3062552D01*
X970841Y3075946D01*
X948099Y3098689D01*
X949528Y3102137D01*
Y3117863D01*
X943510Y3132390D01*
X932390Y3143510D01*
X917862Y3149528D01*
X902138D01*
X887610Y3143510D01*
X876490Y3132390D01*
X870472Y3117863D01*
Y3102137D01*
X876490Y3087610D01*
X887610Y3076490D01*
X902138Y3070472D01*
X917862D01*
X921311Y3071901D01*
X938506Y3054707D01*
Y3043928D01*
X933886Y3042014D01*
X932390Y3043510D01*
X917862Y3049528D01*
X902138D01*
X887610Y3043510D01*
X876490Y3032390D01*
X870472Y3017863D01*
Y3002137D01*
X871901Y2998689D01*
X849578Y2976366D01*
X844030Y2962972D01*
Y2890521D01*
X849578Y2877127D01*
X881585Y2845120D01*
X882826Y2844606D01*
X883802Y2839702D01*
X876490Y2832390D01*
X870472Y2817863D01*
Y2802137D01*
X876490Y2787610D01*
X887610Y2776490D01*
X902138Y2770472D01*
X917862D01*
X932390Y2776490D01*
X940596Y2784696D01*
X946494Y2783523D01*
X948836Y2777870D01*
X983071Y2743634D01*
X983845Y2739745D01*
X976490Y2732390D01*
X970472Y2717863D01*
Y2702137D01*
X976490Y2687610D01*
X987610Y2676490D01*
X1002138Y2670472D01*
X1017862D01*
X1032390Y2676490D01*
X1043510Y2687610D01*
X1049527Y2702137D01*
Y2717863D01*
X1043510Y2732390D01*
X1042434Y2733466D01*
X1044348Y2738086D01*
X1054416D01*
X2041058Y1751443D01*
Y1641375D01*
X2036439Y1639462D01*
X2032390Y1643510D01*
X2017862Y1649527D01*
X2002138D01*
X1987610Y1643510D01*
X1976490Y1632390D01*
X1970473Y1617862D01*
Y1602138D01*
X1976490Y1587610D01*
X1987610Y1576490D01*
X2002138Y1570473D01*
X2017862D01*
X2032390Y1576490D01*
X2036439Y1580538D01*
X2041058Y1578625D01*
Y1541375D01*
X2036439Y1539462D01*
X2032390Y1543510D01*
X2017862Y1549527D01*
X2002138D01*
X1987610Y1543510D01*
X1976490Y1532390D01*
X1970473Y1517862D01*
Y1502138D01*
X1976490Y1487610D01*
X1987610Y1476490D01*
X2002138Y1470473D01*
X2017862D01*
X2032390Y1476490D01*
X2036439Y1480538D01*
X2041058Y1478625D01*
Y1475000D01*
X2046606Y1461606D01*
X2129106Y1379106D01*
X2140579Y1374354D01*
X2140579Y1368942D01*
X2131494Y1365179D01*
X2119821Y1353506D01*
X2113504Y1338254D01*
Y1321746D01*
X2119821Y1306494D01*
X2131494Y1294821D01*
X2146746Y1288504D01*
X2163254D01*
X2178506Y1294821D01*
X2190179Y1306494D01*
X2196496Y1321746D01*
Y1338254D01*
X2190179Y1353506D01*
X2178506Y1365179D01*
X2170347Y1368558D01*
X2171342Y1373558D01*
X2238658D01*
X2239653Y1368558D01*
X2231494Y1365179D01*
X2219821Y1353506D01*
X2213504Y1338254D01*
Y1321746D01*
X2219821Y1306494D01*
X2231494Y1294821D01*
X2246746Y1288504D01*
X2263254D01*
X2278506Y1294821D01*
X2290179Y1306494D01*
X2296496Y1321746D01*
Y1338254D01*
X2290179Y1353506D01*
X2278506Y1365179D01*
X2270347Y1368558D01*
X2271342Y1373558D01*
X2338658D01*
X2339653Y1368558D01*
X2331494Y1365179D01*
X2319821Y1353506D01*
X2313504Y1338254D01*
Y1321746D01*
X2319821Y1306494D01*
X2331494Y1294821D01*
X2346746Y1288504D01*
X2363254D01*
X2378506Y1294821D01*
X2390179Y1306494D01*
X2396496Y1321746D01*
Y1338254D01*
X2390179Y1353506D01*
X2378506Y1365179D01*
X2370347Y1368558D01*
X2371342Y1373558D01*
X2519654D01*
X2531058Y1362154D01*
Y1309938D01*
X2527610Y1308510D01*
X2516490Y1297390D01*
X2510472Y1282862D01*
Y1267138D01*
X2516490Y1252610D01*
X2527610Y1241490D01*
X2542137Y1235473D01*
X2557863D01*
X2572390Y1241490D01*
X2583510Y1252610D01*
X2589528Y1267138D01*
Y1282862D01*
X2583510Y1297390D01*
X2572390Y1308510D01*
X2568942Y1309938D01*
Y1370000D01*
X2563394Y1383394D01*
X2550349Y1396439D01*
X2552262Y1401058D01*
X2592154D01*
X2631058Y1362154D01*
Y1309938D01*
X2627610Y1308510D01*
X2616490Y1297390D01*
X2610472Y1282862D01*
Y1267138D01*
X2616490Y1252610D01*
X2627610Y1241490D01*
X2642137Y1235473D01*
X2657863D01*
X2672390Y1241490D01*
X2683510Y1252610D01*
X2689528Y1267138D01*
Y1282862D01*
X2683510Y1297390D01*
X2672390Y1308510D01*
X2668942Y1309938D01*
Y1370000D01*
X2663394Y1383394D01*
X2613394Y1433394D01*
X2606962Y1436058D01*
X2607957Y1441058D01*
X2652154D01*
X2731058Y1362154D01*
Y1309938D01*
X2727610Y1308510D01*
X2716490Y1297390D01*
X2710472Y1282862D01*
Y1267138D01*
X2716490Y1252610D01*
X2727610Y1241490D01*
X2742137Y1235473D01*
X2757863D01*
X2772390Y1241490D01*
X2783510Y1252610D01*
X2789528Y1267138D01*
Y1282862D01*
X2783510Y1297390D01*
X2772390Y1308510D01*
X2768942Y1309938D01*
Y1370000D01*
X2763394Y1383394D01*
X2673394Y1473394D01*
X2660000Y1478942D01*
X2641375D01*
X2639462Y1483561D01*
X2643510Y1487610D01*
X2649528Y1502138D01*
Y1517862D01*
X2643510Y1532390D01*
X2632390Y1543510D01*
X2617863Y1549527D01*
X2602137D01*
X2587610Y1543510D01*
X2576490Y1532390D01*
X2570472Y1517862D01*
Y1502138D01*
X2576490Y1487610D01*
X2580538Y1483561D01*
X2578625Y1478942D01*
X2541375D01*
X2539462Y1483561D01*
X2543510Y1487610D01*
X2549528Y1502138D01*
Y1517862D01*
X2543510Y1532390D01*
X2532390Y1543510D01*
X2517863Y1549527D01*
X2502137D01*
X2487610Y1543510D01*
X2476490Y1532390D01*
X2470472Y1517862D01*
Y1502138D01*
X2476490Y1487610D01*
X2480538Y1483561D01*
X2478625Y1478942D01*
X2441375D01*
X2439462Y1483561D01*
X2443510Y1487610D01*
X2449528Y1502138D01*
Y1517862D01*
X2443510Y1532390D01*
X2432390Y1543510D01*
X2417863Y1549527D01*
X2402137D01*
X2387610Y1543510D01*
X2376490Y1532390D01*
X2370472Y1517862D01*
Y1502138D01*
X2376490Y1487610D01*
X2380538Y1483561D01*
X2378625Y1478942D01*
X2341375D01*
X2339462Y1483561D01*
X2343510Y1487610D01*
X2349528Y1502138D01*
Y1517862D01*
X2343510Y1532390D01*
X2332390Y1543510D01*
X2317863Y1549527D01*
X2302137D01*
X2287610Y1543510D01*
X2280970Y1536870D01*
X2275970Y1538941D01*
Y1581059D01*
X2280970Y1583130D01*
X2287610Y1576490D01*
X2302137Y1570473D01*
X2317863D01*
X2332390Y1576490D01*
X2343510Y1587610D01*
X2349528Y1602138D01*
Y1617862D01*
X2348099Y1621311D01*
X2367846Y1641058D01*
X2378625D01*
X2380538Y1636439D01*
X2376490Y1632390D01*
X2370472Y1617862D01*
Y1602138D01*
X2376490Y1587610D01*
X2387610Y1576490D01*
X2402137Y1570473D01*
X2417863D01*
X2432390Y1576490D01*
X2443510Y1587610D01*
X2449528Y1602138D01*
Y1617862D01*
X2443510Y1632390D01*
X2439462Y1636439D01*
X2441375Y1641058D01*
X2478625D01*
X2480538Y1636439D01*
X2476490Y1632390D01*
X2470472Y1617862D01*
Y1602138D01*
X2476490Y1587610D01*
X2487610Y1576490D01*
X2502137Y1570473D01*
X2517863D01*
X2532390Y1576490D01*
X2543510Y1587610D01*
X2549528Y1602138D01*
Y1617862D01*
X2543510Y1632390D01*
X2539462Y1636439D01*
X2541375Y1641058D01*
X2578625D01*
X2580538Y1636439D01*
X2576490Y1632390D01*
X2570472Y1617862D01*
Y1602138D01*
X2576490Y1587610D01*
X2587610Y1576490D01*
X2602137Y1570473D01*
X2617863D01*
X2632390Y1576490D01*
X2643510Y1587610D01*
X2649528Y1602138D01*
Y1617862D01*
X2643510Y1632390D01*
X2639462Y1636439D01*
X2641375Y1641058D01*
X2678625D01*
X2680538Y1636439D01*
X2676490Y1632390D01*
X2670472Y1617862D01*
Y1602138D01*
X2676490Y1587610D01*
X2687610Y1576490D01*
X2702137Y1570473D01*
X2717863D01*
X2732390Y1576490D01*
X2743510Y1587610D01*
X2749528Y1602138D01*
Y1617862D01*
X2743510Y1632390D01*
X2739462Y1636439D01*
X2741375Y1641058D01*
X2778625D01*
X2780538Y1636439D01*
X2776490Y1632390D01*
X2770472Y1617862D01*
Y1602138D01*
X2776490Y1587610D01*
X2787610Y1576490D01*
X2802137Y1570473D01*
X2817863D01*
X2832390Y1576490D01*
X2836439Y1580538D01*
X2841058Y1578625D01*
Y1541375D01*
X2836439Y1539462D01*
X2832390Y1543510D01*
X2817863Y1549527D01*
X2802137D01*
X2787610Y1543510D01*
X2776490Y1532390D01*
X2770472Y1517862D01*
Y1502138D01*
X2776490Y1487610D01*
X2787610Y1476490D01*
X2802137Y1470473D01*
X2817863D01*
X2832390Y1476490D01*
X2836439Y1480538D01*
X2841058Y1478625D01*
Y1269321D01*
X2846606Y1255927D01*
X2888458Y1214075D01*
Y1212500D01*
X2891362Y1205491D01*
X2889900Y1201962D01*
Y1188038D01*
X2895228Y1175174D01*
X2905074Y1165328D01*
X2917938Y1160000D01*
X2931862D01*
X2944726Y1165328D01*
X2954572Y1175174D01*
X2959900Y1188038D01*
Y1201962D01*
X2954572Y1214826D01*
X2944726Y1224672D01*
X2931862Y1230000D01*
X2922995D01*
X2920794Y1235315D01*
X2878942Y1277167D01*
Y1582154D01*
X2998689Y1701901D01*
X3002137Y1700473D01*
X3017863D01*
X3032390Y1706490D01*
X3043510Y1717610D01*
X3049528Y1732138D01*
Y1747862D01*
X3043510Y1762390D01*
X3032390Y1773510D01*
X3017863Y1779527D01*
X3002137D01*
X2987610Y1773510D01*
X2976490Y1762390D01*
X2975062Y1758942D01*
X2941539D01*
X2928145Y1753394D01*
X2853693Y1678942D01*
X2841375D01*
X2839462Y1683561D01*
X2843510Y1687610D01*
X2849528Y1702138D01*
Y1717862D01*
X2843510Y1732390D01*
X2834997Y1740904D01*
X2836170Y1746802D01*
X2842873Y1749579D01*
X2958394Y1865099D01*
X2963942Y1878493D01*
Y1987154D01*
X2998689Y2021901D01*
X3002137Y2020473D01*
X3017863D01*
X3032390Y2026490D01*
X3043510Y2037610D01*
X3049528Y2052137D01*
Y2067863D01*
X3043510Y2082390D01*
X3032390Y2093510D01*
X3017863Y2099528D01*
X3002137D01*
X2987610Y2093510D01*
X2976490Y2082390D01*
X2970472Y2067863D01*
Y2052137D01*
X2971901Y2048689D01*
X2943561Y2020349D01*
X2938942Y2022263D01*
Y2062154D01*
X2998689Y2121901D01*
X3002137Y2120472D01*
X3017863D01*
X3032390Y2126490D01*
X3043510Y2137610D01*
X3049528Y2152137D01*
Y2167863D01*
X3043510Y2182390D01*
X3032390Y2193510D01*
X3017863Y2199528D01*
X3002137D01*
X2987610Y2193510D01*
X2976490Y2182390D01*
X2970472Y2167863D01*
Y2152137D01*
X2971901Y2148689D01*
X2913561Y2090349D01*
X2908942Y2092262D01*
Y2122154D01*
X3007260Y2220472D01*
X3017863D01*
X3032390Y2226490D01*
X3043510Y2237610D01*
X3049528Y2252137D01*
Y2267863D01*
X3043510Y2282390D01*
X3032390Y2293510D01*
X3017863Y2299528D01*
X3002137D01*
X2987610Y2293510D01*
X2976490Y2282390D01*
X2970472Y2267863D01*
Y2252137D01*
X2974830Y2241618D01*
X2876606Y2143394D01*
X2871058Y2130000D01*
Y2012846D01*
X2851114Y1992902D01*
X2846875Y1995734D01*
X2849528Y2002138D01*
Y2017862D01*
X2843510Y2032390D01*
X2832390Y2043510D01*
X2817863Y2049528D01*
X2802137D01*
X2787610Y2043510D01*
X2776490Y2032390D01*
X2770472Y2017862D01*
Y2002138D01*
X2776490Y1987610D01*
X2780538Y1983561D01*
X2778625Y1978942D01*
X2760000D01*
X2746606Y1973394D01*
X2721311Y1948099D01*
X2717863Y1949527D01*
X2702137D01*
X2687610Y1943510D01*
X2676490Y1932390D01*
X2670472Y1917862D01*
Y1902138D01*
X2676490Y1887610D01*
X2687610Y1876490D01*
X2702137Y1870473D01*
X2717863D01*
X2732390Y1876490D01*
X2743510Y1887610D01*
X2749528Y1902138D01*
Y1917862D01*
X2748099Y1921311D01*
X2767846Y1941058D01*
X2778625D01*
X2780538Y1936439D01*
X2776490Y1932390D01*
X2770472Y1917862D01*
Y1902138D01*
X2776490Y1887610D01*
X2787610Y1876490D01*
X2802137Y1870473D01*
X2817863D01*
X2832390Y1876490D01*
X2843510Y1887610D01*
X2849528Y1902138D01*
Y1917862D01*
X2843510Y1932390D01*
X2839462Y1936439D01*
X2841375Y1941058D01*
X2845000D01*
X2858394Y1946606D01*
X2896439Y1984651D01*
X2901058Y1982737D01*
Y1927846D01*
X2821311Y1848099D01*
X2817863Y1849527D01*
X2802137D01*
X2787610Y1843510D01*
X2776490Y1832390D01*
X2770472Y1817862D01*
Y1802138D01*
X2776490Y1787610D01*
X2777566Y1786534D01*
X2775653Y1781914D01*
X2764874D01*
X2748099Y1798689D01*
X2749528Y1802138D01*
Y1817862D01*
X2743510Y1832390D01*
X2732390Y1843510D01*
X2717863Y1849527D01*
X2702137D01*
X2687610Y1843510D01*
X2676490Y1832390D01*
X2670472Y1817862D01*
Y1802138D01*
X2676490Y1787610D01*
X2687610Y1776490D01*
X2702137Y1770473D01*
X2717863D01*
X2721311Y1771901D01*
X2743634Y1749578D01*
X2757028Y1744031D01*
X2781059D01*
X2783130Y1739031D01*
X2776490Y1732390D01*
X2770472Y1717862D01*
Y1702138D01*
X2776490Y1687610D01*
X2780538Y1683561D01*
X2778625Y1678942D01*
X2741375D01*
X2739462Y1683561D01*
X2743510Y1687610D01*
X2749528Y1702138D01*
Y1717862D01*
X2743510Y1732390D01*
X2732390Y1743510D01*
X2717863Y1749527D01*
X2702137D01*
X2687610Y1743510D01*
X2676490Y1732390D01*
X2670472Y1717862D01*
Y1702138D01*
X2676490Y1687610D01*
X2680538Y1683561D01*
X2678625Y1678942D01*
X2360000D01*
X2346606Y1673394D01*
X2321311Y1648099D01*
X2317863Y1649527D01*
X2302137D01*
X2287610Y1643510D01*
X2280119Y1636020D01*
X2274221Y1637193D01*
X2270421Y1646366D01*
X1631303Y2285485D01*
X1633230Y2290629D01*
X1644826Y2295432D01*
X1654672Y2305278D01*
X1660000Y2318142D01*
Y2332066D01*
X1654672Y2344930D01*
X1644826Y2354776D01*
X1631962Y2360104D01*
X1618038D01*
X1617154Y2359738D01*
X1597245Y2379647D01*
Y2475190D01*
X1591697Y2488584D01*
X1554900Y2525381D01*
X1556814Y2530000D01*
X1561962D01*
X1574826Y2535328D01*
X1584672Y2545174D01*
X1590000Y2558038D01*
Y2561783D01*
X1594619Y2563697D01*
X1711058Y2447258D01*
Y2345096D01*
X1706834Y2340872D01*
X1701506Y2328008D01*
Y2314084D01*
X1706834Y2301220D01*
X1716680Y2291375D01*
X1729544Y2286046D01*
X1743467D01*
X1756332Y2291375D01*
X1766177Y2301220D01*
X1771506Y2314084D01*
Y2328008D01*
X1766177Y2340872D01*
X1756332Y2350718D01*
X1748942Y2353779D01*
Y2455104D01*
X1747534Y2458503D01*
X1751773Y2461335D01*
X1801058Y2412050D01*
Y2355038D01*
X1800174Y2354672D01*
X1790328Y2344826D01*
X1785000Y2331962D01*
Y2318038D01*
X1790328Y2305174D01*
X1800174Y2295328D01*
X1813038Y2290000D01*
X1826962D01*
X1839826Y2295328D01*
X1849672Y2305174D01*
X1855000Y2318038D01*
Y2331962D01*
X1849672Y2344826D01*
X1839826Y2354672D01*
X1838942Y2355038D01*
Y2419896D01*
X1833394Y2433290D01*
X1736303Y2530381D01*
X1738217Y2535000D01*
X1741962D01*
X1754826Y2540328D01*
X1764672Y2550174D01*
X1770000Y2563038D01*
Y2576962D01*
X1764672Y2589826D01*
X1754826Y2599672D01*
X1741962Y2605000D01*
X1731788D01*
X1397377Y2939411D01*
X1399290Y2944030D01*
X1419182D01*
X1790366Y2572846D01*
X1790000Y2571962D01*
Y2558038D01*
X1795328Y2545174D01*
X1805174Y2535328D01*
X1818038Y2530000D01*
X1831962D01*
X1844826Y2535328D01*
X1854672Y2545174D01*
X1860000Y2558038D01*
Y2571962D01*
X1854672Y2584826D01*
X1844826Y2594672D01*
X1831962Y2600000D01*
X1818038D01*
X1817154Y2599634D01*
X1440421Y2976366D01*
X1438812Y2977033D01*
X1437837Y2981937D01*
X1443510Y2987610D01*
X1449527Y3002137D01*
Y3017863D01*
X1443510Y3032390D01*
X1432390Y3043510D01*
X1417862Y3049528D01*
X1402138D01*
X1387610Y3043510D01*
X1380255Y3036155D01*
X1376366Y3036929D01*
X1338133Y3075162D01*
X1337168Y3081267D01*
X1343510Y3087610D01*
X1349527Y3102137D01*
Y3117863D01*
X1343510Y3132390D01*
X1332390Y3143510D01*
X1317862Y3149528D01*
D02*
G37*
G36*
X2517863D02*
X2502137D01*
X2487610Y3143510D01*
X2476490Y3132390D01*
X2470472Y3117863D01*
Y3102137D01*
X2476490Y3087610D01*
X2487610Y3076490D01*
X2502137Y3070472D01*
X2517863D01*
X2532390Y3076490D01*
X2543510Y3087610D01*
X2549528Y3102137D01*
Y3117863D01*
X2543510Y3132390D01*
X2532390Y3143510D01*
X2517863Y3149528D01*
D02*
G37*
G36*
X2217863D02*
X2202137D01*
X2187610Y3143510D01*
X2176490Y3132390D01*
X2170472Y3117863D01*
Y3102137D01*
X2176490Y3087610D01*
X2187610Y3076490D01*
X2202137Y3070472D01*
X2217863D01*
X2232390Y3076490D01*
X2243510Y3087610D01*
X2249528Y3102137D01*
Y3117863D01*
X2243510Y3132390D01*
X2232390Y3143510D01*
X2217863Y3149528D01*
D02*
G37*
G36*
X2117863D02*
X2102137D01*
X2087610Y3143510D01*
X2076490Y3132390D01*
X2070472Y3117863D01*
Y3102137D01*
X2076490Y3087610D01*
X2087610Y3076490D01*
X2102137Y3070472D01*
X2117863D01*
X2132390Y3076490D01*
X2143510Y3087610D01*
X2149528Y3102137D01*
Y3117863D01*
X2143510Y3132390D01*
X2132390Y3143510D01*
X2117863Y3149528D01*
D02*
G37*
G36*
X733646Y3723465D02*
X716354D01*
X700379Y3716847D01*
X688153Y3704621D01*
X681535Y3688646D01*
Y3671354D01*
X688153Y3655379D01*
X700379Y3643153D01*
X706058Y3640800D01*
Y3615000D01*
X711606Y3601606D01*
X1131606Y3181606D01*
X1145000Y3176058D01*
X1717154D01*
X1771901Y3121311D01*
X1770473Y3117863D01*
Y3102137D01*
X1776490Y3087610D01*
X1787610Y3076490D01*
X1802138Y3070472D01*
X1817862D01*
X1832390Y3076490D01*
X1843510Y3087610D01*
X1849527Y3102137D01*
Y3117863D01*
X1843510Y3132390D01*
X1832390Y3143510D01*
X1817862Y3149528D01*
X1802138D01*
X1798689Y3148099D01*
X1738394Y3208394D01*
X1725000Y3213942D01*
X1152846D01*
X743942Y3622846D01*
Y3640800D01*
X749621Y3643153D01*
X761847Y3655379D01*
X768465Y3671354D01*
Y3688646D01*
X761847Y3704621D01*
X749621Y3716847D01*
X733646Y3723465D01*
D02*
G37*
G36*
X1717862Y3149528D02*
X1702138D01*
X1687610Y3143510D01*
X1676490Y3132390D01*
X1670473Y3117863D01*
Y3102137D01*
X1676490Y3087610D01*
X1687610Y3076490D01*
X1702138Y3070472D01*
X1717862D01*
X1732390Y3076490D01*
X1743510Y3087610D01*
X1749527Y3102137D01*
Y3117863D01*
X1743510Y3132390D01*
X1732390Y3143510D01*
X1717862Y3149528D01*
D02*
G37*
G36*
X1617862D02*
X1602138D01*
X1587610Y3143510D01*
X1576490Y3132390D01*
X1570473Y3117863D01*
Y3102137D01*
X1576490Y3087610D01*
X1587610Y3076490D01*
X1602138Y3070472D01*
X1617862D01*
X1632390Y3076490D01*
X1643510Y3087610D01*
X1649527Y3102137D01*
Y3117863D01*
X1643510Y3132390D01*
X1632390Y3143510D01*
X1617862Y3149528D01*
D02*
G37*
G36*
X1517862D02*
X1502138D01*
X1487610Y3143510D01*
X1476490Y3132390D01*
X1470473Y3117863D01*
Y3102137D01*
X1476490Y3087610D01*
X1487610Y3076490D01*
X1502138Y3070472D01*
X1517862D01*
X1532390Y3076490D01*
X1543510Y3087610D01*
X1549527Y3102137D01*
Y3117863D01*
X1543510Y3132390D01*
X1532390Y3143510D01*
X1517862Y3149528D01*
D02*
G37*
G36*
X1417862D02*
X1402138D01*
X1387610Y3143510D01*
X1376490Y3132390D01*
X1370473Y3117863D01*
Y3102137D01*
X1376490Y3087610D01*
X1387610Y3076490D01*
X1402138Y3070472D01*
X1417862D01*
X1432390Y3076490D01*
X1443510Y3087610D01*
X1449527Y3102137D01*
Y3117863D01*
X1443510Y3132390D01*
X1432390Y3143510D01*
X1417862Y3149528D01*
D02*
G37*
G36*
X697862Y3094528D02*
X682138D01*
X667610Y3088510D01*
X656490Y3077390D01*
X650472Y3062863D01*
Y3047137D01*
X656490Y3032610D01*
X667610Y3021490D01*
X682138Y3015472D01*
X697862D01*
X712390Y3021490D01*
X723510Y3032610D01*
X729528Y3047137D01*
Y3062863D01*
X723510Y3077390D01*
X712390Y3088510D01*
X697862Y3094528D01*
D02*
G37*
G36*
X2849528Y3049528D02*
X2770472D01*
Y2970472D01*
X2849528D01*
Y3049528D01*
D02*
G37*
G36*
X2517863D02*
X2502137D01*
X2487610Y3043510D01*
X2476490Y3032390D01*
X2470472Y3017863D01*
Y3002137D01*
X2476490Y2987610D01*
X2487610Y2976490D01*
X2502137Y2970472D01*
X2517863D01*
X2532390Y2976490D01*
X2543510Y2987610D01*
X2549528Y3002137D01*
Y3017863D01*
X2543510Y3032390D01*
X2532390Y3043510D01*
X2517863Y3049528D01*
D02*
G37*
G36*
X2417863D02*
X2402137D01*
X2387610Y3043510D01*
X2376490Y3032390D01*
X2370472Y3017863D01*
Y3002137D01*
X2376490Y2987610D01*
X2387610Y2976490D01*
X2402137Y2970472D01*
X2417863D01*
X2432390Y2976490D01*
X2443510Y2987610D01*
X2449528Y3002137D01*
Y3017863D01*
X2443510Y3032390D01*
X2432390Y3043510D01*
X2417863Y3049528D01*
D02*
G37*
G36*
X2217863D02*
X2202137D01*
X2187610Y3043510D01*
X2176490Y3032390D01*
X2170472Y3017863D01*
Y3002137D01*
X2176490Y2987610D01*
X2187610Y2976490D01*
X2202137Y2970472D01*
X2217863D01*
X2232390Y2976490D01*
X2243510Y2987610D01*
X2249528Y3002137D01*
Y3017863D01*
X2243510Y3032390D01*
X2232390Y3043510D01*
X2217863Y3049528D01*
D02*
G37*
G36*
X1917862D02*
X1902138D01*
X1887610Y3043510D01*
X1876490Y3032390D01*
X1870473Y3017863D01*
Y3002137D01*
X1876490Y2987610D01*
X1887610Y2976490D01*
X1902138Y2970472D01*
X1917862D01*
X1932390Y2976490D01*
X1943510Y2987610D01*
X1949527Y3002137D01*
Y3017863D01*
X1943510Y3032390D01*
X1932390Y3043510D01*
X1917862Y3049528D01*
D02*
G37*
G36*
X1817862D02*
X1802138D01*
X1787610Y3043510D01*
X1776490Y3032390D01*
X1770473Y3017863D01*
Y3002137D01*
X1776490Y2987610D01*
X1787610Y2976490D01*
X1802138Y2970472D01*
X1817862D01*
X1832390Y2976490D01*
X1843510Y2987610D01*
X1849527Y3002137D01*
Y3017863D01*
X1843510Y3032390D01*
X1832390Y3043510D01*
X1817862Y3049528D01*
D02*
G37*
G36*
X1717862D02*
X1702138D01*
X1687610Y3043510D01*
X1676490Y3032390D01*
X1670473Y3017863D01*
Y3002137D01*
X1676490Y2987610D01*
X1687610Y2976490D01*
X1702138Y2970472D01*
X1717862D01*
X1732390Y2976490D01*
X1743510Y2987610D01*
X1749527Y3002137D01*
Y3017863D01*
X1743510Y3032390D01*
X1732390Y3043510D01*
X1717862Y3049528D01*
D02*
G37*
G36*
X1617862D02*
X1602138D01*
X1587610Y3043510D01*
X1576490Y3032390D01*
X1570473Y3017863D01*
Y3002137D01*
X1576490Y2987610D01*
X1587610Y2976490D01*
X1602138Y2970472D01*
X1617862D01*
X1632390Y2976490D01*
X1643510Y2987610D01*
X1649527Y3002137D01*
Y3017863D01*
X1643510Y3032390D01*
X1632390Y3043510D01*
X1617862Y3049528D01*
D02*
G37*
G36*
X1517862D02*
X1502138D01*
X1487610Y3043510D01*
X1476490Y3032390D01*
X1470473Y3017863D01*
Y3002137D01*
X1476490Y2987610D01*
X1487610Y2976490D01*
X1502138Y2970472D01*
X1517862D01*
X1532390Y2976490D01*
X1543510Y2987610D01*
X1549527Y3002137D01*
Y3017863D01*
X1543510Y3032390D01*
X1532390Y3043510D01*
X1517862Y3049528D01*
D02*
G37*
G36*
X697862Y2994528D02*
X682138D01*
X667610Y2988510D01*
X656490Y2977390D01*
X650472Y2962863D01*
Y2947137D01*
X656490Y2932610D01*
X667610Y2921490D01*
X682138Y2915472D01*
X697862D01*
X712390Y2921490D01*
X723510Y2932610D01*
X729528Y2947137D01*
Y2962863D01*
X723510Y2977390D01*
X712390Y2988510D01*
X697862Y2994528D01*
D02*
G37*
G36*
X2817863Y2949528D02*
X2802137D01*
X2787610Y2943510D01*
X2776490Y2932390D01*
X2770472Y2917863D01*
Y2902137D01*
X2776490Y2887610D01*
X2787610Y2876490D01*
X2802137Y2870472D01*
X2817863D01*
X2832390Y2876490D01*
X2843510Y2887610D01*
X2849528Y2902137D01*
Y2917863D01*
X2843510Y2932390D01*
X2832390Y2943510D01*
X2817863Y2949528D01*
D02*
G37*
G36*
X2717863D02*
X2702137D01*
X2687610Y2943510D01*
X2676490Y2932390D01*
X2670472Y2917863D01*
Y2902137D01*
X2676490Y2887610D01*
X2687610Y2876490D01*
X2702137Y2870472D01*
X2717863D01*
X2732390Y2876490D01*
X2743510Y2887610D01*
X2749528Y2902137D01*
Y2917863D01*
X2743510Y2932390D01*
X2732390Y2943510D01*
X2717863Y2949528D01*
D02*
G37*
G36*
X2817863Y2849528D02*
X2802137D01*
X2787610Y2843510D01*
X2776490Y2832390D01*
X2770472Y2817863D01*
Y2802137D01*
X2776490Y2787610D01*
X2787610Y2776490D01*
X2802137Y2770472D01*
X2817863D01*
X2832390Y2776490D01*
X2843510Y2787610D01*
X2849528Y2802137D01*
Y2817863D01*
X2843510Y2832390D01*
X2832390Y2843510D01*
X2817863Y2849528D01*
D02*
G37*
G36*
X2717863D02*
X2702137D01*
X2687610Y2843510D01*
X2676490Y2832390D01*
X2670472Y2817863D01*
Y2802137D01*
X2676490Y2787610D01*
X2687610Y2776490D01*
X2702137Y2770472D01*
X2717863D01*
X2732390Y2776490D01*
X2743510Y2787610D01*
X2749528Y2802137D01*
Y2817863D01*
X2743510Y2832390D01*
X2732390Y2843510D01*
X2717863Y2849528D01*
D02*
G37*
G36*
X3017863Y2799528D02*
X3002137D01*
X2987610Y2793510D01*
X2976490Y2782390D01*
X2970472Y2767863D01*
Y2752137D01*
X2976490Y2737610D01*
X2987610Y2726490D01*
X3002137Y2720472D01*
X3017863D01*
X3032390Y2726490D01*
X3043510Y2737610D01*
X3049528Y2752137D01*
Y2767863D01*
X3043510Y2782390D01*
X3032390Y2793510D01*
X3017863Y2799528D01*
D02*
G37*
G36*
X2817863Y2749528D02*
X2802137D01*
X2787610Y2743510D01*
X2776490Y2732390D01*
X2770472Y2717863D01*
Y2702137D01*
X2776490Y2687610D01*
X2787610Y2676490D01*
X2802137Y2670472D01*
X2817863D01*
X2832390Y2676490D01*
X2843510Y2687610D01*
X2849528Y2702137D01*
Y2717863D01*
X2843510Y2732390D01*
X2832390Y2743510D01*
X2817863Y2749528D01*
D02*
G37*
G36*
X2717863D02*
X2702137D01*
X2687610Y2743510D01*
X2676490Y2732390D01*
X2670472Y2717863D01*
Y2702137D01*
X2676490Y2687610D01*
X2687610Y2676490D01*
X2702137Y2670472D01*
X2717863D01*
X2732390Y2676490D01*
X2743510Y2687610D01*
X2749528Y2702137D01*
Y2717863D01*
X2743510Y2732390D01*
X2732390Y2743510D01*
X2717863Y2749528D01*
D02*
G37*
G36*
X917862D02*
X902138D01*
X887610Y2743510D01*
X876490Y2732390D01*
X870472Y2717863D01*
Y2702137D01*
X876490Y2687610D01*
X887610Y2676490D01*
X902138Y2670472D01*
X917862D01*
X932390Y2676490D01*
X943510Y2687610D01*
X949528Y2702137D01*
Y2717863D01*
X943510Y2732390D01*
X932390Y2743510D01*
X917862Y2749528D01*
D02*
G37*
G36*
X3017863Y2699528D02*
X3002137D01*
X2987610Y2693510D01*
X2976490Y2682390D01*
X2970472Y2667863D01*
Y2652137D01*
X2976490Y2637610D01*
X2987610Y2626490D01*
X3002137Y2620472D01*
X3017863D01*
X3032390Y2626490D01*
X3043510Y2637610D01*
X3049528Y2652137D01*
Y2667863D01*
X3043510Y2682390D01*
X3032390Y2693510D01*
X3017863Y2699528D01*
D02*
G37*
G36*
X2817863Y2649528D02*
X2802137D01*
X2787610Y2643510D01*
X2776490Y2632390D01*
X2770472Y2617863D01*
Y2602137D01*
X2776490Y2587610D01*
X2787610Y2576490D01*
X2802137Y2570472D01*
X2817863D01*
X2832390Y2576490D01*
X2843510Y2587610D01*
X2849528Y2602137D01*
Y2617863D01*
X2843510Y2632390D01*
X2832390Y2643510D01*
X2817863Y2649528D01*
D02*
G37*
G36*
X2717863D02*
X2702137D01*
X2687610Y2643510D01*
X2676490Y2632390D01*
X2670472Y2617863D01*
Y2602137D01*
X2676490Y2587610D01*
X2687610Y2576490D01*
X2702137Y2570472D01*
X2717863D01*
X2732390Y2576490D01*
X2743510Y2587610D01*
X2749528Y2602137D01*
Y2617863D01*
X2743510Y2632390D01*
X2732390Y2643510D01*
X2717863Y2649528D01*
D02*
G37*
G36*
X1017862D02*
X1002138D01*
X987610Y2643510D01*
X976490Y2632390D01*
X970472Y2617863D01*
Y2602137D01*
X976490Y2587610D01*
X987610Y2576490D01*
X1002138Y2570472D01*
X1017862D01*
X1032390Y2576490D01*
X1043510Y2587610D01*
X1049527Y2602137D01*
Y2617863D01*
X1043510Y2632390D01*
X1032390Y2643510D01*
X1017862Y2649528D01*
D02*
G37*
G36*
X917862D02*
X902138D01*
X887610Y2643510D01*
X876490Y2632390D01*
X870472Y2617863D01*
Y2602137D01*
X876490Y2587610D01*
X887610Y2576490D01*
X902138Y2570472D01*
X917862D01*
X932390Y2576490D01*
X943510Y2587610D01*
X949528Y2602137D01*
Y2617863D01*
X943510Y2632390D01*
X932390Y2643510D01*
X917862Y2649528D01*
D02*
G37*
G36*
X3017863Y2599528D02*
X3002137D01*
X2987610Y2593510D01*
X2976490Y2582390D01*
X2970472Y2567863D01*
Y2552137D01*
X2976490Y2537610D01*
X2987610Y2526490D01*
X3002137Y2520472D01*
X3017863D01*
X3032390Y2526490D01*
X3043510Y2537610D01*
X3049528Y2552137D01*
Y2567863D01*
X3043510Y2582390D01*
X3032390Y2593510D01*
X3017863Y2599528D01*
D02*
G37*
G36*
X2817863Y2549528D02*
X2802137D01*
X2787610Y2543510D01*
X2776490Y2532390D01*
X2770472Y2517863D01*
Y2502137D01*
X2776490Y2487610D01*
X2787610Y2476490D01*
X2802137Y2470472D01*
X2817863D01*
X2832390Y2476490D01*
X2843510Y2487610D01*
X2849528Y2502137D01*
Y2517863D01*
X2843510Y2532390D01*
X2832390Y2543510D01*
X2817863Y2549528D01*
D02*
G37*
G36*
X2717863D02*
X2702137D01*
X2687610Y2543510D01*
X2676490Y2532390D01*
X2670472Y2517863D01*
Y2502137D01*
X2676490Y2487610D01*
X2687610Y2476490D01*
X2702137Y2470472D01*
X2717863D01*
X2732390Y2476490D01*
X2743510Y2487610D01*
X2749528Y2502137D01*
Y2517863D01*
X2743510Y2532390D01*
X2732390Y2543510D01*
X2717863Y2549528D01*
D02*
G37*
G36*
X3017863Y2499528D02*
X3002137D01*
X2987610Y2493510D01*
X2976490Y2482390D01*
X2970472Y2467863D01*
Y2452137D01*
X2976490Y2437610D01*
X2987610Y2426490D01*
X3002137Y2420472D01*
X3017863D01*
X3032390Y2426490D01*
X3043510Y2437610D01*
X3049528Y2452137D01*
Y2467863D01*
X3043510Y2482390D01*
X3032390Y2493510D01*
X3017863Y2499528D01*
D02*
G37*
G36*
X729528Y2494528D02*
X650472D01*
Y2415472D01*
X729528D01*
Y2494528D01*
D02*
G37*
G36*
X2817863Y2449528D02*
X2802137D01*
X2787610Y2443510D01*
X2776490Y2432390D01*
X2770472Y2417863D01*
Y2402137D01*
X2776490Y2387610D01*
X2787610Y2376490D01*
X2802137Y2370472D01*
X2817863D01*
X2832390Y2376490D01*
X2843510Y2387610D01*
X2849528Y2402137D01*
Y2417863D01*
X2843510Y2432390D01*
X2832390Y2443510D01*
X2817863Y2449528D01*
D02*
G37*
G36*
X2717863D02*
X2702137D01*
X2687610Y2443510D01*
X2676490Y2432390D01*
X2670472Y2417863D01*
Y2402137D01*
X2676490Y2387610D01*
X2687610Y2376490D01*
X2702137Y2370472D01*
X2717863D01*
X2732390Y2376490D01*
X2743510Y2387610D01*
X2749528Y2402137D01*
Y2417863D01*
X2743510Y2432390D01*
X2732390Y2443510D01*
X2717863Y2449528D01*
D02*
G37*
G36*
X3017863Y2399528D02*
X3002137D01*
X2987610Y2393510D01*
X2976490Y2382390D01*
X2970472Y2367863D01*
Y2352137D01*
X2976490Y2337610D01*
X2987610Y2326490D01*
X3002137Y2320472D01*
X3017863D01*
X3032390Y2326490D01*
X3043510Y2337610D01*
X3049528Y2352137D01*
Y2367863D01*
X3043510Y2382390D01*
X3032390Y2393510D01*
X3017863Y2399528D01*
D02*
G37*
G36*
X2817863Y2349528D02*
X2802137D01*
X2787610Y2343510D01*
X2776490Y2332390D01*
X2770472Y2317863D01*
Y2302137D01*
X2776490Y2287610D01*
X2787610Y2276490D01*
X2802137Y2270472D01*
X2817863D01*
X2832390Y2276490D01*
X2843510Y2287610D01*
X2849528Y2302137D01*
Y2317863D01*
X2843510Y2332390D01*
X2832390Y2343510D01*
X2817863Y2349528D01*
D02*
G37*
G36*
X2717863D02*
X2702137D01*
X2687610Y2343510D01*
X2676490Y2332390D01*
X2670472Y2317863D01*
Y2302137D01*
X2676490Y2287610D01*
X2687610Y2276490D01*
X2702137Y2270472D01*
X2717863D01*
X2732390Y2276490D01*
X2743510Y2287610D01*
X2749528Y2302137D01*
Y2317863D01*
X2743510Y2332390D01*
X2732390Y2343510D01*
X2717863Y2349528D01*
D02*
G37*
G36*
X2817863Y2249528D02*
X2802137D01*
X2787610Y2243510D01*
X2776490Y2232390D01*
X2770472Y2217863D01*
Y2202137D01*
X2776490Y2187610D01*
X2787610Y2176490D01*
X2802137Y2170472D01*
X2817863D01*
X2832390Y2176490D01*
X2843510Y2187610D01*
X2849528Y2202137D01*
Y2217863D01*
X2843510Y2232390D01*
X2832390Y2243510D01*
X2817863Y2249528D01*
D02*
G37*
G36*
X2717863D02*
X2702137D01*
X2687610Y2243510D01*
X2676490Y2232390D01*
X2670472Y2217863D01*
Y2202137D01*
X2676490Y2187610D01*
X2687610Y2176490D01*
X2702137Y2170472D01*
X2717863D01*
X2732390Y2176490D01*
X2743510Y2187610D01*
X2749528Y2202137D01*
Y2217863D01*
X2743510Y2232390D01*
X2732390Y2243510D01*
X2717863Y2249528D01*
D02*
G37*
G36*
X2817863Y2149528D02*
X2802137D01*
X2787610Y2143510D01*
X2776490Y2132390D01*
X2770472Y2117863D01*
Y2102137D01*
X2776490Y2087610D01*
X2787610Y2076490D01*
X2802137Y2070472D01*
X2817863D01*
X2832390Y2076490D01*
X2843510Y2087610D01*
X2849528Y2102137D01*
Y2117863D01*
X2843510Y2132390D01*
X2832390Y2143510D01*
X2817863Y2149528D01*
D02*
G37*
G36*
X2717863D02*
X2702137D01*
X2687610Y2143510D01*
X2676490Y2132390D01*
X2670472Y2117863D01*
Y2102137D01*
X2676490Y2087610D01*
X2687610Y2076490D01*
X2702137Y2070472D01*
X2717863D01*
X2732390Y2076490D01*
X2743510Y2087610D01*
X2749528Y2102137D01*
Y2117863D01*
X2743510Y2132390D01*
X2732390Y2143510D01*
X2717863Y2149528D01*
D02*
G37*
G36*
Y2049528D02*
X2702137D01*
X2687610Y2043510D01*
X2676490Y2032390D01*
X2670472Y2017862D01*
Y2002138D01*
X2676490Y1987610D01*
X2687610Y1976490D01*
X2702137Y1970473D01*
X2717863D01*
X2732390Y1976490D01*
X2743510Y1987610D01*
X2749528Y2002138D01*
Y2017862D01*
X2743510Y2032390D01*
X2732390Y2043510D01*
X2717863Y2049528D01*
D02*
G37*
G36*
X1017862D02*
X1002138D01*
X987610Y2043510D01*
X976490Y2032390D01*
X970472Y2017862D01*
Y2002138D01*
X976490Y1987610D01*
X987610Y1976490D01*
X1002138Y1970473D01*
X1017862D01*
X1032390Y1976490D01*
X1043510Y1987610D01*
X1049527Y2002138D01*
Y2017862D01*
X1043510Y2032390D01*
X1032390Y2043510D01*
X1017862Y2049528D01*
D02*
G37*
G36*
X917862D02*
X902138D01*
X887610Y2043510D01*
X876490Y2032390D01*
X870472Y2017862D01*
Y2002138D01*
X876490Y1987610D01*
X887610Y1976490D01*
X902138Y1970473D01*
X917862D01*
X932390Y1976490D01*
X943510Y1987610D01*
X949528Y2002138D01*
Y2017862D01*
X943510Y2032390D01*
X932390Y2043510D01*
X917862Y2049528D01*
D02*
G37*
G36*
X1017862Y1949527D02*
X1002138D01*
X987610Y1943510D01*
X976490Y1932390D01*
X970472Y1917862D01*
Y1902138D01*
X976490Y1887610D01*
X987610Y1876490D01*
X1002138Y1870473D01*
X1017862D01*
X1032390Y1876490D01*
X1043510Y1887610D01*
X1049527Y1902138D01*
Y1917862D01*
X1043510Y1932390D01*
X1032390Y1943510D01*
X1017862Y1949527D01*
D02*
G37*
G36*
X917862D02*
X902138D01*
X887610Y1943510D01*
X876490Y1932390D01*
X870472Y1917862D01*
Y1902138D01*
X876490Y1887610D01*
X887610Y1876490D01*
X902138Y1870473D01*
X917862D01*
X932390Y1876490D01*
X943510Y1887610D01*
X949528Y1902138D01*
Y1917862D01*
X943510Y1932390D01*
X932390Y1943510D01*
X917862Y1949527D01*
D02*
G37*
G36*
X729528Y1914527D02*
X650472D01*
Y1905694D01*
X600204D01*
X590449Y1903753D01*
X582180Y1898228D01*
X496976Y1813024D01*
X491450Y1804755D01*
X489510Y1795000D01*
Y1285000D01*
X491450Y1275246D01*
X496976Y1266976D01*
X596976Y1166976D01*
X605246Y1161450D01*
X615000Y1159510D01*
X1055000D01*
X1064755Y1161450D01*
X1073024Y1166976D01*
X1159307Y1253259D01*
X1163546Y1250427D01*
X1158504Y1238254D01*
Y1221746D01*
X1164821Y1206494D01*
X1176494Y1194821D01*
X1191746Y1188504D01*
X1208254D01*
X1223506Y1194821D01*
X1235179Y1206494D01*
X1241496Y1221746D01*
Y1238254D01*
X1235179Y1253506D01*
X1223506Y1265179D01*
X1208254Y1271496D01*
X1191746D01*
X1179573Y1266454D01*
X1176741Y1270693D01*
X1194552Y1288504D01*
X1241496D01*
Y1321029D01*
X1253885Y1333417D01*
X1258504Y1331504D01*
Y1321746D01*
X1264821Y1306494D01*
X1276494Y1294821D01*
X1291746Y1288504D01*
X1308254D01*
X1323506Y1294821D01*
X1335179Y1306494D01*
X1341496Y1321746D01*
Y1338254D01*
X1335179Y1353506D01*
X1324370Y1364314D01*
X1325592Y1369314D01*
X1374408D01*
X1375630Y1364314D01*
X1364821Y1353506D01*
X1358504Y1338254D01*
Y1321746D01*
X1364821Y1306494D01*
X1376494Y1294821D01*
X1391746Y1288504D01*
X1408254D01*
X1423506Y1294821D01*
X1435179Y1306494D01*
X1441496Y1321746D01*
Y1338254D01*
X1435179Y1353506D01*
X1424370Y1364314D01*
X1425592Y1369314D01*
X1474408D01*
X1475630Y1364314D01*
X1464821Y1353506D01*
X1458504Y1338254D01*
Y1321746D01*
X1464821Y1306494D01*
X1476494Y1294821D01*
X1491746Y1288504D01*
X1508254D01*
X1523506Y1294821D01*
X1535179Y1306494D01*
X1541496Y1321746D01*
Y1338254D01*
X1535179Y1353506D01*
X1524370Y1364314D01*
X1525592Y1369314D01*
X1965218D01*
X2013504Y1321029D01*
Y1288504D01*
X2096496D01*
Y1371496D01*
X2063971D01*
X2005234Y1430234D01*
X1993656Y1437969D01*
X1980000Y1440686D01*
X1275000D01*
X1261344Y1437969D01*
X1249766Y1430234D01*
X1191029Y1371496D01*
X1158504D01*
Y1324552D01*
X1044442Y1210490D01*
X625558D01*
X540490Y1295558D01*
Y1784442D01*
X610762Y1854714D01*
X650472D01*
Y1835473D01*
X729528D01*
Y1914527D01*
D02*
G37*
G36*
X1017862Y1849527D02*
X1002138D01*
X987610Y1843510D01*
X976490Y1832390D01*
X970472Y1817862D01*
Y1802138D01*
X976490Y1787610D01*
X987610Y1776490D01*
X1002138Y1770473D01*
X1017862D01*
X1032390Y1776490D01*
X1043510Y1787610D01*
X1049527Y1802138D01*
Y1817862D01*
X1043510Y1832390D01*
X1032390Y1843510D01*
X1017862Y1849527D01*
D02*
G37*
G36*
X697862Y2894528D02*
X682138D01*
X667610Y2888510D01*
X656490Y2877390D01*
X650472Y2862863D01*
Y2847137D01*
X656490Y2832610D01*
X664461Y2824638D01*
X662599Y2819430D01*
X660099Y2818394D01*
X629578Y2787873D01*
X624030Y2774479D01*
Y2702028D01*
X629578Y2688634D01*
X651901Y2666311D01*
X650472Y2662863D01*
Y2647137D01*
X656490Y2632610D01*
X667610Y2621490D01*
X682138Y2615472D01*
X697862D01*
X712390Y2621490D01*
X723510Y2632610D01*
X729528Y2647137D01*
Y2662863D01*
X723510Y2677390D01*
X712390Y2688510D01*
X697862Y2694528D01*
X682138D01*
X678689Y2693099D01*
X661914Y2709874D01*
Y2720653D01*
X666534Y2722566D01*
X667610Y2721490D01*
X682138Y2715472D01*
X697862D01*
X701311Y2716901D01*
X781058Y2637154D01*
Y1720000D01*
X786606Y1706606D01*
X871901Y1621311D01*
X870472Y1617862D01*
Y1602138D01*
X876490Y1587610D01*
X887610Y1576490D01*
X902138Y1570473D01*
X917862D01*
X932390Y1576490D01*
X943510Y1587610D01*
X949528Y1602138D01*
Y1617862D01*
X943510Y1632390D01*
X932390Y1643510D01*
X917862Y1649527D01*
X902138D01*
X898689Y1648099D01*
X818942Y1727846D01*
Y1862737D01*
X823561Y1864651D01*
X870472Y1817740D01*
Y1802138D01*
X876490Y1787610D01*
X887610Y1776490D01*
X902138Y1770473D01*
X917862D01*
X932390Y1776490D01*
X943510Y1787610D01*
X949528Y1802138D01*
Y1817862D01*
X943510Y1832390D01*
X932390Y1843510D01*
X917862Y1849527D01*
X902138D01*
X895153Y1846635D01*
X843942Y1897846D01*
Y2686507D01*
X838394Y2699901D01*
X722873Y2815421D01*
X720301Y2816487D01*
X718394Y2818394D01*
X716960Y2818988D01*
X715786Y2824886D01*
X723510Y2832610D01*
X729528Y2847137D01*
Y2862863D01*
X723510Y2877390D01*
X712390Y2888510D01*
X697862Y2894528D01*
D02*
G37*
G36*
Y1814527D02*
X682138D01*
X667610Y1808510D01*
X656490Y1797390D01*
X650472Y1782862D01*
Y1767138D01*
X656490Y1752610D01*
X667610Y1741490D01*
X682138Y1735473D01*
X697862D01*
X712390Y1741490D01*
X723510Y1752610D01*
X729528Y1767138D01*
Y1782862D01*
X723510Y1797390D01*
X712390Y1808510D01*
X697862Y1814527D01*
D02*
G37*
G36*
X1017862Y1749527D02*
X1002138D01*
X987610Y1743510D01*
X976490Y1732390D01*
X970472Y1717862D01*
Y1702138D01*
X976490Y1687610D01*
X987610Y1676490D01*
X1002138Y1670473D01*
X1017862D01*
X1032390Y1676490D01*
X1043510Y1687610D01*
X1049527Y1702138D01*
Y1717862D01*
X1043510Y1732390D01*
X1032390Y1743510D01*
X1017862Y1749527D01*
D02*
G37*
G36*
X917862D02*
X902138D01*
X887610Y1743510D01*
X876490Y1732390D01*
X870472Y1717862D01*
Y1702138D01*
X876490Y1687610D01*
X887610Y1676490D01*
X902138Y1670473D01*
X917862D01*
X932390Y1676490D01*
X943510Y1687610D01*
X949528Y1702138D01*
Y1717862D01*
X943510Y1732390D01*
X932390Y1743510D01*
X917862Y1749527D01*
D02*
G37*
G36*
X697862Y1714527D02*
X682138D01*
X667610Y1708510D01*
X656490Y1697390D01*
X650472Y1682862D01*
Y1667138D01*
X656490Y1652610D01*
X667610Y1641490D01*
X682138Y1635473D01*
X697862D01*
X712390Y1641490D01*
X723510Y1652610D01*
X729528Y1667138D01*
Y1682862D01*
X723510Y1697390D01*
X712390Y1708510D01*
X697862Y1714527D01*
D02*
G37*
G36*
X430354Y1684526D02*
X351300D01*
Y1605472D01*
X430354D01*
Y1684526D01*
D02*
G37*
G36*
X99478D02*
X83752D01*
X69225Y1678509D01*
X58105Y1667389D01*
X52087Y1652861D01*
Y1637137D01*
X58105Y1622609D01*
X69225Y1611489D01*
X83752Y1605472D01*
X99478D01*
X114005Y1611489D01*
X125125Y1622609D01*
X131143Y1637137D01*
Y1652861D01*
X125125Y1667389D01*
X114005Y1678509D01*
X99478Y1684526D01*
D02*
G37*
G36*
X3017863Y1679527D02*
X3002137D01*
X2987610Y1673510D01*
X2976490Y1662390D01*
X2970472Y1647862D01*
Y1632138D01*
X2971901Y1628689D01*
X2911606Y1568394D01*
X2906058Y1555000D01*
Y1330038D01*
X2905174Y1329672D01*
X2895328Y1319826D01*
X2890000Y1306962D01*
Y1293038D01*
X2895328Y1280174D01*
X2905174Y1270328D01*
X2918038Y1265000D01*
X2931962D01*
X2944826Y1270328D01*
X2954672Y1280174D01*
X2960000Y1293038D01*
Y1306962D01*
X2954672Y1319826D01*
X2944826Y1329672D01*
X2943942Y1330038D01*
Y1547154D01*
X2998689Y1601901D01*
X3002137Y1600473D01*
X3017863D01*
X3032390Y1606490D01*
X3043510Y1617610D01*
X3049528Y1632138D01*
Y1647862D01*
X3043510Y1662390D01*
X3032390Y1673510D01*
X3017863Y1679527D01*
D02*
G37*
G36*
X1917862Y1649527D02*
X1902138D01*
X1887610Y1643510D01*
X1876490Y1632390D01*
X1870473Y1617862D01*
Y1602138D01*
X1876490Y1587610D01*
X1887610Y1576490D01*
X1902138Y1570473D01*
X1917862D01*
X1932390Y1576490D01*
X1943510Y1587610D01*
X1949527Y1602138D01*
Y1617862D01*
X1943510Y1632390D01*
X1932390Y1643510D01*
X1917862Y1649527D01*
D02*
G37*
G36*
X1817862D02*
X1802138D01*
X1787610Y1643510D01*
X1776490Y1632390D01*
X1770473Y1617862D01*
Y1602138D01*
X1776490Y1587610D01*
X1787610Y1576490D01*
X1802138Y1570473D01*
X1817862D01*
X1832390Y1576490D01*
X1843510Y1587610D01*
X1849527Y1602138D01*
Y1617862D01*
X1843510Y1632390D01*
X1832390Y1643510D01*
X1817862Y1649527D01*
D02*
G37*
G36*
X1717862D02*
X1702138D01*
X1687610Y1643510D01*
X1676490Y1632390D01*
X1670473Y1617862D01*
Y1602138D01*
X1676490Y1587610D01*
X1687610Y1576490D01*
X1702138Y1570473D01*
X1717862D01*
X1732390Y1576490D01*
X1743510Y1587610D01*
X1749527Y1602138D01*
Y1617862D01*
X1743510Y1632390D01*
X1732390Y1643510D01*
X1717862Y1649527D01*
D02*
G37*
G36*
X1617862D02*
X1602138D01*
X1587610Y1643510D01*
X1576490Y1632390D01*
X1570473Y1617862D01*
Y1602138D01*
X1576490Y1587610D01*
X1587610Y1576490D01*
X1602138Y1570473D01*
X1617862D01*
X1632390Y1576490D01*
X1643510Y1587610D01*
X1649527Y1602138D01*
Y1617862D01*
X1643510Y1632390D01*
X1632390Y1643510D01*
X1617862Y1649527D01*
D02*
G37*
G36*
X1517862D02*
X1502138D01*
X1487610Y1643510D01*
X1476490Y1632390D01*
X1470473Y1617862D01*
Y1602138D01*
X1476490Y1587610D01*
X1487610Y1576490D01*
X1502138Y1570473D01*
X1517862D01*
X1532390Y1576490D01*
X1543510Y1587610D01*
X1549527Y1602138D01*
Y1617862D01*
X1543510Y1632390D01*
X1532390Y1643510D01*
X1517862Y1649527D01*
D02*
G37*
G36*
X1417862D02*
X1402138D01*
X1387610Y1643510D01*
X1376490Y1632390D01*
X1370473Y1617862D01*
Y1602138D01*
X1376490Y1587610D01*
X1387610Y1576490D01*
X1402138Y1570473D01*
X1417862D01*
X1432390Y1576490D01*
X1443510Y1587610D01*
X1449527Y1602138D01*
Y1617862D01*
X1443510Y1632390D01*
X1432390Y1643510D01*
X1417862Y1649527D01*
D02*
G37*
G36*
X1317862D02*
X1302138D01*
X1287610Y1643510D01*
X1276490Y1632390D01*
X1270473Y1617862D01*
Y1602138D01*
X1276490Y1587610D01*
X1287610Y1576490D01*
X1302138Y1570473D01*
X1317862D01*
X1332390Y1576490D01*
X1343510Y1587610D01*
X1349527Y1602138D01*
Y1617862D01*
X1343510Y1632390D01*
X1332390Y1643510D01*
X1317862Y1649527D01*
D02*
G37*
G36*
X1217862D02*
X1202138D01*
X1187610Y1643510D01*
X1176490Y1632390D01*
X1170473Y1617862D01*
Y1602138D01*
X1176490Y1587610D01*
X1187610Y1576490D01*
X1202138Y1570473D01*
X1217862D01*
X1232390Y1576490D01*
X1243510Y1587610D01*
X1249527Y1602138D01*
Y1617862D01*
X1243510Y1632390D01*
X1232390Y1643510D01*
X1217862Y1649527D01*
D02*
G37*
G36*
X1117862D02*
X1102138D01*
X1087610Y1643510D01*
X1076490Y1632390D01*
X1070473Y1617862D01*
Y1602138D01*
X1076490Y1587610D01*
X1087610Y1576490D01*
X1102138Y1570473D01*
X1117862D01*
X1132390Y1576490D01*
X1143510Y1587610D01*
X1149527Y1602138D01*
Y1617862D01*
X1143510Y1632390D01*
X1132390Y1643510D01*
X1117862Y1649527D01*
D02*
G37*
G36*
X1017862D02*
X1002138D01*
X987610Y1643510D01*
X976490Y1632390D01*
X970472Y1617862D01*
Y1602138D01*
X976490Y1587610D01*
X987610Y1576490D01*
X1002138Y1570473D01*
X1017862D01*
X1032390Y1576490D01*
X1043510Y1587610D01*
X1049527Y1602138D01*
Y1617862D01*
X1043510Y1632390D01*
X1032390Y1643510D01*
X1017862Y1649527D01*
D02*
G37*
G36*
X697862Y1614527D02*
X682138D01*
X667610Y1608510D01*
X656490Y1597390D01*
X650472Y1582862D01*
Y1567138D01*
X656490Y1552610D01*
X667610Y1541490D01*
X682138Y1535473D01*
X697862D01*
X712390Y1541490D01*
X723510Y1552610D01*
X729528Y1567138D01*
Y1582862D01*
X723510Y1597390D01*
X712390Y1608510D01*
X697862Y1614527D01*
D02*
G37*
G36*
X2717863Y1549527D02*
X2702137D01*
X2687610Y1543510D01*
X2676490Y1532390D01*
X2670472Y1517862D01*
Y1502138D01*
X2676490Y1487610D01*
X2687610Y1476490D01*
X2702137Y1470473D01*
X2717863D01*
X2732390Y1476490D01*
X2743510Y1487610D01*
X2749528Y1502138D01*
Y1517862D01*
X2743510Y1532390D01*
X2732390Y1543510D01*
X2717863Y1549527D01*
D02*
G37*
G36*
X1917862D02*
X1902138D01*
X1887610Y1543510D01*
X1876490Y1532390D01*
X1870473Y1517862D01*
Y1502138D01*
X1876490Y1487610D01*
X1887610Y1476490D01*
X1902138Y1470473D01*
X1917862D01*
X1932390Y1476490D01*
X1943510Y1487610D01*
X1949527Y1502138D01*
Y1517862D01*
X1943510Y1532390D01*
X1932390Y1543510D01*
X1917862Y1549527D01*
D02*
G37*
G36*
X1817862D02*
X1802138D01*
X1787610Y1543510D01*
X1776490Y1532390D01*
X1770473Y1517862D01*
Y1502138D01*
X1776490Y1487610D01*
X1787610Y1476490D01*
X1802138Y1470473D01*
X1817862D01*
X1832390Y1476490D01*
X1843510Y1487610D01*
X1849527Y1502138D01*
Y1517862D01*
X1843510Y1532390D01*
X1832390Y1543510D01*
X1817862Y1549527D01*
D02*
G37*
G36*
X1717862D02*
X1702138D01*
X1687610Y1543510D01*
X1676490Y1532390D01*
X1670473Y1517862D01*
Y1502138D01*
X1676490Y1487610D01*
X1687610Y1476490D01*
X1702138Y1470473D01*
X1717862D01*
X1732390Y1476490D01*
X1743510Y1487610D01*
X1749527Y1502138D01*
Y1517862D01*
X1743510Y1532390D01*
X1732390Y1543510D01*
X1717862Y1549527D01*
D02*
G37*
G36*
X1617862D02*
X1602138D01*
X1587610Y1543510D01*
X1576490Y1532390D01*
X1570473Y1517862D01*
Y1502138D01*
X1576490Y1487610D01*
X1587610Y1476490D01*
X1602138Y1470473D01*
X1617862D01*
X1632390Y1476490D01*
X1643510Y1487610D01*
X1649527Y1502138D01*
Y1517862D01*
X1643510Y1532390D01*
X1632390Y1543510D01*
X1617862Y1549527D01*
D02*
G37*
G36*
X1517862D02*
X1502138D01*
X1487610Y1543510D01*
X1476490Y1532390D01*
X1470473Y1517862D01*
Y1502138D01*
X1476490Y1487610D01*
X1487610Y1476490D01*
X1502138Y1470473D01*
X1517862D01*
X1532390Y1476490D01*
X1543510Y1487610D01*
X1549527Y1502138D01*
Y1517862D01*
X1543510Y1532390D01*
X1532390Y1543510D01*
X1517862Y1549527D01*
D02*
G37*
G36*
X1417862D02*
X1402138D01*
X1387610Y1543510D01*
X1376490Y1532390D01*
X1370473Y1517862D01*
Y1502138D01*
X1376490Y1487610D01*
X1387610Y1476490D01*
X1402138Y1470473D01*
X1417862D01*
X1432390Y1476490D01*
X1443510Y1487610D01*
X1449527Y1502138D01*
Y1517862D01*
X1443510Y1532390D01*
X1432390Y1543510D01*
X1417862Y1549527D01*
D02*
G37*
G36*
X1317862D02*
X1302138D01*
X1287610Y1543510D01*
X1276490Y1532390D01*
X1270473Y1517862D01*
Y1502138D01*
X1276490Y1487610D01*
X1287610Y1476490D01*
X1302138Y1470473D01*
X1317862D01*
X1332390Y1476490D01*
X1343510Y1487610D01*
X1349527Y1502138D01*
Y1517862D01*
X1343510Y1532390D01*
X1332390Y1543510D01*
X1317862Y1549527D01*
D02*
G37*
G36*
X1217862D02*
X1202138D01*
X1187610Y1543510D01*
X1176490Y1532390D01*
X1170473Y1517862D01*
Y1502138D01*
X1176490Y1487610D01*
X1187610Y1476490D01*
X1202138Y1470473D01*
X1217862D01*
X1232390Y1476490D01*
X1243510Y1487610D01*
X1249527Y1502138D01*
Y1517862D01*
X1243510Y1532390D01*
X1232390Y1543510D01*
X1217862Y1549527D01*
D02*
G37*
G36*
X1117862D02*
X1102138D01*
X1087610Y1543510D01*
X1076490Y1532390D01*
X1070473Y1517862D01*
Y1502138D01*
X1076490Y1487610D01*
X1087610Y1476490D01*
X1102138Y1470473D01*
X1117862D01*
X1132390Y1476490D01*
X1143510Y1487610D01*
X1149527Y1502138D01*
Y1517862D01*
X1143510Y1532390D01*
X1132390Y1543510D01*
X1117862Y1549527D01*
D02*
G37*
G36*
X1017862D02*
X1002138D01*
X987610Y1543510D01*
X976490Y1532390D01*
X970472Y1517862D01*
Y1502138D01*
X976490Y1487610D01*
X987610Y1476490D01*
X1002138Y1470473D01*
X1017862D01*
X1032390Y1476490D01*
X1043510Y1487610D01*
X1049527Y1502138D01*
Y1517862D01*
X1043510Y1532390D01*
X1032390Y1543510D01*
X1017862Y1549527D01*
D02*
G37*
G36*
X917862D02*
X902138D01*
X887610Y1543510D01*
X876490Y1532390D01*
X870472Y1517862D01*
Y1502138D01*
X876490Y1487610D01*
X887610Y1476490D01*
X902138Y1470473D01*
X917862D01*
X932390Y1476490D01*
X943510Y1487610D01*
X949528Y1502138D01*
Y1517862D01*
X943510Y1532390D01*
X932390Y1543510D01*
X917862Y1549527D01*
D02*
G37*
G36*
X697862Y1514527D02*
X682138D01*
X667610Y1508510D01*
X656490Y1497390D01*
X650472Y1482862D01*
Y1467138D01*
X656490Y1452610D01*
X667610Y1441490D01*
X682138Y1435473D01*
X697862D01*
X712390Y1441490D01*
X723510Y1452610D01*
X729528Y1467138D01*
Y1482862D01*
X723510Y1497390D01*
X712390Y1508510D01*
X697862Y1514527D01*
D02*
G37*
G36*
Y1414527D02*
X682138D01*
X667610Y1408510D01*
X656490Y1397390D01*
X650472Y1382862D01*
Y1367138D01*
X656490Y1352610D01*
X667610Y1341490D01*
X682138Y1335473D01*
X697862D01*
X712390Y1341490D01*
X723510Y1352610D01*
X729528Y1367138D01*
Y1382862D01*
X723510Y1397390D01*
X712390Y1408510D01*
X697862Y1414527D01*
D02*
G37*
G36*
Y1314527D02*
X682138D01*
X667610Y1308510D01*
X656490Y1297390D01*
X650472Y1282862D01*
Y1267138D01*
X656490Y1252610D01*
X667610Y1241490D01*
X682138Y1235473D01*
X697862D01*
X712390Y1241490D01*
X723510Y1252610D01*
X729528Y1267138D01*
Y1282862D01*
X723510Y1297390D01*
X712390Y1308510D01*
X697862Y1314527D01*
D02*
G37*
G36*
X2263254Y1271496D02*
X2246746D01*
X2231494Y1265179D01*
X2219821Y1253506D01*
X2213504Y1238254D01*
Y1221746D01*
X2219821Y1206494D01*
X2231494Y1194821D01*
X2246746Y1188504D01*
X2263254D01*
X2278506Y1194821D01*
X2290179Y1206494D01*
X2296496Y1221746D01*
Y1238254D01*
X2290179Y1253506D01*
X2278506Y1265179D01*
X2263254Y1271496D01*
D02*
G37*
G36*
X2163254D02*
X2146746D01*
X2131494Y1265179D01*
X2119821Y1253506D01*
X2113504Y1238254D01*
Y1221746D01*
X2119821Y1206494D01*
X2131494Y1194821D01*
X2146746Y1188504D01*
X2163254D01*
X2178506Y1194821D01*
X2190179Y1206494D01*
X2196496Y1221746D01*
Y1238254D01*
X2190179Y1253506D01*
X2178506Y1265179D01*
X2163254Y1271496D01*
D02*
G37*
G36*
X2063254D02*
X2046746D01*
X2031494Y1265179D01*
X2019821Y1253506D01*
X2013504Y1238254D01*
Y1221746D01*
X2019821Y1206494D01*
X2031494Y1194821D01*
X2046746Y1188504D01*
X2063254D01*
X2078506Y1194821D01*
X2090179Y1206494D01*
X2096496Y1221746D01*
Y1238254D01*
X2090179Y1253506D01*
X2078506Y1265179D01*
X2063254Y1271496D01*
D02*
G37*
G36*
X1408254D02*
X1391746D01*
X1376494Y1265179D01*
X1364821Y1253506D01*
X1358504Y1238254D01*
Y1221746D01*
X1364821Y1206494D01*
X1376494Y1194821D01*
X1391746Y1188504D01*
X1408254D01*
X1423506Y1194821D01*
X1435179Y1206494D01*
X1441496Y1221746D01*
Y1238254D01*
X1435179Y1253506D01*
X1423506Y1265179D01*
X1408254Y1271496D01*
D02*
G37*
G36*
X1308254D02*
X1291746D01*
X1276494Y1265179D01*
X1264821Y1253506D01*
X1258504Y1238254D01*
Y1221746D01*
X1264821Y1206494D01*
X1276494Y1194821D01*
X1291746Y1188504D01*
X1308254D01*
X1323506Y1194821D01*
X1335179Y1206494D01*
X1341496Y1221746D01*
Y1238254D01*
X1335179Y1253506D01*
X1323506Y1265179D01*
X1308254Y1271496D01*
D02*
G37*
G36*
X3049528Y1479527D02*
X2970472D01*
Y1400473D01*
X2991058D01*
Y1334800D01*
X2972300D01*
Y1264800D01*
X2988358D01*
Y1229800D01*
X2972200D01*
Y1159800D01*
X3042200D01*
Y1229800D01*
X3026242D01*
Y1264800D01*
X3042300D01*
Y1334800D01*
X3028942D01*
Y1400473D01*
X3049528D01*
Y1479527D01*
D02*
G37*
G36*
X2966496Y1096496D02*
X2883504D01*
Y1090686D01*
X1250000D01*
X1236344Y1087969D01*
X1224766Y1080234D01*
X1089766Y945234D01*
X1082031Y933656D01*
X1079314Y920000D01*
Y890143D01*
X1071653D01*
Y880686D01*
X1030591D01*
Y886450D01*
X959409D01*
Y877136D01*
X932450D01*
X918794Y874419D01*
X907216Y866684D01*
X781533Y741000D01*
X752000D01*
Y621000D01*
X755314D01*
Y573859D01*
X745551D01*
Y467245D01*
X783980D01*
X959409Y291817D01*
Y266450D01*
X1030591D01*
Y270764D01*
X1071653D01*
Y258095D01*
X1148347D01*
Y293258D01*
X1150686Y304975D01*
X1148347Y316778D01*
Y350143D01*
X1071653D01*
Y342136D01*
X1030591D01*
Y346450D01*
X1005711D01*
X834449Y517711D01*
Y573859D01*
X826686D01*
Y621000D01*
X832000D01*
Y690533D01*
X947231Y805764D01*
X994410D01*
X997857Y806450D01*
X1030591D01*
Y809314D01*
X1071653D01*
Y798095D01*
X1148347D01*
Y833240D01*
X1150686Y845000D01*
Y905218D01*
X1264782Y1019314D01*
X2883504D01*
Y1013504D01*
X2889314D01*
Y996496D01*
X2883504D01*
Y913504D01*
X2966496D01*
Y996496D01*
X2960686D01*
Y1013504D01*
X2966496D01*
Y1096496D01*
D02*
G37*
G36*
X2790000Y980686D02*
X1655000D01*
X1641344Y977969D01*
X1629766Y970234D01*
X1573766Y914234D01*
X1566031Y902656D01*
X1563314Y889000D01*
Y870686D01*
X1470591D01*
Y886450D01*
X1399409D01*
Y879804D01*
X1364882D01*
Y890143D01*
X1288189D01*
Y848489D01*
X1288189D01*
X1291031Y845027D01*
X1290850Y844118D01*
Y839749D01*
X1288189D01*
Y798095D01*
X1290850D01*
Y789355D01*
X1288189D01*
Y747701D01*
X1298358D01*
X1301302Y743294D01*
X1302263Y742653D01*
X1301773Y737677D01*
X1293076Y734074D01*
X1286474Y718134D01*
X1293076Y702194D01*
X1309016Y695591D01*
X1344055D01*
X1359996Y702194D01*
X1366599Y718134D01*
X1359996Y734074D01*
X1351299Y737677D01*
X1350809Y742653D01*
X1351770Y743294D01*
X1354714Y747701D01*
X1364882D01*
Y789355D01*
X1362222D01*
Y798095D01*
X1364882D01*
Y808432D01*
X1399409D01*
Y806450D01*
X1426180D01*
X1432794Y802031D01*
X1446450Y799314D01*
X1563314D01*
Y779684D01*
X1563315Y779681D01*
X1563314Y779678D01*
X1564643Y773005D01*
X1566031Y766028D01*
X1566032Y766025D01*
X1566033Y766023D01*
X1569692Y760548D01*
Y706238D01*
X1555552D01*
X1541896Y703521D01*
X1530318Y695786D01*
X1469766Y635234D01*
X1462031Y623656D01*
X1459314Y610000D01*
Y587186D01*
X1025686D01*
Y642622D01*
X1026017Y643421D01*
X1027969Y646344D01*
X1028655Y649791D01*
X1030000Y653038D01*
Y656553D01*
X1030686Y660000D01*
X1030000Y663447D01*
Y666962D01*
X1028655Y670209D01*
X1027969Y673656D01*
X1026017Y676579D01*
X1024672Y679826D01*
X1022186Y682311D01*
X1020234Y685234D01*
X1017311Y687186D01*
X1014826Y689672D01*
X1011579Y691017D01*
X1008656Y692969D01*
X1005209Y693655D01*
X1001962Y695000D01*
X998447D01*
X995000Y695686D01*
X991553Y695000D01*
X988038D01*
X984791Y693655D01*
X981344Y692969D01*
X978421Y691017D01*
X975174Y689672D01*
X972689Y687186D01*
X969766Y685234D01*
X964766Y680234D01*
X957031Y668656D01*
X954314Y655000D01*
Y551500D01*
X957031Y537844D01*
X964766Y526266D01*
X965000Y526110D01*
Y521500D01*
X971900D01*
X976344Y518531D01*
X990000Y515814D01*
X1495000D01*
X1508656Y518531D01*
X1513100Y521500D01*
X1520000D01*
Y526110D01*
X1520234Y526266D01*
X1527969Y537844D01*
X1530686Y551500D01*
Y595218D01*
X1570333Y634866D01*
X1606560D01*
X1613488Y636244D01*
X1673289D01*
X1709314Y600218D01*
Y544448D01*
X1712031Y530792D01*
X1713762Y528200D01*
Y351221D01*
X1710120D01*
Y342136D01*
X1650591D01*
Y346450D01*
X1579409D01*
Y342136D01*
X1470591D01*
Y346450D01*
X1399409D01*
Y339804D01*
X1364882D01*
Y350143D01*
X1288189D01*
Y308489D01*
X1288189D01*
X1291031Y305026D01*
X1290850Y304118D01*
Y299749D01*
X1288189D01*
Y258095D01*
X1290850D01*
Y249355D01*
X1288189D01*
Y207701D01*
X1298358D01*
X1301302Y203294D01*
X1302263Y202653D01*
X1301773Y197677D01*
X1293076Y194074D01*
X1286474Y178134D01*
X1293076Y162194D01*
X1309016Y155591D01*
X1344055D01*
X1359996Y162194D01*
X1366599Y178134D01*
X1359996Y194074D01*
X1351299Y197677D01*
X1350809Y202653D01*
X1351770Y203294D01*
X1354714Y207701D01*
X1364882D01*
Y249355D01*
X1362222D01*
Y258095D01*
X1364882D01*
Y268432D01*
X1399409D01*
Y266450D01*
X1470591D01*
Y270764D01*
X1579409D01*
Y266450D01*
X1650591D01*
Y270764D01*
X1710120D01*
Y259173D01*
X1720288D01*
X1723232Y254766D01*
X1734810Y247031D01*
X1748466Y244314D01*
X1762122Y247031D01*
X1773700Y254766D01*
X1776644Y259173D01*
X1786812D01*
Y300827D01*
X1784152D01*
Y309567D01*
X1786812D01*
Y351221D01*
X1785134D01*
Y540000D01*
X1782417Y553656D01*
X1780686Y556248D01*
Y615000D01*
X1777969Y628656D01*
X1770234Y640234D01*
X1713304Y697164D01*
X1701726Y704899D01*
X1688070Y707616D01*
X1641064D01*
Y773308D01*
X1641063Y773311D01*
X1641064Y773314D01*
X1639724Y780045D01*
X1638347Y786964D01*
X1638346Y786967D01*
X1638345Y786970D01*
X1634686Y792444D01*
Y835000D01*
Y874218D01*
X1669782Y909314D01*
X2775218D01*
X2852280Y832252D01*
X2863858Y824517D01*
X2877514Y821800D01*
X2883504D01*
Y813504D01*
X2889314D01*
Y796496D01*
X2883504D01*
Y713504D01*
X2966496D01*
Y796496D01*
X2960686D01*
Y813504D01*
X2966496D01*
Y896496D01*
X2888971D01*
X2815234Y970234D01*
X2803656Y977969D01*
X2790000Y980686D01*
D02*
G37*
G36*
X3000000Y3855686D02*
X605000D01*
X591344Y3852969D01*
X579766Y3845234D01*
X499766Y3765234D01*
X492031Y3753656D01*
X489314Y3740000D01*
Y3723465D01*
X481536D01*
Y3636535D01*
X568465D01*
Y3723465D01*
X566003D01*
X563932Y3728465D01*
X619782Y3784314D01*
X1234482D01*
X1237654Y3780449D01*
X1235888Y3771574D01*
Y3723465D01*
X1224870D01*
Y3636535D01*
X1311799D01*
Y3723465D01*
X1307260D01*
Y3756793D01*
X1334782Y3784314D01*
X1977814D01*
X1980986Y3780449D01*
X1979220Y3771574D01*
Y3723465D01*
X1968201D01*
Y3636535D01*
X2055131D01*
Y3723465D01*
X2050592D01*
Y3756793D01*
X2078113Y3784314D01*
X2721148D01*
X2724320Y3780449D01*
X2722554Y3771574D01*
Y3723465D01*
X2711535D01*
Y3636535D01*
X2798465D01*
Y3723465D01*
X2793926D01*
Y3756793D01*
X2821448Y3784314D01*
X2985218D01*
X3069314Y3700218D01*
Y509781D01*
X2975218Y415686D01*
X2803942D01*
Y539962D01*
X2804826Y540328D01*
X2814672Y550174D01*
X2820000Y563038D01*
Y576962D01*
X2814672Y589826D01*
X2804826Y599672D01*
X2791962Y605000D01*
X2778038D01*
X2765174Y599672D01*
X2755328Y589826D01*
X2750000Y576962D01*
Y563038D01*
X2755328Y550174D01*
X2765174Y540328D01*
X2766058Y539962D01*
Y415686D01*
X2750000D01*
X2736344Y412969D01*
X2724766Y405234D01*
X2672973Y353440D01*
X2668490Y356029D01*
X2674704Y379218D01*
Y408182D01*
X2667208Y436158D01*
X2652726Y461242D01*
X2632246Y481722D01*
X2607162Y496204D01*
X2579186Y503700D01*
X2550222D01*
X2522246Y496204D01*
X2497162Y481722D01*
X2476682Y461242D01*
X2462200Y436158D01*
X2454704Y408182D01*
Y379218D01*
X2462200Y351242D01*
X2476682Y326158D01*
X2497162Y305678D01*
X2514470Y295686D01*
X2513130Y290686D01*
X2478302D01*
X2437304Y331684D01*
X2425726Y339419D01*
X2412070Y342136D01*
X2120590D01*
Y346450D01*
X2049410D01*
Y339804D01*
X2003347D01*
Y351221D01*
X1993178D01*
X1990234Y355628D01*
X1978656Y363363D01*
X1965000Y366080D01*
X1951344Y363363D01*
X1939766Y355628D01*
X1936822Y351221D01*
X1926653D01*
Y309567D01*
X1929314D01*
Y300827D01*
X1926653D01*
Y259173D01*
X1929314D01*
Y250435D01*
X1926653D01*
Y208781D01*
X1936822D01*
X1939766Y204374D01*
X1940727Y203733D01*
X1940237Y198757D01*
X1931540Y195154D01*
X1924938Y179214D01*
X1931540Y163274D01*
X1947480Y156671D01*
X1982520D01*
X1998460Y163274D01*
X2005062Y179214D01*
X1998460Y195154D01*
X1989763Y198757D01*
X1989273Y203733D01*
X1990234Y204374D01*
X1993178Y208781D01*
X2003347D01*
Y250435D01*
X2000686D01*
Y259173D01*
X2003347D01*
Y268432D01*
X2049410D01*
Y266450D01*
X2120590D01*
Y270764D01*
X2397289D01*
X2438286Y229766D01*
X2449864Y222031D01*
X2463520Y219314D01*
X2620455D01*
X2622526Y214314D01*
X2477154Y68942D01*
X2393465D01*
Y153464D01*
X2306535D01*
Y68942D01*
X2293465D01*
Y153464D01*
X2206535D01*
Y68942D01*
X492846D01*
X362093Y199695D01*
X364006Y204314D01*
X465219D01*
X499766Y169766D01*
X511344Y162031D01*
X525000Y159314D01*
X612710D01*
X620162Y148162D01*
X633393Y139321D01*
X649000Y136216D01*
X664607Y139321D01*
X677838Y148162D01*
X686679Y161393D01*
X689784Y177000D01*
Y217000D01*
X686679Y232607D01*
X677838Y245838D01*
X664607Y254679D01*
X649000Y257784D01*
X633393Y254679D01*
X620162Y245838D01*
X611321Y232607D01*
X610939Y230686D01*
X539782D01*
X505234Y265234D01*
X493656Y272969D01*
X480000Y275686D01*
X337486D01*
X326311Y286860D01*
X305995Y295276D01*
X284005D01*
X263689Y286860D01*
X248140Y271311D01*
X239724Y250995D01*
Y229005D01*
X248140Y208689D01*
X263689Y193140D01*
X284005Y184724D01*
X305995D01*
X318364Y189848D01*
X459651Y48561D01*
X457737Y43942D01*
X247846D01*
X93942Y197846D01*
Y522783D01*
X88394Y536177D01*
X48942Y575629D01*
Y726537D01*
X53727Y727988D01*
X57310Y722625D01*
X76896Y709538D01*
X100000Y704942D01*
X119221Y708766D01*
X122228Y704266D01*
X122031Y703970D01*
X119314Y690314D01*
Y561816D01*
X119241Y561705D01*
X116912Y550000D01*
X119241Y538295D01*
X125871Y528371D01*
X128557Y526577D01*
X129766Y524766D01*
X141344Y517031D01*
X155000Y514314D01*
X168656Y517031D01*
X180234Y524766D01*
X181443Y526577D01*
X184129Y528371D01*
X190759Y538295D01*
X193088Y550000D01*
X190759Y561705D01*
X190686Y561816D01*
Y675533D01*
X238188Y723035D01*
X242350Y722625D01*
X261936Y709538D01*
X285040Y704942D01*
X308144Y709538D01*
X327730Y722625D01*
X340817Y742211D01*
X345413Y765315D01*
Y804685D01*
X340817Y827789D01*
X327730Y847375D01*
X308144Y860462D01*
X285040Y865058D01*
X261936Y860462D01*
X242350Y847375D01*
X229263Y827789D01*
X226099Y811880D01*
X161979Y747760D01*
X157371Y750223D01*
X160373Y765315D01*
Y804685D01*
X155777Y827789D01*
X142690Y847375D01*
X123104Y860462D01*
X100000Y865058D01*
X76896Y860462D01*
X57310Y847375D01*
X53727Y842012D01*
X48942Y843463D01*
Y892154D01*
X142846Y986058D01*
X326879D01*
X447634Y865303D01*
X446034Y859832D01*
X427390Y847375D01*
X414303Y827789D01*
X409707Y804685D01*
Y765315D01*
X414303Y742211D01*
X427390Y722625D01*
X446976Y709538D01*
X470080Y704942D01*
X493184Y709538D01*
X512770Y722625D01*
X525857Y742211D01*
X527270Y749314D01*
X558218D01*
X616216Y691316D01*
Y661000D01*
X619321Y645393D01*
X628162Y632162D01*
X641393Y623321D01*
X657000Y620216D01*
X672607Y623321D01*
X685838Y632162D01*
X694679Y645393D01*
X697784Y661000D01*
Y701000D01*
X694679Y716607D01*
X685838Y729838D01*
X672607Y738679D01*
X669088Y739379D01*
X598234Y810234D01*
X586656Y817969D01*
X573000Y820686D01*
X527270D01*
X525857Y827789D01*
X512770Y847375D01*
X493982Y859929D01*
Y864685D01*
X488434Y878079D01*
X348119Y1018394D01*
X334725Y1023942D01*
X135000D01*
X121606Y1018394D01*
X16606Y913394D01*
X11058Y900000D01*
Y567783D01*
X16606Y554389D01*
X56058Y514937D01*
Y190000D01*
X61606Y176606D01*
X226606Y11606D01*
X240000Y6058D01*
X2545000D01*
X2558394Y11606D01*
X2757662Y210874D01*
X2765571Y207599D01*
X2784429D01*
X2801851Y214815D01*
X2815185Y228149D01*
X2822401Y245571D01*
Y264429D01*
X2815185Y281851D01*
X2801851Y295185D01*
X2799511Y296154D01*
X2800487Y301058D01*
X2810143D01*
X2869595Y241606D01*
X2882989Y236058D01*
X2931539D01*
X2934815Y228149D01*
X2948149Y214815D01*
X2965571Y207599D01*
X2984429D01*
X3001851Y214815D01*
X3015185Y228149D01*
X3022401Y245571D01*
Y264429D01*
X3015185Y281851D01*
X3001851Y295185D01*
X2984429Y302401D01*
X2965571D01*
X2948149Y295185D01*
X2934815Y281851D01*
X2931539Y273942D01*
X2890835D01*
X2831383Y333394D01*
X2817989Y338942D01*
X2771552D01*
X2768880Y343942D01*
X2769129Y344314D01*
X2990000D01*
X3003656Y347031D01*
X3015234Y354766D01*
X3130234Y469766D01*
X3137969Y481344D01*
X3140686Y495000D01*
Y3715000D01*
X3137969Y3728656D01*
X3130234Y3740234D01*
X3025234Y3845234D01*
X3013656Y3852969D01*
X3000000Y3855686D01*
D02*
G37*
G36*
X2028000Y870686D02*
X1984686D01*
X1977856Y869327D01*
X1971037Y867972D01*
X1971034Y867970D01*
X1971030Y867969D01*
X1968025Y865962D01*
X1860276D01*
X1856827Y865276D01*
X1765039D01*
Y754724D01*
X1804314D01*
Y540000D01*
X1807031Y526344D01*
X1811299Y519955D01*
Y484724D01*
X1868701D01*
Y519955D01*
X1872969Y526344D01*
X1875686Y540000D01*
Y737000D01*
X1880305Y738914D01*
X1981144Y638074D01*
X1992722Y630339D01*
X2006378Y627622D01*
X2085136D01*
X2092064Y626244D01*
X2883504D01*
Y613504D01*
X2889314D01*
Y596496D01*
X2883504D01*
Y513504D01*
X2966496D01*
Y596496D01*
X2960686D01*
Y613504D01*
X2966496D01*
Y696496D01*
X2920186D01*
X2914561Y697616D01*
X2914559Y697615D01*
X2914556Y697616D01*
X2097614D01*
X2090686Y698994D01*
X2021159D01*
X1930182Y789971D01*
X1932096Y794590D01*
X1979960D01*
X1986745Y795940D01*
X1993609Y797304D01*
X1993613Y797306D01*
X1993616Y797307D01*
X1996621Y799314D01*
X2028000D01*
X2041656Y802031D01*
X2053234Y809766D01*
X2053390Y810000D01*
X2058000D01*
Y816900D01*
X2060969Y821344D01*
X2063686Y835000D01*
X2060969Y848656D01*
X2058000Y853100D01*
Y860000D01*
X2053390D01*
X2053234Y860234D01*
X2041656Y867969D01*
X2028000Y870686D01*
D02*
G37*
G36*
X264026Y495686D02*
X155000D01*
X141344Y492969D01*
X129766Y485234D01*
X128557Y483423D01*
X125871Y481629D01*
X119241Y471705D01*
X116912Y460000D01*
X119241Y448295D01*
X125871Y438371D01*
X128557Y436577D01*
X129766Y434766D01*
X141344Y427031D01*
X155000Y424314D01*
X241667D01*
X248140Y408689D01*
X263689Y393140D01*
X284005Y384724D01*
X305995D01*
X326311Y393140D01*
X341860Y408689D01*
X350276Y429005D01*
Y450995D01*
X341860Y471311D01*
X326311Y486860D01*
X305995Y495276D01*
X284005D01*
X277971Y492776D01*
X277682Y492969D01*
X264026Y495686D01*
D02*
G37*
G36*
X2358646Y453464D02*
X2341354D01*
X2325379Y446847D01*
X2313153Y434621D01*
X2306535Y418646D01*
Y401354D01*
X2313153Y385379D01*
X2325379Y373153D01*
X2341354Y366536D01*
X2358646D01*
X2374621Y373153D01*
X2386847Y385379D01*
X2393465Y401354D01*
Y418646D01*
X2386847Y434621D01*
X2374621Y446847D01*
X2358646Y453464D01*
D02*
G37*
G36*
X2258646D02*
X2241354D01*
X2225379Y446847D01*
X2213153Y434621D01*
X2206535Y418646D01*
Y401354D01*
X2213153Y385379D01*
X2225379Y373153D01*
X2241354Y366536D01*
X2258646D01*
X2274621Y373153D01*
X2286847Y385379D01*
X2293465Y401354D01*
Y418646D01*
X2286847Y434621D01*
X2274621Y446847D01*
X2258646Y453464D01*
D02*
G37*
G36*
X610682Y503700D02*
X581718D01*
X553742Y496204D01*
X528658Y481722D01*
X508178Y461242D01*
X493696Y436158D01*
X486200Y408182D01*
Y379218D01*
X493696Y351242D01*
X508178Y326158D01*
X528658Y305678D01*
X553742Y291196D01*
X581718Y283700D01*
X610682D01*
X638658Y291196D01*
X663742Y305678D01*
X684222Y326158D01*
X698704Y351242D01*
X706200Y379218D01*
Y408182D01*
X698704Y436158D01*
X684222Y461242D01*
X663742Y481722D01*
X638658Y496204D01*
X610682Y503700D01*
D02*
G37*
%LPD*%
G36*
X1046802Y2983830D02*
X1049579Y2977127D01*
X1102127Y2924578D01*
X1102127Y2924578D01*
X1559361Y2467344D01*
Y2371801D01*
X1564525Y2359334D01*
X1560287Y2356501D01*
X1100969Y2815818D01*
Y2904479D01*
X1095422Y2917873D01*
X1042873Y2970421D01*
X1036170Y2973198D01*
X1034996Y2979096D01*
X1040904Y2985003D01*
X1046802Y2983830D01*
D02*
G37*
D11*
X2092064Y661930D02*
D03*
X1607938Y671930D02*
D03*
D12*
X2092064Y528070D02*
D03*
X1607938Y538070D02*
D03*
D13*
X1599000Y835000D02*
D03*
X2028000D02*
D03*
D14*
X1672000D02*
D03*
X2101000D02*
D03*
D16*
X2925000Y1300000D02*
D03*
X2924900Y1195000D02*
D03*
D17*
X1495000Y551500D02*
D03*
X1326666D02*
D03*
X1158334D02*
D03*
X990000D02*
D03*
D18*
X1326666Y478500D02*
D03*
X1158334D02*
D03*
X990000D02*
D03*
X1495000D02*
D03*
D19*
X1930552Y540000D02*
D03*
D20*
X1840000D02*
D03*
X1749448D02*
D03*
D21*
X1840000Y810000D02*
D03*
D25*
X2485000Y50000D02*
X2755000Y320000D01*
X2817989D02*
X2882989Y255000D01*
X2755000Y320000D02*
X2817989D01*
X485000Y50000D02*
X2485000D01*
X647000Y195000D02*
X649000Y197000D01*
X295000Y240000D02*
X485000Y50000D01*
X2785000Y380000D02*
Y570000D01*
X30000Y900000D02*
X135000Y1005000D01*
X30000Y567783D02*
Y900000D01*
Y567783D02*
X75000Y522783D01*
X2660000Y1460000D02*
X2750000Y1370000D01*
Y1275000D02*
Y1370000D01*
X2600000Y1420000D02*
X2650000Y1370000D01*
Y1275000D02*
Y1370000D01*
X2550000Y1275000D02*
Y1370000D01*
X2527500Y1392500D02*
X2550000Y1370000D01*
X2882989Y255000D02*
X2975000D01*
X2545000Y25000D02*
X2775000Y255000D01*
X75000Y190000D02*
X240000Y25000D01*
X2545000D01*
X334725Y1005000D02*
X475040Y864685D01*
X135000Y1005000D02*
X334725D01*
X475040Y845000D02*
Y864685D01*
X75000Y190000D02*
Y522783D01*
X2610000Y3110000D02*
Y3111862D01*
X2682204Y3184066D01*
Y3418265D01*
X2555000Y3545469D02*
Y3680000D01*
X2662817Y3062817D02*
Y3129324D01*
X2707204Y3173711D01*
X2555000Y3545469D02*
X2682204Y3418265D01*
X2707204Y3173711D02*
Y3450587D01*
X2655000Y3502791D02*
Y3680000D01*
Y3502791D02*
X2707204Y3450587D01*
X2610000Y3010000D02*
X2662817Y3062817D01*
X2360000Y3060000D02*
Y3180000D01*
X2211666Y3328334D02*
X2360000Y3180000D01*
X2310000Y3010000D02*
X2360000Y3060000D01*
X2111666Y3308334D02*
Y3680000D01*
Y3308334D02*
X2310000Y3110000D01*
X2211666Y3328334D02*
Y3680000D01*
X1468334D02*
X1494299Y3654035D01*
X2010000Y3110000D02*
Y3111862D01*
X1494299Y3627564D02*
X2010000Y3111862D01*
X1494299Y3627564D02*
Y3654035D01*
X1960000Y3093493D02*
Y3126507D01*
X1688168Y3398339D02*
X1960000Y3126507D01*
X1649995Y3398339D02*
X1688168D01*
X1960000Y3093493D02*
X1996465Y3057028D01*
X2062972D02*
X2110000Y3010000D01*
X1996465Y3057028D02*
X2062972D01*
X1368334Y3680000D02*
X1649995Y3398339D01*
X725000Y3615000D02*
X1145000Y3195000D01*
X1725000D01*
X1810000Y3110000D01*
X725000Y3615000D02*
Y3680000D01*
X1310000Y3000000D02*
X1735000Y2575000D01*
Y2570000D02*
Y2575000D01*
X1110000Y3008138D02*
X1332582Y2785555D01*
X1162972Y2990521D02*
Y3057028D01*
X1390521Y2962972D02*
X1427028D01*
X1162972Y2990521D02*
X1193493Y2960000D01*
X1225104D01*
X1332582Y2785555D02*
X1334445D01*
X1555000Y2565000D01*
X1427028Y2962972D02*
X1825000Y2565000D01*
X1110000Y3008138D02*
Y3010000D01*
X1310000Y3000000D02*
Y3010000D01*
X1362972Y2990521D02*
X1390521Y2962972D01*
X1210000Y3010000D02*
X1221921D01*
X1244896Y2995000D02*
X1820000Y2419896D01*
X1236921Y2995000D02*
X1244896D01*
X1221921Y3010000D02*
X1236921Y2995000D01*
X1110000Y3110000D02*
X1162972Y3057028D01*
X1225104Y2960000D02*
X1730000Y2455104D01*
X1362972Y2990521D02*
Y3023535D01*
X1062972Y2990521D02*
X1115521Y2937972D01*
X1115521D02*
X1578303Y2475190D01*
X1115521Y2937972D02*
X1115521D01*
X1578303Y2371801D02*
Y2475190D01*
X1820000Y2325000D02*
Y2419896D01*
X1730000Y2327552D02*
Y2455104D01*
X1578303Y2371801D02*
X1625000Y2325104D01*
X1730000Y2327552D02*
X1736506Y2321046D01*
X1323535Y3062972D02*
X1362972Y3023535D01*
X1257028Y3062972D02*
X1323535D01*
X1210000Y3110000D02*
X1257028Y3062972D01*
X996465Y2757028D02*
X1062262D01*
X2157028Y1477972D02*
Y1697617D01*
X1062262Y2757028D02*
X2060000Y1759289D01*
X1057028Y2797617D02*
Y2829479D01*
X1082028Y2807972D02*
Y2904479D01*
X1057028Y2797617D02*
X2157028Y1697617D01*
X1082028Y2807972D02*
X2257028Y1632972D01*
X2060000Y1475000D02*
Y1759289D01*
X2257028Y1496465D02*
Y1632972D01*
X957447Y2896046D02*
X990731Y2862762D01*
X1023745D01*
X957447Y2896046D02*
Y3062552D01*
X1023745Y2862762D02*
X1057028Y2829479D01*
X1062972Y2990521D02*
Y3057028D01*
X1029479Y2957028D02*
X1082028Y2904479D01*
X1018787Y2957028D02*
X1029479D01*
X1010000Y2965814D02*
X1018787Y2957028D01*
X1010000Y2965814D02*
Y3010000D01*
X962229Y2791264D02*
X996465Y2757028D01*
X927993Y2858514D02*
X962229Y2824278D01*
X894979Y2858514D02*
X927993D01*
X962229Y2791264D02*
Y2824278D01*
X862972Y2890521D02*
X894979Y2858514D01*
X1010000Y3110000D02*
X1062972Y3057028D01*
X862972Y2890521D02*
Y2962972D01*
X910000Y3010000D01*
X2060000Y1475000D02*
X2142500Y1392500D01*
X2527500D01*
X2215000Y1420000D02*
X2600000D01*
X910000Y3110000D02*
X957447Y3062552D01*
X2157028Y1477972D02*
X2215000Y1420000D01*
X2293493Y1460000D02*
X2660000D01*
X2257028Y1496465D02*
X2293493Y1460000D01*
X2360000Y1660000D02*
X2861539D01*
X2310000Y1610000D02*
X2360000Y1660000D01*
X3007300Y1194900D02*
Y1299800D01*
X3007200Y1194800D02*
X3007300Y1194900D01*
Y1299800D02*
X3010000Y1302500D01*
Y1440000D01*
X2925000Y1300000D02*
Y1555000D01*
X3010000Y1640000D01*
X2860000Y1269321D02*
X2907400Y1221921D01*
X2860000Y1590000D02*
X3010000Y1740000D01*
X2860000Y1269321D02*
Y1590000D01*
X2907400Y1212500D02*
X2924900Y1195000D01*
X2907400Y1212500D02*
Y1221921D01*
X2861539Y1660000D02*
X2941539Y1740000D01*
X3010000D01*
X2710000Y1810000D02*
X2757028Y1762972D01*
X2829479D01*
X2945000Y1878493D01*
Y1995000D02*
X3010000Y2060000D01*
X2945000Y1878493D02*
Y1995000D01*
X2810000Y1810000D02*
X2920000Y1920000D01*
Y2070000D01*
X3010000Y2160000D01*
X2890000Y2005000D02*
Y2130000D01*
X2845000Y1960000D02*
X2890000Y2005000D01*
Y2130000D02*
X3010000Y2250000D01*
X2710000Y1910000D02*
X2760000Y1960000D01*
X2845000D01*
X3010000Y2250000D02*
Y2260000D01*
X825000Y1890000D02*
X905000Y1810000D01*
X825000Y1890000D02*
Y2686507D01*
X905000Y1810000D02*
X910000D01*
X709479Y2802028D02*
X825000Y2686507D01*
X705000Y2805000D02*
X707972Y2802028D01*
X709479D01*
X690000Y2755000D02*
X800000Y2645000D01*
Y1720000D02*
Y2645000D01*
Y1720000D02*
X910000Y1610000D01*
X642972Y2702028D02*
Y2774479D01*
X673493Y2805000D02*
X705000D01*
X642972Y2702028D02*
X690000Y2655000D01*
X642972Y2774479D02*
X673493Y2805000D01*
D26*
X525000Y195000D02*
X647000D01*
X480000Y240000D02*
X525000Y195000D01*
X295000Y240000D02*
X480000D01*
X2750000Y380000D02*
X2785000D01*
X2990000D01*
X653734Y684266D02*
Y704266D01*
Y684266D02*
X657000Y681000D01*
X470080Y785000D02*
X573000D01*
X653734Y704266D01*
X649000Y197000D02*
Y217000D01*
X1980000Y1405000D02*
X2055000Y1330000D01*
X1200000D02*
X1275000Y1405000D01*
X1980000D01*
X1749448Y318228D02*
Y540000D01*
X1326536Y844118D02*
X1434410D01*
X1326536Y304118D02*
X1434410D01*
X2925000Y755000D02*
Y855000D01*
X1655000Y945000D02*
X2790000D01*
X2877514Y857486D01*
X2922514D01*
X2925000Y855000D01*
X3105000Y495000D02*
Y3715000D01*
X2990000Y380000D02*
X3105000Y495000D01*
X2625000Y255000D02*
X2750000Y380000D01*
X2463520Y255000D02*
X2625000D01*
X1965000Y304118D02*
X2084410D01*
X2412070Y306450D02*
X2463520Y255000D01*
X3000000Y3820000D02*
X3105000Y3715000D01*
X2806666Y3820000D02*
X3000000D01*
X2063332D02*
X2806666D01*
X1320000D02*
X2063332D01*
X995000Y306450D02*
X1113552D01*
X995590Y845000D02*
X1115000D01*
Y920000D01*
X2758240Y3771574D02*
X2806666Y3820000D01*
X2758240Y3683240D02*
Y3771574D01*
X2014906D02*
X2063332Y3820000D01*
X2014906Y3683240D02*
Y3771574D01*
X605000Y3820000D02*
X1320000D01*
X1271574Y3683240D02*
Y3771574D01*
X1320000Y3820000D01*
X1268334Y3680000D02*
X1271574Y3683240D01*
X525000Y3740000D02*
X605000Y3820000D01*
X525000Y3680000D02*
Y3740000D01*
X2085000Y306450D02*
X2412070D01*
X2085000Y304708D02*
Y306450D01*
X1250000Y1055000D02*
X2925000D01*
X1115000Y920000D02*
X1250000Y1055000D01*
X1435000Y844708D02*
Y846450D01*
X1440000Y841450D02*
X1446450Y835000D01*
X1326536Y818922D02*
Y844118D01*
X1435000Y842040D02*
X1435590Y841450D01*
X1440000D01*
X1434410Y844118D02*
X1435000Y844708D01*
X1326536Y768528D02*
Y818922D01*
X1599000Y835000D02*
Y889000D01*
X1655000Y945000D01*
X990000Y655000D02*
X995000Y660000D01*
X990000Y551500D02*
Y655000D01*
X2914556Y661930D02*
X2921484Y655000D01*
X2092064Y661930D02*
X2914556D01*
X2921484Y655000D02*
X2925000D01*
Y555000D02*
Y655000D01*
Y955000D02*
Y1055000D01*
X2006378Y663308D02*
X2090686D01*
X1840000Y810000D02*
X1859686D01*
X2006378Y663308D01*
X2090686D02*
X2092064Y661930D01*
X1979960Y830276D02*
X1984686Y835000D01*
X1860276Y830276D02*
X1979960D01*
X1984686Y835000D02*
X2028000D01*
X1965000Y304118D02*
Y330394D01*
Y280000D02*
Y304118D01*
Y229608D02*
Y280000D01*
X1748466Y317246D02*
X1749448Y318228D01*
X1737670Y306450D02*
X1748466Y317246D01*
Y330394D01*
Y280000D02*
Y317246D01*
X1745000Y544448D02*
X1747046Y542402D01*
X1840000Y810000D02*
X1860276Y830276D01*
X1840000Y540000D02*
Y810000D01*
X1745000Y544448D02*
Y615000D01*
X1607938Y671930D02*
X1688070D01*
X1745000Y615000D01*
X1605378Y673308D02*
Y773308D01*
Y673308D02*
X1606756Y671930D01*
X1599000Y779684D02*
Y835000D01*
Y779684D02*
X1605378Y773308D01*
X1606756Y671930D02*
X1607938D01*
X1446450Y835000D02*
X1599000D01*
X1495000Y610000D02*
X1555552Y670552D01*
X1606560D02*
X1607938Y671930D01*
X1555552Y670552D02*
X1606560D01*
X1495000Y551500D02*
Y610000D01*
X990000Y551500D02*
X1158334D01*
X1326666D02*
X1495000D01*
X1158334D02*
X1326666D01*
X2084410Y304118D02*
X2085000Y304708D01*
X1615000Y306450D02*
X1737670D01*
X1435000D02*
X1615000D01*
X1326536Y278922D02*
Y304118D01*
X1435000Y304708D02*
Y306450D01*
X1434410Y304118D02*
X1435000Y304708D01*
X1326536Y228528D02*
Y278922D01*
X995000Y842040D02*
Y845590D01*
Y846450D01*
Y845590D02*
X995590Y845000D01*
X932450Y841450D02*
X994410D01*
X792000Y681000D02*
Y701000D01*
X932450Y841450D01*
X994410D02*
X995000Y842040D01*
X1113552Y306450D02*
X1115000Y305000D01*
X990244Y311450D02*
X994410D01*
X995000Y306450D02*
Y310858D01*
X790000Y511692D02*
Y520552D01*
Y511692D02*
X990244Y311450D01*
X994410D02*
X995000Y310858D01*
X791000Y521552D02*
Y680000D01*
X792000Y681000D01*
X790000Y520552D02*
X791000Y521552D01*
X155000Y690314D02*
X290000Y825314D01*
X155000Y550000D02*
Y690314D01*
X284026Y440000D02*
X295000D01*
X155000Y460000D02*
X264026D01*
X284026Y440000D01*
D27*
X515000Y1285000D02*
Y1795000D01*
Y1285000D02*
X615000Y1185000D01*
X1055000D01*
X1200000Y1330000D01*
X600204Y1880204D02*
X690000D01*
X515000Y1795000D02*
X600204Y1880204D01*
D29*
X3010000Y1440000D02*
D03*
X690000Y1875000D02*
D03*
Y2455000D02*
D03*
D30*
X3010000Y1540000D02*
D03*
Y1640000D02*
D03*
Y1740000D02*
D03*
X91615Y1644999D02*
D03*
X690000Y1275000D02*
D03*
Y1375000D02*
D03*
Y1475000D02*
D03*
Y1575000D02*
D03*
Y1675000D02*
D03*
Y1775000D02*
D03*
Y1975000D02*
D03*
X2710000Y1610000D02*
D03*
Y1510000D02*
D03*
X2810000Y1610000D02*
D03*
Y1510000D02*
D03*
X2710000Y1710000D02*
D03*
X2810000D02*
D03*
X2710000Y1810000D02*
D03*
X2810000D02*
D03*
X2710000Y1910000D02*
D03*
X2810000D02*
D03*
X2710000Y2010000D02*
D03*
X2810000D02*
D03*
X2710000Y2110000D02*
D03*
X2810000D02*
D03*
X2710000Y2210000D02*
D03*
X2810000D02*
D03*
X2710000Y2310000D02*
D03*
X2810000D02*
D03*
X2710000Y2410000D02*
D03*
X2810000D02*
D03*
X2710000Y2510000D02*
D03*
X2810000D02*
D03*
X2710000Y2610000D02*
D03*
X2810000D02*
D03*
X2710000Y2710000D02*
D03*
X2810000D02*
D03*
X2710000Y2810000D02*
D03*
X2810000D02*
D03*
X2710000Y2910000D02*
D03*
X2810000D02*
D03*
X2610000Y1510000D02*
D03*
Y1610000D02*
D03*
X2510000Y1510000D02*
D03*
Y1610000D02*
D03*
X2410000Y1510000D02*
D03*
Y1610000D02*
D03*
X2310000Y1510000D02*
D03*
Y1610000D02*
D03*
X2210000Y1510000D02*
D03*
Y1610000D02*
D03*
X2110000Y1510000D02*
D03*
Y1610000D02*
D03*
X2010000Y1510000D02*
D03*
Y1610000D02*
D03*
X1910000Y1510000D02*
D03*
Y1610000D02*
D03*
X1810000Y1510000D02*
D03*
Y1610000D02*
D03*
X1710000Y1510000D02*
D03*
Y1610000D02*
D03*
X2510000Y3010000D02*
D03*
Y3110000D02*
D03*
X2610000Y3010000D02*
D03*
Y3110000D02*
D03*
X2710000D02*
D03*
X2810000D02*
D03*
X1610000Y1510000D02*
D03*
Y1610000D02*
D03*
X1510000Y1510000D02*
D03*
Y1610000D02*
D03*
X1410000Y1510000D02*
D03*
Y1610000D02*
D03*
X1310000Y1510000D02*
D03*
Y1610000D02*
D03*
X1210000Y1510000D02*
D03*
Y1610000D02*
D03*
X1110000Y1510000D02*
D03*
Y1610000D02*
D03*
X1010000Y1510000D02*
D03*
Y1610000D02*
D03*
X910000Y1510000D02*
D03*
Y1610000D02*
D03*
Y1710000D02*
D03*
X1010000D02*
D03*
X910000Y1810000D02*
D03*
X1010000D02*
D03*
X910000Y1910000D02*
D03*
X1010000D02*
D03*
X910000Y2010000D02*
D03*
X1010000D02*
D03*
Y2610000D02*
D03*
X910000D02*
D03*
X1010000Y2710000D02*
D03*
X910000D02*
D03*
X1010000Y2810000D02*
D03*
X910000D02*
D03*
X1010000Y2910000D02*
D03*
X910000D02*
D03*
Y3010000D02*
D03*
Y3110000D02*
D03*
X1010000Y3010000D02*
D03*
Y3110000D02*
D03*
X1110000Y3010000D02*
D03*
Y3110000D02*
D03*
X1210000Y3010000D02*
D03*
Y3110000D02*
D03*
X1310000Y3010000D02*
D03*
Y3110000D02*
D03*
X1410000Y3010000D02*
D03*
Y3110000D02*
D03*
X1510000Y3010000D02*
D03*
Y3110000D02*
D03*
X1610000Y3010000D02*
D03*
Y3110000D02*
D03*
X1710000Y3010000D02*
D03*
Y3110000D02*
D03*
X1810000Y3010000D02*
D03*
Y3110000D02*
D03*
X1910000Y3010000D02*
D03*
Y3110000D02*
D03*
X2010000Y3010000D02*
D03*
Y3110000D02*
D03*
X2110000Y3010000D02*
D03*
Y3110000D02*
D03*
X2210000Y3010000D02*
D03*
Y3110000D02*
D03*
X2310000Y3010000D02*
D03*
Y3110000D02*
D03*
X2410000Y3010000D02*
D03*
Y3110000D02*
D03*
X2750000Y1275000D02*
D03*
X2650000D02*
D03*
X2550000D02*
D03*
X690000Y2555000D02*
D03*
Y2655000D02*
D03*
Y2755000D02*
D03*
Y2855000D02*
D03*
Y2955000D02*
D03*
Y3055000D02*
D03*
Y3155000D02*
D03*
X3010000Y2060000D02*
D03*
Y2160000D02*
D03*
Y2260000D02*
D03*
Y2360000D02*
D03*
Y2460000D02*
D03*
Y2560000D02*
D03*
Y2660000D02*
D03*
Y2760000D02*
D03*
D31*
X390827Y1644999D02*
D03*
X2710000Y3010000D02*
D03*
X2810000D02*
D03*
D32*
X225000Y3680000D02*
D03*
X725000D02*
D03*
X625000D02*
D03*
X425000D02*
D03*
X325000D02*
D03*
X968334D02*
D03*
X1468334D02*
D03*
X1368334D02*
D03*
X1168334D02*
D03*
X1068334D02*
D03*
X1711666D02*
D03*
X2211666D02*
D03*
X2111666D02*
D03*
X1911666D02*
D03*
X1811666D02*
D03*
X2455000D02*
D03*
X2955000D02*
D03*
X2855000D02*
D03*
X2655000D02*
D03*
X2555000D02*
D03*
X2350000Y410000D02*
D03*
X2250000D02*
D03*
D33*
X525000Y3680000D02*
D03*
X1268334D02*
D03*
X2011666D02*
D03*
X2755000D02*
D03*
X2350000Y110000D02*
D03*
X2250000D02*
D03*
D34*
X2564704Y3346456D02*
D03*
X596200D02*
D03*
X2564704Y393700D02*
D03*
X596200D02*
D03*
D35*
X2925000Y1055000D02*
D03*
Y955000D02*
D03*
Y855000D02*
D03*
Y755000D02*
D03*
Y655000D02*
D03*
Y555000D02*
D03*
D36*
X3025000Y1055000D02*
D03*
Y955000D02*
D03*
Y855000D02*
D03*
Y755000D02*
D03*
Y655000D02*
D03*
Y555000D02*
D03*
X1200000Y1230000D02*
D03*
X1300000D02*
D03*
Y1330000D02*
D03*
X1400000Y1230000D02*
D03*
Y1330000D02*
D03*
X1500000D02*
D03*
Y1230000D02*
D03*
X2055000D02*
D03*
X2155000D02*
D03*
Y1330000D02*
D03*
X2255000Y1230000D02*
D03*
Y1330000D02*
D03*
X2355000D02*
D03*
Y1230000D02*
D03*
D37*
X100000Y785000D02*
D03*
X285040D02*
D03*
X470080D02*
D03*
D38*
X295000Y440000D02*
D03*
Y240000D02*
D03*
D39*
X2775000Y255000D02*
D03*
X2975000D02*
D03*
D40*
X1200000Y1330000D02*
D03*
X2055000D02*
D03*
D41*
X2990617Y1903235D02*
D03*
X2150000Y775000D02*
D03*
X2315000Y3470000D02*
D03*
X1595641Y3681618D02*
D03*
X1035000Y3470000D02*
D03*
X80000Y3050000D02*
D03*
X499993Y2187170D02*
D03*
X1100466Y1073919D02*
D03*
X2990617Y3290000D02*
D03*
X2375000Y2047854D02*
D03*
X1341596D02*
D03*
X2375000Y2900000D02*
D03*
X499993Y3050000D02*
D03*
X880000Y1110000D02*
D03*
X2375000Y2605558D02*
D03*
X1341596Y2187170D02*
D03*
X1065000Y475000D02*
D03*
X2785000Y570000D02*
D03*
X1475000Y2490000D02*
D03*
X1735000Y2570000D02*
D03*
X1555000Y2565000D02*
D03*
X1825000D02*
D03*
X1820000Y2325000D02*
D03*
X1736506Y2321046D02*
D03*
X1625000Y2325104D02*
D03*
X995000Y660000D02*
D03*
D42*
Y188450D02*
D03*
X1615000D02*
D03*
X2085000D02*
D03*
X1435000D02*
D03*
Y728450D02*
D03*
X995000D02*
D03*
D43*
X1615000Y306450D02*
D03*
X2085000D02*
D03*
X995000D02*
D03*
X1435000D02*
D03*
Y846450D02*
D03*
X995000D02*
D03*
D44*
X1748466Y229608D02*
D03*
Y179214D02*
D03*
X1965000D02*
D03*
X1110000Y768528D02*
D03*
Y718134D02*
D03*
X1326536D02*
D03*
X1110000Y228528D02*
D03*
Y178134D02*
D03*
X1326536D02*
D03*
D45*
X1748466Y280000D02*
D03*
Y330394D02*
D03*
X1965000Y229608D02*
D03*
Y280000D02*
D03*
Y330394D02*
D03*
X1110000Y818922D02*
D03*
Y869316D02*
D03*
X1326536Y768528D02*
D03*
Y818922D02*
D03*
Y869316D02*
D03*
X1110000Y278922D02*
D03*
Y329316D02*
D03*
X1326536Y228528D02*
D03*
Y278922D02*
D03*
Y329316D02*
D03*
D46*
X3007300Y1299800D02*
D03*
X3007200Y1194800D02*
D03*
D47*
X155000Y550000D02*
D03*
Y460000D02*
D03*
D48*
X790000Y339448D02*
D03*
D49*
Y520552D02*
D03*
D50*
X649000Y197000D02*
D03*
X784000D02*
D03*
X657000Y681000D02*
D03*
D51*
X792000D02*
D03*
%TF.MD5,dc472a7f002655efcdd523e64d32d257*%
M02*
