%TF.GenerationSoftware,Altium Limited,Altium Designer,22.3.1 (43)*%
G04 Layer_Color=8421504*
%FSLAX26Y26*%
%MOIN*%
%TF.SameCoordinates,A6686B76-6886-4B69-866F-DC8958589E3E*%
%TF.FilePolarity,Positive*%
%TF.FileFunction,Paste,Top*%
%TF.Part,Single*%
G01*
G75*
%TA.AperFunction,SMDPad,CuDef*%
%ADD10O,0.050000X0.060000*%
%ADD11R,0.055118X0.047244*%
%ADD12O,0.055118X0.047244*%
%ADD13R,0.040000X0.030000*%
%ADD14O,0.040000X0.030000*%
%ADD15R,0.050000X0.050000*%
%ADD16C,0.050000*%
%ADD17R,0.030000X0.040000*%
%ADD18O,0.030000X0.040000*%
%ADD19O,0.037402X0.090551*%
%ADD20R,0.037402X0.090551*%
%ADD21R,0.129921X0.090551*%
%ADD22R,0.059055X0.078740*%
%ADD23O,0.059055X0.078740*%
%ADD24O,0.047244X0.019685*%
D10*
X2595000Y775000D02*
D03*
Y875000D02*
D03*
X2250000Y550000D02*
D03*
Y650000D02*
D03*
X1750000Y550000D02*
D03*
Y650000D02*
D03*
X2715000Y775000D02*
D03*
Y875000D02*
D03*
X2475000D02*
D03*
Y775000D02*
D03*
X1505000Y550000D02*
D03*
Y650000D02*
D03*
X1265000Y550000D02*
D03*
Y650000D02*
D03*
X1990000Y550000D02*
D03*
Y650000D02*
D03*
X2350000Y550000D02*
D03*
Y650000D02*
D03*
D11*
X1105000Y696590D02*
D03*
X680000D02*
D03*
D12*
X1105000Y562732D02*
D03*
X680000D02*
D03*
D13*
X1151500Y860000D02*
D03*
X721500D02*
D03*
X2858500Y1175000D02*
D03*
D14*
X1078500Y860000D02*
D03*
X648500D02*
D03*
X2931500Y1175000D02*
D03*
D15*
X2595100Y565000D02*
D03*
X2715200D02*
D03*
X2475000D02*
D03*
D16*
X2594900Y647300D02*
D03*
X240200Y1122700D02*
D03*
X240000Y1205000D02*
D03*
X2240000Y892300D02*
D03*
X2240200Y810000D02*
D03*
X2715000Y647300D02*
D03*
X2474800D02*
D03*
X1499800Y892300D02*
D03*
X1500000Y810000D02*
D03*
X1270000Y892300D02*
D03*
X1270200Y810000D02*
D03*
X425000Y1205100D02*
D03*
X425200Y1122800D02*
D03*
X1760000Y892300D02*
D03*
X1760200Y810000D02*
D03*
X1984800Y892300D02*
D03*
X1985000Y810000D02*
D03*
X2350000Y892300D02*
D03*
X2350200Y810000D02*
D03*
X247300Y2805200D02*
D03*
X165000Y2805000D02*
D03*
X167700Y2674800D02*
D03*
X250000Y2675000D02*
D03*
D17*
X2945000Y3013500D02*
D03*
D18*
Y3086500D02*
D03*
X115000Y1206500D02*
D03*
Y1133500D02*
D03*
D19*
X814448Y570724D02*
D03*
D20*
X905000D02*
D03*
X995552D02*
D03*
D21*
X905000Y840724D02*
D03*
D22*
X1748334Y103480D02*
D03*
X1506666D02*
D03*
X1265000D02*
D03*
X1990000D02*
D03*
D23*
X1748334Y410566D02*
D03*
X1506666D02*
D03*
X1265000D02*
D03*
X1990000D02*
D03*
D24*
X245000Y2507598D02*
D03*
Y2582402D02*
D03*
X155000Y2545000D02*
D03*
%TF.MD5,f318e4cd71430b696b7e3c407dcc2442*%
M02*
