%TF.GenerationSoftware,Altium Limited,Altium Designer,22.3.1 (43)*%
G04 Layer_Color=255*
%FSLAX26Y26*%
%MOIN*%
%TF.SameCoordinates,A6686B76-6886-4B69-866F-DC8958589E3E*%
%TF.FilePolarity,Positive*%
%TF.FileFunction,Pads,Bot*%
%TF.Part,Single*%
G01*
G75*
%TA.AperFunction,SMDPad,CuDef*%
%ADD11R,0.055118X0.047244*%
%ADD12O,0.055118X0.047244*%
%ADD13R,0.040000X0.030000*%
%ADD14O,0.040000X0.030000*%
%ADD16C,0.050000*%
%ADD17R,0.030000X0.040000*%
%ADD18O,0.030000X0.040000*%
%ADD19O,0.037402X0.090551*%
%ADD20R,0.037402X0.090551*%
%ADD21R,0.129921X0.090551*%
%TA.AperFunction,ComponentPad*%
%ADD29R,0.059055X0.059055*%
%ADD30C,0.059055*%
%ADD31R,0.059055X0.059055*%
%ADD32C,0.066929*%
%ADD33R,0.066929X0.066929*%
%ADD34C,0.200000*%
%ADD35R,0.062992X0.062992*%
%ADD36C,0.062992*%
%ADD37O,0.098425X0.137795*%
%ADD38C,0.090551*%
%ADD39C,0.074803*%
%ADD40R,0.062992X0.062992*%
%TA.AperFunction,SMDPad,CuDef*%
%ADD42O,0.051181X0.060000*%
%ADD43R,0.051181X0.060000*%
%ADD44O,0.056693X0.021654*%
%ADD45R,0.056693X0.021654*%
%ADD46R,0.050000X0.050000*%
%ADD47O,0.055000X0.040000*%
%ADD48O,0.068898X0.086614*%
%ADD49R,0.068898X0.086614*%
%ADD50O,0.060000X0.100000*%
%ADD51R,0.060000X0.100000*%
D11*
X2092064Y661930D02*
D03*
X1607938Y671930D02*
D03*
D12*
X2092064Y528070D02*
D03*
X1607938Y538070D02*
D03*
D13*
X1599000Y835000D02*
D03*
X2028000D02*
D03*
D14*
X1672000D02*
D03*
X2101000D02*
D03*
D16*
X2925000Y1300000D02*
D03*
X2924900Y1195000D02*
D03*
D17*
X1495000Y551500D02*
D03*
X1326666D02*
D03*
X1158334D02*
D03*
X990000D02*
D03*
D18*
X1326666Y478500D02*
D03*
X1158334D02*
D03*
X990000D02*
D03*
X1495000D02*
D03*
D19*
X1930552Y540000D02*
D03*
D20*
X1840000D02*
D03*
X1749448D02*
D03*
D21*
X1840000Y810000D02*
D03*
D29*
X3010000Y1440000D02*
D03*
X690000Y1875000D02*
D03*
Y2455000D02*
D03*
D30*
X3010000Y1540000D02*
D03*
Y1640000D02*
D03*
Y1740000D02*
D03*
X91615Y1644999D02*
D03*
X690000Y1275000D02*
D03*
Y1375000D02*
D03*
Y1475000D02*
D03*
Y1575000D02*
D03*
Y1675000D02*
D03*
Y1775000D02*
D03*
Y1975000D02*
D03*
X2710000Y1610000D02*
D03*
Y1510000D02*
D03*
X2810000Y1610000D02*
D03*
Y1510000D02*
D03*
X2710000Y1710000D02*
D03*
X2810000D02*
D03*
X2710000Y1810000D02*
D03*
X2810000D02*
D03*
X2710000Y1910000D02*
D03*
X2810000D02*
D03*
X2710000Y2010000D02*
D03*
X2810000D02*
D03*
X2710000Y2110000D02*
D03*
X2810000D02*
D03*
X2710000Y2210000D02*
D03*
X2810000D02*
D03*
X2710000Y2310000D02*
D03*
X2810000D02*
D03*
X2710000Y2410000D02*
D03*
X2810000D02*
D03*
X2710000Y2510000D02*
D03*
X2810000D02*
D03*
X2710000Y2610000D02*
D03*
X2810000D02*
D03*
X2710000Y2710000D02*
D03*
X2810000D02*
D03*
X2710000Y2810000D02*
D03*
X2810000D02*
D03*
X2710000Y2910000D02*
D03*
X2810000D02*
D03*
X2610000Y1510000D02*
D03*
Y1610000D02*
D03*
X2510000Y1510000D02*
D03*
Y1610000D02*
D03*
X2410000Y1510000D02*
D03*
Y1610000D02*
D03*
X2310000Y1510000D02*
D03*
Y1610000D02*
D03*
X2210000Y1510000D02*
D03*
Y1610000D02*
D03*
X2110000Y1510000D02*
D03*
Y1610000D02*
D03*
X2010000Y1510000D02*
D03*
Y1610000D02*
D03*
X1910000Y1510000D02*
D03*
Y1610000D02*
D03*
X1810000Y1510000D02*
D03*
Y1610000D02*
D03*
X1710000Y1510000D02*
D03*
Y1610000D02*
D03*
X2510000Y3010000D02*
D03*
Y3110000D02*
D03*
X2610000Y3010000D02*
D03*
Y3110000D02*
D03*
X2710000D02*
D03*
X2810000D02*
D03*
X1610000Y1510000D02*
D03*
Y1610000D02*
D03*
X1510000Y1510000D02*
D03*
Y1610000D02*
D03*
X1410000Y1510000D02*
D03*
Y1610000D02*
D03*
X1310000Y1510000D02*
D03*
Y1610000D02*
D03*
X1210000Y1510000D02*
D03*
Y1610000D02*
D03*
X1110000Y1510000D02*
D03*
Y1610000D02*
D03*
X1010000Y1510000D02*
D03*
Y1610000D02*
D03*
X910000Y1510000D02*
D03*
Y1610000D02*
D03*
Y1710000D02*
D03*
X1010000D02*
D03*
X910000Y1810000D02*
D03*
X1010000D02*
D03*
X910000Y1910000D02*
D03*
X1010000D02*
D03*
X910000Y2010000D02*
D03*
X1010000D02*
D03*
Y2610000D02*
D03*
X910000D02*
D03*
X1010000Y2710000D02*
D03*
X910000D02*
D03*
X1010000Y2810000D02*
D03*
X910000D02*
D03*
X1010000Y2910000D02*
D03*
X910000D02*
D03*
Y3010000D02*
D03*
Y3110000D02*
D03*
X1010000Y3010000D02*
D03*
Y3110000D02*
D03*
X1110000Y3010000D02*
D03*
Y3110000D02*
D03*
X1210000Y3010000D02*
D03*
Y3110000D02*
D03*
X1310000Y3010000D02*
D03*
Y3110000D02*
D03*
X1410000Y3010000D02*
D03*
Y3110000D02*
D03*
X1510000Y3010000D02*
D03*
Y3110000D02*
D03*
X1610000Y3010000D02*
D03*
Y3110000D02*
D03*
X1710000Y3010000D02*
D03*
Y3110000D02*
D03*
X1810000Y3010000D02*
D03*
Y3110000D02*
D03*
X1910000Y3010000D02*
D03*
Y3110000D02*
D03*
X2010000Y3010000D02*
D03*
Y3110000D02*
D03*
X2110000Y3010000D02*
D03*
Y3110000D02*
D03*
X2210000Y3010000D02*
D03*
Y3110000D02*
D03*
X2310000Y3010000D02*
D03*
Y3110000D02*
D03*
X2410000Y3010000D02*
D03*
Y3110000D02*
D03*
X2750000Y1275000D02*
D03*
X2650000D02*
D03*
X2550000D02*
D03*
X690000Y2555000D02*
D03*
Y2655000D02*
D03*
Y2755000D02*
D03*
Y2855000D02*
D03*
Y2955000D02*
D03*
Y3055000D02*
D03*
Y3155000D02*
D03*
X3010000Y2060000D02*
D03*
Y2160000D02*
D03*
Y2260000D02*
D03*
Y2360000D02*
D03*
Y2460000D02*
D03*
Y2560000D02*
D03*
Y2660000D02*
D03*
Y2760000D02*
D03*
D31*
X390827Y1644999D02*
D03*
X2710000Y3010000D02*
D03*
X2810000D02*
D03*
D32*
X225000Y3680000D02*
D03*
X725000D02*
D03*
X625000D02*
D03*
X425000D02*
D03*
X325000D02*
D03*
X968334D02*
D03*
X1468334D02*
D03*
X1368334D02*
D03*
X1168334D02*
D03*
X1068334D02*
D03*
X1711666D02*
D03*
X2211666D02*
D03*
X2111666D02*
D03*
X1911666D02*
D03*
X1811666D02*
D03*
X2455000D02*
D03*
X2955000D02*
D03*
X2855000D02*
D03*
X2655000D02*
D03*
X2555000D02*
D03*
X2350000Y410000D02*
D03*
X2250000D02*
D03*
D33*
X525000Y3680000D02*
D03*
X1268334D02*
D03*
X2011666D02*
D03*
X2755000D02*
D03*
X2350000Y110000D02*
D03*
X2250000D02*
D03*
D34*
X2564704Y3346456D02*
D03*
X596200D02*
D03*
X2564704Y393700D02*
D03*
X596200D02*
D03*
D35*
X2925000Y1055000D02*
D03*
Y955000D02*
D03*
Y855000D02*
D03*
Y755000D02*
D03*
Y655000D02*
D03*
Y555000D02*
D03*
D36*
X3025000Y1055000D02*
D03*
Y955000D02*
D03*
Y855000D02*
D03*
Y755000D02*
D03*
Y655000D02*
D03*
Y555000D02*
D03*
X1200000Y1230000D02*
D03*
X1300000D02*
D03*
Y1330000D02*
D03*
X1400000Y1230000D02*
D03*
Y1330000D02*
D03*
X1500000D02*
D03*
Y1230000D02*
D03*
X2055000D02*
D03*
X2155000D02*
D03*
Y1330000D02*
D03*
X2255000Y1230000D02*
D03*
Y1330000D02*
D03*
X2355000D02*
D03*
Y1230000D02*
D03*
D37*
X100000Y785000D02*
D03*
X285040D02*
D03*
X470080D02*
D03*
D38*
X295000Y440000D02*
D03*
Y240000D02*
D03*
D39*
X2775000Y255000D02*
D03*
X2975000D02*
D03*
D40*
X1200000Y1330000D02*
D03*
X2055000D02*
D03*
D42*
X995000Y188450D02*
D03*
X1615000D02*
D03*
X2085000D02*
D03*
X1435000D02*
D03*
Y728450D02*
D03*
X995000D02*
D03*
D43*
X1615000Y306450D02*
D03*
X2085000D02*
D03*
X995000D02*
D03*
X1435000D02*
D03*
Y846450D02*
D03*
X995000D02*
D03*
D44*
X1748466Y229608D02*
D03*
Y179214D02*
D03*
X1965000D02*
D03*
X1110000Y768528D02*
D03*
Y718134D02*
D03*
X1326536D02*
D03*
X1110000Y228528D02*
D03*
Y178134D02*
D03*
X1326536D02*
D03*
D45*
X1748466Y280000D02*
D03*
Y330394D02*
D03*
X1965000Y229608D02*
D03*
Y280000D02*
D03*
Y330394D02*
D03*
X1110000Y818922D02*
D03*
Y869316D02*
D03*
X1326536Y768528D02*
D03*
Y818922D02*
D03*
Y869316D02*
D03*
X1110000Y278922D02*
D03*
Y329316D02*
D03*
X1326536Y228528D02*
D03*
Y278922D02*
D03*
Y329316D02*
D03*
D46*
X3007300Y1299800D02*
D03*
X3007200Y1194800D02*
D03*
D47*
X155000Y550000D02*
D03*
Y460000D02*
D03*
D48*
X790000Y339448D02*
D03*
D49*
Y520552D02*
D03*
D50*
X649000Y197000D02*
D03*
X784000D02*
D03*
X657000Y681000D02*
D03*
D51*
X792000D02*
D03*
%TF.MD5,1825e175ac46dae70d2a54c37edcf1da*%
M02*
