%TF.GenerationSoftware,Altium Limited,Altium Designer,22.3.1 (43)*%
G04 Layer_Color=128*
%FSLAX26Y26*%
%MOIN*%
%TF.SameCoordinates,A6686B76-6886-4B69-866F-DC8958589E3E*%
%TF.FilePolarity,Positive*%
%TF.FileFunction,Paste,Bot*%
%TF.Part,Single*%
G01*
G75*
%TA.AperFunction,SMDPad,CuDef*%
%ADD11R,0.055118X0.047244*%
%ADD12O,0.055118X0.047244*%
%ADD13R,0.040000X0.030000*%
%ADD14O,0.040000X0.030000*%
%ADD16C,0.050000*%
%ADD17R,0.030000X0.040000*%
%ADD18O,0.030000X0.040000*%
%ADD19O,0.037402X0.090551*%
%ADD20R,0.037402X0.090551*%
%ADD21R,0.129921X0.090551*%
%ADD42O,0.051181X0.060000*%
%ADD43R,0.051181X0.060000*%
%ADD44O,0.056693X0.021654*%
%ADD45R,0.056693X0.021654*%
%ADD46R,0.050000X0.050000*%
%ADD47O,0.055000X0.040000*%
%ADD48O,0.068898X0.086614*%
%ADD49R,0.068898X0.086614*%
%ADD50O,0.060000X0.100000*%
%ADD51R,0.060000X0.100000*%
D11*
X2092064Y661930D02*
D03*
X1607938Y671930D02*
D03*
D12*
X2092064Y528070D02*
D03*
X1607938Y538070D02*
D03*
D13*
X1599000Y835000D02*
D03*
X2028000D02*
D03*
D14*
X1672000D02*
D03*
X2101000D02*
D03*
D16*
X2925000Y1300000D02*
D03*
X2924900Y1195000D02*
D03*
D17*
X1495000Y551500D02*
D03*
X1326666D02*
D03*
X1158334D02*
D03*
X990000D02*
D03*
D18*
X1326666Y478500D02*
D03*
X1158334D02*
D03*
X990000D02*
D03*
X1495000D02*
D03*
D19*
X1930552Y540000D02*
D03*
D20*
X1840000D02*
D03*
X1749448D02*
D03*
D21*
X1840000Y810000D02*
D03*
D42*
X995000Y188450D02*
D03*
X1615000D02*
D03*
X2085000D02*
D03*
X1435000D02*
D03*
Y728450D02*
D03*
X995000D02*
D03*
D43*
X1615000Y306450D02*
D03*
X2085000D02*
D03*
X995000D02*
D03*
X1435000D02*
D03*
Y846450D02*
D03*
X995000D02*
D03*
D44*
X1748466Y229608D02*
D03*
Y179214D02*
D03*
X1965000D02*
D03*
X1110000Y768528D02*
D03*
Y718134D02*
D03*
X1326536D02*
D03*
X1110000Y228528D02*
D03*
Y178134D02*
D03*
X1326536D02*
D03*
D45*
X1748466Y280000D02*
D03*
Y330394D02*
D03*
X1965000Y229608D02*
D03*
Y280000D02*
D03*
Y330394D02*
D03*
X1110000Y818922D02*
D03*
Y869316D02*
D03*
X1326536Y768528D02*
D03*
Y818922D02*
D03*
Y869316D02*
D03*
X1110000Y278922D02*
D03*
Y329316D02*
D03*
X1326536Y228528D02*
D03*
Y278922D02*
D03*
Y329316D02*
D03*
D46*
X3007300Y1299800D02*
D03*
X3007200Y1194800D02*
D03*
D47*
X155000Y550000D02*
D03*
Y460000D02*
D03*
D48*
X790000Y339448D02*
D03*
D49*
Y520552D02*
D03*
D50*
X649000Y197000D02*
D03*
X784000D02*
D03*
X657000Y681000D02*
D03*
D51*
X792000D02*
D03*
%TF.MD5,9e2402f80f62d4e920a765deda530bf3*%
M02*
