%TF.GenerationSoftware,Altium Limited,Altium Designer,22.3.1 (43)*%
G04 Layer_Physical_Order=1*
G04 Layer_Color=255*
%FSLAX26Y26*%
%MOIN*%
%TF.SameCoordinates,A6686B76-6886-4B69-866F-DC8958589E3E*%
%TF.FilePolarity,Positive*%
%TF.FileFunction,Copper,L1,Top,Signal*%
%TF.Part,Single*%
G01*
G75*
%TA.AperFunction,SMDPad,CuDef*%
%ADD10O,0.050000X0.060000*%
%ADD11R,0.055118X0.047244*%
%ADD12O,0.055118X0.047244*%
%ADD13R,0.040000X0.030000*%
%ADD14O,0.040000X0.030000*%
%ADD15R,0.050000X0.050000*%
%ADD16C,0.050000*%
%ADD17R,0.030000X0.040000*%
%ADD18O,0.030000X0.040000*%
%ADD19O,0.037402X0.090551*%
%ADD20R,0.037402X0.090551*%
%ADD21R,0.129921X0.090551*%
%ADD22R,0.059055X0.078740*%
%ADD23O,0.059055X0.078740*%
%ADD24O,0.047244X0.019685*%
%TA.AperFunction,Conductor*%
%ADD25C,0.015000*%
%ADD26C,0.050000*%
%ADD27C,0.030000*%
%TA.AperFunction,NonConductor*%
%ADD28C,0.010000*%
%TA.AperFunction,ComponentPad*%
%ADD29R,0.059055X0.059055*%
%ADD30C,0.059055*%
%ADD31R,0.059055X0.059055*%
%ADD32C,0.066929*%
%ADD33R,0.066929X0.066929*%
%ADD34C,0.200000*%
%ADD35R,0.062992X0.062992*%
%ADD36C,0.062992*%
%ADD37O,0.098425X0.137795*%
%ADD38C,0.090551*%
%ADD39C,0.074803*%
%ADD40R,0.062992X0.062992*%
%TA.AperFunction,ViaPad*%
%ADD41C,0.050000*%
G36*
X3265000Y3845000D02*
X3205000Y3785000D01*
Y0D01*
X6533D01*
X4619Y4619D01*
X5000Y5000D01*
X0Y10000D01*
Y3925000D01*
X3185000D01*
X3265000Y3845000D01*
D02*
G37*
%LPC*%
G36*
X1311799Y3723465D02*
X1224870D01*
Y3656785D01*
X1220250Y3654872D01*
X1209446Y3665676D01*
X1211799Y3671354D01*
Y3688646D01*
X1205181Y3704621D01*
X1192955Y3716847D01*
X1176980Y3723465D01*
X1159688D01*
X1143713Y3716847D01*
X1131487Y3704621D01*
X1124870Y3688646D01*
Y3671354D01*
X1131487Y3655379D01*
X1143713Y3643153D01*
X1159688Y3636535D01*
X1176980D01*
X1182658Y3638888D01*
X1382953Y3438593D01*
X1381039Y3433974D01*
X1341148D01*
X1109446Y3665676D01*
X1111799Y3671354D01*
Y3688646D01*
X1105181Y3704621D01*
X1092955Y3716847D01*
X1076980Y3723465D01*
X1059688D01*
X1043713Y3716847D01*
X1031487Y3704621D01*
X1024870Y3688646D01*
Y3671354D01*
X1031487Y3655379D01*
X1043713Y3643153D01*
X1059688Y3636535D01*
X1076980D01*
X1082658Y3638888D01*
X1319908Y3401638D01*
X1333302Y3396090D01*
X1787122D01*
X2040374Y3142838D01*
X2040334Y3142638D01*
X2034909Y3140992D01*
X2032390Y3143510D01*
X2017862Y3149528D01*
X2002138D01*
X1987610Y3143510D01*
X1979096Y3134997D01*
X1973198Y3136170D01*
X1970422Y3142873D01*
X1744901Y3368394D01*
X1731507Y3373942D01*
X947846D01*
X663183Y3658605D01*
X668465Y3671354D01*
Y3688646D01*
X661847Y3704621D01*
X649621Y3716847D01*
X633646Y3723465D01*
X616354D01*
X600379Y3716847D01*
X588153Y3704621D01*
X581535Y3688646D01*
Y3671354D01*
X588153Y3655379D01*
X600379Y3643153D01*
X616354Y3636535D01*
X631677D01*
X926606Y3341606D01*
X933038Y3338942D01*
X932043Y3333942D01*
X882846D01*
X710862Y3505926D01*
X697468Y3511474D01*
X620314D01*
X499872Y3631916D01*
X501785Y3636535D01*
X568465D01*
Y3723465D01*
X481536D01*
Y3656785D01*
X476916Y3654872D01*
X466112Y3665676D01*
X468464Y3671354D01*
Y3688646D01*
X461847Y3704621D01*
X449621Y3716847D01*
X433646Y3723465D01*
X416354D01*
X400379Y3716847D01*
X388153Y3704621D01*
X381536Y3688646D01*
Y3672324D01*
X377315Y3669474D01*
X368464Y3678324D01*
Y3688646D01*
X361847Y3704621D01*
X349621Y3716847D01*
X333646Y3723465D01*
X316354D01*
X300379Y3716847D01*
X288153Y3704621D01*
X281536Y3688646D01*
Y3671354D01*
X288153Y3655379D01*
X300379Y3643153D01*
X316354Y3636535D01*
X333646D01*
X349621Y3643153D01*
X349840Y3643372D01*
X542650Y3450562D01*
X544902Y3449630D01*
X545701Y3444318D01*
X528658Y3434478D01*
X508178Y3413998D01*
X493696Y3388914D01*
X486200Y3360938D01*
Y3331974D01*
X493696Y3303998D01*
X508178Y3278914D01*
X528658Y3258434D01*
X538542Y3252728D01*
X537248Y3247898D01*
X273956D01*
X260562Y3242350D01*
X151606Y3133394D01*
X146058Y3120000D01*
Y2835038D01*
X145174Y2834672D01*
X135328Y2824826D01*
X130000Y2811962D01*
Y2798038D01*
X135328Y2785174D01*
X141058Y2779444D01*
Y2697656D01*
X138028Y2694626D01*
X132700Y2681762D01*
Y2667838D01*
X138028Y2654974D01*
X147874Y2645128D01*
X160738Y2639800D01*
X174662D01*
X187526Y2645128D01*
X197372Y2654974D01*
X202700Y2667838D01*
Y2681762D01*
X197372Y2694626D01*
X187526Y2704472D01*
X178942Y2708027D01*
Y2772891D01*
X184826Y2775328D01*
X194672Y2785174D01*
X200000Y2798038D01*
Y2811962D01*
X194672Y2824826D01*
X184826Y2834672D01*
X183942Y2835038D01*
Y3112154D01*
X281802Y3210014D01*
X1349705D01*
X1405572Y3154147D01*
X1403659Y3149528D01*
X1402138D01*
X1387610Y3143510D01*
X1376490Y3132390D01*
X1370473Y3117863D01*
Y3102137D01*
X1376490Y3087610D01*
X1387610Y3076490D01*
X1402138Y3070472D01*
X1417862D01*
X1432390Y3076490D01*
X1439031Y3083130D01*
X1444031Y3081059D01*
Y3057028D01*
X1449579Y3043634D01*
X1471901Y3021311D01*
X1470473Y3017863D01*
Y3002137D01*
X1476490Y2987610D01*
X1487610Y2976490D01*
X1502138Y2970472D01*
X1517862D01*
X1532390Y2976490D01*
X1543510Y2987610D01*
X1549527Y3002137D01*
Y3017863D01*
X1543510Y3032390D01*
X1532390Y3043510D01*
X1517862Y3049528D01*
X1502138D01*
X1498689Y3048099D01*
X1481914Y3064874D01*
Y3075653D01*
X1486534Y3077566D01*
X1487610Y3076490D01*
X1502138Y3070472D01*
X1517862D01*
X1532390Y3076490D01*
X1543510Y3087610D01*
X1549527Y3102137D01*
Y3117863D01*
X1543510Y3132390D01*
X1532390Y3143510D01*
X1517862Y3149528D01*
X1502138D01*
X1487610Y3143510D01*
X1480255Y3136155D01*
X1476366Y3136929D01*
X1370945Y3242350D01*
X1357551Y3247898D01*
X655152D01*
X653858Y3252728D01*
X663742Y3258434D01*
X684222Y3278914D01*
X698704Y3303998D01*
X706200Y3331974D01*
Y3360938D01*
X699244Y3386897D01*
X703727Y3389485D01*
X821606Y3271606D01*
X835000Y3266058D01*
X1537154D01*
X1641058Y3162154D01*
Y3141375D01*
X1636439Y3139462D01*
X1632390Y3143510D01*
X1617862Y3149528D01*
X1602138D01*
X1587610Y3143510D01*
X1576490Y3132390D01*
X1570473Y3117863D01*
Y3102137D01*
X1576490Y3087610D01*
X1587610Y3076490D01*
X1602138Y3070472D01*
X1617862D01*
X1632390Y3076490D01*
X1636439Y3080538D01*
X1641058Y3078625D01*
Y3041375D01*
X1636439Y3039462D01*
X1632390Y3043510D01*
X1617862Y3049528D01*
X1602138D01*
X1587610Y3043510D01*
X1576490Y3032390D01*
X1570473Y3017863D01*
Y3002137D01*
X1576490Y2987610D01*
X1587610Y2976490D01*
X1602138Y2970472D01*
X1617862D01*
X1632390Y2976490D01*
X1636439Y2980538D01*
X1641619Y2978647D01*
X1646606Y2966606D01*
X1701606Y2911606D01*
X1715000Y2906058D01*
X1925000D01*
X1938394Y2911606D01*
X1998689Y2971901D01*
X2002138Y2970472D01*
X2017862D01*
X2032390Y2976490D01*
X2043510Y2987610D01*
X2049528Y3002137D01*
Y3017863D01*
X2043510Y3032390D01*
X2032390Y3043510D01*
X2017862Y3049528D01*
X2002138D01*
X1987610Y3043510D01*
X1976490Y3032390D01*
X1970473Y3017863D01*
Y3002137D01*
X1971901Y2998689D01*
X1917154Y2943942D01*
X1722846D01*
X1700734Y2966054D01*
X1703387Y2970472D01*
X1717862D01*
X1732390Y2976490D01*
X1743510Y2987610D01*
X1749527Y3002137D01*
Y3017863D01*
X1743510Y3032390D01*
X1732390Y3043510D01*
X1717862Y3049528D01*
X1702138D01*
X1687610Y3043510D01*
X1683561Y3039462D01*
X1678942Y3041375D01*
Y3078625D01*
X1683561Y3080538D01*
X1687610Y3076490D01*
X1702138Y3070472D01*
X1717862D01*
X1732390Y3076490D01*
X1743510Y3087610D01*
X1749527Y3102137D01*
Y3117863D01*
X1743510Y3132390D01*
X1732390Y3143510D01*
X1717862Y3149528D01*
X1702138D01*
X1687610Y3143510D01*
X1683561Y3139462D01*
X1678942Y3141375D01*
Y3170000D01*
X1673394Y3183394D01*
X1565349Y3291439D01*
X1567263Y3296058D01*
X1691799D01*
X1870473Y3117384D01*
Y3102137D01*
X1876490Y3087610D01*
X1887610Y3076490D01*
X1902138Y3070472D01*
X1917862D01*
X1932390Y3076490D01*
X1933466Y3077566D01*
X1938086Y3075653D01*
Y3064874D01*
X1921311Y3048099D01*
X1917862Y3049528D01*
X1902138D01*
X1887610Y3043510D01*
X1876490Y3032390D01*
X1870473Y3017863D01*
Y3002137D01*
X1876490Y2987610D01*
X1887610Y2976490D01*
X1902138Y2970472D01*
X1917862D01*
X1932390Y2976490D01*
X1943510Y2987610D01*
X1949527Y3002137D01*
Y3017863D01*
X1948099Y3021311D01*
X1970422Y3043634D01*
X1975969Y3057028D01*
Y3081059D01*
X1980969Y3083130D01*
X1987610Y3076490D01*
X2002138Y3070472D01*
X2017862D01*
X2032390Y3076490D01*
X2040904Y3085003D01*
X2046802Y3083830D01*
X2049579Y3077127D01*
X2083071Y3043634D01*
X2083845Y3039745D01*
X2076490Y3032390D01*
X2070472Y3017863D01*
Y3002137D01*
X2076490Y2987610D01*
X2087610Y2976490D01*
X2102137Y2970472D01*
X2117863D01*
X2132390Y2976490D01*
X2143510Y2987610D01*
X2149528Y3002137D01*
Y3017863D01*
X2143510Y3032390D01*
X2142434Y3033466D01*
X2144347Y3038086D01*
X2155126D01*
X2171901Y3021311D01*
X2170472Y3017863D01*
Y3002137D01*
X2176490Y2987610D01*
X2187610Y2976490D01*
X2202137Y2970472D01*
X2203659D01*
X2205572Y2965853D01*
X2093921Y2854202D01*
X1649298D01*
X1635905Y2848654D01*
X1466192Y2678942D01*
X1041375D01*
X1039462Y2683561D01*
X1043510Y2687610D01*
X1049527Y2702137D01*
Y2717863D01*
X1043510Y2732390D01*
X1032390Y2743510D01*
X1017862Y2749528D01*
X1002138D01*
X987610Y2743510D01*
X976490Y2732390D01*
X970472Y2717863D01*
Y2702137D01*
X976490Y2687610D01*
X980538Y2683561D01*
X978625Y2678942D01*
X941375D01*
X939462Y2683561D01*
X943510Y2687610D01*
X949528Y2702137D01*
Y2717863D01*
X943510Y2732390D01*
X932390Y2743510D01*
X917862Y2749528D01*
X902138D01*
X887610Y2743510D01*
X876490Y2732390D01*
X870472Y2717863D01*
Y2702137D01*
X876490Y2687610D01*
X880538Y2683561D01*
X878625Y2678942D01*
X761507D01*
X748113Y2673394D01*
X734147Y2659428D01*
X729528Y2661341D01*
Y2662863D01*
X723510Y2677390D01*
X712390Y2688510D01*
X697862Y2694528D01*
X682138D01*
X667610Y2688510D01*
X656490Y2677390D01*
X650472Y2662863D01*
Y2647137D01*
X656490Y2632610D01*
X657566Y2631534D01*
X655653Y2626914D01*
X627972D01*
X614578Y2621366D01*
X330406Y2337193D01*
X324858Y2323799D01*
Y1316645D01*
X247846Y1239634D01*
X246962Y1240000D01*
X233038D01*
X220174Y1234672D01*
X210328Y1224826D01*
X210273Y1224692D01*
X136253D01*
X133024Y1229524D01*
X124754Y1235050D01*
X115000Y1236990D01*
X105246Y1235050D01*
X96976Y1229524D01*
X91451Y1221255D01*
X89510Y1211500D01*
Y1201500D01*
X91451Y1191745D01*
X96976Y1183476D01*
X105246Y1177950D01*
X115000Y1176010D01*
X124754Y1177950D01*
X133024Y1183476D01*
X135250Y1186808D01*
X209652D01*
X210328Y1185174D01*
X220174Y1175328D01*
X233038Y1170000D01*
X246962D01*
X259826Y1175328D01*
X269672Y1185174D01*
X270038Y1186058D01*
X395004D01*
X395328Y1185274D01*
X405174Y1175428D01*
X418038Y1170100D01*
X431962D01*
X444826Y1175428D01*
X454672Y1185274D01*
X460000Y1198138D01*
Y1212062D01*
X454672Y1224926D01*
X444826Y1234772D01*
X431962Y1240100D01*
X418038D01*
X405174Y1234772D01*
X395328Y1224926D01*
X394921Y1223942D01*
X292263D01*
X290349Y1228561D01*
X357193Y1295405D01*
X362741Y1308799D01*
Y1404345D01*
X364913Y1405075D01*
X367741Y1405177D01*
X372803Y1397601D01*
X696010Y1074394D01*
Y885000D01*
X691500D01*
Y835000D01*
X696010D01*
Y748648D01*
X682035Y734673D01*
X679054Y730212D01*
X642441D01*
Y662968D01*
X679054D01*
X682035Y658507D01*
X734510Y606032D01*
Y520000D01*
X736451Y510245D01*
X737009Y509410D01*
X734652Y505000D01*
X595000D01*
X593700Y503700D01*
X581718D01*
X553742Y496204D01*
X528658Y481722D01*
X508178Y461242D01*
X493696Y436158D01*
X486200Y408182D01*
Y396200D01*
X485000Y395000D01*
Y160000D01*
X1135000D01*
X1135594Y155246D01*
Y138720D01*
X1138311Y125064D01*
X1146046Y113486D01*
X1181286Y78246D01*
X1192864Y70511D01*
X1206520Y67794D01*
X1225473D01*
Y54110D01*
X1304527D01*
Y67794D01*
X1467139D01*
Y54110D01*
X1546194D01*
Y67794D01*
X1708806D01*
Y54110D01*
X1787861D01*
Y67794D01*
X1950473D01*
Y54110D01*
X2029527D01*
Y71054D01*
X2206535D01*
Y66535D01*
X2293465D01*
Y74314D01*
X2306535D01*
Y66535D01*
X2393465D01*
Y69314D01*
X3020000D01*
X3033656Y72031D01*
X3045234Y79766D01*
X3120234Y154766D01*
X3127969Y166344D01*
X3130686Y180000D01*
Y645000D01*
Y2925000D01*
X3127969Y2938656D01*
X3120234Y2950234D01*
X3035234Y3035234D01*
X3023656Y3042969D01*
X3010000Y3045686D01*
X2849528D01*
Y3049528D01*
X2770472D01*
Y3045686D01*
X2749528D01*
Y3049528D01*
X2670472D01*
Y3027103D01*
X2663530Y3022465D01*
X2654147Y3013081D01*
X2649528Y3014995D01*
Y3017863D01*
X2643510Y3032390D01*
X2632390Y3043510D01*
X2617863Y3049528D01*
X2602137D01*
X2587610Y3043510D01*
X2576490Y3032390D01*
X2570472Y3017863D01*
Y3002137D01*
X2576490Y2987610D01*
X2587610Y2976490D01*
X2602137Y2970472D01*
X2605005D01*
X2606919Y2965853D01*
X2456555Y2815490D01*
X2112832D01*
X2111838Y2820490D01*
X2115161Y2821866D01*
X2273927Y2980632D01*
X2274650Y2982378D01*
X2280172Y2983928D01*
X2287610Y2976490D01*
X2302137Y2970472D01*
X2317863D01*
X2332390Y2976490D01*
X2343510Y2987610D01*
X2349528Y3002137D01*
Y3017863D01*
X2343510Y3032390D01*
X2332390Y3043510D01*
X2317863Y3049528D01*
X2302137D01*
X2287610Y3043510D01*
X2284095Y3039995D01*
X2279475Y3041908D01*
Y3059467D01*
X2273927Y3072861D01*
X2248099Y3098689D01*
X2249528Y3102137D01*
Y3117863D01*
X2243510Y3132390D01*
X2232390Y3143510D01*
X2217863Y3149528D01*
X2202137D01*
X2187610Y3143510D01*
X2176490Y3132390D01*
X2170472Y3117863D01*
Y3102137D01*
X2176490Y3087610D01*
X2187610Y3076490D01*
X2202137Y3070472D01*
X2217863D01*
X2221311Y3071901D01*
X2241591Y3051621D01*
Y3040842D01*
X2236972Y3038928D01*
X2232390Y3043510D01*
X2217863Y3049528D01*
X2202137D01*
X2198689Y3048099D01*
X2176366Y3070421D01*
X2162972Y3075970D01*
X2138941D01*
X2136870Y3080970D01*
X2143510Y3087610D01*
X2149528Y3102137D01*
Y3117863D01*
X2143510Y3132390D01*
X2132390Y3143510D01*
X2118190Y3149392D01*
X2114965Y3157179D01*
X1818717Y3453426D01*
X1805323Y3458974D01*
X1416148D01*
X1243206Y3631916D01*
X1245119Y3636535D01*
X1311799D01*
Y3723465D01*
D02*
G37*
G36*
X2798465D02*
X2711535D01*
Y3636535D01*
X2798465D01*
Y3723465D01*
D02*
G37*
G36*
X2663646D02*
X2646354D01*
X2630379Y3716847D01*
X2618153Y3704621D01*
X2611535Y3688646D01*
Y3671354D01*
X2618153Y3655379D01*
X2630379Y3643153D01*
X2646354Y3636535D01*
X2663646D01*
X2679621Y3643153D01*
X2691847Y3655379D01*
X2698465Y3671354D01*
Y3688646D01*
X2691847Y3704621D01*
X2679621Y3716847D01*
X2663646Y3723465D01*
D02*
G37*
G36*
X2563646D02*
X2546354D01*
X2530379Y3716847D01*
X2518153Y3704621D01*
X2511535Y3688646D01*
Y3671354D01*
X2518153Y3655379D01*
X2530379Y3643153D01*
X2546354Y3636535D01*
X2563646D01*
X2579621Y3643153D01*
X2591847Y3655379D01*
X2598465Y3671354D01*
Y3688646D01*
X2591847Y3704621D01*
X2579621Y3716847D01*
X2563646Y3723465D01*
D02*
G37*
G36*
X2220312D02*
X2203020D01*
X2187045Y3716847D01*
X2174819Y3704621D01*
X2168202Y3688646D01*
Y3671354D01*
X2174819Y3655379D01*
X2187045Y3643153D01*
X2203020Y3636535D01*
X2220312D01*
X2236287Y3643153D01*
X2248513Y3655379D01*
X2255131Y3671354D01*
Y3688646D01*
X2248513Y3704621D01*
X2236287Y3716847D01*
X2220312Y3723465D01*
D02*
G37*
G36*
X2120312D02*
X2103020D01*
X2087045Y3716847D01*
X2074819Y3704621D01*
X2068202Y3688646D01*
Y3671354D01*
X2074819Y3655379D01*
X2087045Y3643153D01*
X2103020Y3636535D01*
X2120312D01*
X2136287Y3643153D01*
X2148513Y3655379D01*
X2155131Y3671354D01*
Y3688646D01*
X2148513Y3704621D01*
X2136287Y3716847D01*
X2120312Y3723465D01*
D02*
G37*
G36*
X1476980D02*
X1459688D01*
X1443713Y3716847D01*
X1431487Y3704621D01*
X1424870Y3688646D01*
Y3671354D01*
X1431487Y3655379D01*
X1443713Y3643153D01*
X1459688Y3636535D01*
X1476980D01*
X1492955Y3643153D01*
X1505181Y3655379D01*
X1511799Y3671354D01*
Y3688646D01*
X1505181Y3704621D01*
X1492955Y3716847D01*
X1476980Y3723465D01*
D02*
G37*
G36*
X1376980D02*
X1359688D01*
X1343713Y3716847D01*
X1331487Y3704621D01*
X1324870Y3688646D01*
Y3671354D01*
X1331487Y3655379D01*
X1343713Y3643153D01*
X1359688Y3636535D01*
X1376980D01*
X1392955Y3643153D01*
X1405181Y3655379D01*
X1411799Y3671354D01*
Y3688646D01*
X1405181Y3704621D01*
X1392955Y3716847D01*
X1376980Y3723465D01*
D02*
G37*
G36*
X733646D02*
X716354D01*
X700379Y3716847D01*
X688153Y3704621D01*
X681535Y3688646D01*
Y3671354D01*
X688153Y3655379D01*
X700379Y3643153D01*
X716354Y3636535D01*
X733646D01*
X749621Y3643153D01*
X761847Y3655379D01*
X768465Y3671354D01*
Y3688646D01*
X761847Y3704621D01*
X749621Y3716847D01*
X733646Y3723465D01*
D02*
G37*
G36*
X2963646D02*
X2946354D01*
X2930379Y3716847D01*
X2918153Y3704621D01*
X2911535Y3688646D01*
Y3671354D01*
X2918153Y3655379D01*
X2930379Y3643153D01*
X2936058Y3640800D01*
Y3532846D01*
X2878561Y3475349D01*
X2873942Y3477263D01*
Y3640800D01*
X2879621Y3643153D01*
X2891847Y3655379D01*
X2898465Y3671354D01*
Y3688646D01*
X2891847Y3704621D01*
X2879621Y3716847D01*
X2863646Y3723465D01*
X2846354D01*
X2830379Y3716847D01*
X2818153Y3704621D01*
X2811535Y3688646D01*
Y3671354D01*
X2818153Y3655379D01*
X2830379Y3643153D01*
X2836058Y3640800D01*
Y3468201D01*
X2672578Y3304721D01*
X2668095Y3307309D01*
X2674704Y3331974D01*
Y3360938D01*
X2667208Y3388914D01*
X2652726Y3413998D01*
X2632246Y3434478D01*
X2607162Y3448960D01*
X2579186Y3456456D01*
X2550222D01*
X2522246Y3448960D01*
X2497162Y3434478D01*
X2476682Y3413998D01*
X2462200Y3388914D01*
X2454704Y3360938D01*
Y3331974D01*
X2462200Y3303998D01*
X2476682Y3278914D01*
X2497162Y3258434D01*
X2522246Y3243952D01*
X2550222Y3236456D01*
X2579186D01*
X2603851Y3243065D01*
X2606439Y3238582D01*
X2517384Y3149528D01*
X2502137D01*
X2487610Y3143510D01*
X2480589Y3136489D01*
X2474709Y3137681D01*
X2470422Y3148032D01*
X1986538Y3631916D01*
X1988451Y3636535D01*
X2055131D01*
Y3723465D01*
X1968201D01*
Y3656785D01*
X1963582Y3654872D01*
X1952778Y3665676D01*
X1955130Y3671354D01*
Y3688646D01*
X1948513Y3704621D01*
X1936287Y3716847D01*
X1920312Y3723465D01*
X1903020D01*
X1887045Y3716847D01*
X1874819Y3704621D01*
X1868201Y3688646D01*
Y3671354D01*
X1874819Y3655379D01*
X1887045Y3643153D01*
X1903020Y3636535D01*
X1920312D01*
X1925990Y3638888D01*
X2410731Y3154147D01*
X2408818Y3149528D01*
X2402137D01*
X2387610Y3143510D01*
X2381471Y3137371D01*
X2381082D01*
X1852778Y3665676D01*
X1855130Y3671354D01*
Y3688646D01*
X1848513Y3704621D01*
X1836287Y3716847D01*
X1820312Y3723465D01*
X1803020D01*
X1787045Y3716847D01*
X1774819Y3704621D01*
X1768201Y3688646D01*
Y3671354D01*
X1774819Y3655379D01*
X1787045Y3643153D01*
X1803020Y3636535D01*
X1820312D01*
X1825990Y3638888D01*
X2310731Y3154147D01*
X2308818Y3149528D01*
X2302137D01*
X2287610Y3143510D01*
X2276490Y3132390D01*
X2270472Y3117863D01*
Y3102137D01*
X2276490Y3087610D01*
X2287610Y3076490D01*
X2302137Y3070472D01*
X2317863D01*
X2332390Y3076490D01*
X2343510Y3087610D01*
X2349528Y3102137D01*
Y3108818D01*
X2354147Y3110731D01*
X2359843Y3105036D01*
X2371225Y3100321D01*
X2376490Y3087610D01*
X2387610Y3076490D01*
X2402137Y3070472D01*
X2417863D01*
X2432390Y3076490D01*
X2433466Y3077566D01*
X2438086Y3075653D01*
Y3064874D01*
X2421311Y3048099D01*
X2417863Y3049528D01*
X2402137D01*
X2387610Y3043510D01*
X2376490Y3032390D01*
X2370472Y3017863D01*
Y3002137D01*
X2376490Y2987610D01*
X2387610Y2976490D01*
X2402137Y2970472D01*
X2417863D01*
X2432390Y2976490D01*
X2443510Y2987610D01*
X2449528Y3002137D01*
Y3017863D01*
X2448099Y3021311D01*
X2470422Y3043634D01*
X2475970Y3057028D01*
Y3081059D01*
X2480970Y3083130D01*
X2487610Y3076490D01*
X2502137Y3070472D01*
X2517863D01*
X2532390Y3076490D01*
X2535653Y3079753D01*
X2540273Y3077840D01*
Y3067061D01*
X2521311Y3048099D01*
X2517863Y3049528D01*
X2502137D01*
X2487610Y3043510D01*
X2476490Y3032390D01*
X2470472Y3017863D01*
Y3002137D01*
X2476490Y2987610D01*
X2487610Y2976490D01*
X2502137Y2970472D01*
X2517863D01*
X2532390Y2976490D01*
X2543510Y2987610D01*
X2549528Y3002137D01*
Y3017863D01*
X2548099Y3021311D01*
X2572609Y3045821D01*
X2578157Y3059215D01*
Y3079410D01*
X2582776Y3081324D01*
X2587610Y3076490D01*
X2602137Y3070472D01*
X2617863D01*
X2632390Y3076490D01*
X2643510Y3087610D01*
X2649528Y3102137D01*
Y3117863D01*
X2643510Y3132390D01*
X2632390Y3143510D01*
X2617863Y3149528D01*
X2612848D01*
X2610935Y3154147D01*
X2968394Y3511606D01*
X2973942Y3525000D01*
Y3640800D01*
X2979621Y3643153D01*
X2991847Y3655379D01*
X2998465Y3671354D01*
Y3688646D01*
X2991847Y3704621D01*
X2979621Y3716847D01*
X2963646Y3723465D01*
D02*
G37*
G36*
X697862Y3194528D02*
X682138D01*
X667610Y3188510D01*
X656490Y3177390D01*
X650472Y3162863D01*
Y3147137D01*
X656490Y3132610D01*
X667610Y3121490D01*
X682138Y3115472D01*
X697862D01*
X712390Y3121490D01*
X723510Y3132610D01*
X729528Y3147137D01*
Y3162863D01*
X723510Y3177390D01*
X712390Y3188510D01*
X697862Y3194528D01*
D02*
G37*
G36*
X1817862Y3149528D02*
X1802138D01*
X1787610Y3143510D01*
X1776490Y3132390D01*
X1770473Y3117863D01*
Y3102137D01*
X1776490Y3087610D01*
X1787610Y3076490D01*
X1802138Y3070472D01*
X1817862D01*
X1832390Y3076490D01*
X1843510Y3087610D01*
X1849527Y3102137D01*
Y3117863D01*
X1843510Y3132390D01*
X1832390Y3143510D01*
X1817862Y3149528D01*
D02*
G37*
G36*
X1317862D02*
X1302138D01*
X1287610Y3143510D01*
X1276490Y3132390D01*
X1270473Y3117863D01*
Y3102137D01*
X1276490Y3087610D01*
X1287610Y3076490D01*
X1302138Y3070472D01*
X1317862D01*
X1332390Y3076490D01*
X1343510Y3087610D01*
X1349527Y3102137D01*
Y3117863D01*
X1343510Y3132390D01*
X1332390Y3143510D01*
X1317862Y3149528D01*
D02*
G37*
G36*
X1217862D02*
X1202138D01*
X1187610Y3143510D01*
X1176490Y3132390D01*
X1170473Y3117863D01*
Y3102137D01*
X1176490Y3087610D01*
X1187610Y3076490D01*
X1202138Y3070472D01*
X1217862D01*
X1232390Y3076490D01*
X1243510Y3087610D01*
X1249527Y3102137D01*
Y3117863D01*
X1243510Y3132390D01*
X1232390Y3143510D01*
X1217862Y3149528D01*
D02*
G37*
G36*
X1117862D02*
X1102138D01*
X1087610Y3143510D01*
X1076490Y3132390D01*
X1070473Y3117863D01*
Y3102137D01*
X1076490Y3087610D01*
X1087610Y3076490D01*
X1102138Y3070472D01*
X1117862D01*
X1132390Y3076490D01*
X1143510Y3087610D01*
X1149527Y3102137D01*
Y3117863D01*
X1143510Y3132390D01*
X1132390Y3143510D01*
X1117862Y3149528D01*
D02*
G37*
G36*
X1017862D02*
X1002138D01*
X987610Y3143510D01*
X976490Y3132390D01*
X970472Y3117863D01*
Y3102137D01*
X976490Y3087610D01*
X987610Y3076490D01*
X1002138Y3070472D01*
X1017862D01*
X1032390Y3076490D01*
X1043510Y3087610D01*
X1049527Y3102137D01*
Y3117863D01*
X1043510Y3132390D01*
X1032390Y3143510D01*
X1017862Y3149528D01*
D02*
G37*
G36*
X917862D02*
X902138D01*
X887610Y3143510D01*
X876490Y3132390D01*
X870472Y3117863D01*
Y3102137D01*
X876490Y3087610D01*
X887610Y3076490D01*
X902138Y3070472D01*
X917862D01*
X932390Y3076490D01*
X943510Y3087610D01*
X949528Y3102137D01*
Y3117863D01*
X943510Y3132390D01*
X932390Y3143510D01*
X917862Y3149528D01*
D02*
G37*
G36*
X697862Y3094528D02*
X682138D01*
X667610Y3088510D01*
X656490Y3077390D01*
X650472Y3062863D01*
Y3047137D01*
X656490Y3032610D01*
X667610Y3021490D01*
X682138Y3015472D01*
X697862D01*
X712390Y3021490D01*
X723510Y3032610D01*
X729528Y3047137D01*
Y3062863D01*
X723510Y3077390D01*
X712390Y3088510D01*
X697862Y3094528D01*
D02*
G37*
G36*
X1817862Y3049528D02*
X1802138D01*
X1787610Y3043510D01*
X1776490Y3032390D01*
X1770473Y3017863D01*
Y3002137D01*
X1776490Y2987610D01*
X1787610Y2976490D01*
X1802138Y2970472D01*
X1817862D01*
X1832390Y2976490D01*
X1843510Y2987610D01*
X1849527Y3002137D01*
Y3017863D01*
X1843510Y3032390D01*
X1832390Y3043510D01*
X1817862Y3049528D01*
D02*
G37*
G36*
X1417862D02*
X1402138D01*
X1387610Y3043510D01*
X1376490Y3032390D01*
X1370473Y3017863D01*
Y3002137D01*
X1376490Y2987610D01*
X1387610Y2976490D01*
X1402138Y2970472D01*
X1417862D01*
X1432390Y2976490D01*
X1443510Y2987610D01*
X1449527Y3002137D01*
Y3017863D01*
X1443510Y3032390D01*
X1432390Y3043510D01*
X1417862Y3049528D01*
D02*
G37*
G36*
X1317862D02*
X1302138D01*
X1287610Y3043510D01*
X1276490Y3032390D01*
X1270473Y3017863D01*
Y3002137D01*
X1276490Y2987610D01*
X1287610Y2976490D01*
X1302138Y2970472D01*
X1317862D01*
X1332390Y2976490D01*
X1343510Y2987610D01*
X1349527Y3002137D01*
Y3017863D01*
X1343510Y3032390D01*
X1332390Y3043510D01*
X1317862Y3049528D01*
D02*
G37*
G36*
X1217862D02*
X1202138D01*
X1187610Y3043510D01*
X1176490Y3032390D01*
X1170473Y3017863D01*
Y3002137D01*
X1176490Y2987610D01*
X1187610Y2976490D01*
X1202138Y2970472D01*
X1217862D01*
X1232390Y2976490D01*
X1243510Y2987610D01*
X1249527Y3002137D01*
Y3017863D01*
X1243510Y3032390D01*
X1232390Y3043510D01*
X1217862Y3049528D01*
D02*
G37*
G36*
X1117862D02*
X1102138D01*
X1087610Y3043510D01*
X1076490Y3032390D01*
X1070473Y3017863D01*
Y3002137D01*
X1076490Y2987610D01*
X1087610Y2976490D01*
X1102138Y2970472D01*
X1117862D01*
X1132390Y2976490D01*
X1143510Y2987610D01*
X1149527Y3002137D01*
Y3017863D01*
X1143510Y3032390D01*
X1132390Y3043510D01*
X1117862Y3049528D01*
D02*
G37*
G36*
X1017862D02*
X1002138D01*
X987610Y3043510D01*
X976490Y3032390D01*
X970472Y3017863D01*
Y3002137D01*
X976490Y2987610D01*
X987610Y2976490D01*
X1002138Y2970472D01*
X1017862D01*
X1032390Y2976490D01*
X1043510Y2987610D01*
X1049527Y3002137D01*
Y3017863D01*
X1043510Y3032390D01*
X1032390Y3043510D01*
X1017862Y3049528D01*
D02*
G37*
G36*
X917862D02*
X902138D01*
X887610Y3043510D01*
X876490Y3032390D01*
X870472Y3017863D01*
Y3002137D01*
X876490Y2987610D01*
X887610Y2976490D01*
X902138Y2970472D01*
X917862D01*
X932390Y2976490D01*
X943510Y2987610D01*
X949528Y3002137D01*
Y3017863D01*
X943510Y3032390D01*
X932390Y3043510D01*
X917862Y3049528D01*
D02*
G37*
G36*
X697862Y2994528D02*
X682138D01*
X667610Y2988510D01*
X656490Y2977390D01*
X650472Y2962863D01*
Y2947137D01*
X656490Y2932610D01*
X667610Y2921490D01*
X682138Y2915472D01*
X697862D01*
X712390Y2921490D01*
X723510Y2932610D01*
X729528Y2947137D01*
Y2962863D01*
X723510Y2977390D01*
X712390Y2988510D01*
X697862Y2994528D01*
D02*
G37*
G36*
X1017862Y2949528D02*
X1002138D01*
X987610Y2943510D01*
X976490Y2932390D01*
X970472Y2917863D01*
Y2902137D01*
X976490Y2887610D01*
X987610Y2876490D01*
X1002138Y2870472D01*
X1017862D01*
X1032390Y2876490D01*
X1043510Y2887610D01*
X1049527Y2902137D01*
Y2917863D01*
X1043510Y2932390D01*
X1032390Y2943510D01*
X1017862Y2949528D01*
D02*
G37*
G36*
X917862D02*
X902138D01*
X887610Y2943510D01*
X876490Y2932390D01*
X870472Y2917863D01*
Y2902137D01*
X876490Y2887610D01*
X887610Y2876490D01*
X902138Y2870472D01*
X917862D01*
X932390Y2876490D01*
X943510Y2887610D01*
X949528Y2902137D01*
Y2917863D01*
X943510Y2932390D01*
X932390Y2943510D01*
X917862Y2949528D01*
D02*
G37*
G36*
X697862Y2894528D02*
X682138D01*
X667610Y2888510D01*
X656490Y2877390D01*
X650472Y2862863D01*
Y2847137D01*
X656490Y2832610D01*
X667610Y2821490D01*
X682138Y2815472D01*
X697862D01*
X712390Y2821490D01*
X723510Y2832610D01*
X729528Y2847137D01*
Y2862863D01*
X723510Y2877390D01*
X712390Y2888510D01*
X697862Y2894528D01*
D02*
G37*
G36*
X1017862Y2849528D02*
X1002138D01*
X987610Y2843510D01*
X976490Y2832390D01*
X970472Y2817863D01*
Y2802137D01*
X976490Y2787610D01*
X987610Y2776490D01*
X1002138Y2770472D01*
X1017862D01*
X1032390Y2776490D01*
X1043510Y2787610D01*
X1049527Y2802137D01*
Y2817863D01*
X1043510Y2832390D01*
X1032390Y2843510D01*
X1017862Y2849528D01*
D02*
G37*
G36*
X917862D02*
X902138D01*
X887610Y2843510D01*
X876490Y2832390D01*
X870472Y2817863D01*
Y2802137D01*
X876490Y2787610D01*
X887610Y2776490D01*
X902138Y2770472D01*
X917862D01*
X932390Y2776490D01*
X943510Y2787610D01*
X949528Y2802137D01*
Y2817863D01*
X943510Y2832390D01*
X932390Y2843510D01*
X917862Y2849528D01*
D02*
G37*
G36*
X697862Y2794528D02*
X682138D01*
X667610Y2788510D01*
X656490Y2777390D01*
X650472Y2762863D01*
Y2747137D01*
X656490Y2732610D01*
X667610Y2721490D01*
X682138Y2715472D01*
X697862D01*
X712390Y2721490D01*
X723510Y2732610D01*
X729528Y2747137D01*
Y2762863D01*
X723510Y2777390D01*
X712390Y2788510D01*
X697862Y2794528D01*
D02*
G37*
G36*
X256962Y2710000D02*
X243038D01*
X230174Y2704672D01*
X220328Y2694826D01*
X215000Y2681962D01*
Y2668038D01*
X220328Y2655174D01*
X230174Y2645328D01*
X243038Y2640000D01*
X250712D01*
X296058Y2594654D01*
Y2571664D01*
X253469Y2529075D01*
X231220D01*
X216034Y2522785D01*
X209743Y2507598D01*
X216034Y2492411D01*
X231220Y2486121D01*
X258779D01*
X273966Y2492411D01*
X276502Y2498532D01*
X328394Y2550425D01*
X333942Y2563818D01*
Y2602500D01*
X328394Y2615894D01*
X282437Y2661851D01*
X285000Y2668038D01*
Y2681962D01*
X279672Y2694826D01*
X269826Y2704672D01*
X256962Y2710000D01*
D02*
G37*
G36*
X155000Y2570490D02*
X145245Y2568550D01*
X142144Y2566477D01*
X141220D01*
X126034Y2560187D01*
X119743Y2545000D01*
X126034Y2529813D01*
X129510Y2528373D01*
Y1718942D01*
X95094Y1684526D01*
X83752D01*
X69225Y1678509D01*
X58105Y1667389D01*
X52087Y1652861D01*
Y1637137D01*
X58105Y1622609D01*
X69225Y1611489D01*
X83752Y1605472D01*
X99478D01*
X114005Y1611489D01*
X125125Y1622609D01*
X131143Y1637137D01*
Y1648478D01*
X173024Y1690360D01*
X178549Y1698629D01*
X180490Y1708384D01*
Y2528373D01*
X183966Y2529813D01*
X190257Y2545000D01*
X183966Y2560187D01*
X168780Y2566477D01*
X167856D01*
X164755Y2568550D01*
X155000Y2570490D01*
D02*
G37*
G36*
X115000Y1163990D02*
X105246Y1162050D01*
X96976Y1156524D01*
X91451Y1148255D01*
X89510Y1138500D01*
Y1128500D01*
X91451Y1118745D01*
X96976Y1110476D01*
X105246Y1104950D01*
X115000Y1103010D01*
X124754Y1104950D01*
X131052Y1109158D01*
X207925D01*
X210528Y1102874D01*
X220374Y1093028D01*
X233238Y1087700D01*
X247162D01*
X248046Y1088066D01*
X338834Y997278D01*
Y839369D01*
X334049Y837918D01*
X327730Y847375D01*
X308144Y860462D01*
X285040Y865058D01*
X261936Y860462D01*
X242350Y847375D01*
X229263Y827789D01*
X224667Y804685D01*
Y765315D01*
X229263Y742211D01*
X242350Y722625D01*
X261936Y709538D01*
X285040Y704942D01*
X308144Y709538D01*
X327730Y722625D01*
X334049Y732082D01*
X338834Y730631D01*
Y480871D01*
X334214Y478957D01*
X326311Y486860D01*
X305995Y495276D01*
X284005D01*
X263689Y486860D01*
X248140Y471311D01*
X239724Y450995D01*
Y429005D01*
X248140Y408689D01*
X263689Y393140D01*
X284005Y384724D01*
X305364D01*
X308454Y380743D01*
X281606Y353895D01*
X276058Y340501D01*
Y291984D01*
X263689Y286860D01*
X248140Y271311D01*
X239724Y250995D01*
Y229005D01*
X248140Y208689D01*
X263689Y193140D01*
X284005Y184724D01*
X305995D01*
X326311Y193140D01*
X341860Y208689D01*
X350276Y229005D01*
Y250995D01*
X341860Y271311D01*
X326311Y286860D01*
X313942Y291984D01*
Y332655D01*
X371170Y389883D01*
X376717Y403277D01*
Y1005124D01*
X371170Y1018518D01*
X274834Y1114854D01*
X275200Y1115738D01*
Y1129662D01*
X269872Y1142526D01*
X260026Y1152372D01*
X247162Y1157700D01*
X233238D01*
X220374Y1152372D01*
X215044Y1147042D01*
X138791D01*
X138549Y1148255D01*
X133024Y1156524D01*
X124754Y1162050D01*
X115000Y1163990D01*
D02*
G37*
G36*
X432162Y1157800D02*
X418238D01*
X405374Y1152472D01*
X395528Y1142626D01*
X390200Y1129762D01*
Y1115838D01*
X395528Y1102974D01*
X405374Y1093128D01*
X406258Y1092762D01*
Y916262D01*
X411806Y902868D01*
X449262Y865413D01*
X447810Y860628D01*
X446976Y860462D01*
X427390Y847375D01*
X414303Y827789D01*
X409707Y804685D01*
Y765315D01*
X414303Y742211D01*
X427390Y722625D01*
X446976Y709538D01*
X470080Y704942D01*
X493184Y709538D01*
X512770Y722625D01*
X525857Y742211D01*
X530453Y765315D01*
Y804685D01*
X525857Y827789D01*
X512770Y847375D01*
X493982Y859929D01*
Y866422D01*
X488434Y879816D01*
X444142Y924108D01*
Y1092762D01*
X445026Y1093128D01*
X454872Y1102974D01*
X460200Y1115838D01*
Y1129762D01*
X454872Y1142626D01*
X445026Y1152472D01*
X432162Y1157800D01*
D02*
G37*
G36*
X100000Y865058D02*
X76896Y860462D01*
X57310Y847375D01*
X44223Y827789D01*
X39627Y804685D01*
Y765315D01*
X44223Y742211D01*
X57310Y722625D01*
X76896Y709538D01*
X100000Y704942D01*
X123104Y709538D01*
X142690Y722625D01*
X155777Y742211D01*
X160373Y765315D01*
Y804685D01*
X155777Y827789D01*
X142690Y847375D01*
X123104Y860462D01*
X100000Y865058D01*
D02*
G37*
%LPD*%
G36*
X3059314Y2910218D02*
Y645000D01*
Y636102D01*
X3046150Y622938D01*
X2966496D01*
Y696496D01*
X2921952D01*
X2918504Y697182D01*
X2903285D01*
X2891583Y708885D01*
X2893496Y713504D01*
X2966496D01*
Y796496D01*
X2883504D01*
Y723496D01*
X2878885Y721583D01*
X2830686Y769782D01*
Y906195D01*
X2835686Y908266D01*
X2883504Y860448D01*
Y813504D01*
X2966496D01*
Y896496D01*
X2919552D01*
X2907163Y908885D01*
X2909077Y913504D01*
X2966496D01*
Y996496D01*
X2883504D01*
Y939077D01*
X2878885Y937163D01*
X2875490Y940558D01*
Y1150000D01*
X2888500D01*
Y1200000D01*
X2875490D01*
Y1239442D01*
X3013496Y1377448D01*
X3019022Y1385718D01*
X3020962Y1395472D01*
Y1400473D01*
X3049528D01*
Y1479527D01*
X2970472D01*
Y1427935D01*
X2969983Y1425472D01*
Y1406031D01*
X2831976Y1268024D01*
X2826450Y1259755D01*
X2824510Y1250000D01*
Y1011980D01*
X2819510Y1010957D01*
X2685234Y1145234D01*
X2673656Y1152969D01*
X2660000Y1155686D01*
X2019071D01*
X2010686Y1164071D01*
Y1215484D01*
X2015686Y1216479D01*
X2019821Y1206494D01*
X2031494Y1194821D01*
X2046746Y1188504D01*
X2063254D01*
X2078506Y1194821D01*
X2090179Y1206494D01*
X2096496Y1221746D01*
Y1238254D01*
X2094606Y1242818D01*
X2117390Y1265602D01*
X2122938Y1278996D01*
Y1296845D01*
X2127557Y1298758D01*
X2131494Y1294821D01*
X2146746Y1288504D01*
X2163254D01*
X2178506Y1294821D01*
X2190179Y1306494D01*
X2196496Y1321746D01*
Y1338254D01*
X2190179Y1353506D01*
X2178506Y1365179D01*
X2163254Y1371496D01*
X2146746D01*
X2144139Y1370416D01*
X2141361Y1374574D01*
X2147846Y1381058D01*
X2300000D01*
X2313394Y1386606D01*
X2398689Y1471901D01*
X2402137Y1470473D01*
X2417863D01*
X2432390Y1476490D01*
X2433466Y1477566D01*
X2438086Y1475652D01*
Y1439874D01*
X2367818Y1369606D01*
X2363254Y1371496D01*
X2346746D01*
X2331494Y1365179D01*
X2319821Y1353506D01*
X2313504Y1338254D01*
Y1321746D01*
X2319821Y1306494D01*
X2331494Y1294821D01*
X2346746Y1288504D01*
X2363254D01*
X2378506Y1294821D01*
X2390179Y1306494D01*
X2396496Y1321746D01*
Y1338254D01*
X2394606Y1342818D01*
X2470421Y1418634D01*
X2475970Y1432028D01*
Y1481059D01*
X2480970Y1483130D01*
X2487610Y1476490D01*
X2502137Y1470473D01*
X2517863D01*
X2532390Y1476490D01*
X2543510Y1487610D01*
X2549528Y1502138D01*
Y1517862D01*
X2543510Y1532390D01*
X2532390Y1543510D01*
X2517863Y1549527D01*
X2502137D01*
X2487610Y1543510D01*
X2480970Y1536870D01*
X2475970Y1538941D01*
Y1549182D01*
X2498689Y1571901D01*
X2502137Y1570473D01*
X2517863D01*
X2532390Y1576490D01*
X2543510Y1587610D01*
X2549528Y1602138D01*
Y1617862D01*
X2543510Y1632390D01*
X2542434Y1633466D01*
X2544347Y1638086D01*
X2575653D01*
X2577566Y1633466D01*
X2576490Y1632390D01*
X2570472Y1617862D01*
Y1602138D01*
X2576490Y1587610D01*
X2587610Y1576490D01*
X2602137Y1570473D01*
X2617863D01*
X2632390Y1576490D01*
X2643510Y1587610D01*
X2649528Y1602138D01*
Y1617862D01*
X2643510Y1632390D01*
X2642434Y1633466D01*
X2644347Y1638086D01*
X2675653D01*
X2677566Y1633466D01*
X2676490Y1632390D01*
X2670472Y1617862D01*
Y1602138D01*
X2676490Y1587610D01*
X2687610Y1576490D01*
X2702137Y1570473D01*
X2717863D01*
X2732390Y1576490D01*
X2743510Y1587610D01*
X2749528Y1602138D01*
Y1617862D01*
X2743510Y1632390D01*
X2742434Y1633466D01*
X2744347Y1638086D01*
X2775653D01*
X2777566Y1633466D01*
X2776490Y1632390D01*
X2770472Y1617862D01*
Y1602138D01*
X2776490Y1587610D01*
X2787610Y1576490D01*
X2802137Y1570473D01*
X2817863D01*
X2832390Y1576490D01*
X2843510Y1587610D01*
X2849528Y1602138D01*
Y1617862D01*
X2843510Y1632390D01*
X2842434Y1633466D01*
X2844347Y1638086D01*
X2970472D01*
Y1632138D01*
X2976490Y1617610D01*
X2987610Y1606490D01*
X3002137Y1600473D01*
X3017863D01*
X3032390Y1606490D01*
X3043510Y1617610D01*
X3049528Y1632138D01*
Y1647862D01*
X3043510Y1662390D01*
X3032390Y1673510D01*
X3017863Y1679527D01*
X3002137D01*
X2987610Y1673510D01*
X2987428Y1673328D01*
X2981051Y1675969D01*
X2838941D01*
X2836870Y1680969D01*
X2843510Y1687610D01*
X2849528Y1702138D01*
Y1717862D01*
X2843510Y1732390D01*
X2832390Y1743510D01*
X2817863Y1749527D01*
X2802137D01*
X2787610Y1743510D01*
X2776490Y1732390D01*
X2770472Y1717862D01*
Y1702138D01*
X2776490Y1687610D01*
X2783130Y1680969D01*
X2781059Y1675969D01*
X2738941D01*
X2736870Y1680969D01*
X2743510Y1687610D01*
X2749528Y1702138D01*
Y1717862D01*
X2743510Y1732390D01*
X2732390Y1743510D01*
X2717863Y1749527D01*
X2702137D01*
X2687610Y1743510D01*
X2676490Y1732390D01*
X2670472Y1717862D01*
Y1702138D01*
X2676490Y1687610D01*
X2683130Y1680969D01*
X2681059Y1675969D01*
X2457028D01*
X2443634Y1670422D01*
X2421311Y1648099D01*
X2417863Y1649527D01*
X2402137D01*
X2387610Y1643510D01*
X2376490Y1632390D01*
X2370472Y1617862D01*
Y1602138D01*
X2376490Y1587610D01*
X2387610Y1576490D01*
X2402137Y1570473D01*
X2417863D01*
X2432390Y1576490D01*
X2443510Y1587610D01*
X2449528Y1602138D01*
Y1617862D01*
X2448099Y1621311D01*
X2464874Y1638086D01*
X2475653D01*
X2477566Y1633466D01*
X2476490Y1632390D01*
X2470472Y1617862D01*
Y1602138D01*
X2471901Y1598689D01*
X2443634Y1570421D01*
X2438086Y1557028D01*
Y1544348D01*
X2433466Y1542434D01*
X2432390Y1543510D01*
X2417863Y1549527D01*
X2402137D01*
X2387610Y1543510D01*
X2376490Y1532390D01*
X2370472Y1517862D01*
Y1502138D01*
X2371901Y1498689D01*
X2292154Y1418942D01*
X2140000D01*
X2126606Y1413394D01*
X2090602Y1377390D01*
X2088161Y1371496D01*
X2013504D01*
Y1342487D01*
X2001757Y1330740D01*
X1995350Y1329465D01*
X1983773Y1321730D01*
X1956061Y1294018D01*
X1951442Y1295932D01*
Y1358147D01*
X2070421Y1477127D01*
X2073198Y1483830D01*
X2079096Y1485004D01*
X2087610Y1476490D01*
X2102137Y1470473D01*
X2117863D01*
X2132390Y1476490D01*
X2143510Y1487610D01*
X2149528Y1502138D01*
Y1517862D01*
X2143510Y1532390D01*
X2132390Y1543510D01*
X2117863Y1549527D01*
X2102137D01*
X2087610Y1543510D01*
X2080970Y1536870D01*
X2075970Y1538941D01*
Y1581059D01*
X2080970Y1583130D01*
X2087610Y1576490D01*
X2102137Y1570473D01*
X2117863D01*
X2132390Y1576490D01*
X2143510Y1587610D01*
X2149528Y1602138D01*
Y1617862D01*
X2143510Y1632390D01*
X2132390Y1643510D01*
X2117863Y1649527D01*
X2102137D01*
X2087610Y1643510D01*
X2079096Y1634996D01*
X2073198Y1636170D01*
X2070421Y1642873D01*
X2042873Y1670421D01*
X2029479Y1675969D01*
X1972681D01*
X1838942Y1809708D01*
Y2294962D01*
X1839826Y2295328D01*
X1849672Y2305174D01*
X1855000Y2318038D01*
Y2331962D01*
X1849672Y2344826D01*
X1839826Y2354672D01*
X1826962Y2360000D01*
X1813038D01*
X1800174Y2354672D01*
X1790328Y2344826D01*
X1785000Y2331962D01*
Y2318038D01*
X1790328Y2305174D01*
X1800174Y2295328D01*
X1801058Y2294962D01*
Y1818770D01*
X1796439Y1816856D01*
X1748942Y1864353D01*
Y2288314D01*
X1756332Y2291375D01*
X1766177Y2301220D01*
X1771506Y2314084D01*
Y2328008D01*
X1766177Y2340872D01*
X1756332Y2350718D01*
X1743467Y2356046D01*
X1729544D01*
X1716680Y2350718D01*
X1716061Y2350099D01*
X1711442Y2352013D01*
Y2424654D01*
X1817154Y2530366D01*
X1818038Y2530000D01*
X1831962D01*
X1844826Y2535328D01*
X1854672Y2545174D01*
X1860000Y2558038D01*
Y2571962D01*
X1854672Y2584826D01*
X1844826Y2594672D01*
X1831962Y2600000D01*
X1818038D01*
X1805174Y2594672D01*
X1795328Y2584826D01*
X1790000Y2571962D01*
Y2558038D01*
X1790366Y2557154D01*
X1691061Y2457849D01*
X1686442Y2459763D01*
Y2494654D01*
X1727154Y2535366D01*
X1728038Y2535000D01*
X1741962D01*
X1754826Y2540328D01*
X1764672Y2550174D01*
X1770000Y2563038D01*
Y2576962D01*
X1764672Y2589826D01*
X1754826Y2599672D01*
X1741962Y2605000D01*
X1728038D01*
X1715174Y2599672D01*
X1705328Y2589826D01*
X1700000Y2576962D01*
Y2563038D01*
X1700366Y2562154D01*
X1654106Y2515894D01*
X1648558Y2502500D01*
Y2357576D01*
X1643558Y2355301D01*
X1631962Y2360104D01*
X1618038D01*
X1605174Y2354776D01*
X1595328Y2344930D01*
X1590000Y2332066D01*
Y2318142D01*
X1595328Y2305278D01*
X1605174Y2295432D01*
X1606058Y2295066D01*
Y1661507D01*
X1609298Y1653685D01*
X1606520Y1649527D01*
X1602138D01*
X1587610Y1643510D01*
X1583561Y1639462D01*
X1578942Y1641375D01*
Y2539444D01*
X1584672Y2545174D01*
X1590000Y2558038D01*
Y2571962D01*
X1584672Y2584826D01*
X1574826Y2594672D01*
X1561962Y2600000D01*
X1548038D01*
X1535174Y2594672D01*
X1525328Y2584826D01*
X1520000Y2571962D01*
Y2558038D01*
X1525328Y2545174D01*
X1535174Y2535328D01*
X1541058Y2532891D01*
Y1641375D01*
X1536439Y1639462D01*
X1532390Y1643510D01*
X1517862Y1649527D01*
X1502138D01*
X1487610Y1643510D01*
X1476490Y1632390D01*
X1470473Y1617862D01*
Y1602138D01*
X1476490Y1587610D01*
X1487610Y1576490D01*
X1502138Y1570473D01*
X1517862D01*
X1532390Y1576490D01*
X1536439Y1580538D01*
X1541058Y1578625D01*
Y1541375D01*
X1536439Y1539462D01*
X1532390Y1543510D01*
X1517862Y1549527D01*
X1502138D01*
X1487610Y1543510D01*
X1476490Y1532390D01*
X1470473Y1517862D01*
Y1502138D01*
X1476490Y1487610D01*
X1487610Y1476490D01*
X1502138Y1470473D01*
X1517862D01*
X1532390Y1476490D01*
X1536439Y1480538D01*
X1541058Y1478625D01*
Y1352126D01*
X1536154Y1351150D01*
X1535179Y1353506D01*
X1523506Y1365179D01*
X1518942Y1367069D01*
Y1420000D01*
X1513394Y1433394D01*
X1448099Y1498689D01*
X1449527Y1502138D01*
Y1517862D01*
X1443510Y1532390D01*
X1432390Y1543510D01*
X1417862Y1549527D01*
X1402138D01*
X1387610Y1543510D01*
X1380969Y1536870D01*
X1375969Y1538941D01*
Y1549182D01*
X1398689Y1571901D01*
X1402138Y1570473D01*
X1417862D01*
X1432390Y1576490D01*
X1443510Y1587610D01*
X1449527Y1602138D01*
Y1617862D01*
X1443510Y1632390D01*
X1432390Y1643510D01*
X1417862Y1649527D01*
X1402138D01*
X1387610Y1643510D01*
X1376490Y1632390D01*
X1370473Y1617862D01*
Y1602138D01*
X1371901Y1598689D01*
X1343634Y1570421D01*
X1338086Y1557028D01*
Y1544348D01*
X1333466Y1542434D01*
X1332390Y1543510D01*
X1317862Y1549527D01*
X1302138D01*
X1287610Y1543510D01*
X1276490Y1532390D01*
X1270473Y1517862D01*
Y1502138D01*
X1276490Y1487610D01*
X1287610Y1476490D01*
X1302138Y1470473D01*
X1317862D01*
X1324266Y1473125D01*
X1327098Y1468886D01*
X1235602Y1377390D01*
X1233161Y1371496D01*
X1158504D01*
Y1288504D01*
X1224645D01*
X1226716Y1283504D01*
X1212818Y1269606D01*
X1208254Y1271496D01*
X1191746D01*
X1176494Y1265179D01*
X1164821Y1253506D01*
X1158504Y1238254D01*
Y1221746D01*
X1164821Y1206494D01*
X1176494Y1194821D01*
X1191746Y1188504D01*
X1208254D01*
X1223506Y1194821D01*
X1235179Y1206494D01*
X1241496Y1221746D01*
Y1238254D01*
X1239606Y1242818D01*
X1262390Y1265602D01*
X1267938Y1278996D01*
Y1296845D01*
X1272557Y1298758D01*
X1276494Y1294821D01*
X1291746Y1288504D01*
X1308254D01*
X1323506Y1294821D01*
X1335179Y1306494D01*
X1341496Y1321746D01*
Y1338254D01*
X1335179Y1353506D01*
X1323506Y1365179D01*
X1308254Y1371496D01*
X1291746D01*
X1289139Y1370416D01*
X1286361Y1374574D01*
X1370421Y1458634D01*
X1375969Y1472028D01*
Y1481059D01*
X1380969Y1483130D01*
X1387610Y1476490D01*
X1402138Y1470473D01*
X1417862D01*
X1421311Y1471901D01*
X1481058Y1412154D01*
Y1367069D01*
X1476494Y1365179D01*
X1464821Y1353506D01*
X1458504Y1338254D01*
Y1321746D01*
X1464821Y1306494D01*
X1476494Y1294821D01*
X1491746Y1288504D01*
X1508254D01*
X1523506Y1294821D01*
X1535179Y1306494D01*
X1536154Y1308850D01*
X1541058Y1307874D01*
Y1228555D01*
X1336606Y1024103D01*
X1331058Y1010709D01*
Y647846D01*
X1272422Y589210D01*
X1265000Y590686D01*
X1251344Y587969D01*
X1239766Y580234D01*
X1232031Y568656D01*
X1229314Y555000D01*
Y545000D01*
X1232031Y531344D01*
X1239510Y520150D01*
Y450916D01*
X1236502Y448906D01*
X1227766Y435832D01*
X1224698Y420409D01*
Y400723D01*
X1227766Y385300D01*
X1236502Y372226D01*
X1249577Y363489D01*
X1265000Y360421D01*
X1280423Y363489D01*
X1293498Y372226D01*
X1302234Y385300D01*
X1305302Y400723D01*
Y420409D01*
X1302234Y435832D01*
X1293498Y448906D01*
X1290490Y450916D01*
Y520150D01*
X1297969Y531344D01*
X1300686Y545000D01*
Y555000D01*
X1299209Y562422D01*
X1363394Y626606D01*
X1368942Y640000D01*
Y1002863D01*
X1573394Y1207315D01*
X1578942Y1220709D01*
Y1478625D01*
X1583561Y1480538D01*
X1587610Y1476490D01*
X1602138Y1470473D01*
X1617862D01*
X1632390Y1476490D01*
X1633466Y1477566D01*
X1638086Y1475652D01*
Y714874D01*
X1512422Y589209D01*
X1505000Y590686D01*
X1491344Y587969D01*
X1479766Y580234D01*
X1472031Y568656D01*
X1469314Y555000D01*
Y545000D01*
X1472031Y531344D01*
X1479766Y519766D01*
X1480344Y519380D01*
Y450360D01*
X1478168Y448906D01*
X1469432Y435832D01*
X1466364Y420409D01*
Y400723D01*
X1469432Y385300D01*
X1478168Y372226D01*
X1491243Y363489D01*
X1506666Y360421D01*
X1522089Y363489D01*
X1535164Y372226D01*
X1543900Y385300D01*
X1546968Y400723D01*
Y420409D01*
X1543900Y435832D01*
X1535164Y448906D01*
X1531324Y451472D01*
Y521398D01*
X1537969Y531344D01*
X1540686Y545000D01*
Y555000D01*
X1539209Y562422D01*
X1670422Y693634D01*
X1675969Y707028D01*
Y1481059D01*
X1680969Y1483130D01*
X1687610Y1476490D01*
X1702138Y1470473D01*
X1717862D01*
X1732390Y1476490D01*
X1738733Y1482832D01*
X1744838Y1481867D01*
X1783758Y1442947D01*
Y842472D01*
X1778758Y840197D01*
X1767162Y845000D01*
X1753238D01*
X1740374Y839672D01*
X1730528Y829826D01*
X1725200Y816962D01*
Y803268D01*
X1724510Y799800D01*
Y679850D01*
X1717031Y668656D01*
X1714314Y655000D01*
Y645000D01*
X1717031Y631344D01*
X1724766Y619766D01*
X1736344Y612031D01*
X1750000Y609314D01*
X1763656Y612031D01*
X1775234Y619766D01*
X1778758Y625041D01*
X1783758Y623524D01*
Y615546D01*
X1757422Y589210D01*
X1750000Y590686D01*
X1736344Y587969D01*
X1724766Y580234D01*
X1717031Y568656D01*
X1714314Y555000D01*
Y545000D01*
X1717031Y531344D01*
X1723676Y521398D01*
Y451472D01*
X1719836Y448906D01*
X1711100Y435832D01*
X1708032Y420409D01*
Y400723D01*
X1711100Y385300D01*
X1719836Y372226D01*
X1732911Y363489D01*
X1748334Y360421D01*
X1763757Y363489D01*
X1776832Y372226D01*
X1785568Y385300D01*
X1788636Y400723D01*
Y420409D01*
X1785568Y435832D01*
X1776832Y448906D01*
X1774656Y450360D01*
Y519380D01*
X1775234Y519766D01*
X1782969Y531344D01*
X1785686Y545000D01*
Y555000D01*
X1784209Y562422D01*
X1816094Y594306D01*
X1821642Y607700D01*
Y1450793D01*
X1816094Y1464187D01*
X1814428Y1465853D01*
X1816341Y1470473D01*
X1817862D01*
X1832390Y1476490D01*
X1833466Y1477566D01*
X1838086Y1475652D01*
Y687972D01*
X1843634Y674578D01*
X1955791Y562422D01*
X1954314Y555000D01*
Y545000D01*
X1957031Y531344D01*
X1964510Y520150D01*
Y450916D01*
X1961502Y448906D01*
X1952766Y435832D01*
X1949698Y420409D01*
Y400723D01*
X1952766Y385300D01*
X1961502Y372226D01*
X1974577Y363489D01*
X1990000Y360421D01*
X2005423Y363489D01*
X2018498Y372226D01*
X2027234Y385300D01*
X2030302Y400723D01*
Y420409D01*
X2027234Y435832D01*
X2018498Y448906D01*
X2015490Y450916D01*
Y520150D01*
X2022969Y531344D01*
X2025686Y545000D01*
Y555000D01*
X2022969Y568656D01*
X2015234Y580234D01*
X2003656Y587969D01*
X1990000Y590686D01*
X1982578Y589210D01*
X1875969Y695818D01*
Y1481059D01*
X1880969Y1483130D01*
X1887610Y1476490D01*
X1902138Y1470473D01*
X1917862D01*
X1930711Y1475795D01*
X1935220Y1473977D01*
X1936135Y1473164D01*
X1936438Y1471033D01*
X1894106Y1428701D01*
X1888558Y1415307D01*
Y1102552D01*
X1894106Y1089158D01*
X2008558Y974706D01*
Y842472D01*
X2003558Y840197D01*
X1991962Y845000D01*
X1978038D01*
X1965174Y839672D01*
X1955328Y829826D01*
X1950000Y816962D01*
Y803038D01*
X1955328Y790174D01*
X1962010Y783492D01*
Y676109D01*
X1957031Y668656D01*
X1954314Y655000D01*
Y645000D01*
X1957031Y631344D01*
X1964766Y619766D01*
X1976344Y612031D01*
X1990000Y609314D01*
X2003656Y612031D01*
X2015234Y619766D01*
X2022969Y631344D01*
X2025686Y645000D01*
Y655000D01*
X2022969Y668656D01*
X2015234Y680234D01*
X2012990Y681733D01*
Y758151D01*
X2017990Y760222D01*
X2215791Y562422D01*
X2214314Y555000D01*
Y545000D01*
X2217031Y531344D01*
X2224510Y520150D01*
Y445978D01*
X2213153Y434621D01*
X2206535Y418646D01*
Y401354D01*
X2213153Y385379D01*
X2225379Y373153D01*
X2241354Y366536D01*
X2258646D01*
X2274621Y373153D01*
X2286847Y385379D01*
X2293465Y401354D01*
Y418646D01*
X2286847Y434621D01*
X2275490Y445978D01*
Y520150D01*
X2282969Y531344D01*
X2285686Y545000D01*
Y555000D01*
X2282969Y568656D01*
X2275234Y580234D01*
X2263656Y587969D01*
X2250000Y590686D01*
X2242578Y589210D01*
X2046442Y785346D01*
Y982552D01*
X2040894Y995946D01*
X1981579Y1055262D01*
X1984411Y1059500D01*
X1986685Y1058558D01*
X2304654D01*
X2391058Y972154D01*
Y622846D01*
X2357422Y589210D01*
X2350000Y590686D01*
X2336344Y587969D01*
X2324766Y580234D01*
X2317031Y568656D01*
X2314314Y555000D01*
Y545000D01*
X2317031Y531344D01*
X2324510Y520150D01*
Y445978D01*
X2313153Y434621D01*
X2306535Y418646D01*
Y401354D01*
X2313153Y385379D01*
X2325379Y373153D01*
X2341354Y366536D01*
X2358646D01*
X2374621Y373153D01*
X2386847Y385379D01*
X2393465Y401354D01*
Y418646D01*
X2386847Y434621D01*
X2375490Y445978D01*
Y520150D01*
X2382969Y531344D01*
X2385686Y545000D01*
Y555000D01*
X2384209Y562422D01*
X2423394Y601606D01*
X2428942Y615000D01*
Y980000D01*
X2423394Y993394D01*
X2337093Y1079695D01*
X2339006Y1084314D01*
X2645218D01*
X2759314Y970218D01*
Y755000D01*
X2762031Y741344D01*
X2769766Y729766D01*
X2863270Y636263D01*
X2874848Y628527D01*
X2883504Y626805D01*
Y621798D01*
X2872861Y617390D01*
X2824619Y569148D01*
X2820000Y571062D01*
Y576962D01*
X2814672Y589826D01*
X2804826Y599672D01*
X2791962Y605000D01*
X2778038D01*
X2765174Y599672D01*
X2755328Y589826D01*
X2754962Y588942D01*
X2750200D01*
Y600000D01*
X2680200D01*
Y558572D01*
X2675581Y556659D01*
X2671345Y560894D01*
X2657951Y566442D01*
X2630100D01*
Y600000D01*
X2560100D01*
Y560721D01*
X2559634Y560431D01*
X2555100Y559188D01*
X2535894Y578394D01*
X2522500Y583942D01*
X2510000D01*
Y600000D01*
X2440000D01*
Y530000D01*
X2510000D01*
Y545223D01*
X2515000Y545712D01*
X2527762Y532950D01*
X2529282Y529282D01*
X2550201Y508362D01*
X2548306Y503187D01*
X2522246Y496204D01*
X2497162Y481722D01*
X2476682Y461242D01*
X2462200Y436158D01*
X2454704Y408182D01*
Y379218D01*
X2462200Y351242D01*
X2476682Y326158D01*
X2497162Y305678D01*
X2522246Y291196D01*
X2550222Y283700D01*
X2579186D01*
X2607162Y291196D01*
X2632246Y305678D01*
X2652726Y326158D01*
X2667208Y351242D01*
X2674704Y379218D01*
Y408182D01*
X2667208Y436158D01*
X2652726Y461242D01*
X2632246Y481722D01*
X2622362Y487428D01*
X2623656Y492258D01*
X2651050D01*
X2681702Y461606D01*
X2695096Y456058D01*
X2845000D01*
X2858394Y461606D01*
X2910292Y513504D01*
X2966496D01*
Y585054D01*
X3053996D01*
X3055157Y585535D01*
X3059314Y582757D01*
Y194781D01*
X3005218Y140686D01*
X2393465D01*
Y153464D01*
X2306535D01*
Y145686D01*
X2293465D01*
Y153464D01*
X2206535D01*
Y142426D01*
X2029527D01*
Y152850D01*
X1950473D01*
Y139166D01*
X1787861D01*
Y152850D01*
X1708806D01*
Y139166D01*
X1546194D01*
Y152850D01*
X1467139D01*
Y139166D01*
X1304527D01*
Y152850D01*
X1225473D01*
Y141167D01*
X1220473Y139995D01*
X1206966Y153501D01*
Y634248D01*
X1204249Y647904D01*
X1196514Y659482D01*
X1147565Y708430D01*
X1164894Y725759D01*
X1170442Y739153D01*
Y835000D01*
X1181500D01*
Y885000D01*
X1121500D01*
Y835000D01*
X1132558D01*
Y746999D01*
X1116626Y731067D01*
X1103622Y733654D01*
X1082224D01*
X979961Y835917D01*
Y896000D01*
X830039D01*
Y785448D01*
X869314D01*
Y570724D01*
X872031Y557068D01*
X876299Y550679D01*
Y515448D01*
X924270D01*
X926184Y510829D01*
X910845Y495490D01*
X820558D01*
X785490Y530558D01*
Y616590D01*
X783549Y626345D01*
X778024Y634614D01*
X718822Y693816D01*
X718396Y696590D01*
X718822Y699364D01*
X739524Y720066D01*
X745049Y728336D01*
X746990Y738090D01*
Y835000D01*
X751500D01*
Y885000D01*
X746990D01*
Y1084952D01*
X745049Y1094707D01*
X739524Y1102976D01*
X416317Y1426184D01*
Y1605472D01*
X430354D01*
Y1684526D01*
X362741D01*
Y2315954D01*
X635818Y2589030D01*
X709479D01*
X722873Y2594579D01*
X769353Y2641058D01*
X878625D01*
X880538Y2636439D01*
X876490Y2632390D01*
X870472Y2617863D01*
Y2602137D01*
X876490Y2587610D01*
X887610Y2576490D01*
X890257Y2575394D01*
X889281Y2570490D01*
X785398D01*
X775643Y2568550D01*
X767374Y2563024D01*
X698877Y2494528D01*
X650472D01*
Y2415472D01*
X729528D01*
Y2453082D01*
X795956Y2519510D01*
X1405000D01*
X1414755Y2521450D01*
X1423024Y2526976D01*
X1660558Y2764510D01*
X2467114D01*
X2476868Y2766450D01*
X2485138Y2771976D01*
X2683634Y2970472D01*
X2749528D01*
Y2974314D01*
X2770472D01*
Y2970472D01*
X2849528D01*
Y2974314D01*
X2995218D01*
X3059314Y2910218D01*
D02*
G37*
G36*
X1042208Y672734D02*
X1053786Y664999D01*
X1067442Y662282D01*
X1092778D01*
X1135594Y619466D01*
Y449754D01*
X1135000Y445000D01*
X1130564Y440564D01*
X927193D01*
X926701Y445564D01*
X931157Y446450D01*
X939427Y451976D01*
X1002899Y515448D01*
X1024253D01*
Y550679D01*
X1028521Y557068D01*
X1031238Y570724D01*
X1030686Y573499D01*
Y660000D01*
X1030000Y663447D01*
Y666962D01*
X1028655Y670209D01*
X1027969Y673656D01*
X1026017Y676579D01*
X1024672Y679826D01*
X1022186Y682311D01*
X1020234Y685234D01*
X1017311Y687186D01*
X1014826Y689672D01*
X1011579Y691017D01*
X1008656Y692969D01*
X1005209Y693655D01*
X1001962Y695000D01*
X998447D01*
X995000Y695686D01*
X991553Y695000D01*
X988038D01*
X984791Y693655D01*
X981344Y692969D01*
X978421Y691017D01*
X975174Y689672D01*
X972689Y687186D01*
X969766Y685234D01*
X967814Y682311D01*
X965328Y679826D01*
X963983Y676579D01*
X962031Y673656D01*
X961345Y670209D01*
X960000Y666962D01*
Y663447D01*
X959314Y660000D01*
Y571276D01*
X962031Y557620D01*
X966414Y551059D01*
X938320Y522965D01*
X933701Y524879D01*
Y550679D01*
X937969Y557068D01*
X940686Y570724D01*
Y767724D01*
X945305Y769638D01*
X1042208Y672734D01*
D02*
G37*
G36*
X1097084Y416874D02*
X1094864Y414654D01*
Y414580D01*
Y414432D01*
Y414210D01*
Y413914D01*
Y413544D01*
Y413026D01*
X1094938Y411916D01*
Y410584D01*
X1095012Y409030D01*
X1095086Y407328D01*
X1095160Y405478D01*
X1089832Y403554D01*
Y406070D01*
X1078140D01*
Y403998D01*
X1072590Y402740D01*
Y402814D01*
Y402962D01*
Y403184D01*
X1072664Y403554D01*
Y403998D01*
Y404516D01*
X1072738Y405700D01*
X1072812Y407032D01*
Y408512D01*
X1072886Y410066D01*
Y411546D01*
Y411620D01*
Y411694D01*
Y411916D01*
Y412212D01*
Y412582D01*
Y413026D01*
Y414136D01*
X1072812Y415468D01*
X1072738Y417022D01*
X1072664Y418798D01*
X1072590Y420648D01*
X1077622Y418428D01*
X1089980D01*
X1092422Y420944D01*
X1097084Y416874D01*
D02*
G37*
G36*
X1000884Y425458D02*
X1001402Y425310D01*
X1002068Y425088D01*
X1002882Y424792D01*
X1003770Y424496D01*
X1004806Y424126D01*
X1005842Y423756D01*
X1007988Y422942D01*
X1009024Y422572D01*
X1009986Y422128D01*
X1010874Y421684D01*
X1011688Y421240D01*
X1012354Y420870D01*
X1012798Y420500D01*
X1012872Y420426D01*
X1013168Y420204D01*
X1013464Y419760D01*
X1013908Y419242D01*
X1014278Y418650D01*
X1014648Y417910D01*
X1014870Y417170D01*
X1014944Y416356D01*
Y416282D01*
Y416208D01*
X1014870Y415912D01*
Y415616D01*
X1014722Y415172D01*
X1014574Y414654D01*
X1014426Y414062D01*
X1014130Y413322D01*
Y413248D01*
X1013982Y413026D01*
X1013834Y412656D01*
X1013538Y412286D01*
X1013242Y411916D01*
X1012946Y411546D01*
X1012502Y411324D01*
X1012058Y411250D01*
X1011984D01*
X1011836Y411324D01*
X1011540Y411398D01*
X1011170Y411620D01*
X1010800Y411916D01*
X1010282Y412434D01*
X1009764Y413100D01*
X1009172Y414062D01*
Y414136D01*
X1009098Y414210D01*
X1008950Y414432D01*
X1008728Y414728D01*
X1008432Y415098D01*
X1008136Y415542D01*
X1007692Y416060D01*
X1007174Y416652D01*
X1006582Y417318D01*
X1005916Y418058D01*
X1005102Y418872D01*
X1004214Y419760D01*
X1003178Y420648D01*
X1002068Y421684D01*
X1000810Y422720D01*
X999478Y423830D01*
X1000440Y425606D01*
X1000588D01*
X1000884Y425458D01*
D02*
G37*
G36*
X926958Y419538D02*
X927254Y419316D01*
X927698Y419020D01*
X928216Y418650D01*
X928882Y418132D01*
X929622Y417614D01*
X931324Y416282D01*
X933026Y414950D01*
X933914Y414210D01*
X934654Y413544D01*
X935394Y412952D01*
X935986Y412286D01*
X936430Y411768D01*
X936800Y411324D01*
X936874Y411250D01*
X937022Y410954D01*
X937244Y410510D01*
X937540Y409992D01*
X937836Y409400D01*
X938058Y408734D01*
X938206Y407994D01*
X938280Y407328D01*
Y407254D01*
Y407180D01*
Y406958D01*
X938206Y406662D01*
X938132Y405922D01*
X937836Y404960D01*
Y404886D01*
X937762Y404738D01*
X937614Y404442D01*
X937392Y404072D01*
X937022Y403702D01*
X936578Y403258D01*
X936060Y402740D01*
X935320Y402296D01*
X935246Y402222D01*
X934580D01*
X934136Y402370D01*
X933840Y402592D01*
X933544Y402814D01*
X933248Y403110D01*
X932952Y403554D01*
X932582Y404146D01*
X932286Y404812D01*
X931916Y405552D01*
X931620Y406514D01*
Y406588D01*
X931546Y406736D01*
X931472Y406958D01*
X931324Y407328D01*
X931176Y407772D01*
X930954Y408364D01*
X930658Y409030D01*
X930362Y409696D01*
X929992Y410510D01*
X929548Y411472D01*
X929030Y412434D01*
X928438Y413470D01*
X927772Y414580D01*
X927032Y415838D01*
X926218Y417096D01*
X925330Y418428D01*
X926884Y419612D01*
X926958Y419538D01*
D02*
G37*
G36*
X971210Y415098D02*
X971062D01*
X970766Y415024D01*
X970174Y414876D01*
X969508Y414506D01*
X968546Y413988D01*
X968102Y413618D01*
X967510Y413100D01*
X966992Y412582D01*
X966326Y411990D01*
X965734Y411250D01*
X965068Y410436D01*
X964994Y410362D01*
X964846Y410214D01*
X964624Y409918D01*
X964328Y409622D01*
X963958Y409178D01*
X963440Y408660D01*
X962330Y407402D01*
X960924Y405922D01*
X959370Y404294D01*
X957594Y402592D01*
X955744Y400816D01*
X954116Y401926D01*
X954190Y402074D01*
X954412Y402370D01*
X954782Y402888D01*
X955300Y403628D01*
X955892Y404516D01*
X956558Y405552D01*
X957298Y406736D01*
X958112Y408068D01*
X958926Y409474D01*
X959740Y411028D01*
X961442Y414210D01*
X962996Y417540D01*
X963736Y419242D01*
X964328Y420944D01*
X971210Y415098D01*
D02*
G37*
G36*
X1118988Y422498D02*
X1109146D01*
Y422424D01*
Y422350D01*
Y422128D01*
Y421906D01*
Y421166D01*
Y420204D01*
Y419020D01*
Y417688D01*
Y416208D01*
X1109220Y414580D01*
Y411250D01*
X1109294Y407920D01*
Y406292D01*
X1109368Y404738D01*
Y403406D01*
X1109442Y402148D01*
X1106517Y401186D01*
X1113512D01*
X1117434Y404812D01*
X1123354Y398152D01*
X1110256D01*
Y373066D01*
Y372918D01*
Y372622D01*
X1110182Y372104D01*
X1110034Y371512D01*
X1109812Y370772D01*
X1109516Y370032D01*
X1109146Y369218D01*
X1108554Y368478D01*
X1108480Y368404D01*
X1108258Y368182D01*
X1107814Y367812D01*
X1107296Y367294D01*
X1106482Y366776D01*
X1105594Y366258D01*
X1104410Y365740D01*
X1103078Y365222D01*
Y365296D01*
Y365370D01*
X1102930Y365814D01*
X1102708Y366110D01*
X1102486Y366480D01*
X1102190Y366850D01*
X1101820Y367294D01*
X1101302Y367738D01*
X1100710Y368182D01*
X1099970Y368700D01*
X1099082Y369218D01*
X1098120Y369736D01*
X1096862Y370254D01*
X1095530Y370772D01*
X1093976Y371216D01*
Y373510D01*
X1094198D01*
X1094494Y373436D01*
X1094864D01*
X1095308Y373362D01*
X1095826Y373288D01*
X1097084Y373214D01*
X1098416Y373066D01*
X1099822Y372918D01*
X1101080Y372844D01*
X1102264Y372770D01*
X1102708D01*
X1103152Y372844D01*
X1103744Y372918D01*
X1104262Y373066D01*
X1104706Y373362D01*
X1105002Y373658D01*
X1105150Y374176D01*
Y398152D01*
X1069186D01*
X1068520Y398078D01*
X1067632D01*
X1066596Y397930D01*
X1065412Y397782D01*
X1064228Y397560D01*
X1062970Y397264D01*
X1059936Y401186D01*
X1103827D01*
X1103818Y401112D01*
Y400668D01*
Y400372D01*
Y400298D01*
X1106517Y401186D01*
X1103827D01*
X1103892Y401704D01*
Y402518D01*
Y403480D01*
X1103966Y404590D01*
Y405922D01*
Y407402D01*
X1104040Y409104D01*
Y410880D01*
Y412878D01*
X1104114Y415024D01*
Y417392D01*
Y419834D01*
Y422498D01*
X1071332D01*
X1070666Y422424D01*
X1069778D01*
X1068742Y422276D01*
X1067632Y422128D01*
X1066374Y421906D01*
X1065116Y421610D01*
X1062156Y425532D01*
X1109664D01*
X1113290Y428936D01*
X1118988Y422498D01*
D02*
G37*
G36*
X994298Y412360D02*
X994668Y412286D01*
X995186Y412064D01*
X995926Y411768D01*
X996814Y411472D01*
X997776Y411102D01*
X998886Y410658D01*
X999996Y410214D01*
X1002216Y409252D01*
X1003252Y408734D01*
X1004288Y408216D01*
X1005176Y407772D01*
X1005916Y407254D01*
X1006508Y406810D01*
X1006878Y406440D01*
X1006952Y406366D01*
X1007100Y406144D01*
X1007322Y405700D01*
X1007618Y405256D01*
X1007914Y404664D01*
X1008136Y404072D01*
X1008284Y403332D01*
X1008358Y402666D01*
Y402592D01*
Y402370D01*
X1008284Y402074D01*
Y401704D01*
X1008136Y401186D01*
X1007988Y400594D01*
X1007840Y400002D01*
X1007544Y399336D01*
Y399262D01*
X1007396Y399040D01*
X1007248Y398744D01*
X1007026Y398448D01*
X1006730Y398152D01*
X1006434Y397856D01*
X1006064Y397634D01*
X1005694Y397560D01*
X1005620D01*
X1005398Y397634D01*
X1005102Y397708D01*
X1004732Y397930D01*
X1004214Y398374D01*
X1003696Y398892D01*
X1003104Y399706D01*
X1002808Y400150D01*
X1002512Y400742D01*
Y400816D01*
X1002438Y400890D01*
X1002290Y401112D01*
X1002068Y401408D01*
X1001772Y401852D01*
X1001402Y402296D01*
X1000958Y402814D01*
X1000514Y403406D01*
X999922Y404146D01*
X999256Y404886D01*
X998442Y405700D01*
X997628Y406588D01*
X996666Y407550D01*
X995630Y408512D01*
X994446Y409622D01*
X993188Y410732D01*
X994150Y412434D01*
X994298Y412360D01*
D02*
G37*
G36*
X1097380Y391048D02*
X1094864Y388828D01*
Y388754D01*
Y388458D01*
Y388088D01*
Y387496D01*
Y386830D01*
Y386090D01*
Y385276D01*
X1094938Y384314D01*
Y382390D01*
X1095012Y380392D01*
X1095086Y378394D01*
Y377506D01*
X1095160Y376692D01*
X1089832Y374842D01*
Y379504D01*
X1076216D01*
Y375878D01*
X1070666Y373954D01*
Y374028D01*
Y374176D01*
Y374546D01*
X1070740Y374916D01*
Y375434D01*
Y376026D01*
X1070814Y376692D01*
Y377432D01*
X1070888Y379060D01*
Y380836D01*
X1070962Y382686D01*
Y384536D01*
Y384610D01*
Y384758D01*
Y385054D01*
Y385424D01*
Y385868D01*
Y386386D01*
Y386978D01*
Y387718D01*
X1070888Y389272D01*
X1070814Y391048D01*
X1070740Y393046D01*
X1070666Y395118D01*
X1075698Y392898D01*
X1089684D01*
X1092126Y395414D01*
X1097380Y391048D01*
D02*
G37*
G36*
X1028412Y426272D02*
X1025600Y423904D01*
Y423830D01*
Y423534D01*
Y423090D01*
Y422424D01*
X1025526Y421684D01*
Y420870D01*
X1025452Y419834D01*
Y418798D01*
X1025378Y416504D01*
X1025304Y413988D01*
X1025156Y411472D01*
X1025082Y409030D01*
Y408956D01*
Y408734D01*
Y408438D01*
X1025008Y407920D01*
Y407328D01*
X1024934Y406662D01*
X1024860Y405848D01*
Y404960D01*
X1024786Y403924D01*
X1024712Y402814D01*
X1024564Y401630D01*
X1024490Y400372D01*
X1024268Y397634D01*
X1023972Y394600D01*
X1039068D01*
X1044100Y399336D01*
X1051130Y391566D01*
X1023528D01*
Y391492D01*
X1023454Y391270D01*
X1023380Y390900D01*
X1023232Y390456D01*
X1023010Y389864D01*
X1022714Y389198D01*
X1022048Y387718D01*
X1022122D01*
X1022196Y387644D01*
X1022640Y387496D01*
X1023306Y387200D01*
X1024268Y386830D01*
X1025378Y386312D01*
X1026710Y385794D01*
X1028116Y385202D01*
X1029670Y384536D01*
X1031224Y383870D01*
X1032926Y383130D01*
X1036256Y381650D01*
X1037810Y380910D01*
X1039364Y380244D01*
X1040770Y379578D01*
X1042102Y378912D01*
X1042176D01*
X1042398Y378764D01*
X1042694Y378616D01*
X1043138Y378320D01*
X1043656Y378024D01*
X1044174Y377654D01*
X1045358Y376766D01*
X1046542Y375582D01*
X1047060Y374990D01*
X1047578Y374324D01*
X1047948Y373584D01*
X1048244Y372844D01*
X1048466Y372030D01*
Y371216D01*
Y371142D01*
Y370994D01*
Y370772D01*
X1048392Y370550D01*
X1048318Y369810D01*
X1048170Y368996D01*
X1047874Y368108D01*
X1047504Y367442D01*
X1047208Y367146D01*
X1046912Y366924D01*
X1046616Y366776D01*
X1046246Y366702D01*
X1046172D01*
X1045950Y366776D01*
X1045654Y366850D01*
X1045210Y367146D01*
X1044618Y367516D01*
X1043878Y368108D01*
X1043064Y368922D01*
X1042620Y369366D01*
X1042102Y369958D01*
X1042028Y370032D01*
X1041880Y370254D01*
X1041584Y370550D01*
X1041066Y370994D01*
X1040474Y371586D01*
X1039734Y372326D01*
X1038772Y373140D01*
X1037662Y374028D01*
X1036330Y375138D01*
X1034850Y376248D01*
X1033148Y377506D01*
X1031224Y378838D01*
X1029078Y380318D01*
X1026636Y381872D01*
X1023972Y383500D01*
X1021086Y385202D01*
X1021012Y385128D01*
X1020864Y384832D01*
X1020642Y384388D01*
X1020272Y383796D01*
X1019828Y383056D01*
X1019236Y382168D01*
X1018570Y381280D01*
X1017756Y380244D01*
X1016942Y379208D01*
X1015906Y378098D01*
X1014870Y376988D01*
X1013686Y375878D01*
X1012428Y374842D01*
X1011022Y373806D01*
X1009542Y372844D01*
X1007988Y371956D01*
X1007914Y371882D01*
X1007618Y371734D01*
X1007100Y371512D01*
X1006434Y371216D01*
X1005620Y370846D01*
X1004658Y370402D01*
X1003548Y369958D01*
X1002290Y369440D01*
X1000884Y368848D01*
X999330Y368330D01*
X997702Y367738D01*
X995926Y367146D01*
X994076Y366554D01*
X992078Y366036D01*
X990080Y365518D01*
X987934Y365000D01*
X987416Y367294D01*
X987564Y367368D01*
X987934Y367442D01*
X988600Y367664D01*
X989414Y367960D01*
X990524Y368330D01*
X991708Y368774D01*
X993040Y369292D01*
X994520Y369884D01*
X996074Y370476D01*
X997628Y371216D01*
X1001032Y372770D01*
X1004288Y374620D01*
X1005916Y375582D01*
X1007396Y376618D01*
X1007470Y376692D01*
X1007766Y376914D01*
X1008136Y377210D01*
X1008654Y377654D01*
X1009320Y378246D01*
X1009986Y378912D01*
X1010800Y379652D01*
X1011688Y380614D01*
X1012502Y381650D01*
X1013464Y382760D01*
X1014352Y383944D01*
X1015240Y385276D01*
X1016054Y386756D01*
X1016794Y388236D01*
X1017534Y389864D01*
X1018126Y391566D01*
X996888D01*
X996222Y391492D01*
X995334D01*
X994298Y391344D01*
X993114Y391196D01*
X991930Y390974D01*
X990672Y390678D01*
X987712Y394600D01*
X1018496D01*
Y394674D01*
X1018570Y394970D01*
Y395414D01*
X1018644Y396080D01*
X1018718Y396894D01*
X1018866Y397856D01*
X1018940Y398892D01*
X1019014Y400150D01*
X1019162Y401482D01*
X1019236Y402962D01*
X1019310Y404516D01*
X1019384Y406144D01*
X1019458Y407920D01*
X1019532Y409696D01*
X1019606Y413544D01*
Y413692D01*
Y413988D01*
Y414580D01*
Y415320D01*
Y416208D01*
X1019680Y417244D01*
Y418354D01*
Y419612D01*
Y420944D01*
Y422350D01*
X1019754Y425162D01*
Y427974D01*
Y429306D01*
Y430564D01*
X1028412Y426272D01*
D02*
G37*
G36*
X975872Y422276D02*
X950342D01*
Y400594D01*
X969286D01*
X973726Y404738D01*
X980238Y397560D01*
X950342D01*
Y380984D01*
Y380910D01*
Y380688D01*
Y380392D01*
Y379948D01*
Y379356D01*
Y378690D01*
Y377950D01*
X950416Y377136D01*
Y375212D01*
X950490Y373140D01*
X950564Y370846D01*
X950638Y368552D01*
X944496Y366332D01*
Y366406D01*
Y366776D01*
Y367220D01*
X944570Y367886D01*
Y368700D01*
Y369588D01*
X944644Y370698D01*
Y371808D01*
Y373066D01*
X944718Y374324D01*
Y376988D01*
X944792Y379726D01*
Y382390D01*
Y397560D01*
X923554D01*
X922888Y397486D01*
X922000D01*
X920964Y397338D01*
X919780Y397190D01*
X918596Y396968D01*
X917338Y396672D01*
X914378Y400594D01*
X944792D01*
Y422276D01*
X929622D01*
X928956Y422202D01*
X928068D01*
X927032Y422054D01*
X925848Y421906D01*
X924590Y421684D01*
X923332Y421388D01*
X920372Y425310D01*
X965438D01*
X969656Y429232D01*
X975872Y422276D01*
D02*
G37*
G36*
X832682Y331092D02*
X830462Y328872D01*
Y292464D01*
Y292390D01*
Y292094D01*
Y291650D01*
Y291058D01*
Y290318D01*
Y289430D01*
Y288542D01*
X830536Y287580D01*
Y285508D01*
X830610Y283436D01*
Y282474D01*
X830684Y281512D01*
Y280698D01*
X830758Y279958D01*
X825430Y278108D01*
Y285434D01*
X806930D01*
Y279662D01*
X801602Y277812D01*
Y277886D01*
Y278182D01*
Y278552D01*
X801676Y279218D01*
Y280032D01*
Y281142D01*
X801750Y282400D01*
Y283954D01*
Y285730D01*
X801824Y287802D01*
Y288986D01*
Y290170D01*
Y291502D01*
Y292834D01*
X801898Y294240D01*
Y295794D01*
Y297422D01*
Y299050D01*
Y300826D01*
Y302676D01*
Y304674D01*
Y306672D01*
Y306746D01*
Y306894D01*
Y307264D01*
Y307634D01*
Y308152D01*
Y308744D01*
Y309484D01*
Y310224D01*
Y311112D01*
Y312000D01*
Y313998D01*
Y316218D01*
Y318586D01*
X801824Y323396D01*
Y325764D01*
X801750Y328058D01*
Y330204D01*
X801676Y332128D01*
Y333016D01*
Y333830D01*
X801602Y334496D01*
Y335162D01*
X806412Y332350D01*
X825504D01*
X827650Y335162D01*
X832682Y331092D01*
D02*
G37*
G36*
X743438Y337308D02*
X740922Y334274D01*
Y325690D01*
X754686D01*
X757202Y328206D01*
X762308Y322212D01*
X762086D01*
X761864Y322138D01*
X761568Y322064D01*
X761198Y321916D01*
X760754Y321768D01*
X760236Y321546D01*
X759644Y321250D01*
X758978Y320880D01*
X758312Y320436D01*
X757572Y319844D01*
X756758Y319252D01*
X755944Y318438D01*
X755056Y317624D01*
X754168Y316588D01*
X753280Y315478D01*
X751504Y316514D01*
X754538Y322656D01*
X740922D01*
Y322582D01*
Y322508D01*
Y322286D01*
Y321990D01*
Y321620D01*
Y321250D01*
X740848Y320140D01*
X740774Y318882D01*
X740700Y317328D01*
X740552Y315552D01*
X740404Y313628D01*
X745880Y310520D01*
X743956Y308744D01*
Y286396D01*
Y286248D01*
X744030Y285878D01*
X744104Y285360D01*
X744252Y284768D01*
X744474Y284102D01*
X744918Y283584D01*
X745436Y283140D01*
X746176Y282918D01*
X757720D01*
X757794Y282992D01*
X758016Y283214D01*
X758238Y283436D01*
X758460Y283880D01*
X758682Y284398D01*
X758904Y285138D01*
X759052Y286100D01*
Y286248D01*
X759126Y286396D01*
Y286618D01*
Y286988D01*
X759200Y287358D01*
Y287876D01*
X759274Y288394D01*
X759348Y289060D01*
Y289800D01*
X759422Y290614D01*
Y291502D01*
Y292538D01*
X759496Y293574D01*
Y294832D01*
Y296090D01*
X762308D01*
Y296016D01*
Y295794D01*
Y295424D01*
Y294906D01*
Y294314D01*
Y293648D01*
X762382Y292168D01*
X762456Y290540D01*
X762530Y288912D01*
X762604Y288172D01*
X762678Y287506D01*
X762752Y286914D01*
X762826Y286396D01*
Y286322D01*
X762974Y286026D01*
X763122Y285582D01*
X763344Y285138D01*
X763714Y284620D01*
X764232Y284250D01*
X764824Y283880D01*
X765638Y283658D01*
Y283584D01*
X765564Y283436D01*
X765416Y283214D01*
X765268Y282844D01*
X764750Y282030D01*
X764010Y281142D01*
X763048Y280180D01*
X761864Y279366D01*
X761124Y278996D01*
X760384Y278774D01*
X759496Y278626D01*
X758608Y278552D01*
X744326D01*
X743882Y278626D01*
X742920Y278848D01*
X742328Y279070D01*
X741736Y279366D01*
X741144Y279736D01*
X740626Y280254D01*
X740108Y280846D01*
X739664Y281586D01*
X739294Y282400D01*
X739072Y283362D01*
X738924Y284546D01*
Y285878D01*
Y311556D01*
X738850Y310816D01*
X738776Y309854D01*
X738628Y308596D01*
X738480Y307190D01*
X738184Y305636D01*
X737888Y303934D01*
X737444Y302084D01*
X736926Y300160D01*
X736260Y298236D01*
X735520Y296238D01*
X734632Y294240D01*
X733522Y292316D01*
X732338Y290466D01*
X731006Y288690D01*
X730932Y288616D01*
X730636Y288320D01*
X730266Y287802D01*
X729674Y287210D01*
X728934Y286470D01*
X728046Y285582D01*
X727084Y284620D01*
X725974Y283584D01*
X724716Y282474D01*
X723384Y281364D01*
X721978Y280180D01*
X720424Y279070D01*
X718870Y277960D01*
X717168Y276924D01*
X715392Y275888D01*
X713616Y275000D01*
X712654Y276776D01*
X712802Y276850D01*
X713172Y277146D01*
X713764Y277590D01*
X714578Y278256D01*
X715614Y278996D01*
X716724Y279958D01*
X717982Y280994D01*
X719314Y282252D01*
X720720Y283584D01*
X722126Y284990D01*
X723606Y286618D01*
X725086Y288246D01*
X726418Y290022D01*
X727750Y291872D01*
X729008Y293870D01*
X730118Y295868D01*
X730192Y296016D01*
X730340Y296386D01*
X730636Y296978D01*
X731006Y297866D01*
X731376Y298902D01*
X731894Y300160D01*
X732412Y301640D01*
X732930Y303342D01*
X733448Y305192D01*
X733892Y307190D01*
X734410Y309410D01*
X734780Y311778D01*
X735150Y314294D01*
X735446Y316958D01*
X735594Y319770D01*
X735668Y322656D01*
X727232D01*
Y322508D01*
Y322212D01*
X727306Y321694D01*
X727232Y321028D01*
X727158Y320214D01*
X727010Y319400D01*
X726788Y318586D01*
X726418Y317698D01*
X726344Y317624D01*
X726196Y317328D01*
X725900Y317032D01*
X725530Y316662D01*
X725012Y316292D01*
X724272Y315922D01*
X723458Y315774D01*
X722348D01*
X722052Y315848D01*
X721608Y315996D01*
X721164Y316144D01*
X720646Y316366D01*
X720202Y316736D01*
X719906Y317106D01*
X719758Y317624D01*
Y317772D01*
X719906Y318142D01*
X720202Y318808D01*
X720424Y319178D01*
X720720Y319622D01*
X720794Y319696D01*
X720942Y319992D01*
X721238Y320362D01*
X721608Y320880D01*
X721978Y321472D01*
X722348Y322138D01*
X722644Y322804D01*
X722940Y323396D01*
Y323470D01*
X723088Y323766D01*
X723236Y324136D01*
X723384Y324802D01*
X723606Y325542D01*
X723902Y326578D01*
X724198Y327836D01*
X724568Y329242D01*
X726936D01*
X727232Y325690D01*
X735668D01*
Y325838D01*
Y326134D01*
Y326652D01*
Y327392D01*
Y328206D01*
Y329168D01*
Y330204D01*
Y331388D01*
X735594Y333756D01*
X735520Y336198D01*
Y337308D01*
X735446Y338418D01*
Y339454D01*
X735372Y340342D01*
X743438Y337308D01*
D02*
G37*
G36*
X706956Y336864D02*
X707326Y336716D01*
X707844Y336494D01*
X708436Y336198D01*
X709102Y335902D01*
X710656Y335162D01*
X712210Y334348D01*
X713616Y333460D01*
X714282Y333090D01*
X714800Y332646D01*
X715170Y332276D01*
X715466Y331906D01*
X715540Y331832D01*
X715614Y331610D01*
X715836Y331314D01*
X716058Y330870D01*
X716428Y329908D01*
X716502Y329390D01*
X716576Y328872D01*
Y328798D01*
Y328650D01*
X716502Y328428D01*
X716428Y328132D01*
X716354Y327762D01*
X716206Y327244D01*
X715910Y326726D01*
X715614Y326060D01*
X715540Y325986D01*
X715466Y325764D01*
X715244Y325468D01*
X715022Y325172D01*
X714726Y324876D01*
X714356Y324580D01*
X713986Y324358D01*
X713616Y324284D01*
X713542D01*
X713394Y324358D01*
X713172Y324432D01*
X712876Y324580D01*
X712506Y324876D01*
X712136Y325320D01*
X711766Y325912D01*
X711396Y326726D01*
Y326800D01*
X711322Y326874D01*
X711248Y327096D01*
X711100Y327318D01*
X710730Y328132D01*
X710138Y329168D01*
X709324Y330426D01*
X708288Y331980D01*
X707030Y333756D01*
X705476Y335754D01*
X706586Y337012D01*
X706660D01*
X706956Y336864D01*
D02*
G37*
G36*
X1085984Y339676D02*
X1086280Y339454D01*
X1086724Y339158D01*
X1087242Y338714D01*
X1087908Y338196D01*
X1088648Y337530D01*
X1090276Y336124D01*
X1091830Y334570D01*
X1092570Y333756D01*
X1093310Y332942D01*
X1093828Y332202D01*
X1094346Y331462D01*
X1094642Y330796D01*
X1094790Y330130D01*
Y329982D01*
Y329612D01*
Y329020D01*
X1094716Y328354D01*
X1094568Y327540D01*
X1094346Y326726D01*
X1093976Y325986D01*
X1093458Y325320D01*
X1093384Y325246D01*
X1093236Y325098D01*
X1092940Y324802D01*
X1092570Y324506D01*
X1092200Y324210D01*
X1091830Y323914D01*
X1091460Y323766D01*
X1091090Y323692D01*
X1091016D01*
X1090794Y323766D01*
X1090424Y323914D01*
X1089980Y324136D01*
X1089536Y324580D01*
X1089092Y325246D01*
X1088944Y325690D01*
X1088722Y326208D01*
X1088574Y326726D01*
X1088426Y327392D01*
Y327466D01*
X1088352Y327614D01*
Y327910D01*
X1088278Y328280D01*
X1088130Y328724D01*
X1087982Y329242D01*
X1087834Y329908D01*
X1087612Y330574D01*
X1087316Y331388D01*
X1087094Y332276D01*
X1086354Y334200D01*
X1085392Y336346D01*
X1084282Y338640D01*
X1085910Y339750D01*
X1085984Y339676D01*
D02*
G37*
G36*
X1071406Y338344D02*
X1071776Y338122D01*
X1072220Y337826D01*
X1072812Y337382D01*
X1073552Y336864D01*
X1074366Y336272D01*
X1076142Y334940D01*
X1077918Y333460D01*
X1078806Y332646D01*
X1079546Y331832D01*
X1080212Y331092D01*
X1080730Y330352D01*
X1081100Y329686D01*
X1081322Y329020D01*
Y328872D01*
X1081396Y328502D01*
Y327910D01*
Y327244D01*
X1081322Y326430D01*
X1081174Y325616D01*
X1080878Y324802D01*
X1080360Y324062D01*
X1080286Y323988D01*
X1080138Y323766D01*
X1079842Y323544D01*
X1079472Y323248D01*
X1079102Y322878D01*
X1078658Y322656D01*
X1078288Y322434D01*
X1077918Y322360D01*
X1077844D01*
X1077622Y322434D01*
X1077326Y322582D01*
X1076956Y322878D01*
X1076586Y323322D01*
X1076142Y323988D01*
X1075920Y324432D01*
X1075698Y325024D01*
X1075476Y325616D01*
X1075254Y326282D01*
Y326356D01*
X1075180Y326430D01*
X1075106Y326726D01*
X1075032Y327022D01*
X1074884Y327392D01*
X1074662Y327910D01*
X1074440Y328502D01*
X1074218Y329094D01*
X1073848Y329834D01*
X1073478Y330648D01*
X1073034Y331610D01*
X1072516Y332572D01*
X1071924Y333608D01*
X1071258Y334718D01*
X1070592Y335976D01*
X1069778Y337234D01*
X1071332Y338418D01*
X1071406Y338344D01*
D02*
G37*
G36*
X1113734Y335236D02*
X1110700Y333756D01*
X1110626Y333682D01*
X1110478Y333460D01*
X1110256Y333164D01*
X1109886Y332646D01*
X1109516Y332128D01*
X1108998Y331462D01*
X1108406Y330722D01*
X1107814Y329908D01*
X1106482Y328132D01*
X1104928Y326208D01*
X1103300Y324136D01*
X1101672Y322138D01*
X1114548D01*
X1117656Y325468D01*
X1123354Y318660D01*
X1123280D01*
X1123132Y318586D01*
X1122836D01*
X1122466Y318438D01*
X1122022Y318290D01*
X1121430Y318068D01*
X1120764Y317772D01*
X1120024Y317402D01*
X1119210Y316958D01*
X1118322Y316440D01*
X1117360Y315848D01*
X1116324Y315108D01*
X1115288Y314220D01*
X1114104Y313184D01*
X1112920Y312074D01*
X1111736Y310816D01*
X1110034Y311852D01*
X1114474Y319104D01*
X1069038D01*
Y318956D01*
X1069112Y318660D01*
X1069186Y318068D01*
X1069334Y317402D01*
X1069408Y316514D01*
Y315626D01*
Y314664D01*
X1069334Y313628D01*
Y313554D01*
X1069260Y313184D01*
X1069112Y312740D01*
X1068964Y312222D01*
X1068594Y311704D01*
X1068224Y311186D01*
X1067632Y310742D01*
X1066966Y310372D01*
X1066892D01*
X1066670Y310298D01*
X1066300Y310224D01*
X1065856Y310076D01*
X1064968Y309854D01*
X1064524Y309780D01*
X1064080D01*
X1063562Y309854D01*
X1062970Y310002D01*
X1062230Y310298D01*
X1062156D01*
X1062082Y310372D01*
X1061786Y310668D01*
X1061416Y311112D01*
X1061342Y311334D01*
X1061268Y311556D01*
Y311630D01*
Y311778D01*
X1061342Y312074D01*
X1061416Y312370D01*
X1061638Y312740D01*
X1061860Y313184D01*
X1062230Y313628D01*
X1062674Y314072D01*
Y314146D01*
X1062748Y314220D01*
X1062896Y314442D01*
X1063044Y314812D01*
X1063192Y315182D01*
X1063414Y315700D01*
X1063636Y316218D01*
X1063932Y316884D01*
X1064154Y317624D01*
X1064450Y318512D01*
X1064746Y319400D01*
X1065042Y320436D01*
X1065264Y321546D01*
X1065560Y322730D01*
X1065782Y324062D01*
X1066004Y325394D01*
X1068742D01*
X1069038Y322138D01*
X1098860D01*
X1098934Y322286D01*
X1099082Y322582D01*
X1099304Y323100D01*
X1099674Y323766D01*
X1100118Y324654D01*
X1100562Y325690D01*
X1101080Y326800D01*
X1101672Y328058D01*
X1102264Y329390D01*
X1102856Y330870D01*
X1104040Y333904D01*
X1105224Y337086D01*
X1106260Y340342D01*
X1113734Y335236D01*
D02*
G37*
G36*
X701184Y321546D02*
X701480Y321398D01*
X701998Y321176D01*
X702590Y320880D01*
X703330Y320510D01*
X704070Y320066D01*
X705846Y319030D01*
X707548Y317920D01*
X708362Y317328D01*
X709102Y316662D01*
X709694Y316070D01*
X710212Y315478D01*
X710508Y314886D01*
X710656Y314368D01*
Y314220D01*
Y313924D01*
Y313406D01*
X710582Y312814D01*
X710508Y312222D01*
X710360Y311556D01*
X710138Y310964D01*
X709768Y310520D01*
X709694Y310446D01*
X709620Y310372D01*
X709176Y310002D01*
X708584Y309632D01*
X708214Y309558D01*
X707918Y309484D01*
X707844D01*
X707696Y309558D01*
X707400Y309632D01*
X707104Y309780D01*
X706734Y310076D01*
X706364Y310520D01*
X705994Y311186D01*
X705624Y312000D01*
X705550Y312148D01*
X705328Y312592D01*
X704958Y313258D01*
X704366Y314220D01*
X703626Y315404D01*
X702664Y316810D01*
X701480Y318512D01*
X700000Y320362D01*
X701110Y321620D01*
X701184Y321546D01*
D02*
G37*
G36*
X1110700Y308448D02*
X1109590D01*
X1108850Y308300D01*
X1107888Y308152D01*
X1106852Y307856D01*
X1105668Y307412D01*
X1104336Y306820D01*
X1104262D01*
X1104188Y306746D01*
X1103966Y306598D01*
X1103670Y306450D01*
X1103300Y306302D01*
X1102856Y306080D01*
X1102338Y305784D01*
X1101820Y305488D01*
X1100414Y304674D01*
X1098712Y303786D01*
X1096788Y302676D01*
X1094568Y301418D01*
X1096714Y300012D01*
X1094864Y298532D01*
Y298310D01*
X1111588D01*
X1116250Y302750D01*
X1123058Y295276D01*
X1094864D01*
Y282548D01*
Y282474D01*
Y282326D01*
X1094790Y282104D01*
X1094716Y281808D01*
X1094420Y280994D01*
X1094198Y280476D01*
X1093902Y279958D01*
X1093458Y279366D01*
X1092940Y278774D01*
X1092348Y278182D01*
X1091534Y277590D01*
X1090646Y276998D01*
X1089610Y276406D01*
X1088426Y275814D01*
X1087020Y275296D01*
Y275370D01*
Y275444D01*
X1086946Y275888D01*
X1086798Y276110D01*
X1086650Y276480D01*
X1086354Y276850D01*
X1086058Y277294D01*
X1085614Y277738D01*
X1085022Y278256D01*
X1084282Y278774D01*
X1083468Y279292D01*
X1082432Y279884D01*
X1081248Y280476D01*
X1079842Y280994D01*
X1078288Y281586D01*
Y284102D01*
X1078362D01*
X1078658Y284028D01*
X1079028D01*
X1079546Y283954D01*
X1080138Y283880D01*
X1080804Y283732D01*
X1082358Y283584D01*
X1083912Y283362D01*
X1085466Y283214D01*
X1086132Y283140D01*
X1086798Y283066D01*
X1087760D01*
X1087982Y283140D01*
X1088278Y283214D01*
X1088648Y283436D01*
X1088944Y283658D01*
X1089240Y284102D01*
X1089462Y284620D01*
X1089536Y285286D01*
Y295276D01*
X1068816D01*
X1068150Y295202D01*
X1067262D01*
X1066226Y295054D01*
X1065042Y294906D01*
X1063858Y294684D01*
X1062600Y294388D01*
X1059640Y298310D01*
X1089536D01*
Y298384D01*
Y298680D01*
Y299124D01*
Y299716D01*
X1089462Y300604D01*
X1089388Y301714D01*
X1089314Y303046D01*
X1089240Y304674D01*
X1092866Y303046D01*
X1101820Y309558D01*
X1079250D01*
X1078584Y309484D01*
X1077696D01*
X1076660Y309336D01*
X1075476Y309188D01*
X1074292Y308966D01*
X1073034Y308670D01*
X1070074Y312592D01*
X1101968D01*
X1105372Y315404D01*
X1110700Y308448D01*
D02*
G37*
G36*
X781474Y335088D02*
X792648D01*
X795090Y337900D01*
X800640Y332794D01*
X800492Y332720D01*
X800122Y332424D01*
X799456Y331980D01*
X798642Y331314D01*
X797754Y330426D01*
X796718Y329242D01*
X795682Y327836D01*
X795164Y327022D01*
X794646Y326134D01*
Y326060D01*
X794498Y325912D01*
X794350Y325616D01*
X794202Y325320D01*
X793980Y324802D01*
X793684Y324284D01*
X793018Y323026D01*
X792204Y321546D01*
X791316Y319844D01*
X790354Y318068D01*
X789392Y316218D01*
X789466D01*
X789614Y316070D01*
X789762Y315922D01*
X790058Y315626D01*
X790872Y314960D01*
X791834Y314146D01*
X792870Y313184D01*
X793980Y312074D01*
X795164Y310816D01*
X796200Y309632D01*
X796348Y309484D01*
X796644Y309040D01*
X797088Y308374D01*
X797606Y307486D01*
X798050Y306376D01*
X798494Y305118D01*
X798790Y303712D01*
X798938Y302158D01*
Y302084D01*
Y302010D01*
Y301788D01*
Y301492D01*
X798790Y300678D01*
X798642Y299642D01*
X798346Y298532D01*
X797976Y297200D01*
X797384Y295942D01*
X796570Y294610D01*
X796496Y294462D01*
X796126Y294092D01*
X795534Y293500D01*
X794646Y292760D01*
X794128Y292390D01*
X793536Y291946D01*
X792870Y291576D01*
X792130Y291206D01*
X791242Y290762D01*
X790354Y290466D01*
X789392Y290096D01*
X788282Y289800D01*
Y289874D01*
Y289948D01*
X788134Y290392D01*
X787838Y291132D01*
X787320Y291946D01*
X786580Y292834D01*
X786136Y293352D01*
X785544Y293796D01*
X784952Y294240D01*
X784212Y294684D01*
X783398Y295128D01*
X782436Y295498D01*
Y297866D01*
X782584D01*
X782954Y297792D01*
X783620Y297718D01*
X784434Y297570D01*
X785322Y297496D01*
X786284Y297348D01*
X788356Y297274D01*
X788874D01*
X789392Y297348D01*
X789984Y297496D01*
X790724Y297644D01*
X791464Y297940D01*
X792130Y298384D01*
X792722Y298902D01*
X792796Y298976D01*
X792944Y299198D01*
X793166Y299642D01*
X793388Y300234D01*
X793610Y300974D01*
X793758Y301936D01*
Y303046D01*
X793610Y304304D01*
Y304378D01*
Y304452D01*
X793536Y304674D01*
X793462Y305044D01*
X793314Y305414D01*
X793092Y305932D01*
X792796Y306524D01*
X792500Y307190D01*
X792130Y307930D01*
X791612Y308818D01*
X791020Y309706D01*
X790280Y310742D01*
X789466Y311926D01*
X788578Y313110D01*
X787468Y314442D01*
X786284Y315848D01*
X792278Y332054D01*
X781992D01*
Y277516D01*
X776664Y275000D01*
Y275074D01*
Y275444D01*
Y275962D01*
X776738Y276702D01*
Y277738D01*
Y278996D01*
X776812Y280550D01*
Y282400D01*
Y284472D01*
X776886Y285656D01*
Y286840D01*
Y288172D01*
Y289578D01*
Y291058D01*
Y292612D01*
X776960Y294240D01*
Y295942D01*
Y297718D01*
Y299568D01*
Y301566D01*
Y303638D01*
Y305784D01*
Y308004D01*
Y308078D01*
Y308300D01*
Y308596D01*
Y309040D01*
Y309632D01*
Y310298D01*
Y311038D01*
Y311926D01*
Y312814D01*
Y313850D01*
Y316070D01*
Y318438D01*
Y320954D01*
X776886Y326134D01*
Y328650D01*
X776812Y331018D01*
Y333238D01*
Y334274D01*
X776738Y335236D01*
Y336124D01*
Y336938D01*
X776664Y337604D01*
Y338196D01*
X781474Y335088D01*
D02*
G37*
G36*
X720424Y324950D02*
Y324876D01*
X720350Y324654D01*
X720202Y324284D01*
X720128Y323766D01*
X719906Y323174D01*
X719684Y322360D01*
X719462Y321546D01*
X719240Y320584D01*
X718944Y319548D01*
X718648Y318512D01*
X717982Y316070D01*
X717242Y313480D01*
X716502Y310816D01*
X715762Y308004D01*
X715022Y305340D01*
X714356Y302676D01*
X713690Y300308D01*
X713394Y299198D01*
X713098Y298162D01*
X712876Y297200D01*
X712654Y296312D01*
X712506Y295498D01*
X712358Y294906D01*
X712210Y294314D01*
X712136Y293944D01*
Y293870D01*
Y293796D01*
X712062Y293574D01*
Y293352D01*
X711988Y292612D01*
X711840Y291576D01*
X711766Y290392D01*
X711618Y288986D01*
X711544Y287432D01*
X711470Y285730D01*
Y285656D01*
Y285508D01*
Y285286D01*
Y284990D01*
Y284102D01*
Y283140D01*
X711396Y281956D01*
Y280846D01*
Y279736D01*
Y278774D01*
Y278700D01*
Y278478D01*
X711322Y278182D01*
X711174Y277886D01*
X710952Y277516D01*
X710582Y277220D01*
X710138Y276998D01*
X709546Y276924D01*
X709324D01*
X709028Y276998D01*
X708658D01*
X708214Y277146D01*
X707622Y277294D01*
X707030Y277442D01*
X706290Y277738D01*
X706216Y277812D01*
X705994Y277886D01*
X705698Y278108D01*
X705328Y278478D01*
X704958Y278922D01*
X704662Y279440D01*
X704440Y280180D01*
X704366Y280994D01*
Y281068D01*
Y281216D01*
X704440Y281512D01*
X704514Y281882D01*
X704588Y282474D01*
X704736Y283140D01*
X704958Y283954D01*
X705254Y284916D01*
X705328Y285064D01*
X705402Y285360D01*
X705550Y285878D01*
X705698Y286470D01*
X705920Y287802D01*
X706068Y288542D01*
Y289134D01*
Y289208D01*
Y289430D01*
X705994Y289652D01*
X705920Y290022D01*
X705624Y290836D01*
X705402Y291206D01*
X705032Y291576D01*
X704958Y291650D01*
X704810Y291724D01*
X704514Y291946D01*
X703996Y292168D01*
X703330Y292464D01*
X702442Y292760D01*
X701332Y293130D01*
X700000Y293500D01*
Y295868D01*
X700444D01*
X700814Y295794D01*
X701628D01*
X702590Y295720D01*
X705180D01*
X705476Y295794D01*
X705624D01*
X705772Y295868D01*
X705920Y296016D01*
X706216Y296164D01*
X706512Y296460D01*
X706956Y296904D01*
X707474Y297422D01*
X708066Y298162D01*
X708140Y298310D01*
X708288Y298532D01*
X708510Y298902D01*
X708732Y299420D01*
X709102Y300160D01*
X709472Y301196D01*
X709990Y302454D01*
X710286Y303120D01*
X710582Y303934D01*
X710952Y304822D01*
X711322Y305858D01*
X711692Y306894D01*
X712136Y308078D01*
X712580Y309262D01*
X713098Y310668D01*
X713542Y312074D01*
X714134Y313702D01*
X714652Y315330D01*
X715318Y317180D01*
X715910Y319030D01*
X716576Y321102D01*
X717316Y323248D01*
X718056Y325542D01*
X720424Y324950D01*
D02*
G37*
G36*
X976390Y327910D02*
X950564D01*
Y284620D01*
X967880D01*
X972838Y289356D01*
X979942Y281586D01*
X924886D01*
X924220Y281512D01*
X923332D01*
X922296Y281364D01*
X921112Y281216D01*
X919928Y281068D01*
X918670Y280772D01*
X915710Y284620D01*
X945014D01*
Y327910D01*
X928734D01*
X928068Y327836D01*
X927180D01*
X926144Y327688D01*
X924960Y327540D01*
X923776Y327318D01*
X922518Y327022D01*
X919484Y330944D01*
X965438D01*
X969878Y335162D01*
X976390Y327910D01*
D02*
G37*
G36*
X885740Y336716D02*
X883520Y334052D01*
Y309706D01*
X883668Y309780D01*
X883964Y310224D01*
X884556Y310964D01*
X885370Y311926D01*
X886332Y313184D01*
X887516Y314664D01*
X888922Y316366D01*
X890550Y318290D01*
X890624Y318364D01*
X890772Y318512D01*
X890994Y318808D01*
X891290Y319178D01*
X891660Y319696D01*
X892104Y320214D01*
X893140Y321472D01*
X894250Y322952D01*
X895360Y324506D01*
X896470Y325986D01*
X897432Y327466D01*
X903278Y321620D01*
X899948Y320584D01*
X899874Y320510D01*
X899578Y320214D01*
X899134Y319696D01*
X898616Y319104D01*
X897876Y318290D01*
X896988Y317328D01*
X896026Y316292D01*
X894990Y315182D01*
X893806Y313924D01*
X892474Y312666D01*
X891142Y311260D01*
X889736Y309854D01*
X886702Y307042D01*
X883520Y304156D01*
Y287284D01*
Y287210D01*
Y287136D01*
X883594Y286692D01*
X883742Y286026D01*
X884038Y285286D01*
X884482Y284546D01*
X885148Y283880D01*
X885592Y283658D01*
X886184Y283436D01*
X886776Y283362D01*
X887442Y283288D01*
X899356D01*
X899504Y283362D01*
X899800Y283436D01*
X900096Y283732D01*
X900392Y284102D01*
X900762Y284694D01*
X901058Y285508D01*
X901206Y285952D01*
X901280Y286544D01*
Y286618D01*
Y286692D01*
X901354Y286914D01*
Y287210D01*
X901428Y287580D01*
Y288024D01*
X901502Y288542D01*
X901576Y289208D01*
Y289874D01*
X901650Y290688D01*
Y291650D01*
X901724Y292686D01*
Y293796D01*
X901798Y294980D01*
Y296386D01*
Y297792D01*
X904610D01*
Y297718D01*
Y297422D01*
X904684Y297052D01*
Y296534D01*
X904758Y295868D01*
X904832Y295202D01*
X904980Y293574D01*
X905202Y291798D01*
X905424Y290170D01*
X905572Y289356D01*
X905646Y288690D01*
X905794Y288098D01*
X905942Y287580D01*
X906016Y287506D01*
X906090Y287210D01*
X906312Y286840D01*
X906608Y286322D01*
X907052Y285804D01*
X907570Y285212D01*
X908236Y284768D01*
X909050Y284324D01*
Y284250D01*
X908902Y284102D01*
X908754Y283806D01*
X908532Y283362D01*
X907866Y282400D01*
X906904Y281364D01*
X905720Y280254D01*
X904240Y279292D01*
X903352Y278922D01*
X902390Y278626D01*
X901428Y278404D01*
X900318Y278330D01*
X885518D01*
X885148Y278404D01*
X884630Y278478D01*
X884038Y278552D01*
X883446Y278700D01*
X882780Y278922D01*
X882040Y279218D01*
X881374Y279588D01*
X880634Y280032D01*
X880042Y280624D01*
X879450Y281290D01*
X878932Y282104D01*
X878562Y283066D01*
X878340Y284102D01*
X878266Y285360D01*
Y301270D01*
X878192Y301196D01*
X877970Y301048D01*
X877674Y300752D01*
X877156Y300382D01*
X876564Y299938D01*
X875824Y299346D01*
X874936Y298754D01*
X873974Y298088D01*
X872864Y297348D01*
X871606Y296608D01*
X870274Y295868D01*
X868868Y295128D01*
X867314Y294314D01*
X865612Y293500D01*
X863836Y292760D01*
X861986Y292020D01*
X861542Y294092D01*
X861690Y294166D01*
X861986Y294388D01*
X862504Y294684D01*
X863170Y295054D01*
X864058Y295646D01*
X865020Y296238D01*
X866130Y296978D01*
X867314Y297718D01*
X868572Y298606D01*
X869978Y299568D01*
X872716Y301566D01*
X875602Y303786D01*
X878266Y306154D01*
Y325616D01*
Y325690D01*
Y325912D01*
Y326208D01*
Y326726D01*
Y327244D01*
Y327984D01*
Y328798D01*
Y329686D01*
X878192Y330722D01*
Y331832D01*
Y333090D01*
X878118Y334348D01*
Y335754D01*
X878044Y337234D01*
X877970Y340342D01*
X885740Y336716D01*
D02*
G37*
G36*
X1023676Y337308D02*
X1021456Y334644D01*
Y321398D01*
X1040696D01*
X1045432Y325838D01*
X1052166Y318364D01*
X1021456D01*
Y316884D01*
Y316736D01*
X1021604Y316440D01*
X1021752Y315922D01*
X1021974Y315182D01*
X1022344Y314294D01*
X1022714Y313184D01*
X1023158Y312000D01*
X1023750Y310668D01*
X1024342Y309188D01*
X1025082Y307634D01*
X1025896Y306006D01*
X1026784Y304230D01*
X1027746Y302454D01*
X1028856Y300604D01*
X1030040Y298754D01*
X1031298Y296830D01*
X1031372Y296682D01*
X1031668Y296386D01*
X1032038Y295868D01*
X1032630Y295202D01*
X1033370Y294388D01*
X1034258Y293426D01*
X1035368Y292390D01*
X1036552Y291280D01*
X1037958Y290170D01*
X1039512Y288986D01*
X1041140Y287876D01*
X1042990Y286766D01*
X1044988Y285656D01*
X1047134Y284694D01*
X1049428Y283806D01*
X1051870Y283066D01*
Y280846D01*
X1051648D01*
X1051426Y280772D01*
X1051130D01*
X1050390Y280550D01*
X1049428Y280254D01*
X1048392Y279810D01*
X1047282Y279218D01*
X1046246Y278330D01*
X1045358Y277220D01*
X1045284Y277294D01*
X1044914Y277516D01*
X1044396Y277812D01*
X1043730Y278256D01*
X1042916Y278848D01*
X1041954Y279514D01*
X1040844Y280328D01*
X1039660Y281216D01*
X1038402Y282252D01*
X1037070Y283436D01*
X1035664Y284694D01*
X1034332Y286026D01*
X1032926Y287506D01*
X1031520Y289134D01*
X1030188Y290762D01*
X1028930Y292538D01*
X1028856Y292686D01*
X1028634Y292982D01*
X1028338Y293500D01*
X1027894Y294240D01*
X1027302Y295128D01*
X1026710Y296164D01*
X1026044Y297348D01*
X1025378Y298680D01*
X1024638Y300086D01*
X1023898Y301640D01*
X1023232Y303268D01*
X1022566Y304970D01*
X1021900Y306746D01*
X1021308Y308596D01*
X1020790Y310446D01*
X1020420Y312296D01*
Y312222D01*
Y312148D01*
X1020346Y311852D01*
Y311556D01*
X1020272Y311186D01*
X1020198Y310742D01*
X1019976Y309632D01*
X1019680Y308226D01*
X1019384Y306672D01*
X1018940Y304970D01*
X1018422Y303120D01*
X1017756Y301122D01*
X1017090Y299124D01*
X1016276Y297052D01*
X1015314Y295054D01*
X1014278Y293056D01*
X1013094Y291132D01*
X1011762Y289356D01*
X1010282Y287728D01*
X1010208Y287654D01*
X1009912Y287358D01*
X1009468Y286914D01*
X1008802Y286396D01*
X1007988Y285656D01*
X1006952Y284916D01*
X1005768Y284028D01*
X1004436Y283066D01*
X1002956Y282030D01*
X1001254Y280994D01*
X999404Y279958D01*
X997406Y278922D01*
X995260Y277886D01*
X992966Y276850D01*
X990450Y275888D01*
X987860Y275000D01*
X987416Y277220D01*
X987564Y277294D01*
X987860Y277442D01*
X988378Y277664D01*
X989044Y277960D01*
X989932Y278404D01*
X990894Y278922D01*
X991930Y279514D01*
X993114Y280106D01*
X994372Y280846D01*
X995704Y281660D01*
X998442Y283436D01*
X1001180Y285434D01*
X1002438Y286544D01*
X1003696Y287654D01*
X1003770Y287728D01*
X1003992Y287950D01*
X1004288Y288320D01*
X1004732Y288764D01*
X1005250Y289356D01*
X1005916Y290022D01*
X1006582Y290836D01*
X1007248Y291798D01*
X1007988Y292760D01*
X1008728Y293870D01*
X1009542Y295054D01*
X1010282Y296312D01*
X1011614Y299050D01*
X1012206Y300530D01*
X1012724Y302010D01*
Y302084D01*
X1012872Y302380D01*
X1012946Y302824D01*
X1013168Y303416D01*
X1013316Y304156D01*
X1013612Y305044D01*
X1013834Y306006D01*
X1014130Y307116D01*
X1014352Y308300D01*
X1014648Y309558D01*
X1015166Y312370D01*
X1015610Y315330D01*
X1015906Y318364D01*
X995112D01*
X990894Y317772D01*
X988230Y321398D01*
X1015906D01*
Y321472D01*
Y321546D01*
Y321990D01*
Y322730D01*
Y323618D01*
Y324802D01*
Y326060D01*
Y327466D01*
Y329020D01*
X1015832Y332202D01*
X1015758Y335458D01*
Y337012D01*
X1015684Y338418D01*
Y339750D01*
X1015610Y340934D01*
X1023676Y337308D01*
D02*
G37*
G36*
X868720Y335976D02*
X865834Y333830D01*
Y333756D01*
X865686Y333460D01*
X865538Y333090D01*
X865242Y332572D01*
X864946Y331906D01*
X864576Y331166D01*
X864206Y330278D01*
X863762Y329390D01*
X862800Y327318D01*
X861690Y325172D01*
X860580Y322952D01*
X859470Y320880D01*
X863244Y318586D01*
X861098Y315996D01*
Y286396D01*
Y286248D01*
Y285804D01*
Y285138D01*
Y284102D01*
X861172Y282918D01*
Y281438D01*
X861246Y279736D01*
X861320Y277812D01*
X855474Y275296D01*
Y275370D01*
Y275740D01*
Y276258D01*
X855548Y276924D01*
Y277738D01*
Y278700D01*
X855622Y279810D01*
Y280994D01*
Y282326D01*
X855696Y283732D01*
Y286618D01*
X855770Y289652D01*
Y292686D01*
Y316070D01*
X855696Y315996D01*
X855548Y315700D01*
X855326Y315256D01*
X854956Y314590D01*
X854512Y313850D01*
X853920Y312962D01*
X853328Y312000D01*
X852662Y310964D01*
X851034Y308596D01*
X849184Y306154D01*
X847186Y303638D01*
X844966Y301270D01*
X843412Y302750D01*
X843486Y302824D01*
X843708Y303120D01*
X844004Y303638D01*
X844448Y304304D01*
X844966Y305118D01*
X845632Y306154D01*
X846372Y307264D01*
X847112Y308596D01*
X848000Y310002D01*
X848888Y311556D01*
X849850Y313184D01*
X850812Y314960D01*
X851774Y316810D01*
X852736Y318734D01*
X854734Y322804D01*
X854808Y322952D01*
X854956Y323322D01*
X855252Y323914D01*
X855548Y324654D01*
X855992Y325616D01*
X856436Y326652D01*
X856954Y327910D01*
X857546Y329168D01*
X858064Y330574D01*
X858656Y331980D01*
X859766Y334940D01*
X860728Y337752D01*
X861172Y339084D01*
X861468Y340342D01*
X868720Y335976D01*
D02*
G37*
%LPC*%
G36*
X2817863Y2949528D02*
X2802137D01*
X2787610Y2943510D01*
X2776490Y2932390D01*
X2770472Y2917863D01*
Y2902137D01*
X2776490Y2887610D01*
X2787610Y2876490D01*
X2802137Y2870472D01*
X2817863D01*
X2832390Y2876490D01*
X2843510Y2887610D01*
X2849528Y2902137D01*
Y2917863D01*
X2843510Y2932390D01*
X2832390Y2943510D01*
X2817863Y2949528D01*
D02*
G37*
G36*
X2717863D02*
X2702137D01*
X2687610Y2943510D01*
X2676490Y2932390D01*
X2670472Y2917863D01*
Y2902137D01*
X2676490Y2887610D01*
X2687610Y2876490D01*
X2702137Y2870472D01*
X2717863D01*
X2732390Y2876490D01*
X2743510Y2887610D01*
X2749528Y2902137D01*
Y2917863D01*
X2743510Y2932390D01*
X2732390Y2943510D01*
X2717863Y2949528D01*
D02*
G37*
G36*
X2817863Y2849528D02*
X2802137D01*
X2787610Y2843510D01*
X2776490Y2832390D01*
X2770472Y2817863D01*
Y2802137D01*
X2776490Y2787610D01*
X2787610Y2776490D01*
X2802137Y2770472D01*
X2817863D01*
X2832390Y2776490D01*
X2843510Y2787610D01*
X2849528Y2802137D01*
Y2817863D01*
X2843510Y2832390D01*
X2832390Y2843510D01*
X2817863Y2849528D01*
D02*
G37*
G36*
X2717863D02*
X2702137D01*
X2687610Y2843510D01*
X2676490Y2832390D01*
X2670472Y2817863D01*
Y2802137D01*
X2676490Y2787610D01*
X2687610Y2776490D01*
X2702137Y2770472D01*
X2717863D01*
X2732390Y2776490D01*
X2743510Y2787610D01*
X2749528Y2802137D01*
Y2817863D01*
X2743510Y2832390D01*
X2732390Y2843510D01*
X2717863Y2849528D01*
D02*
G37*
G36*
X3017863Y2799528D02*
X3002137D01*
X2987610Y2793510D01*
X2976490Y2782390D01*
X2970472Y2767863D01*
Y2752137D01*
X2971901Y2748689D01*
X2850234Y2627021D01*
X2845330Y2627997D01*
X2843510Y2632390D01*
X2832390Y2643510D01*
X2817863Y2649528D01*
X2802137D01*
X2787610Y2643510D01*
X2776490Y2632390D01*
X2770472Y2617863D01*
Y2602137D01*
X2776490Y2587610D01*
X2787610Y2576490D01*
X2802137Y2570472D01*
X2817863D01*
X2832390Y2576490D01*
X2833466Y2577566D01*
X2838086Y2575653D01*
Y2544347D01*
X2833466Y2542434D01*
X2832390Y2543510D01*
X2817863Y2549528D01*
X2802137D01*
X2787610Y2543510D01*
X2776490Y2532390D01*
X2770472Y2517863D01*
Y2502137D01*
X2776490Y2487610D01*
X2787610Y2476490D01*
X2802137Y2470472D01*
X2817863D01*
X2832390Y2476490D01*
X2833466Y2477566D01*
X2838086Y2475653D01*
Y2444347D01*
X2833466Y2442434D01*
X2832390Y2443510D01*
X2817863Y2449528D01*
X2802137D01*
X2787610Y2443510D01*
X2776490Y2432390D01*
X2770472Y2417863D01*
Y2402137D01*
X2776490Y2387610D01*
X2787610Y2376490D01*
X2802137Y2370472D01*
X2817863D01*
X2832390Y2376490D01*
X2833466Y2377566D01*
X2838086Y2375653D01*
Y2344347D01*
X2833466Y2342434D01*
X2832390Y2343510D01*
X2817863Y2349528D01*
X2802137D01*
X2787610Y2343510D01*
X2776490Y2332390D01*
X2770472Y2317863D01*
Y2302137D01*
X2776490Y2287610D01*
X2787610Y2276490D01*
X2802137Y2270472D01*
X2817863D01*
X2832390Y2276490D01*
X2833466Y2277566D01*
X2838086Y2275653D01*
Y2244347D01*
X2833466Y2242434D01*
X2832390Y2243510D01*
X2817863Y2249528D01*
X2802137D01*
X2787610Y2243510D01*
X2776490Y2232390D01*
X2770472Y2217863D01*
Y2202137D01*
X2776490Y2187610D01*
X2787610Y2176490D01*
X2802137Y2170472D01*
X2817863D01*
X2832390Y2176490D01*
X2833466Y2177566D01*
X2838086Y2175653D01*
Y2164874D01*
X2821311Y2148099D01*
X2817863Y2149528D01*
X2802137D01*
X2787610Y2143510D01*
X2776490Y2132390D01*
X2770472Y2117863D01*
Y2102137D01*
X2775093Y2090984D01*
X2772247Y2085320D01*
X2771597Y2085190D01*
X2749528Y2107260D01*
Y2117863D01*
X2743510Y2132390D01*
X2732390Y2143510D01*
X2717863Y2149528D01*
X2702137D01*
X2687610Y2143510D01*
X2676490Y2132390D01*
X2670472Y2117863D01*
Y2102137D01*
X2676490Y2087610D01*
X2687610Y2076490D01*
X2702137Y2070472D01*
X2717863D01*
X2728382Y2074830D01*
X2753634Y2049578D01*
X2767028Y2044031D01*
X2781059D01*
X2783130Y2039031D01*
X2776490Y2032390D01*
X2770472Y2017862D01*
Y2002138D01*
X2776490Y1987610D01*
X2777566Y1986534D01*
X2775653Y1981914D01*
X2764874D01*
X2748099Y1998689D01*
X2749528Y2002138D01*
Y2017862D01*
X2743510Y2032390D01*
X2732390Y2043510D01*
X2717863Y2049528D01*
X2702137D01*
X2687610Y2043510D01*
X2676490Y2032390D01*
X2670472Y2017862D01*
Y2002138D01*
X2676490Y1987610D01*
X2687610Y1976490D01*
X2702137Y1970473D01*
X2717863D01*
X2721311Y1971901D01*
X2743634Y1949578D01*
X2757028Y1944031D01*
X2781059D01*
X2783130Y1939031D01*
X2776490Y1932390D01*
X2770472Y1917862D01*
Y1902138D01*
X2776490Y1887610D01*
X2787610Y1876490D01*
X2802137Y1870473D01*
X2817863D01*
X2832390Y1876490D01*
X2843510Y1887610D01*
X2849528Y1902138D01*
Y1917862D01*
X2848644Y1919994D01*
X2969667Y2041017D01*
X2973373Y2040992D01*
X2975300Y2040483D01*
X2976490Y2037610D01*
X2987610Y2026490D01*
X3002137Y2020473D01*
X3017863D01*
X3032390Y2026490D01*
X3043510Y2037610D01*
X3049528Y2052137D01*
Y2067863D01*
X3043510Y2082390D01*
X3032390Y2093510D01*
X3017863Y2099528D01*
X3002137D01*
X2987610Y2093510D01*
X2980970Y2086870D01*
X2975970Y2088941D01*
Y2131059D01*
X2980970Y2133130D01*
X2987610Y2126490D01*
X3002137Y2120472D01*
X3017863D01*
X3032390Y2126490D01*
X3043510Y2137610D01*
X3049528Y2152137D01*
Y2167863D01*
X3043510Y2182390D01*
X3032390Y2193510D01*
X3017863Y2199528D01*
X3002137D01*
X2987610Y2193510D01*
X2980970Y2186870D01*
X2975970Y2188941D01*
Y2231059D01*
X2980970Y2233130D01*
X2987610Y2226490D01*
X3002137Y2220472D01*
X3017863D01*
X3032390Y2226490D01*
X3043510Y2237610D01*
X3049528Y2252137D01*
Y2267863D01*
X3043510Y2282390D01*
X3032390Y2293510D01*
X3017863Y2299528D01*
X3002137D01*
X2987610Y2293510D01*
X2980970Y2286870D01*
X2975970Y2288941D01*
Y2299182D01*
X2998689Y2321901D01*
X3002137Y2320472D01*
X3017863D01*
X3032390Y2326490D01*
X3043510Y2337610D01*
X3049528Y2352137D01*
Y2367863D01*
X3043510Y2382390D01*
X3032390Y2393510D01*
X3017863Y2399528D01*
X3002137D01*
X2987610Y2393510D01*
X2976490Y2382390D01*
X2970472Y2367863D01*
Y2352137D01*
X2971901Y2348689D01*
X2955589Y2332377D01*
X2950970Y2334290D01*
Y2374182D01*
X2998689Y2421901D01*
X3002137Y2420472D01*
X3017863D01*
X3032390Y2426490D01*
X3043510Y2437610D01*
X3049528Y2452137D01*
Y2467863D01*
X3043510Y2482390D01*
X3032390Y2493510D01*
X3017863Y2499528D01*
X3002137D01*
X2987610Y2493510D01*
X2976490Y2482390D01*
X2970472Y2467863D01*
Y2452137D01*
X2971901Y2448689D01*
X2930589Y2407377D01*
X2925970Y2409290D01*
Y2449182D01*
X2998689Y2521901D01*
X3002137Y2520472D01*
X3017863D01*
X3032390Y2526490D01*
X3043510Y2537610D01*
X3049528Y2552137D01*
Y2567863D01*
X3043510Y2582390D01*
X3032390Y2593510D01*
X3017863Y2599528D01*
X3002137D01*
X2987610Y2593510D01*
X2976490Y2582390D01*
X2970472Y2567863D01*
Y2552137D01*
X2971901Y2548689D01*
X2905589Y2482377D01*
X2900970Y2484290D01*
Y2524182D01*
X2998689Y2621901D01*
X3002137Y2620472D01*
X3017863D01*
X3032390Y2626490D01*
X3043510Y2637610D01*
X3049528Y2652137D01*
Y2667863D01*
X3043510Y2682390D01*
X3032390Y2693510D01*
X3017863Y2699528D01*
X3002137D01*
X2987610Y2693510D01*
X2976490Y2682390D01*
X2970472Y2667863D01*
Y2652137D01*
X2971901Y2648689D01*
X2880589Y2557377D01*
X2875970Y2559290D01*
Y2599182D01*
X2998689Y2721901D01*
X3002137Y2720472D01*
X3017863D01*
X3032390Y2726490D01*
X3043510Y2737610D01*
X3049528Y2752137D01*
Y2767863D01*
X3043510Y2782390D01*
X3032390Y2793510D01*
X3017863Y2799528D01*
D02*
G37*
G36*
X2817863Y2749528D02*
X2802137D01*
X2787610Y2743510D01*
X2776490Y2732390D01*
X2770472Y2717863D01*
Y2702137D01*
X2776490Y2687610D01*
X2787610Y2676490D01*
X2802137Y2670472D01*
X2817863D01*
X2832390Y2676490D01*
X2843510Y2687610D01*
X2849528Y2702137D01*
Y2717863D01*
X2843510Y2732390D01*
X2832390Y2743510D01*
X2817863Y2749528D01*
D02*
G37*
G36*
X2717863D02*
X2702137D01*
X2687610Y2743510D01*
X2676490Y2732390D01*
X2670472Y2717863D01*
Y2702137D01*
X2676490Y2687610D01*
X2687610Y2676490D01*
X2702137Y2670472D01*
X2717863D01*
X2732390Y2676490D01*
X2743510Y2687610D01*
X2749528Y2702137D01*
Y2717863D01*
X2743510Y2732390D01*
X2732390Y2743510D01*
X2717863Y2749528D01*
D02*
G37*
G36*
Y2649528D02*
X2702137D01*
X2687610Y2643510D01*
X2676490Y2632390D01*
X2670472Y2617863D01*
Y2602137D01*
X2676490Y2587610D01*
X2687610Y2576490D01*
X2702137Y2570472D01*
X2717863D01*
X2732390Y2576490D01*
X2743510Y2587610D01*
X2749528Y2602137D01*
Y2617863D01*
X2743510Y2632390D01*
X2732390Y2643510D01*
X2717863Y2649528D01*
D02*
G37*
G36*
Y2549528D02*
X2702137D01*
X2687610Y2543510D01*
X2676490Y2532390D01*
X2670472Y2517863D01*
Y2502137D01*
X2676490Y2487610D01*
X2687610Y2476490D01*
X2702137Y2470472D01*
X2717863D01*
X2732390Y2476490D01*
X2743510Y2487610D01*
X2749528Y2502137D01*
Y2517863D01*
X2743510Y2532390D01*
X2732390Y2543510D01*
X2717863Y2549528D01*
D02*
G37*
G36*
Y2449528D02*
X2702137D01*
X2687610Y2443510D01*
X2676490Y2432390D01*
X2670472Y2417863D01*
Y2402137D01*
X2676490Y2387610D01*
X2687610Y2376490D01*
X2702137Y2370472D01*
X2717863D01*
X2732390Y2376490D01*
X2743510Y2387610D01*
X2749528Y2402137D01*
Y2417863D01*
X2743510Y2432390D01*
X2732390Y2443510D01*
X2717863Y2449528D01*
D02*
G37*
G36*
Y2349528D02*
X2702137D01*
X2687610Y2343510D01*
X2676490Y2332390D01*
X2670472Y2317863D01*
Y2302137D01*
X2676490Y2287610D01*
X2687610Y2276490D01*
X2702137Y2270472D01*
X2717863D01*
X2732390Y2276490D01*
X2743510Y2287610D01*
X2749528Y2302137D01*
Y2317863D01*
X2743510Y2332390D01*
X2732390Y2343510D01*
X2717863Y2349528D01*
D02*
G37*
G36*
Y2249528D02*
X2702137D01*
X2687610Y2243510D01*
X2676490Y2232390D01*
X2670472Y2217863D01*
Y2202137D01*
X2676490Y2187610D01*
X2687610Y2176490D01*
X2702137Y2170472D01*
X2717863D01*
X2732390Y2176490D01*
X2743510Y2187610D01*
X2749528Y2202137D01*
Y2217863D01*
X2743510Y2232390D01*
X2732390Y2243510D01*
X2717863Y2249528D01*
D02*
G37*
G36*
X1017862Y2049528D02*
X1002138D01*
X987610Y2043510D01*
X976490Y2032390D01*
X970472Y2017862D01*
Y2002138D01*
X976490Y1987610D01*
X987610Y1976490D01*
X1002138Y1970473D01*
X1017862D01*
X1032390Y1976490D01*
X1043510Y1987610D01*
X1049527Y2002138D01*
Y2017862D01*
X1043510Y2032390D01*
X1032390Y2043510D01*
X1017862Y2049528D01*
D02*
G37*
G36*
X917862D02*
X902138D01*
X887610Y2043510D01*
X876490Y2032390D01*
X870472Y2017862D01*
Y2002138D01*
X876490Y1987610D01*
X887610Y1976490D01*
X902138Y1970473D01*
X917862D01*
X932390Y1976490D01*
X943510Y1987610D01*
X949528Y2002138D01*
Y2017862D01*
X943510Y2032390D01*
X932390Y2043510D01*
X917862Y2049528D01*
D02*
G37*
G36*
X1017862Y1949527D02*
X1002138D01*
X987610Y1943510D01*
X976490Y1932390D01*
X970472Y1917862D01*
Y1902138D01*
X976490Y1887610D01*
X980538Y1883561D01*
X978625Y1878942D01*
X941375D01*
X939462Y1883561D01*
X943510Y1887610D01*
X949528Y1902138D01*
Y1917862D01*
X943510Y1932390D01*
X932390Y1943510D01*
X917862Y1949527D01*
X902138D01*
X887610Y1943510D01*
X876490Y1932390D01*
X870472Y1917862D01*
Y1902138D01*
X876490Y1887610D01*
X880538Y1883561D01*
X878625Y1878942D01*
X847846D01*
X788394Y1938394D01*
X775000Y1943942D01*
X650000D01*
X636606Y1938394D01*
X591606Y1893394D01*
X586058Y1880000D01*
Y1760000D01*
X591606Y1746606D01*
X651901Y1686311D01*
X650472Y1682862D01*
Y1667138D01*
X656490Y1652610D01*
X667610Y1641490D01*
X682138Y1635473D01*
X697862D01*
X712390Y1641490D01*
X723510Y1652610D01*
X729528Y1667138D01*
Y1682862D01*
X723510Y1697390D01*
X712390Y1708510D01*
X697862Y1714527D01*
X682138D01*
X678689Y1713099D01*
X623942Y1767846D01*
Y1872154D01*
X645853Y1894065D01*
X650472Y1892152D01*
Y1835473D01*
X729528D01*
Y1906058D01*
X767154D01*
X826606Y1846606D01*
X840000Y1841058D01*
X878625D01*
X880538Y1836439D01*
X876490Y1832390D01*
X870472Y1817862D01*
Y1802138D01*
X876490Y1787610D01*
X887610Y1776490D01*
X902138Y1770473D01*
X917862D01*
X932390Y1776490D01*
X943510Y1787610D01*
X949528Y1802138D01*
Y1817862D01*
X943510Y1832390D01*
X939462Y1836439D01*
X941375Y1841058D01*
X978625D01*
X980538Y1836439D01*
X976490Y1832390D01*
X970472Y1817862D01*
Y1802138D01*
X976490Y1787610D01*
X987610Y1776490D01*
X1002138Y1770473D01*
X1017862D01*
X1032390Y1776490D01*
X1043510Y1787610D01*
X1049527Y1802138D01*
Y1803659D01*
X1054147Y1805572D01*
X1096583Y1763136D01*
Y1704475D01*
X1102131Y1691081D01*
X1171901Y1621311D01*
X1170473Y1617862D01*
Y1602138D01*
X1176490Y1587610D01*
X1187610Y1576490D01*
X1202138Y1570473D01*
X1217862D01*
X1232390Y1576490D01*
X1243510Y1587610D01*
X1249527Y1602138D01*
Y1617862D01*
X1243510Y1632390D01*
X1232390Y1643510D01*
X1217862Y1649527D01*
X1202138D01*
X1198689Y1648099D01*
X1134467Y1712321D01*
Y1770982D01*
X1128919Y1784376D01*
X1039901Y1873394D01*
X1036558Y1874778D01*
X1035583Y1879682D01*
X1043510Y1887610D01*
X1049527Y1902138D01*
Y1917862D01*
X1043510Y1932390D01*
X1032390Y1943510D01*
X1017862Y1949527D01*
D02*
G37*
G36*
X2717863D02*
X2702137D01*
X2687610Y1943510D01*
X2676490Y1932390D01*
X2670472Y1917862D01*
Y1902138D01*
X2676490Y1887610D01*
X2687610Y1876490D01*
X2702137Y1870473D01*
X2717863D01*
X2732390Y1876490D01*
X2743510Y1887610D01*
X2749528Y1902138D01*
Y1917862D01*
X2743510Y1932390D01*
X2732390Y1943510D01*
X2717863Y1949527D01*
D02*
G37*
G36*
X2817863Y1849527D02*
X2802137D01*
X2787610Y1843510D01*
X2776490Y1832390D01*
X2770472Y1817862D01*
Y1802138D01*
X2776490Y1787610D01*
X2787610Y1776490D01*
X2802137Y1770473D01*
X2817863D01*
X2832390Y1776490D01*
X2843510Y1787610D01*
X2849528Y1802138D01*
Y1817862D01*
X2843510Y1832390D01*
X2832390Y1843510D01*
X2817863Y1849527D01*
D02*
G37*
G36*
X2717863D02*
X2702137D01*
X2687610Y1843510D01*
X2676490Y1832390D01*
X2670472Y1817862D01*
Y1802138D01*
X2676490Y1787610D01*
X2687610Y1776490D01*
X2702137Y1770473D01*
X2717863D01*
X2732390Y1776490D01*
X2743510Y1787610D01*
X2749528Y1802138D01*
Y1817862D01*
X2743510Y1832390D01*
X2732390Y1843510D01*
X2717863Y1849527D01*
D02*
G37*
G36*
X3017863Y1779527D02*
X3002137D01*
X2987610Y1773510D01*
X2976490Y1762390D01*
X2970472Y1747862D01*
Y1732138D01*
X2976490Y1717610D01*
X2987610Y1706490D01*
X3002137Y1700473D01*
X3017863D01*
X3032390Y1706490D01*
X3043510Y1717610D01*
X3049528Y1732138D01*
Y1747862D01*
X3043510Y1762390D01*
X3032390Y1773510D01*
X3017863Y1779527D01*
D02*
G37*
G36*
X2317863Y1649527D02*
X2302137D01*
X2287610Y1643510D01*
X2276490Y1632390D01*
X2270472Y1617862D01*
Y1602138D01*
X2276490Y1587610D01*
X2287610Y1576490D01*
X2302137Y1570473D01*
X2317863D01*
X2332390Y1576490D01*
X2343510Y1587610D01*
X2349528Y1602138D01*
Y1617862D01*
X2343510Y1632390D01*
X2332390Y1643510D01*
X2317863Y1649527D01*
D02*
G37*
G36*
X2217863D02*
X2202137D01*
X2187610Y1643510D01*
X2176490Y1632390D01*
X2170472Y1617862D01*
Y1602138D01*
X2176490Y1587610D01*
X2187610Y1576490D01*
X2202137Y1570473D01*
X2217863D01*
X2232390Y1576490D01*
X2243510Y1587610D01*
X2249528Y1602138D01*
Y1617862D01*
X2243510Y1632390D01*
X2232390Y1643510D01*
X2217863Y1649527D01*
D02*
G37*
G36*
X1317862D02*
X1302138D01*
X1287610Y1643510D01*
X1276490Y1632390D01*
X1270473Y1617862D01*
Y1602138D01*
X1276490Y1587610D01*
X1287610Y1576490D01*
X1302138Y1570473D01*
X1317862D01*
X1332390Y1576490D01*
X1343510Y1587610D01*
X1349527Y1602138D01*
Y1617862D01*
X1343510Y1632390D01*
X1332390Y1643510D01*
X1317862Y1649527D01*
D02*
G37*
G36*
X697862Y1814527D02*
X682138D01*
X667610Y1808510D01*
X656490Y1797390D01*
X650472Y1782862D01*
Y1767138D01*
X656490Y1752610D01*
X667610Y1741490D01*
X682138Y1735473D01*
X697862D01*
X701311Y1736901D01*
X788634Y1649578D01*
X802028Y1644031D01*
X881059D01*
X883130Y1639031D01*
X876490Y1632390D01*
X870472Y1617862D01*
Y1602138D01*
X876490Y1587610D01*
X880538Y1583561D01*
X878625Y1578942D01*
X729528D01*
Y1582862D01*
X723510Y1597390D01*
X712390Y1608510D01*
X697862Y1614527D01*
X682138D01*
X667610Y1608510D01*
X656490Y1597390D01*
X650472Y1582862D01*
Y1567138D01*
X656490Y1552610D01*
X667610Y1541490D01*
X682138Y1535473D01*
X697862D01*
X712390Y1541490D01*
X713412Y1542512D01*
X716921Y1541058D01*
X878625D01*
X880538Y1536439D01*
X876490Y1532390D01*
X875062Y1528942D01*
X728578D01*
X715184Y1523394D01*
X703841Y1512051D01*
X697862Y1514527D01*
X682138D01*
X667610Y1508510D01*
X656490Y1497390D01*
X650472Y1482862D01*
Y1467138D01*
X656490Y1452610D01*
X667610Y1441490D01*
X682138Y1435473D01*
X697862D01*
X712390Y1441490D01*
X723510Y1452610D01*
X729528Y1467138D01*
Y1482862D01*
X729147Y1483781D01*
X736424Y1491058D01*
X875062D01*
X876490Y1487610D01*
X887610Y1476490D01*
X902137Y1470473D01*
X901573Y1465706D01*
X761764D01*
X748370Y1460158D01*
X701311Y1413099D01*
X697862Y1414527D01*
X682138D01*
X667610Y1408510D01*
X656490Y1397390D01*
X650472Y1382862D01*
Y1367138D01*
X656490Y1352610D01*
X667610Y1341490D01*
X682138Y1335473D01*
X697862D01*
X712390Y1341490D01*
X723510Y1352610D01*
X729528Y1367138D01*
Y1382862D01*
X728099Y1386311D01*
X769610Y1427822D01*
X946764D01*
X960158Y1433370D01*
X998689Y1471901D01*
X1002138Y1470473D01*
X1017862D01*
X1032390Y1476490D01*
X1043510Y1487610D01*
X1049527Y1502138D01*
Y1517862D01*
X1043510Y1532390D01*
X1032390Y1543510D01*
X1017862Y1549527D01*
X1002138D01*
X987610Y1543510D01*
X976490Y1532390D01*
X970472Y1517862D01*
Y1502138D01*
X971901Y1498689D01*
X938918Y1465706D01*
X918427D01*
X917863Y1470473D01*
X932390Y1476490D01*
X943510Y1487610D01*
X949528Y1502138D01*
Y1517862D01*
X943510Y1532390D01*
X939462Y1536439D01*
X941375Y1541058D01*
X960000D01*
X973394Y1546606D01*
X998689Y1571901D01*
X1002138Y1570473D01*
X1017862D01*
X1032390Y1576490D01*
X1043510Y1587610D01*
X1049527Y1602138D01*
Y1617862D01*
X1043510Y1632390D01*
X1036870Y1639031D01*
X1038941Y1644031D01*
X1049182D01*
X1071901Y1621311D01*
X1070473Y1617862D01*
Y1602138D01*
X1076490Y1587610D01*
X1087610Y1576490D01*
X1102138Y1570473D01*
X1117862D01*
X1132390Y1576490D01*
X1143510Y1587610D01*
X1149527Y1602138D01*
Y1617862D01*
X1143510Y1632390D01*
X1132390Y1643510D01*
X1117862Y1649527D01*
X1102138D01*
X1098689Y1648099D01*
X1070421Y1676366D01*
X1057028Y1681914D01*
X1044348D01*
X1042434Y1686534D01*
X1043510Y1687610D01*
X1049527Y1702138D01*
Y1717862D01*
X1043510Y1732390D01*
X1032390Y1743510D01*
X1017862Y1749527D01*
X1002138D01*
X987610Y1743510D01*
X976490Y1732390D01*
X970472Y1717862D01*
Y1702138D01*
X976490Y1687610D01*
X977566Y1686534D01*
X975653Y1681914D01*
X944347D01*
X942434Y1686534D01*
X943510Y1687610D01*
X949528Y1702138D01*
Y1717862D01*
X943510Y1732390D01*
X932390Y1743510D01*
X917862Y1749527D01*
X902138D01*
X887610Y1743510D01*
X876490Y1732390D01*
X870472Y1717862D01*
Y1702138D01*
X876490Y1687610D01*
X877566Y1686534D01*
X875653Y1681914D01*
X809874D01*
X728099Y1763689D01*
X729528Y1767138D01*
Y1782862D01*
X723510Y1797390D01*
X712390Y1808510D01*
X697862Y1814527D01*
D02*
G37*
G36*
X2817863Y1549527D02*
X2802137D01*
X2787610Y1543510D01*
X2776490Y1532390D01*
X2770472Y1517862D01*
Y1502138D01*
X2776490Y1487610D01*
X2787610Y1476490D01*
X2802137Y1470473D01*
X2817863D01*
X2832390Y1476490D01*
X2843510Y1487610D01*
X2849528Y1502138D01*
Y1517862D01*
X2843510Y1532390D01*
X2832390Y1543510D01*
X2817863Y1549527D01*
D02*
G37*
G36*
X2717863D02*
X2702137D01*
X2687610Y1543510D01*
X2676490Y1532390D01*
X2670472Y1517862D01*
Y1502138D01*
X2676490Y1487610D01*
X2687610Y1476490D01*
X2702137Y1470473D01*
X2717863D01*
X2732390Y1476490D01*
X2743510Y1487610D01*
X2749528Y1502138D01*
Y1517862D01*
X2743510Y1532390D01*
X2732390Y1543510D01*
X2717863Y1549527D01*
D02*
G37*
G36*
X2617863D02*
X2602137D01*
X2587610Y1543510D01*
X2576490Y1532390D01*
X2570472Y1517862D01*
Y1502138D01*
X2576490Y1487610D01*
X2587610Y1476490D01*
X2602137Y1470473D01*
X2617863D01*
X2632390Y1476490D01*
X2643510Y1487610D01*
X2649528Y1502138D01*
Y1517862D01*
X2643510Y1532390D01*
X2632390Y1543510D01*
X2617863Y1549527D01*
D02*
G37*
G36*
X2317863D02*
X2302137D01*
X2287610Y1543510D01*
X2276490Y1532390D01*
X2270472Y1517862D01*
Y1502138D01*
X2276490Y1487610D01*
X2287610Y1476490D01*
X2302137Y1470473D01*
X2317863D01*
X2332390Y1476490D01*
X2343510Y1487610D01*
X2349528Y1502138D01*
Y1517862D01*
X2343510Y1532390D01*
X2332390Y1543510D01*
X2317863Y1549527D01*
D02*
G37*
G36*
X2217863D02*
X2202137D01*
X2187610Y1543510D01*
X2176490Y1532390D01*
X2170472Y1517862D01*
Y1502138D01*
X2176490Y1487610D01*
X2187610Y1476490D01*
X2202137Y1470473D01*
X2217863D01*
X2232390Y1476490D01*
X2243510Y1487610D01*
X2249528Y1502138D01*
Y1517862D01*
X2243510Y1532390D01*
X2232390Y1543510D01*
X2217863Y1549527D01*
D02*
G37*
G36*
X1217862D02*
X1202138D01*
X1187610Y1543510D01*
X1176490Y1532390D01*
X1170473Y1517862D01*
Y1502138D01*
X1176490Y1487610D01*
X1187610Y1476490D01*
X1202138Y1470473D01*
X1217862D01*
X1232390Y1476490D01*
X1243510Y1487610D01*
X1249527Y1502138D01*
Y1517862D01*
X1243510Y1532390D01*
X1232390Y1543510D01*
X1217862Y1549527D01*
D02*
G37*
G36*
X1117862D02*
X1102138D01*
X1087610Y1543510D01*
X1076490Y1532390D01*
X1070473Y1517862D01*
Y1502138D01*
X1071901Y1498689D01*
X967154Y1393942D01*
X790000D01*
X776606Y1388394D01*
X701311Y1313099D01*
X697862Y1314527D01*
X682138D01*
X667610Y1308510D01*
X656490Y1297390D01*
X650472Y1282862D01*
Y1267138D01*
X656490Y1252610D01*
X667610Y1241490D01*
X682138Y1235473D01*
X697862D01*
X712390Y1241490D01*
X723510Y1252610D01*
X729528Y1267138D01*
Y1282862D01*
X728099Y1286311D01*
X797846Y1356058D01*
X975000D01*
X988394Y1361606D01*
X1098689Y1471901D01*
X1102138Y1470473D01*
X1117862D01*
X1132390Y1476490D01*
X1143510Y1487610D01*
X1149527Y1502138D01*
Y1517862D01*
X1143510Y1532390D01*
X1132390Y1543510D01*
X1117862Y1549527D01*
D02*
G37*
G36*
X2263254Y1371496D02*
X2246746D01*
X2231494Y1365179D01*
X2219821Y1353506D01*
X2213504Y1338254D01*
Y1321746D01*
X2219821Y1306494D01*
X2231494Y1294821D01*
X2246746Y1288504D01*
X2263254D01*
X2278506Y1294821D01*
X2290179Y1306494D01*
X2296496Y1321746D01*
Y1338254D01*
X2290179Y1353506D01*
X2278506Y1365179D01*
X2263254Y1371496D01*
D02*
G37*
G36*
X1408254D02*
X1391746D01*
X1376494Y1365179D01*
X1364821Y1353506D01*
X1358504Y1338254D01*
Y1321746D01*
X1364821Y1306494D01*
X1376494Y1294821D01*
X1391746Y1288504D01*
X1408254D01*
X1423506Y1294821D01*
X1435179Y1306494D01*
X1441496Y1321746D01*
Y1338254D01*
X1435179Y1353506D01*
X1423506Y1365179D01*
X1408254Y1371496D01*
D02*
G37*
G36*
X2757863Y1314527D02*
X2742137D01*
X2727610Y1308510D01*
X2716490Y1297390D01*
X2710472Y1282862D01*
Y1267138D01*
X2716490Y1252610D01*
X2727610Y1241490D01*
X2742137Y1235473D01*
X2757863D01*
X2772390Y1241490D01*
X2783510Y1252610D01*
X2789528Y1267138D01*
Y1282862D01*
X2783510Y1297390D01*
X2772390Y1308510D01*
X2757863Y1314527D01*
D02*
G37*
G36*
X2657863D02*
X2642137D01*
X2627610Y1308510D01*
X2616490Y1297390D01*
X2610472Y1282862D01*
Y1267138D01*
X2616490Y1252610D01*
X2627610Y1241490D01*
X2642137Y1235473D01*
X2657863D01*
X2672390Y1241490D01*
X2683510Y1252610D01*
X2689528Y1267138D01*
Y1282862D01*
X2683510Y1297390D01*
X2672390Y1308510D01*
X2657863Y1314527D01*
D02*
G37*
G36*
X2557863D02*
X2542137D01*
X2527610Y1308510D01*
X2516490Y1297390D01*
X2510472Y1282862D01*
Y1267138D01*
X2516490Y1252610D01*
X2527610Y1241490D01*
X2542137Y1235473D01*
X2557863D01*
X2572390Y1241490D01*
X2583510Y1252610D01*
X2589528Y1267138D01*
Y1282862D01*
X2583510Y1297390D01*
X2572390Y1308510D01*
X2557863Y1314527D01*
D02*
G37*
G36*
X2263254Y1271496D02*
X2246746D01*
X2231494Y1265179D01*
X2219821Y1253506D01*
X2213504Y1238254D01*
Y1221746D01*
X2219821Y1206494D01*
X2231494Y1194821D01*
X2246746Y1188504D01*
X2263254D01*
X2278506Y1194821D01*
X2290179Y1206494D01*
X2296496Y1221746D01*
Y1238254D01*
X2290179Y1253506D01*
X2278506Y1265179D01*
X2263254Y1271496D01*
D02*
G37*
G36*
X2163254D02*
X2146746D01*
X2131494Y1265179D01*
X2119821Y1253506D01*
X2113504Y1238254D01*
Y1221746D01*
X2119821Y1206494D01*
X2131494Y1194821D01*
X2146746Y1188504D01*
X2163254D01*
X2178506Y1194821D01*
X2190179Y1206494D01*
X2196496Y1221746D01*
Y1238254D01*
X2190179Y1253506D01*
X2178506Y1265179D01*
X2163254Y1271496D01*
D02*
G37*
G36*
X1408254D02*
X1391746D01*
X1376494Y1265179D01*
X1364821Y1253506D01*
X1358504Y1238254D01*
Y1221746D01*
X1364821Y1206494D01*
X1376494Y1194821D01*
X1391746Y1188504D01*
X1408254D01*
X1423506Y1194821D01*
X1435179Y1206494D01*
X1441496Y1221746D01*
Y1238254D01*
X1435179Y1253506D01*
X1423506Y1265179D01*
X1408254Y1271496D01*
D02*
G37*
G36*
X1308254D02*
X1291746D01*
X1276494Y1265179D01*
X1264821Y1253506D01*
X1258504Y1238254D01*
Y1221746D01*
X1264821Y1206494D01*
X1276494Y1194821D01*
X1291746Y1188504D01*
X1308254D01*
X1323506Y1194821D01*
X1335179Y1206494D01*
X1341496Y1221746D01*
Y1238254D01*
X1335179Y1253506D01*
X1323506Y1265179D01*
X1308254Y1271496D01*
D02*
G37*
G36*
X2966496Y1096496D02*
X2883504D01*
Y1013504D01*
X2966496D01*
Y1096496D01*
D02*
G37*
G36*
X2475000Y815686D02*
X2461344Y812969D01*
X2449766Y805234D01*
X2442031Y793656D01*
X2439314Y780000D01*
Y775000D01*
Y647500D01*
X2439800Y645058D01*
Y640338D01*
X2441606Y635977D01*
X2442031Y633844D01*
X2443239Y632035D01*
X2445128Y627474D01*
X2448619Y623983D01*
X2449766Y622266D01*
X2451483Y621119D01*
X2454974Y617628D01*
X2459535Y615739D01*
X2461344Y614531D01*
X2463477Y614106D01*
X2467838Y612300D01*
X2472558D01*
X2475000Y611814D01*
X2477442Y612300D01*
X2481762D01*
X2485753Y613953D01*
X2488656Y614531D01*
X2491117Y616175D01*
X2494626Y617628D01*
X2497311Y620314D01*
X2500234Y622266D01*
X2502186Y625189D01*
X2504472Y627474D01*
X2505708Y630460D01*
X2507969Y633844D01*
X2508763Y637835D01*
X2509800Y640338D01*
Y643047D01*
X2510686Y647500D01*
Y775000D01*
Y780000D01*
X2507969Y793656D01*
X2500234Y805234D01*
X2488656Y812969D01*
X2475000Y815686D01*
D02*
G37*
G36*
X2595000D02*
X2581344Y812969D01*
X2569766Y805234D01*
X2562031Y793656D01*
X2559314Y780000D01*
Y775000D01*
Y647400D01*
X2559900Y644456D01*
Y640338D01*
X2561476Y636534D01*
X2562031Y633744D01*
X2563611Y631378D01*
X2565228Y627474D01*
X2568216Y624486D01*
X2569766Y622166D01*
X2572086Y620616D01*
X2575074Y617628D01*
X2578978Y616011D01*
X2581344Y614431D01*
X2584134Y613876D01*
X2587938Y612300D01*
X2592055D01*
X2595000Y611714D01*
X2597945Y612300D01*
X2601862D01*
X2605481Y613799D01*
X2608656Y614431D01*
X2611348Y616229D01*
X2614726Y617628D01*
X2617311Y620214D01*
X2620234Y622166D01*
X2622186Y625089D01*
X2624572Y627474D01*
X2625863Y630591D01*
X2627969Y633744D01*
X2628709Y637463D01*
X2629900Y640338D01*
Y643450D01*
X2630686Y647400D01*
Y775000D01*
Y780000D01*
X2627969Y793656D01*
X2620234Y805234D01*
X2608656Y812969D01*
X2595000Y815686D01*
D02*
G37*
G36*
X2715000D02*
X2701344Y812969D01*
X2689766Y805234D01*
X2682031Y793656D01*
X2679314Y780000D01*
Y775000D01*
Y647300D01*
X2680000Y643853D01*
Y640338D01*
X2681345Y637091D01*
X2682031Y633644D01*
X2683983Y630721D01*
X2685328Y627474D01*
X2687814Y624989D01*
X2689766Y622066D01*
X2692689Y620114D01*
X2695174Y617628D01*
X2698421Y616283D01*
X2701344Y614331D01*
X2704791Y613645D01*
X2708038Y612300D01*
X2711553D01*
X2715000Y611614D01*
X2718447Y612300D01*
X2721962D01*
X2725209Y613645D01*
X2728656Y614331D01*
X2731579Y616283D01*
X2734826Y617628D01*
X2737311Y620114D01*
X2740234Y622066D01*
X2742186Y624989D01*
X2744672Y627474D01*
X2746017Y630721D01*
X2747969Y633644D01*
X2748655Y637091D01*
X2750000Y640338D01*
Y643853D01*
X2750686Y647300D01*
Y775000D01*
Y780000D01*
X2747969Y793656D01*
X2740234Y805234D01*
X2728656Y812969D01*
X2715000Y815686D01*
D02*
G37*
G36*
X2357162Y845000D02*
X2343238D01*
X2330374Y839672D01*
X2320528Y829826D01*
X2315200Y816962D01*
Y803038D01*
X2320528Y790174D01*
X2324610Y786092D01*
Y680000D01*
X2317031Y668656D01*
X2314314Y655000D01*
Y645000D01*
X2317031Y631344D01*
X2324766Y619766D01*
X2336344Y612031D01*
X2350000Y609314D01*
X2363656Y612031D01*
X2375234Y619766D01*
X2382969Y631344D01*
X2385686Y645000D01*
Y655000D01*
X2382969Y668656D01*
X2375590Y679701D01*
Y785892D01*
X2379872Y790174D01*
X2385200Y803038D01*
Y816962D01*
X2379872Y829826D01*
X2370026Y839672D01*
X2357162Y845000D01*
D02*
G37*
G36*
X2247162D02*
X2233238D01*
X2220374Y839672D01*
X2210528Y829826D01*
X2205200Y816962D01*
Y803038D01*
X2210528Y790174D01*
X2219610Y781092D01*
Y672517D01*
X2217031Y668656D01*
X2214314Y655000D01*
Y645000D01*
X2217031Y631344D01*
X2224766Y619766D01*
X2236344Y612031D01*
X2250000Y609314D01*
X2263656Y612031D01*
X2275234Y619766D01*
X2282969Y631344D01*
X2285686Y645000D01*
Y655000D01*
X2282969Y668656D01*
X2275234Y680234D01*
X2270590Y683337D01*
Y791908D01*
X2275200Y803038D01*
Y816962D01*
X2269872Y829826D01*
X2260026Y839672D01*
X2247162Y845000D01*
D02*
G37*
G36*
X1506962D02*
X1493038D01*
X1480174Y839672D01*
X1470328Y829826D01*
X1465000Y816962D01*
Y803038D01*
X1470328Y790174D01*
X1477010Y783492D01*
Y676109D01*
X1472031Y668656D01*
X1469314Y655000D01*
Y645000D01*
X1472031Y631344D01*
X1479766Y619766D01*
X1491344Y612031D01*
X1505000Y609314D01*
X1518656Y612031D01*
X1530234Y619766D01*
X1537969Y631344D01*
X1540686Y645000D01*
Y655000D01*
X1537969Y668656D01*
X1530234Y680234D01*
X1527990Y681733D01*
Y788492D01*
X1529672Y790174D01*
X1535000Y803038D01*
Y816962D01*
X1529672Y829826D01*
X1519826Y839672D01*
X1506962Y845000D01*
D02*
G37*
G36*
X1277162D02*
X1263238D01*
X1250374Y839672D01*
X1240528Y829826D01*
X1235200Y816962D01*
Y803038D01*
X1240528Y790174D01*
X1242110Y788592D01*
Y681800D01*
X1239766Y680234D01*
X1232031Y668656D01*
X1229314Y655000D01*
Y645000D01*
X1232031Y631344D01*
X1239766Y619766D01*
X1251344Y612031D01*
X1265000Y609314D01*
X1278656Y612031D01*
X1290234Y619766D01*
X1297969Y631344D01*
X1300686Y645000D01*
Y655000D01*
X1297969Y668656D01*
X1293090Y675959D01*
Y783392D01*
X1299872Y790174D01*
X1305200Y803038D01*
Y816962D01*
X1299872Y829826D01*
X1290026Y839672D01*
X1277162Y845000D01*
D02*
G37*
G36*
X2984429Y302401D02*
X2965571D01*
X2948149Y295185D01*
X2934815Y281851D01*
X2927599Y264429D01*
Y245571D01*
X2934815Y228149D01*
X2948149Y214815D01*
X2965571Y207599D01*
X2984429D01*
X3001851Y214815D01*
X3015185Y228149D01*
X3022401Y245571D01*
Y264429D01*
X3015185Y281851D01*
X3001851Y295185D01*
X2984429Y302401D01*
D02*
G37*
G36*
X2784429D02*
X2765571D01*
X2748149Y295185D01*
X2734815Y281851D01*
X2727599Y264429D01*
Y245571D01*
X2734815Y228149D01*
X2748149Y214815D01*
X2765571Y207599D01*
X2784429D01*
X2801851Y214815D01*
X2815185Y228149D01*
X2822401Y245571D01*
Y264429D01*
X2815185Y281851D01*
X2801851Y295185D01*
X2784429Y302401D01*
D02*
G37*
G36*
X1089832Y415394D02*
X1078140D01*
Y409104D01*
X1089832D01*
Y415394D01*
D02*
G37*
G36*
Y389864D02*
X1076216D01*
Y382538D01*
X1089832D01*
Y389864D01*
D02*
G37*
G36*
X825430Y329316D02*
X806930D01*
Y310964D01*
X825430D01*
Y329316D01*
D02*
G37*
G36*
Y307930D02*
X806930D01*
Y288468D01*
X825430D01*
Y307930D01*
D02*
G37*
%LPD*%
D10*
X2595000Y775000D02*
D03*
Y875000D02*
D03*
X2250000Y550000D02*
D03*
Y650000D02*
D03*
X1750000Y550000D02*
D03*
Y650000D02*
D03*
X2715000Y775000D02*
D03*
Y875000D02*
D03*
X2475000D02*
D03*
Y775000D02*
D03*
X1505000Y550000D02*
D03*
Y650000D02*
D03*
X1265000Y550000D02*
D03*
Y650000D02*
D03*
X1990000Y550000D02*
D03*
Y650000D02*
D03*
X2350000Y550000D02*
D03*
Y650000D02*
D03*
D11*
X1105000Y696590D02*
D03*
X680000D02*
D03*
D12*
X1105000Y562732D02*
D03*
X680000D02*
D03*
D13*
X1151500Y860000D02*
D03*
X721500D02*
D03*
X2858500Y1175000D02*
D03*
D14*
X1078500Y860000D02*
D03*
X648500D02*
D03*
X2931500Y1175000D02*
D03*
D15*
X2595100Y565000D02*
D03*
X2715200D02*
D03*
X2475000D02*
D03*
D16*
X2594900Y647300D02*
D03*
X240200Y1122700D02*
D03*
X240000Y1205000D02*
D03*
X2240000Y892300D02*
D03*
X2240200Y810000D02*
D03*
X2715000Y647300D02*
D03*
X2474800D02*
D03*
X1499800Y892300D02*
D03*
X1500000Y810000D02*
D03*
X1270000Y892300D02*
D03*
X1270200Y810000D02*
D03*
X425000Y1205100D02*
D03*
X425200Y1122800D02*
D03*
X1760000Y892300D02*
D03*
X1760200Y810000D02*
D03*
X1984800Y892300D02*
D03*
X1985000Y810000D02*
D03*
X2350000Y892300D02*
D03*
X2350200Y810000D02*
D03*
X247300Y2805200D02*
D03*
X165000Y2805000D02*
D03*
X167700Y2674800D02*
D03*
X250000Y2675000D02*
D03*
D17*
X2945000Y3013500D02*
D03*
D18*
Y3086500D02*
D03*
X115000Y1206500D02*
D03*
Y1133500D02*
D03*
D19*
X814448Y570724D02*
D03*
D20*
X905000D02*
D03*
X995552D02*
D03*
D21*
X905000Y840724D02*
D03*
D22*
X1748334Y103480D02*
D03*
X1506666D02*
D03*
X1265000D02*
D03*
X1990000D02*
D03*
D23*
X1748334Y410566D02*
D03*
X1506666D02*
D03*
X1265000D02*
D03*
X1990000D02*
D03*
D24*
X245000Y2507598D02*
D03*
Y2582402D02*
D03*
X155000Y2545000D02*
D03*
D25*
X1357551Y3228956D02*
X1462972Y3123535D01*
X273956Y3228956D02*
X1357551D01*
X165000Y3120000D02*
X273956Y3228956D01*
X701921Y1575000D02*
X716921Y1560000D01*
X690000Y1575000D02*
X701921D01*
X716921Y1560000D02*
X960000D01*
X605000Y1880000D02*
X650000Y1925000D01*
X605000Y1760000D02*
Y1880000D01*
X650000Y1925000D02*
X775000D01*
X840000Y1860000D01*
X1026507D01*
X605000Y1760000D02*
X690000Y1675000D01*
Y1775000D02*
X802028Y1662972D01*
X1057028D01*
X690000Y1475000D02*
X693578D01*
X728578Y1510000D01*
X910000D01*
X761764Y1446764D02*
X946764D01*
X700000Y1385000D02*
X761764Y1446764D01*
X946764D02*
X1010000Y1510000D01*
X690000Y1275000D02*
X790000Y1375000D01*
X2457028Y1557028D02*
X2510000Y1610000D01*
X2457028Y1432028D02*
Y1557028D01*
X2355000Y1330000D02*
X2457028Y1432028D01*
X2055000Y1230000D02*
X2103996Y1278996D01*
Y1363996D01*
X2140000Y1400000D02*
X2300000D01*
X2103996Y1363996D02*
X2140000Y1400000D01*
X2300000D02*
X2410000Y1510000D01*
X1248996Y1278996D02*
Y1363996D01*
X1200000Y1230000D02*
X1248996Y1278996D01*
X1357028Y1557028D02*
X1410000Y1610000D01*
X1357028Y1472028D02*
Y1557028D01*
X1248996Y1363996D02*
X1357028Y1472028D01*
X1500000Y1330000D02*
Y1420000D01*
X1410000Y1510000D02*
X1500000Y1420000D01*
X1108938Y696590D02*
Y696591D01*
X1151500Y739153D01*
Y860000D01*
X120400Y1128100D02*
X234800D01*
X240200Y1122700D01*
X115000Y1133500D02*
X120400Y1128100D01*
X115000Y1206500D02*
X115750Y1205750D01*
X239250D01*
X240000Y1205000D01*
X2715200Y565000D02*
X2720200Y570000D01*
X2785000D01*
X2845000Y475000D02*
X2925000Y555000D01*
X2658896Y511200D02*
X2695096Y475000D01*
X2845000D01*
X2574151Y511200D02*
X2658896D01*
X2522500Y565000D02*
X2542676Y544824D01*
X2612600Y547500D02*
X2657951D01*
X2682951Y522500D01*
X2475000Y565000D02*
X2522500D01*
X2804759Y522500D02*
X2886255Y603996D01*
X2542676Y542676D02*
Y544824D01*
Y542676D02*
X2574151Y511200D01*
X2595100Y565000D02*
X2612600Y547500D01*
X2682951Y522500D02*
X2804759D01*
X3053996Y603996D02*
X3095000Y645000D01*
X2886255Y603996D02*
X3053996D01*
X761507Y2660000D02*
X1474038D01*
X709479Y2607972D02*
X761507Y2660000D01*
X1474038D02*
X1649298Y2835260D01*
X2260533Y2994026D02*
Y3059467D01*
X2101767Y2835260D02*
X2260533Y2994026D01*
X2210000Y3110000D02*
X2260533Y3059467D01*
X1649298Y2835260D02*
X2101767D01*
X2062972Y3090521D02*
X2096465Y3057028D01*
X1794968Y3415032D02*
X2062972Y3147028D01*
X2096465Y3057028D02*
X2162972D01*
X2210000Y3010000D01*
X627972Y2607972D02*
X709479D01*
X343799Y2323799D02*
X627972Y2607972D01*
X343799Y1308799D02*
Y2323799D01*
X240000Y1205000D02*
X343799Y1308799D01*
X245000Y2507598D02*
X258780D01*
X315000Y2563818D01*
Y2602500D01*
X242300Y2675200D02*
X315000Y2602500D01*
X240000Y1205000D02*
X420000D01*
X425000Y1200000D01*
X425200Y916262D02*
X475040Y866422D01*
X425200Y916262D02*
Y1117700D01*
X475040Y845000D02*
Y866422D01*
X240200Y1122700D02*
X357776Y1005124D01*
Y403277D02*
Y1005124D01*
X295000Y340501D02*
X357776Y403277D01*
X295000Y240000D02*
Y340501D01*
X2559215Y3129215D02*
X2955000Y3525000D01*
X2559215Y3059215D02*
Y3129215D01*
X2510000Y3110000D02*
Y3115355D01*
X2855000Y3460355D01*
Y3680000D01*
X2510000Y3010000D02*
X2559215Y3059215D01*
X2955000Y3525000D02*
Y3680000D01*
X1911666D02*
X2457028Y3134638D01*
Y3057028D02*
Y3134638D01*
X2410000Y3010000D02*
X2457028Y3057028D01*
X2373236Y3118430D02*
X2401570D01*
X1811666Y3680000D02*
X2373236Y3118430D01*
X2401570D02*
X2410000Y3110000D01*
X1805323Y3440032D02*
X2101570Y3143785D01*
X1333302Y3415032D02*
X1794968D01*
X1731507Y3355000D02*
X1957028Y3129479D01*
X625000Y3670000D02*
X940000Y3355000D01*
X1408302Y3440032D02*
X1805323D01*
X1168334Y3680000D02*
X1408302Y3440032D01*
X1068334Y3680000D02*
X1333302Y3415032D01*
X940000Y3355000D02*
X1731507D01*
X2101570Y3118430D02*
X2110000Y3110000D01*
X2101570Y3118430D02*
Y3143785D01*
X2062972Y3090521D02*
Y3147028D01*
X875000Y3315000D02*
X1699645D01*
X1904645Y3110000D01*
X697468Y3492532D02*
X875000Y3315000D01*
X340000Y3680000D02*
X556044Y3463956D01*
X656044D02*
X835000Y3285000D01*
X425000Y3680000D02*
X612468Y3492532D01*
X697468D01*
X556044Y3463956D02*
X656044D01*
X835000Y3285000D02*
X1545000D01*
X333787Y3680000D02*
X340000D01*
X325000Y3680000D02*
X333787Y3680000D01*
X1545000Y3285000D02*
X1660000Y3170000D01*
X625000Y3670000D02*
Y3680000D01*
X1957028Y3057028D02*
Y3129479D01*
X1910000Y3010000D02*
X1957028Y3057028D01*
X1904645Y3110000D02*
X1910000D01*
X1660000Y2980000D02*
Y3170000D01*
X1925000Y2925000D02*
X2010000Y3010000D01*
X1715000Y2925000D02*
X1925000D01*
X1660000Y2980000D02*
X1715000Y2925000D01*
X1462972Y3057028D02*
Y3123535D01*
X165000Y2805000D02*
Y3120000D01*
X1462972Y3057028D02*
X1510000Y3010000D01*
X160000Y2675000D02*
Y2800000D01*
X165000Y2805000D01*
X1667500Y1719007D02*
Y2502500D01*
X1735000Y2570000D01*
X1560000Y1220709D02*
Y2560000D01*
X1692500Y2432500D02*
X1825000Y2565000D01*
X1692500Y1794007D02*
Y2432500D01*
X1555000Y2565000D02*
X1560000Y2560000D01*
X1820000Y1801862D02*
Y2325000D01*
Y1801862D02*
X1964835Y1657028D01*
X2057028Y1490521D02*
Y1629479D01*
X2029479Y1657028D02*
X2057028Y1629479D01*
X1964835Y1657028D02*
X2029479D01*
X1932500Y1131685D02*
Y1365993D01*
X1730000Y1856507D02*
X1957028Y1629479D01*
X1730000Y1856507D02*
Y2314541D01*
X1907500Y1102552D02*
X2027500Y982552D01*
X1932500Y1365993D02*
X2057028Y1490521D01*
X1907500Y1102552D02*
Y1415307D01*
X1957028Y1464835D02*
Y1629479D01*
X1907500Y1415307D02*
X1957028Y1464835D01*
X1730000Y2314541D02*
X1736506Y2321046D01*
X1990000Y550000D02*
Y555000D01*
Y530000D02*
Y550000D01*
X1505000Y555000D02*
X1657028Y707028D01*
X1692500Y1794007D02*
X1857028Y1629479D01*
Y687972D02*
Y1629479D01*
Y687972D02*
X1990000Y555000D01*
X1757028Y1496465D02*
Y1629479D01*
X1802700Y607700D02*
Y1450793D01*
X1657028Y707028D02*
Y1629479D01*
X1757028Y1496465D02*
X1802700Y1450793D01*
X1749166Y554166D02*
X1802700Y607700D01*
X1667500Y1719007D02*
X1757028Y1629479D01*
X1625000Y1661507D02*
X1657028Y1629479D01*
X1625000Y1661507D02*
Y2325104D01*
X1749166Y549166D02*
Y554166D01*
X1986685Y1077500D02*
X2312500D01*
X1932500Y1131685D02*
X1986685Y1077500D01*
X2312500D02*
X2410000Y980000D01*
Y615000D02*
Y980000D01*
X2350000Y555000D02*
X2410000Y615000D01*
X2350000Y550000D02*
Y555000D01*
X2250000Y550000D02*
Y555000D01*
X2027500Y777500D02*
Y982552D01*
Y777500D02*
X2250000Y555000D01*
X1350000Y1010709D02*
X1560000Y1220709D01*
X1505000Y550000D02*
Y555000D01*
X1265000D02*
X1350000Y640000D01*
X1265000Y550000D02*
Y555000D01*
X1350000Y640000D02*
Y1010709D01*
X683937Y696590D02*
X700059Y712712D01*
Y716649D01*
X680000Y696590D02*
X683937D01*
X700059Y680468D01*
Y676531D02*
Y680468D01*
X995552Y544149D02*
Y570724D01*
X2998079Y1640000D02*
X3010000D01*
X2981051Y1657028D02*
X2998079Y1640000D01*
X2457028Y1657028D02*
X2981051D01*
X2410000Y1610000D02*
X2457028Y1657028D01*
X2957028Y2055165D02*
Y2307028D01*
X2829479Y2062972D02*
X2882028Y2115521D01*
X2907028Y2105165D02*
Y2457028D01*
X2811862Y1910000D02*
X2957028Y2055165D01*
X2810000Y2110000D02*
X2857028Y2157028D01*
X2932028Y2065521D02*
Y2382028D01*
X2857028Y2157028D02*
Y2607028D01*
X2811862Y2010000D02*
X2907028Y2105165D01*
X2829479Y1962972D02*
X2932028Y2065521D01*
X2882028Y2115521D02*
Y2532028D01*
X2757028Y1962972D02*
X2829479D01*
X2932028Y2382028D02*
X3010000Y2460000D01*
X2810000Y1910000D02*
X2811862D01*
X2957028Y2307028D02*
X3010000Y2360000D01*
X2907028Y2457028D02*
X3010000Y2560000D01*
X2882028Y2532028D02*
X3010000Y2660000D01*
X2710000Y2010000D02*
X2757028Y1962972D01*
X2767028Y2062972D02*
X2829479D01*
X2810000Y2010000D02*
X2811862D01*
X2857028Y2607028D02*
X3010000Y2760000D01*
X2710000Y2110000D02*
X2720000D01*
X2767028Y2062972D01*
X1405000Y1510000D02*
X1410000D01*
X790000Y1375000D02*
X975000D01*
X1110000Y1510000D01*
X1115525Y1704475D02*
Y1770982D01*
X1026507Y1860000D02*
X1115525Y1770982D01*
Y1704475D02*
X1210000Y1610000D01*
X1057028Y1662972D02*
X1110000Y1610000D01*
X960000Y1560000D02*
X1010000Y1610000D01*
X2410000Y1508138D02*
Y1510000D01*
D26*
X2810000Y3010000D02*
X3010000D01*
X3095000Y645000D02*
Y2925000D01*
Y180000D02*
Y645000D01*
X2795000Y755000D02*
Y985000D01*
X2888504Y661496D02*
X2918504D01*
X2795000Y755000D02*
X2888504Y661496D01*
X2918504D02*
X2925000Y655000D01*
X2660000Y1120000D02*
X2795000Y985000D01*
X2004289Y1120000D02*
X2660000D01*
X1975000Y1262490D02*
X2009006Y1296496D01*
X1975000Y1149289D02*
Y1262490D01*
X2048998Y1327514D02*
Y1330000D01*
X2009006Y1296496D02*
X2017980D01*
X2048998Y1327514D01*
X1975000Y1149289D02*
X2004289Y1120000D01*
X2475000Y647500D02*
Y775000D01*
X2710000Y3010000D02*
X2810000D01*
X3020000Y105000D02*
X3095000Y180000D01*
X3010000Y3010000D02*
X3095000Y2925000D01*
X2715000Y647300D02*
Y775000D01*
X2595000Y647400D02*
Y775000D01*
X2250000Y110000D02*
X2354582D01*
X2357820Y106760D01*
X2365210D01*
X2366970Y105000D01*
X3020000D01*
X1171280Y138720D02*
Y634248D01*
X1206520Y103480D02*
X1265000D01*
X1171280Y138720D02*
X1206520Y103480D01*
X1108938Y696590D02*
X1171280Y634248D01*
X1993260Y106740D02*
X2246740D01*
X1748334Y103480D02*
X1990000D01*
X1506666D02*
X1748334D01*
X1265000D02*
X1506666D01*
X924686Y840724D02*
X1067442Y697968D01*
X905000Y840724D02*
X924686D01*
X1067442Y697968D02*
X1103622D01*
X1105000Y696590D01*
X905000Y570724D02*
Y840724D01*
X995000Y571276D02*
X995552Y570724D01*
X995000Y571276D02*
Y660000D01*
D27*
X2850000Y930000D02*
Y1250000D01*
Y930000D02*
X2925000Y855000D01*
X2850000Y1250000D02*
X2995472Y1395472D01*
X2467114Y2790000D02*
X2681554Y3004441D01*
X1405000Y2545000D02*
X1650000Y2790000D01*
X2467114D01*
X785398Y2545000D02*
X1405000D01*
X390827Y1415625D02*
Y1644999D01*
Y1415625D02*
X721500Y1084952D01*
X810000Y470000D02*
X921403D01*
X760000Y520000D02*
Y616590D01*
Y520000D02*
X810000Y470000D01*
X700059Y676531D02*
X760000Y616590D01*
X721500Y860000D02*
Y1084952D01*
X155000Y1708384D02*
Y2545000D01*
X91615Y1644999D02*
X155000Y1708384D01*
X1990000Y410566D02*
Y530000D01*
X2681554Y3004441D02*
X2704441D01*
X2710000Y3010000D01*
X695398Y2455000D02*
X785398Y2545000D01*
X690000Y2455000D02*
X695398D01*
X2350100Y809900D02*
X2350200Y810000D01*
X2350000Y650000D02*
X2350100Y650100D01*
Y809900D01*
X2250000Y410000D02*
Y550000D01*
X1502500Y652500D02*
Y807500D01*
X1500000Y810000D02*
X1502500Y807500D01*
Y652500D02*
X1505000Y650000D01*
X700059Y716649D02*
X721500Y738090D01*
Y860000D01*
X921403Y470000D02*
X995552Y544149D01*
X2995472Y1395472D02*
Y1425472D01*
X3010000Y1440000D01*
X1265000Y410566D02*
Y550000D01*
X1750000Y799800D02*
X1760200Y810000D01*
X1750000Y650000D02*
Y799800D01*
X1987500Y652500D02*
X1990000Y650000D01*
X1985000Y810000D02*
X1987500Y807500D01*
Y652500D02*
Y807500D01*
X1505834Y411400D02*
X1506666Y410566D01*
X1505000Y550000D02*
X1505834Y549166D01*
Y411400D02*
Y549166D01*
X1748334Y410566D02*
X1749166Y411400D01*
Y549166D01*
X2350000Y410000D02*
Y550000D01*
X2240200Y810000D02*
X2245100Y805100D01*
Y654900D02*
X2250000Y650000D01*
X2245100Y654900D02*
Y805100D01*
X1267600Y652600D02*
Y807400D01*
X1265000Y650000D02*
X1267600Y652600D01*
Y807400D02*
X1270200Y810000D01*
X1105000Y696590D02*
X1108938D01*
X2246740Y106740D02*
X2250000Y110000D01*
X1990000Y103480D02*
X1993260Y106740D01*
D28*
X663500Y190000D02*
X623513D01*
X663500Y229987D01*
Y239984D01*
X653503Y249981D01*
X633509D01*
X623513Y239984D01*
X683493D02*
X693490Y249981D01*
X713483D01*
X723480Y239984D01*
Y199997D01*
X713483Y190000D01*
X693490D01*
X683493Y199997D01*
Y239984D01*
X783461Y190000D02*
X743474D01*
X783461Y229987D01*
Y239984D01*
X773464Y249981D01*
X753471D01*
X743474Y239984D01*
X803454Y190000D02*
X823448D01*
X813451D01*
Y249981D01*
X803454Y239984D01*
X853438Y190000D02*
Y199997D01*
X863435D01*
Y190000D01*
X853438D01*
X943409Y249981D02*
X903422D01*
Y219990D01*
X923415Y229987D01*
X933412D01*
X943409Y219990D01*
Y199997D01*
X933412Y190000D01*
X913419D01*
X903422Y199997D01*
X963403Y190000D02*
Y199997D01*
X973399D01*
Y190000D01*
X963403D01*
X1053373D02*
X1013386D01*
X1053373Y229987D01*
Y239984D01*
X1043377Y249981D01*
X1023383D01*
X1013386Y239984D01*
X1073367D02*
X1083364Y249981D01*
X1103357D01*
X1113354Y239984D01*
Y229987D01*
X1103357Y219990D01*
X1093360D01*
X1103357D01*
X1113354Y209994D01*
Y199997D01*
X1103357Y190000D01*
X1083364D01*
X1073367Y199997D01*
D29*
X3010000Y1440000D02*
D03*
X690000Y1875000D02*
D03*
Y2455000D02*
D03*
D30*
X3010000Y1540000D02*
D03*
Y1640000D02*
D03*
Y1740000D02*
D03*
X91615Y1644999D02*
D03*
X690000Y1275000D02*
D03*
Y1375000D02*
D03*
Y1475000D02*
D03*
Y1575000D02*
D03*
Y1675000D02*
D03*
Y1775000D02*
D03*
Y1975000D02*
D03*
X2710000Y1610000D02*
D03*
Y1510000D02*
D03*
X2810000Y1610000D02*
D03*
Y1510000D02*
D03*
X2710000Y1710000D02*
D03*
X2810000D02*
D03*
X2710000Y1810000D02*
D03*
X2810000D02*
D03*
X2710000Y1910000D02*
D03*
X2810000D02*
D03*
X2710000Y2010000D02*
D03*
X2810000D02*
D03*
X2710000Y2110000D02*
D03*
X2810000D02*
D03*
X2710000Y2210000D02*
D03*
X2810000D02*
D03*
X2710000Y2310000D02*
D03*
X2810000D02*
D03*
X2710000Y2410000D02*
D03*
X2810000D02*
D03*
X2710000Y2510000D02*
D03*
X2810000D02*
D03*
X2710000Y2610000D02*
D03*
X2810000D02*
D03*
X2710000Y2710000D02*
D03*
X2810000D02*
D03*
X2710000Y2810000D02*
D03*
X2810000D02*
D03*
X2710000Y2910000D02*
D03*
X2810000D02*
D03*
X2610000Y1510000D02*
D03*
Y1610000D02*
D03*
X2510000Y1510000D02*
D03*
Y1610000D02*
D03*
X2410000Y1510000D02*
D03*
Y1610000D02*
D03*
X2310000Y1510000D02*
D03*
Y1610000D02*
D03*
X2210000Y1510000D02*
D03*
Y1610000D02*
D03*
X2110000Y1510000D02*
D03*
Y1610000D02*
D03*
X2010000Y1510000D02*
D03*
Y1610000D02*
D03*
X1910000Y1510000D02*
D03*
Y1610000D02*
D03*
X1810000Y1510000D02*
D03*
Y1610000D02*
D03*
X1710000Y1510000D02*
D03*
Y1610000D02*
D03*
X2510000Y3010000D02*
D03*
Y3110000D02*
D03*
X2610000Y3010000D02*
D03*
Y3110000D02*
D03*
X2710000D02*
D03*
X2810000D02*
D03*
X1610000Y1510000D02*
D03*
Y1610000D02*
D03*
X1510000Y1510000D02*
D03*
Y1610000D02*
D03*
X1410000Y1510000D02*
D03*
Y1610000D02*
D03*
X1310000Y1510000D02*
D03*
Y1610000D02*
D03*
X1210000Y1510000D02*
D03*
Y1610000D02*
D03*
X1110000Y1510000D02*
D03*
Y1610000D02*
D03*
X1010000Y1510000D02*
D03*
Y1610000D02*
D03*
X910000Y1510000D02*
D03*
Y1610000D02*
D03*
Y1710000D02*
D03*
X1010000D02*
D03*
X910000Y1810000D02*
D03*
X1010000D02*
D03*
X910000Y1910000D02*
D03*
X1010000D02*
D03*
X910000Y2010000D02*
D03*
X1010000D02*
D03*
Y2610000D02*
D03*
X910000D02*
D03*
X1010000Y2710000D02*
D03*
X910000D02*
D03*
X1010000Y2810000D02*
D03*
X910000D02*
D03*
X1010000Y2910000D02*
D03*
X910000D02*
D03*
Y3010000D02*
D03*
Y3110000D02*
D03*
X1010000Y3010000D02*
D03*
Y3110000D02*
D03*
X1110000Y3010000D02*
D03*
Y3110000D02*
D03*
X1210000Y3010000D02*
D03*
Y3110000D02*
D03*
X1310000Y3010000D02*
D03*
Y3110000D02*
D03*
X1410000Y3010000D02*
D03*
Y3110000D02*
D03*
X1510000Y3010000D02*
D03*
Y3110000D02*
D03*
X1610000Y3010000D02*
D03*
Y3110000D02*
D03*
X1710000Y3010000D02*
D03*
Y3110000D02*
D03*
X1810000Y3010000D02*
D03*
Y3110000D02*
D03*
X1910000Y3010000D02*
D03*
Y3110000D02*
D03*
X2010000Y3010000D02*
D03*
Y3110000D02*
D03*
X2110000Y3010000D02*
D03*
Y3110000D02*
D03*
X2210000Y3010000D02*
D03*
Y3110000D02*
D03*
X2310000Y3010000D02*
D03*
Y3110000D02*
D03*
X2410000Y3010000D02*
D03*
Y3110000D02*
D03*
X2750000Y1275000D02*
D03*
X2650000D02*
D03*
X2550000D02*
D03*
X690000Y2555000D02*
D03*
Y2655000D02*
D03*
Y2755000D02*
D03*
Y2855000D02*
D03*
Y2955000D02*
D03*
Y3055000D02*
D03*
Y3155000D02*
D03*
X3010000Y2060000D02*
D03*
Y2160000D02*
D03*
Y2260000D02*
D03*
Y2360000D02*
D03*
Y2460000D02*
D03*
Y2560000D02*
D03*
Y2660000D02*
D03*
Y2760000D02*
D03*
D31*
X390827Y1644999D02*
D03*
X2710000Y3010000D02*
D03*
X2810000D02*
D03*
D32*
X225000Y3680000D02*
D03*
X725000D02*
D03*
X625000D02*
D03*
X425000D02*
D03*
X325000D02*
D03*
X968334D02*
D03*
X1468334D02*
D03*
X1368334D02*
D03*
X1168334D02*
D03*
X1068334D02*
D03*
X1711666D02*
D03*
X2211666D02*
D03*
X2111666D02*
D03*
X1911666D02*
D03*
X1811666D02*
D03*
X2455000D02*
D03*
X2955000D02*
D03*
X2855000D02*
D03*
X2655000D02*
D03*
X2555000D02*
D03*
X2350000Y410000D02*
D03*
X2250000D02*
D03*
D33*
X525000Y3680000D02*
D03*
X1268334D02*
D03*
X2011666D02*
D03*
X2755000D02*
D03*
X2350000Y110000D02*
D03*
X2250000D02*
D03*
D34*
X2564704Y3346456D02*
D03*
X596200D02*
D03*
X2564704Y393700D02*
D03*
X596200D02*
D03*
D35*
X2925000Y1055000D02*
D03*
Y955000D02*
D03*
Y855000D02*
D03*
Y755000D02*
D03*
Y655000D02*
D03*
Y555000D02*
D03*
D36*
X3025000Y1055000D02*
D03*
Y955000D02*
D03*
Y855000D02*
D03*
Y755000D02*
D03*
Y655000D02*
D03*
Y555000D02*
D03*
X1200000Y1230000D02*
D03*
X1300000D02*
D03*
Y1330000D02*
D03*
X1400000Y1230000D02*
D03*
Y1330000D02*
D03*
X1500000D02*
D03*
Y1230000D02*
D03*
X2055000D02*
D03*
X2155000D02*
D03*
Y1330000D02*
D03*
X2255000Y1230000D02*
D03*
Y1330000D02*
D03*
X2355000D02*
D03*
Y1230000D02*
D03*
D37*
X100000Y785000D02*
D03*
X285040D02*
D03*
X470080D02*
D03*
D38*
X295000Y440000D02*
D03*
Y240000D02*
D03*
D39*
X2775000Y255000D02*
D03*
X2975000D02*
D03*
D40*
X1200000Y1330000D02*
D03*
X2055000D02*
D03*
D41*
X2990617Y1903235D02*
D03*
X2150000Y775000D02*
D03*
X2315000Y3470000D02*
D03*
X1595641Y3681618D02*
D03*
X1035000Y3470000D02*
D03*
X80000Y3050000D02*
D03*
X499993Y2187170D02*
D03*
X1100466Y1073919D02*
D03*
X2990617Y3290000D02*
D03*
X2375000Y2047854D02*
D03*
X1341596D02*
D03*
X2375000Y2900000D02*
D03*
X499993Y3050000D02*
D03*
X880000Y1110000D02*
D03*
X2375000Y2605558D02*
D03*
X1341596Y2187170D02*
D03*
X1065000Y475000D02*
D03*
X2785000Y570000D02*
D03*
X1475000Y2490000D02*
D03*
X1735000Y2570000D02*
D03*
X1555000Y2565000D02*
D03*
X1825000D02*
D03*
X1820000Y2325000D02*
D03*
X1736506Y2321046D02*
D03*
X1625000Y2325104D02*
D03*
X995000Y660000D02*
D03*
%TF.MD5,c7f44275858a6f70425580195d83229c*%
M02*
