G04*
G04 #@! TF.GenerationSoftware,Altium Limited,Altium Designer,22.3.1 (43)*
G04*
G04 Layer_Color=2752767*
%FSLAX25Y25*%
%MOIN*%
G70*
G04*
G04 #@! TF.SameCoordinates,7771213D-0031-41E0-B7F0-5BACD8635ED2*
G04*
G04*
G04 #@! TF.FilePolarity,Positive*
G04*
G01*
G75*
%ADD12C,0.01000*%
%ADD20C,0.00394*%
%ADD21C,0.00100*%
%ADD22C,0.00197*%
%ADD23C,0.00300*%
%ADD101C,0.00200*%
%ADD102C,0.00267*%
D12*
X314500Y374500D02*
G03*
X300500Y389500I-14500J500D01*
G01*
X300000Y0D02*
G03*
X314500Y15000I-250J14750D01*
G01*
X0Y14500D02*
G03*
X14500Y0I14500J0D01*
G01*
X15000Y389500D02*
G03*
X0Y375500I-500J-14500D01*
G01*
X314500Y15000D02*
Y374500D01*
X14500Y0D02*
X300000D01*
X15000Y389500D02*
X300500D01*
X0Y14500D02*
Y375500D01*
D20*
X194968Y63500D02*
G03*
X194968Y63500I-984J0D01*
G01*
X81500Y66572D02*
G03*
X81500Y66572I-984J0D01*
G01*
X171205Y60610D02*
X196795D01*
X171205Y74390D02*
X196795D01*
Y60610D02*
Y74390D01*
X171205Y60610D02*
Y74390D01*
X77705Y63683D02*
X103295D01*
X77705Y77462D02*
X103295D01*
X77705Y63683D02*
Y77462D01*
X103295Y63683D02*
Y77462D01*
X22559Y248594D02*
Y260406D01*
X17441Y248594D02*
Y260406D01*
Y248594D02*
X22559D01*
X17441Y260406D02*
X22559D01*
X170500Y48602D02*
X197500D01*
X170500Y86398D02*
X197500D01*
Y48602D02*
Y86398D01*
X170500Y48602D02*
Y86398D01*
X77000Y51675D02*
X104000D01*
X77000Y89470D02*
X104000D01*
X77000Y51675D02*
Y89470D01*
X104000Y51675D02*
Y89470D01*
X27500Y248201D02*
Y260799D01*
X12500Y248201D02*
Y260799D01*
Y248201D02*
X27500D01*
X12500Y260799D02*
X27500D01*
D21*
X133167Y51500D02*
G03*
X133167Y51500I-500J0D01*
G01*
X99500D02*
G03*
X99500Y51500I-500J0D01*
G01*
X290000Y117500D02*
G03*
X290000Y117500I-500J0D01*
G01*
X206950Y83500D02*
G03*
X206950Y83500I-500J0D01*
G01*
X164050D02*
G03*
X164050Y83500I-500J0D01*
G01*
X116333Y51500D02*
G03*
X116333Y51500I-500J0D01*
G01*
X150000D02*
G03*
X150000Y51500I-500J0D01*
G01*
X295000Y305000D02*
G03*
X295000Y305000I-500J0D01*
G01*
X69000Y86000D02*
G03*
X69000Y86000I-500J0D01*
G01*
X112000D02*
G03*
X112000Y86000I-500J0D01*
G01*
X12000Y117000D02*
G03*
X12000Y117000I-500J0D01*
G01*
X132667Y50713D02*
Y52287D01*
X131879Y51500D02*
X133454D01*
X99000Y50713D02*
Y52287D01*
X98213Y51500D02*
X99787D01*
X288713Y117500D02*
X290287D01*
X289500Y116713D02*
Y118287D01*
X206450Y82713D02*
Y84287D01*
X205663Y83500D02*
X207237D01*
X163550Y82713D02*
Y84287D01*
X162763Y83500D02*
X164337D01*
X115046Y51500D02*
X116621D01*
X115833Y50713D02*
Y52287D01*
X148713Y51500D02*
X150287D01*
X149500Y50713D02*
Y52287D01*
X293713Y305000D02*
X295287D01*
X294500Y304213D02*
Y305787D01*
X68500Y85213D02*
Y86787D01*
X67713Y86000D02*
X69287D01*
X111500Y85213D02*
Y86787D01*
X110713Y86000D02*
X112287D01*
X10713Y117000D02*
X12287D01*
X11500Y116213D02*
Y117787D01*
D22*
X185378Y67500D02*
G03*
X185378Y67500I-1378J0D01*
G01*
X91878Y70572D02*
G03*
X91878Y70572I-1378J0D01*
G01*
X21378Y254500D02*
G03*
X21378Y254500I-1378J0D01*
G01*
X272878Y82500D02*
G03*
X272878Y82500I-1378J0D01*
G01*
X260878D02*
G03*
X260878Y82500I-1378J0D01*
G01*
X248878D02*
G03*
X248878Y82500I-1378J0D01*
G01*
X231378Y26000D02*
G03*
X231378Y26000I-1378J0D01*
G01*
X162172Y60500D02*
G03*
X162172Y60500I-1378J0D01*
G01*
X210584Y59500D02*
G03*
X210584Y59500I-1378J0D01*
G01*
X176378Y60000D02*
G03*
X176378Y60000I-1378J0D01*
G01*
X226378D02*
G03*
X226378Y60000I-1378J0D01*
G01*
X80378Y43000D02*
G03*
X80378Y43000I-1378J0D01*
G01*
X69378Y62966D02*
G03*
X69378Y62966I-1378J0D01*
G01*
X111878D02*
G03*
X111878Y62966I-1378J0D01*
G01*
X288901Y25500D02*
G03*
X288901Y25500I-1378J0D01*
G01*
X30878Y34157D02*
G03*
X30878Y34157I-1378J0D01*
G01*
X236378Y60000D02*
G03*
X236378Y60000I-1378J0D01*
G01*
X200378D02*
G03*
X200378Y60000I-1378J0D01*
G01*
X127878D02*
G03*
X127878Y60000I-1378J0D01*
G01*
X151878D02*
G03*
X151878Y60000I-1378J0D01*
G01*
X184000Y65532D02*
Y69469D01*
X182032Y67500D02*
X185969D01*
X90500Y68604D02*
Y72541D01*
X88532Y70572D02*
X92469D01*
X20000Y252532D02*
Y256469D01*
X18031Y254500D02*
X21968D01*
X269531Y82500D02*
X273468D01*
X271500Y80532D02*
Y84469D01*
X257532Y82500D02*
X261469D01*
X259500Y80532D02*
Y84469D01*
X247500Y80532D02*
Y84469D01*
X245532Y82500D02*
X249469D01*
X228032Y26000D02*
X231969D01*
X230000Y24032D02*
Y27969D01*
X160794Y58532D02*
Y62469D01*
X158825Y60500D02*
X162762D01*
X209206Y57532D02*
Y61469D01*
X207238Y59500D02*
X211175D01*
X175000Y58032D02*
Y61969D01*
X173032Y60000D02*
X176969D01*
X225000Y58032D02*
Y61969D01*
X223032Y60000D02*
X226969D01*
X79000Y41032D02*
Y44969D01*
X77032Y43000D02*
X80969D01*
X68000Y60998D02*
Y64935D01*
X66032Y62966D02*
X69969D01*
X110500Y60998D02*
Y64935D01*
X108532Y62966D02*
X112469D01*
X285555Y25500D02*
X289492D01*
X287523Y23532D02*
Y27469D01*
X29500Y32189D02*
Y36126D01*
X27532Y34157D02*
X31469D01*
X235000Y58032D02*
Y61969D01*
X233032Y60000D02*
X236969D01*
X199000Y58032D02*
Y61969D01*
X197032Y60000D02*
X200969D01*
X126500Y58032D02*
Y61969D01*
X124532Y60000D02*
X128469D01*
X150500Y58032D02*
Y61969D01*
X148532Y60000D02*
X152469D01*
D23*
X15500Y49500D02*
Y51500D01*
X14500Y50500D02*
X16500D01*
D101*
X300200Y143200D02*
Y144800D01*
X301800D01*
Y143200D01*
X300200D01*
Y153200D02*
Y154800D01*
X301800D01*
Y153200D01*
X300200D01*
Y163200D02*
Y164800D01*
X301800D01*
Y163200D01*
X300200D01*
Y173200D02*
Y174800D01*
X301800D01*
Y173200D01*
X300200D01*
X68200Y126700D02*
Y128300D01*
X69800D01*
Y126700D01*
X68200D01*
Y136700D02*
Y138300D01*
X69800D01*
Y136700D01*
X68200D01*
Y146700D02*
Y148300D01*
X69800D01*
Y146700D01*
X68200D01*
Y156700D02*
Y158300D01*
X69800D01*
Y156700D01*
X68200D01*
Y166700D02*
Y168300D01*
X69800D01*
Y166700D01*
X68200D01*
Y176700D02*
Y178300D01*
X69800D01*
Y176700D01*
X68200D01*
Y186700D02*
Y188300D01*
X69800D01*
Y186700D01*
X68200D01*
Y196700D02*
Y198300D01*
X69800D01*
Y196700D01*
X68200D01*
X270200Y160200D02*
Y161800D01*
X271800D01*
Y160200D01*
X270200D01*
Y150200D02*
Y151800D01*
X271800D01*
Y150200D01*
X270200D01*
X280200Y160200D02*
Y161800D01*
X281800D01*
Y160200D01*
X280200D01*
Y150200D02*
Y151800D01*
X281800D01*
Y150200D01*
X280200D01*
X270200Y170200D02*
Y171800D01*
X271800D01*
Y170200D01*
X270200D01*
X280200D02*
Y171800D01*
X281800D01*
Y170200D01*
X280200D01*
X270200Y180200D02*
Y181800D01*
X271800D01*
Y180200D01*
X270200D01*
X280200D02*
Y181800D01*
X281800D01*
Y180200D01*
X280200D01*
X270200Y190200D02*
Y191800D01*
X271800D01*
Y190200D01*
X270200D01*
X280200D02*
Y191800D01*
X281800D01*
Y190200D01*
X280200D01*
X270200Y200200D02*
Y201800D01*
X271800D01*
Y200200D01*
X270200D01*
X280200D02*
Y201800D01*
X281800D01*
Y200200D01*
X280200D01*
X270200Y210200D02*
Y211800D01*
X271800D01*
Y210200D01*
X270200D01*
X280200D02*
Y211800D01*
X281800D01*
Y210200D01*
X280200D01*
X270200Y220200D02*
Y221800D01*
X271800D01*
Y220200D01*
X270200D01*
X280200D02*
Y221800D01*
X281800D01*
Y220200D01*
X280200D01*
X270200Y230200D02*
Y231800D01*
X271800D01*
Y230200D01*
X270200D01*
X280200D02*
Y231800D01*
X281800D01*
Y230200D01*
X280200D01*
X270200Y240200D02*
Y241800D01*
X271800D01*
Y240200D01*
X270200D01*
X280200D02*
Y241800D01*
X281800D01*
Y240200D01*
X280200D01*
X270200Y250200D02*
Y251800D01*
X271800D01*
Y250200D01*
X270200D01*
X280200D02*
Y251800D01*
X281800D01*
Y250200D01*
X280200D01*
X270200Y260200D02*
Y261800D01*
X271800D01*
Y260200D01*
X270200D01*
X280200D02*
Y261800D01*
X281800D01*
Y260200D01*
X280200D01*
X270200Y270200D02*
Y271800D01*
X271800D01*
Y270200D01*
X270200D01*
X280200D02*
Y271800D01*
X281800D01*
Y270200D01*
X280200D01*
X270200Y280200D02*
Y281800D01*
X271800D01*
Y280200D01*
X270200D01*
X280200D02*
Y281800D01*
X281800D01*
Y280200D01*
X280200D01*
X270200Y290200D02*
Y291800D01*
X271800D01*
Y290200D01*
X270200D01*
X280200D02*
Y291800D01*
X281800D01*
Y290200D01*
X280200D01*
X260200Y150200D02*
Y151800D01*
X261800D01*
Y150200D01*
X260200D01*
Y160200D02*
Y161800D01*
X261800D01*
Y160200D01*
X260200D01*
X250200Y150200D02*
Y151800D01*
X251800D01*
Y150200D01*
X250200D01*
Y160200D02*
Y161800D01*
X251800D01*
Y160200D01*
X250200D01*
X240200Y150200D02*
Y151800D01*
X241800D01*
Y150200D01*
X240200D01*
Y160200D02*
Y161800D01*
X241800D01*
Y160200D01*
X240200D01*
X230200Y150200D02*
Y151800D01*
X231800D01*
Y150200D01*
X230200D01*
Y160200D02*
Y161800D01*
X231800D01*
Y160200D01*
X230200D01*
X220200Y150200D02*
Y151800D01*
X221800D01*
Y150200D01*
X220200D01*
Y160200D02*
Y161800D01*
X221800D01*
Y160200D01*
X220200D01*
X210200Y150200D02*
Y151800D01*
X211800D01*
Y150200D01*
X210200D01*
Y160200D02*
Y161800D01*
X211800D01*
Y160200D01*
X210200D01*
X200200Y150200D02*
Y151800D01*
X201800D01*
Y150200D01*
X200200D01*
Y160200D02*
Y161800D01*
X201800D01*
Y160200D01*
X200200D01*
X190200Y150200D02*
Y151800D01*
X191800D01*
Y150200D01*
X190200D01*
Y160200D02*
Y161800D01*
X191800D01*
Y160200D01*
X190200D01*
X180200Y150200D02*
Y151800D01*
X181800D01*
Y150200D01*
X180200D01*
Y160200D02*
Y161800D01*
X181800D01*
Y160200D01*
X180200D01*
X170200Y150200D02*
Y151800D01*
X171800D01*
Y150200D01*
X170200D01*
Y160200D02*
Y161800D01*
X171800D01*
Y160200D01*
X170200D01*
X250200Y300200D02*
Y301800D01*
X251800D01*
Y300200D01*
X250200D01*
Y310200D02*
Y311800D01*
X251800D01*
Y310200D01*
X250200D01*
X260200Y300200D02*
Y301800D01*
X261800D01*
Y300200D01*
X260200D01*
Y310200D02*
Y311800D01*
X261800D01*
Y310200D01*
X260200D01*
X270200Y300200D02*
Y301800D01*
X271800D01*
Y300200D01*
X270200D01*
X280200D02*
Y301800D01*
X281800D01*
Y300200D01*
X280200D01*
X270200Y310200D02*
Y311800D01*
X271800D01*
Y310200D01*
X270200D01*
X280200D02*
Y311800D01*
X281800D01*
Y310200D01*
X280200D01*
X160200Y150200D02*
Y151800D01*
X161800D01*
Y150200D01*
X160200D01*
Y160200D02*
Y161800D01*
X161800D01*
Y160200D01*
X160200D01*
X150200Y150200D02*
Y151800D01*
X151800D01*
Y150200D01*
X150200D01*
Y160200D02*
Y161800D01*
X151800D01*
Y160200D01*
X150200D01*
X140200Y150200D02*
Y151800D01*
X141800D01*
Y150200D01*
X140200D01*
Y160200D02*
Y161800D01*
X141800D01*
Y160200D01*
X140200D01*
X130200Y150200D02*
Y151800D01*
X131800D01*
Y150200D01*
X130200D01*
Y160200D02*
Y161800D01*
X131800D01*
Y160200D01*
X130200D01*
X120200Y150200D02*
Y151800D01*
X121800D01*
Y150200D01*
X120200D01*
Y160200D02*
Y161800D01*
X121800D01*
Y160200D01*
X120200D01*
X110200Y150200D02*
Y151800D01*
X111800D01*
Y150200D01*
X110200D01*
Y160200D02*
Y161800D01*
X111800D01*
Y160200D01*
X110200D01*
X100200Y150200D02*
Y151800D01*
X101800D01*
Y150200D01*
X100200D01*
Y160200D02*
Y161800D01*
X101800D01*
Y160200D01*
X100200D01*
X90200Y150200D02*
Y151800D01*
X91800D01*
Y150200D01*
X90200D01*
Y160200D02*
Y161800D01*
X91800D01*
Y160200D01*
X90200D01*
Y170200D02*
Y171800D01*
X91800D01*
Y170200D01*
X90200D01*
X100200D02*
Y171800D01*
X101800D01*
Y170200D01*
X100200D01*
X90200Y180200D02*
Y181800D01*
X91800D01*
Y180200D01*
X90200D01*
X100200D02*
Y181800D01*
X101800D01*
Y180200D01*
X100200D01*
X90200Y190200D02*
Y191800D01*
X91800D01*
Y190200D01*
X90200D01*
X100200D02*
Y191800D01*
X101800D01*
Y190200D01*
X100200D01*
X90200Y200200D02*
Y201800D01*
X91800D01*
Y200200D01*
X90200D01*
X100200D02*
Y201800D01*
X101800D01*
Y200200D01*
X100200D01*
Y260200D02*
Y261800D01*
X101800D01*
Y260200D01*
X100200D01*
X90200D02*
Y261800D01*
X91800D01*
Y260200D01*
X90200D01*
X100200Y270200D02*
Y271800D01*
X101800D01*
Y270200D01*
X100200D01*
X90200D02*
Y271800D01*
X91800D01*
Y270200D01*
X90200D01*
X100200Y280200D02*
Y281800D01*
X101800D01*
Y280200D01*
X100200D01*
X90200D02*
Y281800D01*
X91800D01*
Y280200D01*
X90200D01*
X100200Y290200D02*
Y291800D01*
X101800D01*
Y290200D01*
X100200D01*
X90200D02*
Y291800D01*
X91800D01*
Y290200D01*
X90200D01*
Y300200D02*
Y301800D01*
X91800D01*
Y300200D01*
X90200D01*
Y310200D02*
Y311800D01*
X91800D01*
Y310200D01*
X90200D01*
X100200Y300200D02*
Y301800D01*
X101800D01*
Y300200D01*
X100200D01*
Y310200D02*
Y311800D01*
X101800D01*
Y310200D01*
X100200D01*
X110200Y300200D02*
Y301800D01*
X111800D01*
Y300200D01*
X110200D01*
Y310200D02*
Y311800D01*
X111800D01*
Y310200D01*
X110200D01*
X120200Y300200D02*
Y301800D01*
X121800D01*
Y300200D01*
X120200D01*
Y310200D02*
Y311800D01*
X121800D01*
Y310200D01*
X120200D01*
X130200Y300200D02*
Y301800D01*
X131800D01*
Y300200D01*
X130200D01*
Y310200D02*
Y311800D01*
X131800D01*
Y310200D01*
X130200D01*
X140200Y300200D02*
Y301800D01*
X141800D01*
Y300200D01*
X140200D01*
Y310200D02*
Y311800D01*
X141800D01*
Y310200D01*
X140200D01*
X150200Y300200D02*
Y301800D01*
X151800D01*
Y300200D01*
X150200D01*
Y310200D02*
Y311800D01*
X151800D01*
Y310200D01*
X150200D01*
X160200Y300200D02*
Y301800D01*
X161800D01*
Y300200D01*
X160200D01*
Y310200D02*
Y311800D01*
X161800D01*
Y310200D01*
X160200D01*
X170200Y300200D02*
Y301800D01*
X171800D01*
Y300200D01*
X170200D01*
Y310200D02*
Y311800D01*
X171800D01*
Y310200D01*
X170200D01*
X180200Y300200D02*
Y301800D01*
X181800D01*
Y300200D01*
X180200D01*
Y310200D02*
Y311800D01*
X181800D01*
Y310200D01*
X180200D01*
X190200Y300200D02*
Y301800D01*
X191800D01*
Y300200D01*
X190200D01*
Y310200D02*
Y311800D01*
X191800D01*
Y310200D01*
X190200D01*
X200200Y300200D02*
Y301800D01*
X201800D01*
Y300200D01*
X200200D01*
Y310200D02*
Y311800D01*
X201800D01*
Y310200D01*
X200200D01*
X210200Y300200D02*
Y301800D01*
X211800D01*
Y300200D01*
X210200D01*
Y310200D02*
Y311800D01*
X211800D01*
Y310200D01*
X210200D01*
X220200Y300200D02*
Y301800D01*
X221800D01*
Y300200D01*
X220200D01*
Y310200D02*
Y311800D01*
X221800D01*
Y310200D01*
X220200D01*
X230200Y300200D02*
Y301800D01*
X231800D01*
Y300200D01*
X230200D01*
Y310200D02*
Y311800D01*
X231800D01*
Y310200D01*
X230200D01*
X240200Y300200D02*
Y301800D01*
X241800D01*
Y300200D01*
X240200D01*
Y310200D02*
Y311800D01*
X241800D01*
Y310200D01*
X240200D01*
X21700Y367200D02*
Y368800D01*
X23300D01*
Y367200D01*
X21700D01*
X71700D02*
Y368800D01*
X73300D01*
Y367200D01*
X71700D01*
X61700D02*
Y368800D01*
X63300D01*
Y367200D01*
X61700D01*
X51700D02*
Y368800D01*
X53300D01*
Y367200D01*
X51700D01*
X41700D02*
Y368800D01*
X43300D01*
Y367200D01*
X41700D01*
X31700D02*
Y368800D01*
X33300D01*
Y367200D01*
X31700D01*
X96033D02*
Y368800D01*
X97633D01*
Y367200D01*
X96033D01*
X146033D02*
Y368800D01*
X147633D01*
Y367200D01*
X146033D01*
X136033D02*
Y368800D01*
X137633D01*
Y367200D01*
X136033D01*
X126033D02*
Y368800D01*
X127633D01*
Y367200D01*
X126033D01*
X116033D02*
Y368800D01*
X117633D01*
Y367200D01*
X116033D01*
X106033D02*
Y368800D01*
X107633D01*
Y367200D01*
X106033D01*
X170367D02*
Y368800D01*
X171967D01*
Y367200D01*
X170367D01*
X220367D02*
Y368800D01*
X221967D01*
Y367200D01*
X220367D01*
X210367D02*
Y368800D01*
X211967D01*
Y367200D01*
X210367D01*
X200367D02*
Y368800D01*
X201967D01*
Y367200D01*
X200367D01*
X190367D02*
Y368800D01*
X191967D01*
Y367200D01*
X190367D01*
X180367D02*
Y368800D01*
X181967D01*
Y367200D01*
X180367D01*
X244700D02*
Y368800D01*
X246300D01*
Y367200D01*
X244700D01*
X294700D02*
Y368800D01*
X296300D01*
Y367200D01*
X294700D01*
X284700D02*
Y368800D01*
X286300D01*
Y367200D01*
X284700D01*
X274700D02*
Y368800D01*
X276300D01*
Y367200D01*
X274700D01*
X264700D02*
Y368800D01*
X266300D01*
Y367200D01*
X264700D01*
X254700D02*
Y368800D01*
X256300D01*
Y367200D01*
X254700D01*
X274200Y126700D02*
Y128300D01*
X275800D01*
Y126700D01*
X274200D01*
X264200D02*
Y128300D01*
X265800D01*
Y126700D01*
X264200D01*
X254200D02*
Y128300D01*
X255800D01*
Y126700D01*
X254200D01*
X68200Y244700D02*
Y246300D01*
X69800D01*
Y244700D01*
X68200D01*
Y254700D02*
Y256300D01*
X69800D01*
Y254700D01*
X68200D01*
Y264700D02*
Y266300D01*
X69800D01*
Y264700D01*
X68200D01*
Y274700D02*
Y276300D01*
X69800D01*
Y274700D01*
X68200D01*
Y284700D02*
Y286300D01*
X69800D01*
Y284700D01*
X68200D01*
Y294700D02*
Y296300D01*
X69800D01*
Y294700D01*
X68200D01*
Y304700D02*
Y306300D01*
X69800D01*
Y304700D01*
X68200D01*
Y314700D02*
Y316300D01*
X69800D01*
Y314700D01*
X68200D01*
X300200Y205200D02*
Y206800D01*
X301800D01*
Y205200D01*
X300200D01*
Y215200D02*
Y216800D01*
X301800D01*
Y215200D01*
X300200D01*
Y225200D02*
Y226800D01*
X301800D01*
Y225200D01*
X300200D01*
Y235200D02*
Y236800D01*
X301800D01*
Y235200D01*
X300200D01*
Y245200D02*
Y246800D01*
X301800D01*
Y245200D01*
X300200D01*
Y255200D02*
Y256800D01*
X301800D01*
Y255200D01*
X300200D01*
Y265200D02*
Y266800D01*
X301800D01*
Y265200D01*
X300200D01*
Y275200D02*
Y276800D01*
X301800D01*
Y275200D01*
X300200D01*
X256470Y333846D02*
X255670Y335446D01*
X257270D01*
X256470Y333846D01*
X59620D02*
X58820Y335446D01*
X60420D01*
X59620Y333846D01*
X291700Y104700D02*
Y106300D01*
X293300D01*
Y104700D01*
X291700D01*
X301700D02*
Y106300D01*
X303300D01*
Y104700D01*
X301700D01*
X291700Y94700D02*
Y96300D01*
X293300D01*
Y94700D01*
X291700D01*
X301700D02*
Y96300D01*
X303300D01*
Y94700D01*
X301700D01*
X291700Y84700D02*
Y86300D01*
X293300D01*
Y84700D01*
X291700D01*
X301700D02*
Y86300D01*
X303300D01*
Y84700D01*
X301700D01*
X291700Y74700D02*
Y76300D01*
X293300D01*
Y74700D01*
X291700D01*
X301700D02*
Y76300D01*
X303300D01*
Y74700D01*
X301700D01*
X291700Y64700D02*
Y66300D01*
X293300D01*
Y64700D01*
X291700D01*
X301700D02*
Y66300D01*
X303300D01*
Y64700D01*
X301700D01*
X291700Y54700D02*
Y56300D01*
X293300D01*
Y54700D01*
X291700D01*
X301700D02*
Y56300D01*
X303300D01*
Y54700D01*
X301700D01*
X234200Y40200D02*
Y41800D01*
X235800D01*
Y40200D01*
X234200D01*
X224200D02*
Y41800D01*
X225800D01*
Y40200D01*
X224200D01*
X234200Y10200D02*
Y11800D01*
X235800D01*
Y10200D01*
X234200D01*
X224200D02*
Y11800D01*
X225800D01*
Y10200D01*
X224200D01*
X10000Y77700D02*
X10400Y78100D01*
X10800D01*
X10400Y78500D01*
X10800Y78900D01*
X10400D01*
X10000Y79300D01*
X9600Y78900D01*
X9200D01*
X9600Y78500D01*
X9200Y78100D01*
X9600D01*
X10000Y77700D01*
X28504D02*
X28904Y78100D01*
X29304D01*
X28904Y78500D01*
X29304Y78900D01*
X28904D01*
X28504Y79300D01*
X28104Y78900D01*
X27704D01*
X28104Y78500D01*
X27704Y78100D01*
X28104D01*
X28504Y77700D01*
X47008D02*
X47408Y78100D01*
X47808D01*
X47408Y78500D01*
X47808Y78900D01*
X47408D01*
X47008Y79300D01*
X46608Y78900D01*
X46208D01*
X46608Y78500D01*
X46208Y78100D01*
X46608D01*
X47008Y77700D01*
X256470Y38570D02*
X255670Y40170D01*
X257270D01*
X256470Y38570D01*
X59620D02*
X58820Y40170D01*
X60420D01*
X59620Y38570D01*
X28700Y43200D02*
X29100Y44000D01*
X28700Y44800D01*
X29500Y44400D01*
X30300Y44800D01*
X29900Y44000D01*
X30300Y43200D01*
X29500Y43600D01*
X28700Y43200D01*
Y23200D02*
X29100Y24000D01*
X28700Y24800D01*
X29500Y24400D01*
X30300Y24800D01*
X29900Y24000D01*
X30300Y23200D01*
X29500Y23600D01*
X28700Y23200D01*
X277100Y25100D02*
Y24700D01*
X277900D01*
Y25100D01*
X278300D01*
Y25900D01*
X277900D01*
Y26300D01*
X277100D01*
Y25900D01*
X276700D01*
Y25100D01*
X277100D01*
X297100D02*
Y24700D01*
X297900D01*
Y25100D01*
X298300D01*
Y25900D01*
X297900D01*
Y26300D01*
X297100D01*
Y25900D01*
X296700D01*
Y25100D01*
X297100D01*
X119200Y122200D02*
Y123800D01*
X120800D01*
Y122200D01*
X119200D01*
Y132200D02*
Y133800D01*
X120800D01*
Y132200D01*
X119200D01*
X129200Y122200D02*
Y123800D01*
X130800D01*
Y122200D01*
X129200D01*
Y132200D02*
Y133800D01*
X130800D01*
Y132200D01*
X129200D01*
X139200Y122200D02*
Y123800D01*
X140800D01*
Y122200D01*
X139200D01*
Y132200D02*
Y133800D01*
X140800D01*
Y132200D01*
X139200D01*
X149200D02*
Y133800D01*
X150800D01*
Y132200D01*
X149200D01*
Y122200D02*
Y123800D01*
X150800D01*
Y122200D01*
X149200D01*
X204700D02*
Y123800D01*
X206300D01*
Y122200D01*
X204700D01*
Y132200D02*
Y133800D01*
X206300D01*
Y132200D01*
X204700D01*
X214700Y122200D02*
Y123800D01*
X216300D01*
Y122200D01*
X214700D01*
Y132200D02*
Y133800D01*
X216300D01*
Y132200D01*
X214700D01*
X224700Y122200D02*
Y123800D01*
X226300D01*
Y122200D01*
X224700D01*
Y132200D02*
Y133800D01*
X226300D01*
Y132200D01*
X224700D01*
X234700D02*
Y133800D01*
X236300D01*
Y132200D01*
X234700D01*
Y122200D02*
Y123800D01*
X236300D01*
Y122200D01*
X234700D01*
X298262Y189523D02*
X298662D01*
X299062Y189924D01*
X299462Y189523D01*
X299862D01*
Y189924D01*
X299462Y190323D01*
X299862Y190724D01*
Y191123D01*
X299462D01*
X299062Y190724D01*
X298662Y191123D01*
X298262D01*
Y190724D01*
X298662Y190323D01*
X298262Y189924D01*
Y189523D01*
X214200Y76700D02*
X214600D01*
X215000Y77100D01*
X215400Y76700D01*
X215800D01*
Y77100D01*
X215400Y77500D01*
X215800Y77900D01*
Y78300D01*
X215400D01*
X215000Y77900D01*
X214600Y78300D01*
X214200D01*
Y77900D01*
X214600Y77500D01*
X214200Y77100D01*
Y76700D01*
X230700Y346200D02*
X231100D01*
X231500Y346600D01*
X231900Y346200D01*
X232300D01*
Y346600D01*
X231900Y347000D01*
X232300Y347400D01*
Y347800D01*
X231900D01*
X231500Y347400D01*
X231100Y347800D01*
X230700D01*
Y347400D01*
X231100Y347000D01*
X230700Y346600D01*
Y346200D01*
X158764Y367362D02*
X159164D01*
X159564Y367762D01*
X159964Y367362D01*
X160364D01*
Y367762D01*
X159964Y368162D01*
X160364Y368562D01*
Y368962D01*
X159964D01*
X159564Y368562D01*
X159164Y368962D01*
X158764D01*
Y368562D01*
X159164Y368162D01*
X158764Y367762D01*
Y367362D01*
X102700Y346200D02*
X103100D01*
X103500Y346600D01*
X103900Y346200D01*
X104300D01*
Y346600D01*
X103900Y347000D01*
X104300Y347400D01*
Y347800D01*
X103900D01*
X103500Y347400D01*
X103100Y347800D01*
X102700D01*
Y347400D01*
X103100Y347000D01*
X102700Y346600D01*
Y346200D01*
X7200Y304200D02*
X7600D01*
X8000Y304600D01*
X8400Y304200D01*
X8800D01*
Y304600D01*
X8400Y305000D01*
X8800Y305400D01*
Y305800D01*
X8400D01*
X8000Y305400D01*
X7600Y305800D01*
X7200D01*
Y305400D01*
X7600Y305000D01*
X7200Y304600D01*
Y304200D01*
X49199Y217917D02*
X49599D01*
X49999Y218317D01*
X50399Y217917D01*
X50799D01*
Y218317D01*
X50399Y218717D01*
X50799Y219117D01*
Y219517D01*
X50399D01*
X49999Y219117D01*
X49599Y219517D01*
X49199D01*
Y219117D01*
X49599Y218717D01*
X49199Y218317D01*
Y217917D01*
X109247Y106592D02*
X109647D01*
X110047Y106992D01*
X110447Y106592D01*
X110847D01*
Y106992D01*
X110447Y107392D01*
X110847Y107792D01*
Y108192D01*
X110447D01*
X110047Y107792D01*
X109647Y108192D01*
X109247D01*
Y107792D01*
X109647Y107392D01*
X109247Y106992D01*
Y106592D01*
X298262Y328200D02*
X298662D01*
X299062Y328600D01*
X299462Y328200D01*
X299862D01*
Y328600D01*
X299462Y329000D01*
X299862Y329400D01*
Y329800D01*
X299462D01*
X299062Y329400D01*
X298662Y329800D01*
X298262D01*
Y329400D01*
X298662Y329000D01*
X298262Y328600D01*
Y328200D01*
X236700Y203985D02*
X237100D01*
X237500Y204385D01*
X237900Y203985D01*
X238300D01*
Y204385D01*
X237900Y204785D01*
X238300Y205185D01*
Y205585D01*
X237900D01*
X237500Y205185D01*
X237100Y205585D01*
X236700D01*
Y205185D01*
X237100Y204785D01*
X236700Y204385D01*
Y203985D01*
X133360D02*
X133760D01*
X134160Y204385D01*
X134560Y203985D01*
X134960D01*
Y204385D01*
X134560Y204785D01*
X134960Y205185D01*
Y205585D01*
X134560D01*
X134160Y205185D01*
X133760Y205585D01*
X133360D01*
Y205185D01*
X133760Y204785D01*
X133360Y204385D01*
Y203985D01*
X236700Y289200D02*
X237100D01*
X237500Y289600D01*
X237900Y289200D01*
X238300D01*
Y289600D01*
X237900Y290000D01*
X238300Y290400D01*
Y290800D01*
X237900D01*
X237500Y290400D01*
X237100Y290800D01*
X236700D01*
Y290400D01*
X237100Y290000D01*
X236700Y289600D01*
Y289200D01*
X49199Y304200D02*
X49599D01*
X49999Y304600D01*
X50399Y304200D01*
X50799D01*
Y304600D01*
X50399Y305000D01*
X50799Y305400D01*
Y305800D01*
X50399D01*
X49999Y305400D01*
X49599Y305800D01*
X49199D01*
Y305400D01*
X49599Y305000D01*
X49199Y304600D01*
Y304200D01*
X87200Y110200D02*
X87600D01*
X88000Y110600D01*
X88400Y110200D01*
X88800D01*
Y110600D01*
X88400Y111000D01*
X88800Y111400D01*
Y111800D01*
X88400D01*
X88000Y111400D01*
X87600Y111800D01*
X87200D01*
Y111400D01*
X87600Y111000D01*
X87200Y110600D01*
Y110200D01*
X236700Y259756D02*
X237100D01*
X237500Y260156D01*
X237900Y259756D01*
X238300D01*
Y260156D01*
X237900Y260556D01*
X238300Y260956D01*
Y261356D01*
X237900D01*
X237500Y260956D01*
X237100Y261356D01*
X236700D01*
Y260956D01*
X237100Y260556D01*
X236700Y260156D01*
Y259756D01*
X133360Y217917D02*
X133760D01*
X134160Y218317D01*
X134560Y217917D01*
X134960D01*
Y218317D01*
X134560Y218717D01*
X134960Y219117D01*
Y219517D01*
X134560D01*
X134160Y219117D01*
X133760Y219517D01*
X133360D01*
Y219117D01*
X133760Y218717D01*
X133360Y218317D01*
Y217917D01*
X105700Y46700D02*
X106100D01*
X106500Y47100D01*
X106900Y46700D01*
X107300D01*
Y47100D01*
X106900Y47500D01*
X107300Y47900D01*
Y48300D01*
X106900D01*
X106500Y47900D01*
X106100Y48300D01*
X105700D01*
Y47900D01*
X106100Y47500D01*
X105700Y47100D01*
Y46700D01*
X277700Y56200D02*
X278100D01*
X278500Y56600D01*
X278900Y56200D01*
X279300D01*
Y56600D01*
X278900Y57000D01*
X279300Y57400D01*
Y57800D01*
X278900D01*
X278500Y57400D01*
X278100Y57800D01*
X277700D01*
Y57400D01*
X278100Y57000D01*
X277700Y56600D01*
Y56200D01*
X146700Y248200D02*
X147100D01*
X147500Y248600D01*
X147900Y248200D01*
X148300D01*
Y248600D01*
X147900Y249000D01*
X148300Y249400D01*
Y249800D01*
X147900D01*
X147500Y249400D01*
X147100Y249800D01*
X146700D01*
Y249400D01*
X147100Y249000D01*
X146700Y248600D01*
Y248200D01*
X172700Y256200D02*
X173100D01*
X173500Y256600D01*
X173900Y256200D01*
X174300D01*
Y256600D01*
X173900Y257000D01*
X174300Y257400D01*
Y257800D01*
X173900D01*
X173500Y257400D01*
X173100Y257800D01*
X172700D01*
Y257400D01*
X173100Y257000D01*
X172700Y256600D01*
Y256200D01*
X154700Y255700D02*
X155100D01*
X155500Y256100D01*
X155900Y255700D01*
X156300D01*
Y256100D01*
X155900Y256500D01*
X156300Y256900D01*
Y257300D01*
X155900D01*
X155500Y256900D01*
X155100Y257300D01*
X154700D01*
Y256900D01*
X155100Y256500D01*
X154700Y256100D01*
Y255700D01*
X181700D02*
X182100D01*
X182500Y256100D01*
X182900Y255700D01*
X183300D01*
Y256100D01*
X182900Y256500D01*
X183300Y256900D01*
Y257300D01*
X182900D01*
X182500Y256900D01*
X182100Y257300D01*
X181700D01*
Y256900D01*
X182100Y256500D01*
X181700Y256100D01*
Y255700D01*
X181200Y231700D02*
X181600D01*
X182000Y232100D01*
X182400Y231700D01*
X182800D01*
Y232100D01*
X182400Y232500D01*
X182800Y232900D01*
Y233300D01*
X182400D01*
X182000Y232900D01*
X181600Y233300D01*
X181200D01*
Y232900D01*
X181600Y232500D01*
X181200Y232100D01*
Y231700D01*
X172851Y231305D02*
X173251D01*
X173651Y231705D01*
X174051Y231305D01*
X174451D01*
Y231705D01*
X174051Y232105D01*
X174451Y232505D01*
Y232905D01*
X174051D01*
X173651Y232505D01*
X173251Y232905D01*
X172851D01*
Y232505D01*
X173251Y232105D01*
X172851Y231705D01*
Y231305D01*
X161700Y231710D02*
X162100D01*
X162500Y232110D01*
X162900Y231710D01*
X163300D01*
Y232110D01*
X162900Y232510D01*
X163300Y232910D01*
Y233310D01*
X162900D01*
X162500Y232910D01*
X162100Y233310D01*
X161700D01*
Y232910D01*
X162100Y232510D01*
X161700Y232110D01*
Y231710D01*
X98700Y65200D02*
X99100D01*
X99500Y65600D01*
X99900Y65200D01*
X100300D01*
Y65600D01*
X99900Y66000D01*
X100300Y66400D01*
Y66800D01*
X99900D01*
X99500Y66400D01*
X99100Y66800D01*
X98700D01*
Y66400D01*
X99100Y66000D01*
X98700Y65600D01*
Y65200D01*
D102*
X9962Y164500D02*
G03*
X9962Y164500I-800J0D01*
G01*
X39883D02*
G03*
X39883Y164500I-800J0D01*
G01*
M02*
